<svg xmlns="http://www.w3.org/2000/svg" viewBox="0 0 5.84 8.84"><defs><style>.cls-1{fill:#231f20;}</style></defs><g id="Layer_2" data-name="Layer 2"><g id="Layer_1-2" data-name="Layer 1"><path class="cls-1" d="M.12,5.78a.12.12,0,0,1,0-.24.12.12,0,0,1,0,.24ZM.17,5.3a.12.12,0,0,1,0-.24.12.12,0,0,1,0,.24ZM.17,6a.12.12,0,1,1,0,.24A.12.12,0,0,1,.17,6ZM.26,4.86a.12.12,0,0,1,0-.24.12.12,0,0,1,0,.24Zm0,1.6a.12.12,0,0,1,0,.24.12.12,0,0,1,0-.24Zm.18-2a.12.12,0,1,1,0-.24.12.12,0,1,1,0,.24Zm0,2.48a.12.12,0,1,1,0,.24.12.12,0,0,1,0-.24ZM.61,5.78a.12.12,0,0,1,0-.24.12.12,0,0,1,0,.24ZM.7,4a.12.12,0,0,1,0-.24A.12.12,0,0,1,.7,4Zm0,3.32a.12.12,0,1,1,0,.24.12.12,0,1,1,0-.24ZM1,3.59a.12.12,0,1,1,0-.24.12.12,0,0,1,0,.24ZM1,7.73A.12.12,0,1,1,1,8a.12.12,0,1,1,0-.24ZM1.1,5.78a.12.12,0,0,1,0-.24.12.12,0,0,1,0,.24Zm.32-2.53a.12.12,0,1,1,0-.24.12.12,0,0,1,0,.24Zm0,4.81a.12.12,0,1,1,0,.24.12.12,0,1,1,0-.24Zm.21-2.28a.12.12,0,0,1,0-.24.12.12,0,0,1,0,.24ZM1.88,3a.11.11,0,0,1-.12-.12.11.11,0,0,1,.12-.12A.11.11,0,0,1,2,2.86.11.11,0,0,1,1.88,3Zm0,5.36a.12.12,0,0,1,0,.24.12.12,0,1,1,0-.24Zm.29-2.56a.12.12,0,1,1,0-.24.12.12,0,1,1,0,.24Zm.18,2.74a.12.12,0,1,1,0,.24.12.12,0,1,1,0-.24Zm0-5.7a.11.11,0,0,1-.12-.12.11.11,0,0,1,.12-.12.11.11,0,0,1,.12.12A.11.11,0,0,1,2.36,2.82ZM2.7,1.13A.11.11,0,0,1,2.58,1,.11.11,0,0,1,2.7.89.11.11,0,0,1,2.82,1,.11.11,0,0,1,2.7,1.13Zm0,4.65a.12.12,0,0,1,0-.24.12.12,0,0,1,0,.24Zm.21-3a.11.11,0,0,1-.12-.12.11.11,0,0,1,.12-.12.11.11,0,0,1,.12.12A.11.11,0,0,1,2.93,2.74Zm0,5.86a.12.12,0,0,1,0,.24.12.12,0,0,1,0-.24ZM3,.84A.11.11,0,0,1,2.83.72.11.11,0,0,1,3,.6a.11.11,0,0,1,.12.12A.11.11,0,0,1,3,.84ZM3.2.54A.11.11,0,0,1,3.08.42a.12.12,0,1,1,.24,0A.11.11,0,0,1,3.2.54Zm0,5.24a.12.12,0,1,1,.12-.12A.11.11,0,0,1,3.24,5.78ZM3.46.24A.11.11,0,0,1,3.34.12a.12.12,0,0,1,.24,0A.11.11,0,0,1,3.46.24Zm0,2.58a.11.11,0,0,1-.12-.12.12.12,0,0,1,.24,0A.11.11,0,0,1,3.48,2.82Zm0,5.72a.12.12,0,1,1-.12.12A.11.11,0,0,1,3.49,8.54Zm.25-2.76a.12.12,0,1,1,.12-.12A.11.11,0,0,1,3.74,5.78ZM4,3a.11.11,0,0,1-.12-.12.12.12,0,0,1,.24,0A.11.11,0,0,1,4,3ZM4,8.38a.12.12,0,1,1-.12.12A.11.11,0,0,1,4,8.38Zm.2-2.6a.12.12,0,1,1,.12-.12A.11.11,0,0,1,4.22,5.78Zm.21-2.53a.12.12,0,1,1,.12-.12A.11.11,0,0,1,4.43,3.25Zm.05,4.87a.12.12,0,1,1-.12.12A.11.11,0,0,1,4.48,8.12Zm.24-2.34a.12.12,0,1,1,.12-.12A.11.11,0,0,1,4.72,5.78Zm.09-2.19a.12.12,0,1,1,.12-.12A.11.11,0,0,1,4.81,3.59Zm.05,4.2a.12.12,0,1,1-.12.12A.11.11,0,0,1,4.86,7.79ZM5.15,4a.12.12,0,1,1,.12-.12A.11.11,0,0,1,5.15,4Zm0,3.38a.12.12,0,1,1-.12.12A.11.11,0,0,1,5.2,7.38Zm.06-1.6a.12.12,0,1,1,.12-.12A.11.11,0,0,1,5.26,5.78ZM5.4,4.42a.12.12,0,1,1,.12-.12A.11.11,0,0,1,5.4,4.42Zm.18.44a.12.12,0,1,1,.12-.12A.11.11,0,0,1,5.58,4.86Zm.08.46a.12.12,0,1,1,.12-.12A.11.11,0,0,1,5.66,5.32Zm.06.46a.12.12,0,1,1,.12-.12A.11.11,0,0,1,5.72,5.78Z"/></g></g></svg>