<svg xmlns="http://www.w3.org/2000/svg" viewBox="0 0 1 8.78"><defs><style>.cls-1{fill:#231f20;}</style></defs><g id="Layer_2" data-name="Layer 2"><g id="Layer_1-2" data-name="Layer 1"><path class="cls-1" d="M-9.19,1.13A.11.11,0,0,1-9.31,1,.11.11,0,0,1-9.19.89.11.11,0,0,1-9.07,1,.11.11,0,0,1-9.19,1.13ZM-9,2.78a.11.11,0,0,1-.12-.12A.11.11,0,0,1-9,2.54a.11.11,0,0,1,.12.12A.11.11,0,0,1-9,2.78Zm0,.45a.11.11,0,0,1-.12-.12A.11.11,0,0,1-9,3a.11.11,0,0,1,.12.12A.11.11,0,0,1-9,3.23Zm0,.48a.11.11,0,0,1-.12-.12A.11.11,0,0,1-9,3.47a.11.11,0,0,1,.12.12A.11.11,0,0,1-9,3.71Zm0,.43A.11.11,0,0,1-9.12,4,.11.11,0,0,1-9,3.9.11.11,0,0,1-8.88,4,.11.11,0,0,1-9,4.14Zm0,.44a.11.11,0,0,1-.12-.12A.11.11,0,0,1-9,4.34a.11.11,0,0,1,.12.12A.11.11,0,0,1-9,4.58ZM-9,5a.11.11,0,0,1-.12-.12A.11.11,0,0,1-9,4.8a.11.11,0,0,1,.12.12A.11.11,0,0,1-9,5Zm0,.48a.11.11,0,0,1-.12-.12A.11.11,0,0,1-9,5.28a.11.11,0,0,1,.12.12A.11.11,0,0,1-9,5.52ZM-9,6a.11.11,0,0,1-.12-.12A.11.11,0,0,1-9,5.77a.11.11,0,0,1,.12.12A.11.11,0,0,1-9,6Zm0,.48a.11.11,0,0,1-.12-.12A.11.11,0,0,1-9,6.25a.11.11,0,0,1,.12.12A.11.11,0,0,1-9,6.49ZM-9,7a.11.11,0,0,1-.12-.12A.11.11,0,0,1-9,6.73a.11.11,0,0,1,.12.12A.11.11,0,0,1-9,7Zm0,.46a.11.11,0,0,1-.12-.12A.11.11,0,0,1-9,7.19a.11.11,0,0,1,.12.12A.11.11,0,0,1-9,7.43Zm0,.5a.11.11,0,0,1-.12-.12A.11.11,0,0,1-9,7.69a.11.11,0,0,1,.12.12A.11.11,0,0,1-9,7.93Zm0,.43a.11.11,0,0,1-.12-.12A.11.11,0,0,1-9,8.12a.11.11,0,0,1,.12.12A.11.11,0,0,1-9,8.36Zm0,.42a.11.11,0,0,1-.12-.12A.11.11,0,0,1-9,8.54a.11.11,0,0,1,.12.12A.11.11,0,0,1-9,8.78ZM-8.94.84A.11.11,0,0,1-9.06.72.11.11,0,0,1-8.94.6a.11.11,0,0,1,.12.12A.11.11,0,0,1-8.94.84Zm.25-.3A.11.11,0,0,1-8.81.42.11.11,0,0,1-8.69.3a.11.11,0,0,1,.12.12A.11.11,0,0,1-8.69.54Zm.25-.3A.11.11,0,0,1-8.56.12.11.11,0,0,1-8.44,0a.11.11,0,0,1,.12.12A.11.11,0,0,1-8.44.24Z" transform="translate(9.31)"/></g></g></svg>