<svg xmlns="http://www.w3.org/2000/svg" viewBox="0 0 6.86 8.52"><defs><style>.cls-1{fill:#231f20;}</style></defs><g id="Layer_2" data-name="Layer 2"><g id="Layer_1-2" data-name="Layer 1"><path class="cls-1" d="M6.86,6.32a2,2,0,0,1-.21.95,2.08,2.08,0,0,1-.6.69,2.93,2.93,0,0,1-.87.42,4.05,4.05,0,0,1-1.06.14H0V0H4.56a1.63,1.63,0,0,1,.8.19A2.17,2.17,0,0,1,6,.69a2.64,2.64,0,0,1,.39.7,2.36,2.36,0,0,1,.13.78,2.28,2.28,0,0,1-.31,1.17,1.85,1.85,0,0,1-.91.81,2.21,2.21,0,0,1,1.16.78A2.23,2.23,0,0,1,6.86,6.32Zm-5.2-4.9V3.56h2.2a1,1,0,0,0,.72-.28,1.11,1.11,0,0,0,.29-.8A1.12,1.12,0,0,0,4.6,1.7a.87.87,0,0,0-.66-.28ZM5.2,6a1.32,1.32,0,0,0-.08-.44,1.07,1.07,0,0,0-.21-.36A.93.93,0,0,0,4.6,5a.9.9,0,0,0-.4-.09H1.66V7.12H4.12A1,1,0,0,0,4.54,7a.89.89,0,0,0,.34-.23,1,1,0,0,0,.23-.36A1,1,0,0,0,5.2,6Z"/></g></g></svg>