<svg xmlns="http://www.w3.org/2000/svg" viewBox="0 0 7.63 8.64"><defs><style>.cls-1{fill:#231f20;}</style></defs><g id="Layer_2" data-name="Layer 2"><g id="Layer_1-2" data-name="Layer 1"><path class="cls-1" d="M0,4.25A4.32,4.32,0,0,1,.28,2.71,4.24,4.24,0,0,1,1.1,1.34a4.19,4.19,0,0,1,1.32-1A4.08,4.08,0,0,1,4.2,0a3.81,3.81,0,0,1,2,.52A3.23,3.23,0,0,1,7.51,1.86l-1.27.88a2.1,2.1,0,0,0-.41-.61,2.31,2.31,0,0,0-.51-.39,2.13,2.13,0,0,0-.58-.21,3.06,3.06,0,0,0-.59-.07,2.18,2.18,0,0,0-1.08.26,2.21,2.21,0,0,0-.77.65,2.7,2.7,0,0,0-.46.91,3.33,3.33,0,0,0,0,2.1,2.84,2.84,0,0,0,.51.92,2.59,2.59,0,0,0,.79.64,2.19,2.19,0,0,0,1,.24,2.61,2.61,0,0,0,.6-.08,2.22,2.22,0,0,0,.59-.22,2.24,2.24,0,0,0,.52-.41,1.9,1.9,0,0,0,.39-.59l1.35.78a2.57,2.57,0,0,1-.58.85,3.67,3.67,0,0,1-.85.61,4.48,4.48,0,0,1-1,.39,4.31,4.31,0,0,1-1,.13,3.69,3.69,0,0,1-1.67-.38,4.3,4.3,0,0,1-1.3-1,4.46,4.46,0,0,1-.85-1.4A4.26,4.26,0,0,1,0,4.25Z"/></g></g></svg>