<svg xmlns="http://www.w3.org/2000/svg" viewBox="0 0 7.3 8.52"><defs><style>.cls-1{fill:#231f20;}</style></defs><g id="Layer_2" data-name="Layer 2"><g id="Layer_1-2" data-name="Layer 1"><path class="cls-1" d="M0,8.52V0H3.1A4.56,4.56,0,0,1,4.93.34,3.67,3.67,0,0,1,7,2.6,4.92,4.92,0,0,1,7.3,4.25,4.92,4.92,0,0,1,7,6a3.65,3.65,0,0,1-2.17,2.2,4.56,4.56,0,0,1-1.73.31ZM5.63,4.25a3.67,3.67,0,0,0-.17-1.13A2.65,2.65,0,0,0,5,2.23a2.09,2.09,0,0,0-.8-.57A2.62,2.62,0,0,0,3.1,1.45H1.66V7.07H3.1a2.48,2.48,0,0,0,1.08-.22A2.13,2.13,0,0,0,5,6.26a2.45,2.45,0,0,0,.49-.9A3.59,3.59,0,0,0,5.63,4.25Z"/></g></g></svg>