<svg xmlns="http://www.w3.org/2000/svg" viewBox="0 0 7.79 8.64"><defs><style>.cls-1{fill:#231f20;}</style></defs><g id="Layer_2" data-name="Layer 2"><g id="Layer_1-2" data-name="Layer 1"><path class="cls-1" d="M6.42,7.62A3.26,3.26,0,0,1,4,8.64,3.63,3.63,0,0,1,2.47,8.3a4,4,0,0,1-1.29-.92A4.35,4.35,0,0,1,.32,6,4.62,4.62,0,0,1,0,4.27,4.37,4.37,0,0,1,.32,2.62,4.21,4.21,0,0,1,2.51.34,3.88,3.88,0,0,1,4.15,0,4.06,4.06,0,0,1,6.21.5,3.31,3.31,0,0,1,7.5,1.86l-1.24.91a2.23,2.23,0,0,0-.9-1,2.54,2.54,0,0,0-1.27-.34,2.19,2.19,0,0,0-1,.23,2.33,2.33,0,0,0-.77.63,2.94,2.94,0,0,0-.49.91,3.55,3.55,0,0,0-.17,1.09,3.18,3.18,0,0,0,.19,1.12,2.83,2.83,0,0,0,.53.91,2.37,2.37,0,0,0,.8.6,2.23,2.23,0,0,0,1,.23A2.9,2.9,0,0,0,6.42,6v-.6H4.7V4.2H7.79V8.58H6.42Z"/></g></g></svg>