<svg xmlns="http://www.w3.org/2000/svg" viewBox="0 0 6.32 8.52"><defs><style>.cls-1{fill:#231f20;}</style></defs><g id="Layer_2" data-name="Layer 2"><g id="Layer_1-2" data-name="Layer 1"><path class="cls-1" d="M0,8.52V0H3.61A2.36,2.36,0,0,1,4.7.25a2.88,2.88,0,0,1,.86.64,3.2,3.2,0,0,1,.56.92,2.65,2.65,0,0,1,.2,1,2.91,2.91,0,0,1-.19,1,3.09,3.09,0,0,1-.54.91,2.65,2.65,0,0,1-.84.63,2.44,2.44,0,0,1-1.08.24h-2V8.52ZM1.66,4.21H3.58a1,1,0,0,0,.76-.37,1.56,1.56,0,0,0,.3-1,1.76,1.76,0,0,0-.09-.58,1.69,1.69,0,0,0-.25-.44,1.07,1.07,0,0,0-.8-.36H1.66Z"/></g></g></svg>