<svg xmlns="http://www.w3.org/2000/svg" viewBox="0 0 8.36 8.64"><defs><style>.cls-1{fill:#231f20;}</style></defs><g id="Layer_2" data-name="Layer 2"><g id="Layer_1-2" data-name="Layer 1"><path class="cls-1" d="M6.31,8a4.38,4.38,0,0,1-1,.45,3.9,3.9,0,0,1-1.15.16,3.82,3.82,0,0,1-1.7-.37,4.34,4.34,0,0,1-1.3-1A4.26,4.26,0,0,1,.3,5.92,4.45,4.45,0,0,1,0,4.32,4.3,4.3,0,0,1,.32,2.69a4.49,4.49,0,0,1,.87-1.38,4.4,4.4,0,0,1,1.33-1A4,4,0,0,1,4.19,0,3.74,3.74,0,0,1,5.87.38a4.16,4.16,0,0,1,1.31,1A4.57,4.57,0,0,1,8,2.76a4.38,4.38,0,0,1,.3,1.58A4.28,4.28,0,0,1,8,5.93,4.28,4.28,0,0,1,7.2,7.27L8.36,8.58H6.8ZM4.16,7.18a2.37,2.37,0,0,0,.61-.08,2.18,2.18,0,0,0,.52-.21L4,5.42H5.56l.58.66a3.22,3.22,0,0,0,.38-.84,3.58,3.58,0,0,0,.13-.92,3.25,3.25,0,0,0-.18-1.07A2.85,2.85,0,0,0,6,2.34,2.44,2.44,0,0,0,5.2,1.7a2.21,2.21,0,0,0-1-.24,2.27,2.27,0,0,0-1.06.25,2.16,2.16,0,0,0-.78.65,3.11,3.11,0,0,0-.48.92,3.37,3.37,0,0,0-.16,1,3.52,3.52,0,0,0,.17,1.07,2.83,2.83,0,0,0,.48.91,2.67,2.67,0,0,0,.78.64A2.26,2.26,0,0,0,4.16,7.18Z"/></g></g></svg>