<svg xmlns="http://www.w3.org/2000/svg" viewBox="0 0 6.89 8.52"><defs><style>.cls-1{fill:#231f20;}</style></defs><g id="Layer_2" data-name="Layer 2"><g id="Layer_1-2" data-name="Layer 1"><path class="cls-1" d="M0,8.52V0H3.77A2.32,2.32,0,0,1,4.85.25a2.76,2.76,0,0,1,.86.64,3.23,3.23,0,0,1,.57.92,2.85,2.85,0,0,1,.2,1,2.9,2.9,0,0,1-.41,1.51,2.39,2.39,0,0,1-1.13,1l1.95,3.2H5L3.29,5.66H1.66V8.52ZM1.66,4.21H3.73a.81.81,0,0,0,.43-.11,1.17,1.17,0,0,0,.34-.29,1.41,1.41,0,0,0,.23-.44,1.91,1.91,0,0,0,.08-.54,1.63,1.63,0,0,0-.09-.55,1.6,1.6,0,0,0-.26-.44,1.28,1.28,0,0,0-.37-.29,1.12,1.12,0,0,0-.43-.1h-2Z"/></g></g></svg>