<svg xmlns="http://www.w3.org/2000/svg" viewBox="0 0 6.73 8.68"><defs><style>.cls-1{fill:#231f20;}</style></defs><g id="Layer_2" data-name="Layer 2"><g id="Layer_1-2" data-name="Layer 1"><path class="cls-1" d="M5.7,2.29a3.54,3.54,0,0,0-.31-.23,3.33,3.33,0,0,0-.54-.28,4.29,4.29,0,0,0-.69-.23,2.71,2.71,0,0,0-.75-.1,1.74,1.74,0,0,0-1,.25.83.83,0,0,0-.34.71.7.7,0,0,0,.13.44,1,1,0,0,0,.36.31,4.86,4.86,0,0,0,.61.24L4,3.62c.41.12.79.24,1.13.36A3.06,3.06,0,0,1,6,4.46a2.13,2.13,0,0,1,.55.69,2.27,2.27,0,0,1,.19,1,2.35,2.35,0,0,1-.26,1.17,2.12,2.12,0,0,1-.69.79,3,3,0,0,1-1,.44,5.17,5.17,0,0,1-1.19.14,6.49,6.49,0,0,1-1.9-.29A6,6,0,0,1,0,7.57L.73,6.14a1.93,1.93,0,0,0,.39.29,5.92,5.92,0,0,0,.67.34,4.7,4.7,0,0,0,.85.3,3.83,3.83,0,0,0,1,.12C4.51,7.19,5,6.9,5,6.31a.71.71,0,0,0-.16-.47,1.3,1.3,0,0,0-.44-.33,4,4,0,0,0-.7-.27L2.76,5A6.49,6.49,0,0,1,1.7,4.61,2.73,2.73,0,0,1,1,4.15,1.74,1.74,0,0,1,.5,3.52a2.14,2.14,0,0,1-.15-.84A2.67,2.67,0,0,1,.59,1.52,2.47,2.47,0,0,1,1.25.68a3.32,3.32,0,0,1,1-.51A4.33,4.33,0,0,1,3.46,0,4.61,4.61,0,0,1,5.11.28,5.82,5.82,0,0,1,6.43,1Z"/></g></g></svg>