<svg xmlns="http://www.w3.org/2000/svg" viewBox="0 0 7.38 10.98"><defs><style>.cls-1{fill:#231f20;}</style></defs><g id="Layer_2" data-name="Layer 2"><g id="Layer_1-2" data-name="Layer 1"><path class="cls-1" d="M1.66,5.52V11H0V2.46H1.28L5.72,8.05V2.47H7.38V11H6Zm2.78-4A1.21,1.21,0,0,1,4,1.45a3.35,3.35,0,0,1-.38-.18,3.9,3.9,0,0,0-.35-.19A.73.73,0,0,0,2.87,1a.51.51,0,0,0-.32.08.6.6,0,0,0-.17.19.64.64,0,0,0-.08.2.58.58,0,0,1,0,.1H1.4a1.6,1.6,0,0,1,.08-.36A1.6,1.6,0,0,1,1.71.69,1.86,1.86,0,0,1,2.14.23,1.11,1.11,0,0,1,2.81,0a1.13,1.13,0,0,1,.47.09,3.2,3.2,0,0,1,.37.19L4,.51A.86.86,0,0,0,4.39.6.63.63,0,0,0,4.73.52a.64.64,0,0,0,.2-.2A.64.64,0,0,0,5,.12C5,.06,5,0,5,0h.89a1.63,1.63,0,0,1-.08.34A1.8,1.8,0,0,1,5.6.85a1.9,1.9,0,0,1-.46.48A1.14,1.14,0,0,1,4.44,1.54Z"/></g></g></svg>