<svg xmlns="http://www.w3.org/2000/svg" viewBox="0 0 8.32 11.04"><defs><style>.cls-1{fill:#231f20;}</style></defs><g id="Layer_2" data-name="Layer 2"><g id="Layer_1-2" data-name="Layer 1"><path class="cls-1" d="M4.15,11a3.82,3.82,0,0,1-1.7-.37,4,4,0,0,1-1.3-1A4.26,4.26,0,0,1,.3,8.32,4.45,4.45,0,0,1,0,6.72,4.3,4.3,0,0,1,.32,5.09a4.49,4.49,0,0,1,.87-1.38,4.4,4.4,0,0,1,1.33-1A4,4,0,0,1,4.19,2.4a3.74,3.74,0,0,1,1.68.38,4.16,4.16,0,0,1,1.31,1A4.57,4.57,0,0,1,8,5.16a4.38,4.38,0,0,1,.3,1.58A4.3,4.3,0,0,1,8,8.37a4.24,4.24,0,0,1-.86,1.37,4.37,4.37,0,0,1-1.32.95A4,4,0,0,1,4.15,11ZM1.68,6.72a3.52,3.52,0,0,0,.17,1.07,2.83,2.83,0,0,0,.48.91,2.67,2.67,0,0,0,.78.64,2.26,2.26,0,0,0,1.05.24,2.31,2.31,0,0,0,1.07-.25A2.56,2.56,0,0,0,6,8.68a3.11,3.11,0,0,0,.48-.92,3.7,3.7,0,0,0,.16-1,3.25,3.25,0,0,0-.18-1.07A2.85,2.85,0,0,0,6,4.74a2.41,2.41,0,0,0-.78-.63,2.21,2.21,0,0,0-1-.23,2.25,2.25,0,0,0-1.84.89,2.94,2.94,0,0,0-.48.91A3.37,3.37,0,0,0,1.68,6.72Zm3-5-1-.31L4.26,0h1.5Z"/></g></g></svg>