<svg xmlns="http://www.w3.org/2000/svg" viewBox="0 0 7.45 11.04"><defs><style>.cls-1{fill:#231f20;}</style></defs><g id="Layer_2" data-name="Layer 2"><g id="Layer_1-2" data-name="Layer 1"><path class="cls-1" d="M3.72,9.58a1.91,1.91,0,0,0,1-.24,2,2,0,0,0,.65-.63,2.66,2.66,0,0,0,.35-.88,5.71,5.71,0,0,0,.1-1V2.46H7.45V6.8a6.21,6.21,0,0,1-.21,1.65,3.74,3.74,0,0,1-.66,1.34,3,3,0,0,1-1.16.91A3.8,3.8,0,0,1,3.73,11,3.92,3.92,0,0,1,2,10.69,3.27,3.27,0,0,1,.84,9.75,3.67,3.67,0,0,1,.2,8.4,6.43,6.43,0,0,1,0,6.8V2.46H1.66V6.8a5,5,0,0,0,.1,1,2.46,2.46,0,0,0,.35.88,1.73,1.73,0,0,0,.64.62A1.84,1.84,0,0,0,3.72,9.58Zm.43-7.84-1-.31L3.77,0h1.5Z"/></g></g></svg>