<svg xmlns="http://www.w3.org/2000/svg" viewBox="0 0 5.36 10.96"><defs><style>.cls-1{fill:#231f20;}</style></defs><g id="Layer_2" data-name="Layer 2"><g id="Layer_1-2" data-name="Layer 1"><path class="cls-1" d="M.12,2.88A.11.11,0,0,1,0,2.76a.11.11,0,0,1,.12-.12.11.11,0,0,1,.12.12A.11.11,0,0,1,.12,2.88Zm0,.44a.12.12,0,1,1,0-.24.12.12,0,1,1,0,.24Zm0,.46a.12.12,0,1,1,0-.24.12.12,0,1,1,0,.24Zm0,.43A.12.12,0,1,1,.12,4a.12.12,0,0,1,0,.24Zm0,.48a.12.12,0,0,1,0-.24.12.12,0,0,1,0,.24Zm0,.47a.12.12,0,1,1,0-.24.12.12,0,1,1,0,.24Zm0,.52a.12.12,0,1,1,0-.24.12.12,0,1,1,0,.24Zm0,.48a.12.12,0,1,1,0-.24.12.12,0,1,1,0,.24Zm0,.48a.12.12,0,1,1,0-.24.12.12,0,1,1,0,.24Zm0,.44a.12.12,0,1,1,0-.24.12.12,0,1,1,0,.24Zm0,.48a.12.12,0,1,1,0-.24.12.12,0,1,1,0,.24ZM.12,8a.12.12,0,1,1,0-.24A.12.12,0,1,1,.12,8Zm0,.47a.12.12,0,1,1,0-.24.12.12,0,1,1,0,.24ZM.12,9a.12.12,0,0,1,0-.24A.12.12,0,0,1,.12,9Zm0,.49a.12.12,0,0,1,0-.24.12.12,0,0,1,0,.24Zm0,.49a.12.12,0,1,1,0-.24.12.12,0,1,1,0,.24Zm0,.48a.12.12,0,1,1,0-.24.12.12,0,1,1,0,.24Zm0,.48a.12.12,0,1,1,0-.24.12.12,0,1,1,0,.24Zm.4-4.1a.12.12,0,0,1,0-.24.12.12,0,0,1,0,.24ZM.54,11a.12.12,0,0,1,0-.24.12.12,0,0,1,0,.24Zm0-8.09a.11.11,0,0,1-.12-.12.11.11,0,0,1,.12-.12.11.11,0,0,1,.12.12A.11.11,0,0,1,.56,2.87Zm.38,4a.12.12,0,1,1,0-.24.12.12,0,1,1,0,.24ZM1,11a.12.12,0,0,1,0-.24A.12.12,0,0,1,1,11ZM1,2.87a.11.11,0,0,1-.12-.12A.11.11,0,0,1,1,2.63a.11.11,0,0,1,.12.12A.11.11,0,0,1,1,2.87Zm.38,4a.12.12,0,1,1,0-.24.12.12,0,1,1,0,.24Zm0,4.12a.12.12,0,1,1,0-.24.12.12,0,0,1,0,.24Zm0-8.09a.11.11,0,0,1-.12-.12.11.11,0,0,1,.12-.12.11.11,0,0,1,.12.12A.11.11,0,0,1,1.4,2.87Zm.39,4a.12.12,0,0,1,0-.24.12.12,0,0,1,0,.24Zm0,4.12a.12.12,0,1,1,0-.24.12.12,0,0,1,0,.24Zm0-8.09a.11.11,0,0,1-.12-.12.11.11,0,0,1,.12-.12A.11.11,0,0,1,2,2.75.11.11,0,0,1,1.84,2.87Zm.38,4a.12.12,0,1,1,0-.24.12.12,0,1,1,0,.24Zm0,4.12a.12.12,0,1,1,0-.24.12.12,0,0,1,0,.24Zm0-8.09a.11.11,0,0,1-.12-.12.11.11,0,0,1,.12-.12.11.11,0,0,1,.12.12A.11.11,0,0,1,2.27,2.87Zm.37-1.74A.11.11,0,0,1,2.52,1,.11.11,0,0,1,2.64.89.11.11,0,0,1,2.76,1,.11.11,0,0,1,2.64,1.13Zm0,5.71a.12.12,0,1,1,0-.24.12.12,0,0,1,0,.24Zm0,4.12a.12.12,0,1,1,0-.24.12.12,0,0,1,0,.24Zm0-8.09a.11.11,0,0,1-.12-.12.11.11,0,0,1,.12-.12.11.11,0,0,1,.12.12A.11.11,0,0,1,2.69,2.87Zm.2-2A.11.11,0,0,1,2.77.72.11.11,0,0,1,2.89.6.11.11,0,0,1,3,.72.11.11,0,0,1,2.89.84Zm.17,6a.12.12,0,1,1,.12-.12A.11.11,0,0,1,3.06,6.84Zm0,4.12a.12.12,0,1,1,.12-.12A.11.11,0,0,1,3.08,11Zm0-8.09A.11.11,0,0,1,3,2.75a.12.12,0,1,1,.24,0A.11.11,0,0,1,3.11,2.87Zm0-2.33A.11.11,0,0,1,3,.42a.12.12,0,1,1,.24,0A.11.11,0,0,1,3.14.54ZM3.4.24A.11.11,0,0,1,3.28.12a.12.12,0,0,1,.24,0A.11.11,0,0,1,3.4.24Zm.09,6.6a.12.12,0,1,1,.12-.12A.11.11,0,0,1,3.49,6.84Zm0,4.12a.12.12,0,1,1,.12-.12A.11.11,0,0,1,3.52,11Zm0-8.09a.11.11,0,0,1-.12-.12.12.12,0,0,1,.24,0A.11.11,0,0,1,3.54,2.87Zm.37,4A.12.12,0,1,1,4,6.72.11.11,0,0,1,3.91,6.84Zm0,4.12a.12.12,0,1,1,.12-.12A.11.11,0,0,1,3.94,11ZM4,2.87a.11.11,0,0,1-.12-.12.12.12,0,1,1,.24,0A.11.11,0,0,1,4,2.87Zm.38,4a.12.12,0,1,1,.12-.12A.11.11,0,0,1,4.34,6.84Zm0,4.12a.12.12,0,1,1,.12-.12A.11.11,0,0,1,4.37,11Zm0-8.09a.11.11,0,0,1-.12-.12.12.12,0,1,1,.24,0A.11.11,0,0,1,4.39,2.87Zm.39,4a.12.12,0,1,1,.12-.12A.11.11,0,0,1,4.78,6.84ZM4.8,11a.12.12,0,1,1,.12-.12A.11.11,0,0,1,4.8,11Zm0-8.09a.11.11,0,0,1-.12-.12.12.12,0,0,1,.24,0A.11.11,0,0,1,4.82,2.87ZM5.22,11a.12.12,0,1,1,.12-.12A.11.11,0,0,1,5.22,11Zm0-8.09a.11.11,0,0,1-.12-.12.12.12,0,0,1,.24,0A.11.11,0,0,1,5.24,2.87Z"/></g></g></svg>