<svg xmlns="http://www.w3.org/2000/svg" viewBox="0 0 7.62 11.21"><defs><style>.cls-1{fill:#231f20;}</style></defs><g id="Layer_2" data-name="Layer 2"><g id="Layer_1-2" data-name="Layer 1"><path class="cls-1" d="M.12,11.21a.12.12,0,1,1,0-.24.12.12,0,1,1,0,.24Zm.17-.39a.12.12,0,0,1,0-.24.12.12,0,1,1,0,.24Zm.17-.38a.12.12,0,1,1,0-.24.12.12,0,1,1,0,.24Zm.16-.38a.12.12,0,0,1,0-.24.12.12,0,0,1,0,.24Zm.17-.39a.12.12,0,1,1,0-.24.12.12,0,0,1,0,.24ZM1,9.29a.12.12,0,1,1,0-.24.12.12,0,0,1,0,.24Zm.17-.39a.12.12,0,0,1,0-.24.12.12,0,0,1,0,.24Zm.17-.38a.12.12,0,0,1,0-.24.12.12,0,0,1,0,.24Zm.16-.38a.12.12,0,1,1,0-.24.12.12,0,0,1,0,.24Zm.16-.39a.12.12,0,0,1,0-.24.12.12,0,0,1,0,.24Zm.17-.38a.12.12,0,0,1,0-.24.12.12,0,0,1,0,.24ZM1.88,8a.12.12,0,0,1,0-.24.12.12,0,1,1,0,.24ZM2,7a.12.12,0,0,1,0-.24A.12.12,0,0,1,2,7Zm.16-.38a.12.12,0,0,1,0-.24.12.12,0,1,1,0,.24ZM2.27,8a.12.12,0,0,1,0-.24.12.12,0,1,1,0,.24Zm0-1.82a.12.12,0,0,1,0-.24.12.12,0,1,1,0,.24Zm.17-.39a.12.12,0,0,1,0-.24.12.12,0,1,1,0,.24Zm.17-.38a.12.12,0,0,1,0-.24.12.12,0,0,1,0,.24ZM2.65,8a.12.12,0,0,1,0-.24.12.12,0,1,1,0,.24Zm.13-3a.12.12,0,1,1,0-.24.12.12,0,1,1,0,.24ZM3,4.68a.12.12,0,1,1,0-.24.12.12,0,0,1,0,.24ZM3,8a.12.12,0,1,1,.12-.12A.11.11,0,0,1,3,8ZM3.12,4.3a.12.12,0,1,1,.12-.12A.11.11,0,0,1,3.12,4.3Zm.17-.39a.12.12,0,1,1,.12-.12A.11.11,0,0,1,3.29,3.91ZM3.42,8a.12.12,0,1,1,.12-.12A.11.11,0,0,1,3.42,8Zm0-4.51a.12.12,0,1,1,.12-.12A.11.11,0,0,1,3.46,3.53Zm.14-2.4A.11.11,0,0,1,3.48,1a.12.12,0,0,1,.24,0A.11.11,0,0,1,3.6,1.13Zm0,2A.12.12,0,1,1,3.74,3,.11.11,0,0,1,3.62,3.14Zm.18-.38a.11.11,0,0,1-.12-.12.12.12,0,1,1,.24,0A.11.11,0,0,1,3.8,2.76ZM3.8,8a.12.12,0,1,1,.12-.12A.11.11,0,0,1,3.8,8ZM3.85.84A.11.11,0,0,1,3.73.72.12.12,0,0,1,4,.72.11.11,0,0,1,3.85.84ZM4,3.14A.12.12,0,1,1,4.12,3,.11.11,0,0,1,4,3.14ZM4.1.54A.11.11,0,0,1,4,.42a.12.12,0,0,1,.24,0A.11.11,0,0,1,4.1.54Zm.06,3a.12.12,0,1,1,.12-.12A.11.11,0,0,1,4.16,3.53ZM4.19,8a.12.12,0,1,1,.12-.12A.11.11,0,0,1,4.19,8Zm.14-4.13a.12.12,0,1,1,.12-.12A.11.11,0,0,1,4.33,3.91Zm0-3.67A.11.11,0,0,1,4.24.12a.12.12,0,1,1,.24,0A.11.11,0,0,1,4.36.24ZM4.5,4.3a.12.12,0,1,1,.12-.12A.11.11,0,0,1,4.5,4.3ZM4.57,8a.12.12,0,1,1,.12-.12A.11.11,0,0,1,4.57,8Zm.1-3.36a.12.12,0,1,1,.12-.12A.11.11,0,0,1,4.67,4.68Zm.17.38A.12.12,0,1,1,5,4.94.11.11,0,0,1,4.84,5.06ZM5,8a.12.12,0,1,1,.12-.12A.11.11,0,0,1,5,8ZM5,5.45a.12.12,0,1,1,.12-.12A.11.11,0,0,1,5,5.45Zm.17.38a.12.12,0,1,1,.12-.12A.11.11,0,0,1,5.17,5.83Zm.17.39a.12.12,0,1,1,.12-.12A.11.11,0,0,1,5.34,6.22ZM5.34,8a.12.12,0,1,1,.12-.12A.11.11,0,0,1,5.34,8ZM5.5,6.6a.12.12,0,1,1,.12-.12A.11.11,0,0,1,5.5,6.6ZM5.66,7a.12.12,0,1,1,.12-.12A.11.11,0,0,1,5.66,7ZM5.72,8a.12.12,0,1,1,.12-.12A.11.11,0,0,1,5.72,8Zm.11-.67A.12.12,0,1,1,6,7.25.11.11,0,0,1,5.83,7.37ZM6,7.75a.12.12,0,1,1,.12-.12A.11.11,0,0,1,6,7.75Zm.16.39A.12.12,0,1,1,6.28,8,.11.11,0,0,1,6.16,8.14Zm.16.38a.12.12,0,1,1,.12-.12A.11.11,0,0,1,6.32,8.52Zm.17.38a.12.12,0,1,1,.12-.12A.11.11,0,0,1,6.49,8.9Zm.17.39a.12.12,0,1,1,.12-.12A.11.11,0,0,1,6.66,9.29Zm.17.38A.12.12,0,1,1,7,9.55.11.11,0,0,1,6.83,9.67Zm.17.39a.12.12,0,1,1,.12-.12A.11.11,0,0,1,7,10.06Zm.16.38a.12.12,0,1,1,.12-.12A.11.11,0,0,1,7.16,10.44Zm.17.38a.12.12,0,1,1,.12-.12A.11.11,0,0,1,7.33,10.82Zm.17.39a.12.12,0,1,1,.12-.12A.11.11,0,0,1,7.5,11.21Z"/></g></g></svg>