<svg xmlns="http://www.w3.org/2000/svg" viewBox="0 0 1 10.99"><defs><style>.cls-1{fill:#231f20;}</style></defs><g id="Layer_2" data-name="Layer 2"><g id="Layer_1-2" data-name="Layer 1"><path class="cls-1" d="M-9.49,1.13A.11.11,0,0,1-9.61,1,.11.11,0,0,1-9.49.89.11.11,0,0,1-9.37,1,.11.11,0,0,1-9.49,1.13Zm.21,1.44a.11.11,0,0,1-.12-.12.11.11,0,0,1,.12-.12.11.11,0,0,1,.12.12A.11.11,0,0,1-9.28,2.57Zm0,.41a.11.11,0,0,1-.12-.12.11.11,0,0,1,.12-.12.11.11,0,0,1,.12.12A.11.11,0,0,1-9.28,3Zm0,.42a.11.11,0,0,1-.12-.12.11.11,0,0,1,.12-.12.11.11,0,0,1,.12.12A.11.11,0,0,1-9.28,3.4Zm0,.42A.11.11,0,0,1-9.4,3.7a.11.11,0,0,1,.12-.12.11.11,0,0,1,.12.12A.11.11,0,0,1-9.28,3.82Zm0,.42a.11.11,0,0,1-.12-.12A.11.11,0,0,1-9.28,4a.11.11,0,0,1,.12.12A.11.11,0,0,1-9.28,4.24Zm0,.42a.11.11,0,0,1-.12-.12.11.11,0,0,1,.12-.12.11.11,0,0,1,.12.12A.11.11,0,0,1-9.28,4.66Zm0,.42A.11.11,0,0,1-9.4,5a.11.11,0,0,1,.12-.12A.11.11,0,0,1-9.16,5,.11.11,0,0,1-9.28,5.08Zm0,.42a.11.11,0,0,1-.12-.12.11.11,0,0,1,.12-.12.11.11,0,0,1,.12.12A.11.11,0,0,1-9.28,5.5Zm0,.43a.11.11,0,0,1-.12-.12.11.11,0,0,1,.12-.12.11.11,0,0,1,.12.12A.11.11,0,0,1-9.28,5.93Zm0,.42a.11.11,0,0,1-.12-.12.11.11,0,0,1,.12-.12.11.11,0,0,1,.12.12A.11.11,0,0,1-9.28,6.35Zm0,.42a.11.11,0,0,1-.12-.12.11.11,0,0,1,.12-.12.11.11,0,0,1,.12.12A.11.11,0,0,1-9.28,6.77Zm0,.42a.11.11,0,0,1-.12-.12A.11.11,0,0,1-9.28,7a.11.11,0,0,1,.12.12A.11.11,0,0,1-9.28,7.19Zm0,.42a.11.11,0,0,1-.12-.12.11.11,0,0,1,.12-.12.11.11,0,0,1,.12.12A.11.11,0,0,1-9.28,7.61Zm0,.42a.11.11,0,0,1-.12-.12.11.11,0,0,1,.12-.12.11.11,0,0,1,.12.12A.11.11,0,0,1-9.28,8Zm0,.42a.11.11,0,0,1-.12-.12.11.11,0,0,1,.12-.12.11.11,0,0,1,.12.12A.11.11,0,0,1-9.28,8.45Zm0,.42a.11.11,0,0,1-.12-.12.11.11,0,0,1,.12-.12.11.11,0,0,1,.12.12A.11.11,0,0,1-9.28,8.87Zm0,.44a.11.11,0,0,1-.12-.12.11.11,0,0,1,.12-.12.11.11,0,0,1,.12.12A.11.11,0,0,1-9.28,9.31Zm0,.42a.11.11,0,0,1-.12-.12.11.11,0,0,1,.12-.12.11.11,0,0,1,.12.12A.11.11,0,0,1-9.28,9.73Zm0,.42A.11.11,0,0,1-9.4,10a.11.11,0,0,1,.12-.12.11.11,0,0,1,.12.12A.11.11,0,0,1-9.28,10.15Zm0,.42a.11.11,0,0,1-.12-.12.11.11,0,0,1,.12-.12.11.11,0,0,1,.12.12A.11.11,0,0,1-9.28,10.57Zm0,.42a.11.11,0,0,1-.12-.12.11.11,0,0,1,.12-.12.11.11,0,0,1,.12.12A.11.11,0,0,1-9.28,11Zm0-10.15A.11.11,0,0,1-9.36.72.11.11,0,0,1-9.24.6a.11.11,0,0,1,.12.12A.11.11,0,0,1-9.24.84ZM-9,.54A.11.11,0,0,1-9.11.42.11.11,0,0,1-9,.3a.11.11,0,0,1,.12.12A.11.11,0,0,1-9,.54Zm.25-.3A.11.11,0,0,1-8.86.12.11.11,0,0,1-8.74,0a.11.11,0,0,1,.12.12A.11.11,0,0,1-8.74.24Z" transform="translate(9.61)"/></g></g></svg>