<svg xmlns="http://www.w3.org/2000/svg" viewBox="0 0 7.81 11.04"><defs><style>.cls-1{fill:#231f20;}</style></defs><g id="Layer_2" data-name="Layer 2"><g id="Layer_1-2" data-name="Layer 1"><path class="cls-1" d="M.12,7a.12.12,0,1,1,0-.24A.12.12,0,1,1,.12,7Zm0-.51a.12.12,0,0,1,0-.24.12.12,0,0,1,0,.24Zm0,1a.12.12,0,1,1,0-.24.12.12,0,1,1,0,.24ZM.2,6a.12.12,0,1,1,0-.24A.12.12,0,1,1,.2,6Zm0,2a.12.12,0,1,1,0-.24A.12.12,0,1,1,.25,8ZM.34,5.5a.12.12,0,0,1,0-.24.12.12,0,1,1,0,.24Zm.08,3a.12.12,0,1,1,0-.24.12.12,0,1,1,0,.24ZM.52,5a.12.12,0,0,1,0-.24A.12.12,0,0,1,.52,5Zm.1,3.91a.12.12,0,0,1,0-.24.12.12,0,0,1,0,.24ZM.76,4.58a.12.12,0,1,1,0-.24.12.12,0,1,1,0,.24Zm.1,4.77a.12.12,0,1,1,0-.24.12.12,0,1,1,0,.24ZM1,4.18a.12.12,0,1,1,0-.24.12.12,0,1,1,0,.24Zm.14,5.55a.12.12,0,0,1,0-.24.12.12,0,1,1,0,.24Zm.21-5.94a.12.12,0,0,1,0-.24.12.12,0,0,1,0,.24Zm.13,6.29a.12.12,0,1,1,0-.24.12.12,0,1,1,0,.24Zm.27-6.62a.12.12,0,0,1,0-.24.12.12,0,0,1,0,.24Zm.11,6.92a.12.12,0,0,1,0-.24.12.12,0,0,1,0,.24Zm.33-7.2a.12.12,0,0,1,0-.24.12.12,0,0,1,0,.24Zm.07,7.45a.12.12,0,0,1,0-.24.12.12,0,0,1,0,.24ZM2.69,3a.11.11,0,0,1-.12-.12.11.11,0,0,1,.12-.12.11.11,0,0,1,.12.12A.11.11,0,0,1,2.69,3Zm.08,7.86a.12.12,0,1,1,0-.24.12.12,0,1,1,0,.24Zm.4-8a.11.11,0,0,1-.12-.12.12.12,0,0,1,.24,0A.11.11,0,0,1,3.17,2.86ZM3.2,11a.12.12,0,1,1,.12-.12A.11.11,0,0,1,3.2,11Zm.45-8.2a.11.11,0,0,1-.12-.12.12.12,0,0,1,.24,0A.11.11,0,0,1,3.65,2.78Zm0,8.26a.12.12,0,1,1,.12-.12A.11.11,0,0,1,3.66,11Zm0-9.91A.11.11,0,0,1,3.55,1a.12.12,0,0,1,.24,0A.11.11,0,0,1,3.67,1.13ZM3.92.84A.11.11,0,0,1,3.8.72.12.12,0,0,1,4,.72.11.11,0,0,1,3.92.84ZM4.12,11a.12.12,0,1,1,.12-.12A.11.11,0,0,1,4.12,11Zm0-8.26A.11.11,0,0,1,4,2.66a.12.12,0,1,1,.24,0A.11.11,0,0,1,4.14,2.78Zm0-2.24A.11.11,0,0,1,4.06.42a.12.12,0,0,1,.24,0A.11.11,0,0,1,4.18.54Zm.25-.3A.11.11,0,0,1,4.31.12a.12.12,0,0,1,.24,0A.11.11,0,0,1,4.43.24ZM4.57,11a.12.12,0,1,1,.12-.12A.11.11,0,0,1,4.57,11Zm0-8.14a.11.11,0,0,1-.12-.12.12.12,0,1,1,.24,0A.11.11,0,0,1,4.62,2.84Zm.43,8a.12.12,0,1,1,.12-.12A.11.11,0,0,1,5.05,10.85ZM5.11,3A.11.11,0,0,1,5,2.87a.12.12,0,0,1,.24,0A.11.11,0,0,1,5.11,3Zm.4,7.67a.12.12,0,1,1,.12-.12A.11.11,0,0,1,5.51,10.66Zm.06-7.48a.12.12,0,1,1,.12-.12A.11.11,0,0,1,5.57,3.18Zm.35,7.22A.12.12,0,1,1,6,10.28.11.11,0,0,1,5.92,10.4ZM6,3.46a.12.12,0,1,1,.12-.12A.11.11,0,0,1,6,3.46Zm.28,6.64A.12.12,0,1,1,6.41,10,.11.11,0,0,1,6.29,10.1Zm.12-6.31a.12.12,0,1,1,.12-.12A.11.11,0,0,1,6.41,3.79Zm.23,6a.12.12,0,1,1,.12-.12A.11.11,0,0,1,6.64,9.76ZM6.77,4.2a.12.12,0,1,1,.12-.12A.11.11,0,0,1,6.77,4.2ZM7,9.37a.12.12,0,1,1,.12-.12A.11.11,0,0,1,7,9.37Zm.11-4.76a.12.12,0,1,1,.12-.12A.11.11,0,0,1,7.06,4.61ZM7.19,9a.12.12,0,1,1,.12-.12A.11.11,0,0,1,7.19,9ZM7.3,5a.12.12,0,1,1,.12-.12A.11.11,0,0,1,7.3,5Zm.09,3.47a.12.12,0,1,1,.12-.12A.11.11,0,0,1,7.39,8.51Zm.09-3A.12.12,0,1,1,7.6,5.4.11.11,0,0,1,7.48,5.52ZM7.56,8a.12.12,0,1,1,.12-.12A.11.11,0,0,1,7.56,8Zm.05-2a.12.12,0,1,1,.12-.12A.11.11,0,0,1,7.61,6Zm0,1.51a.12.12,0,1,1,.12-.12A.11.11,0,0,1,7.66,7.51Zm0-1a.12.12,0,1,1,.12-.12A.11.11,0,0,1,7.68,6.49Zm0,.52a.12.12,0,1,1,.12-.12A.11.11,0,0,1,7.69,7Z"/></g></g></svg>