<svg xmlns="http://www.w3.org/2000/svg" viewBox="0 0 6.2 8.8"><defs><style>.cls-1{fill:#231f20;}</style></defs><g id="Layer_2" data-name="Layer 2"><g id="Layer_1-2" data-name="Layer 1"><path class="cls-1" d="M2.15,8.8a2.34,2.34,0,0,1-.85-.15,2,2,0,0,1-.69-.42A2,2,0,0,1,.16,7.6,1.91,1.91,0,0,1,0,6.8,1.77,1.77,0,0,1,.2,6a1.86,1.86,0,0,1,.55-.64,2.69,2.69,0,0,1,.85-.41,3.61,3.61,0,0,1,1.08-.15,4.47,4.47,0,0,1,.82.07,3.31,3.31,0,0,1,.71.2V4.69a1.3,1.3,0,0,0-.35-1,1.5,1.5,0,0,0-1-.33,2.8,2.8,0,0,0-1,.18,4.68,4.68,0,0,0-1,.52l-.49-1A4.69,4.69,0,0,1,3,2.28,3,3,0,0,1,5.07,3a2.42,2.42,0,0,1,.75,1.92v2a.56.56,0,0,0,.09.36.41.41,0,0,0,.29.12V8.68a4,4,0,0,1-.7.08,1.13,1.13,0,0,1-.71-.2A.91.91,0,0,1,4.49,8l0-.35a2.74,2.74,0,0,1-1,.84A3,3,0,0,1,2.15,8.8Zm-1-7.37V0H2.48V1.43ZM2.6,7.62a2.25,2.25,0,0,0,.78-.14A1.52,1.52,0,0,0,4,7.09a.58.58,0,0,0,.26-.45V5.92a3.74,3.74,0,0,0-.62-.18,3.74,3.74,0,0,0-.65-.06,1.69,1.69,0,0,0-1,.28.85.85,0,0,0-.4.71.87.87,0,0,0,.32.68A1.1,1.1,0,0,0,2.6,7.62Zm.86-6.19V0H4.79V1.43Z"/></g></g></svg>