<svg xmlns="http://www.w3.org/2000/svg" viewBox="0 0 6.6 8.8"><defs><style>.cls-1{fill:#231f20;}</style></defs><g id="Layer_2" data-name="Layer 2"><g id="Layer_1-2" data-name="Layer 1"><path class="cls-1" d="M3.31,8.8a3.56,3.56,0,0,1-1.37-.26,3.28,3.28,0,0,1-1-.7,3.15,3.15,0,0,1-.67-1A3.4,3.4,0,0,1,0,5.57,3.58,3.58,0,0,1,.23,4.3a3.07,3.07,0,0,1,.66-1,3.27,3.27,0,0,1,1-.72,3.57,3.57,0,0,1,1.38-.26,3.54,3.54,0,0,1,1.38.26,3.32,3.32,0,0,1,1,.71,3.16,3.16,0,0,1,.65,1A3.43,3.43,0,0,1,6.6,5.51c0,.1,0,.2,0,.3a.88.88,0,0,1,0,.24H1.7a2.13,2.13,0,0,0,.18.66,1.66,1.66,0,0,0,.38.49,1.49,1.49,0,0,0,.51.31,1.73,1.73,0,0,0,.6.11,2,2,0,0,0,.91-.23,1.28,1.28,0,0,0,.58-.62l1.38.38A2.73,2.73,0,0,1,5.13,8.33,3.42,3.42,0,0,1,3.31,8.8ZM1.48,1.43V0H2.81V1.43ZM4.94,5a1.65,1.65,0,0,0-.52-1.13A1.62,1.62,0,0,0,3.3,3.44a1.54,1.54,0,0,0-.61.12,1.43,1.43,0,0,0-.49.32,1.48,1.48,0,0,0-.36.49A1.83,1.83,0,0,0,1.68,5ZM3.78,1.43V0H5.11V1.43Z"/></g></g></svg>