<svg xmlns="http://www.w3.org/2000/svg" viewBox="0 0 6.59 8.8"><defs><style>.cls-1{fill:#231f20;}</style></defs><g id="Layer_2" data-name="Layer 2"><g id="Layer_1-2" data-name="Layer 1"><path class="cls-1" d="M3.3,8.8a3.4,3.4,0,0,1-1.38-.27,3.05,3.05,0,0,1-1-.71,3.2,3.2,0,0,1-.65-1,3.46,3.46,0,0,1,0-2.48,3.1,3.1,0,0,1,.65-1,3.22,3.22,0,0,1,1-.72A3.57,3.57,0,0,1,3.3,2.28a3.49,3.49,0,0,1,1.37.26,3.22,3.22,0,0,1,1,.72,3.1,3.1,0,0,1,.65,1,3.46,3.46,0,0,1,0,2.48,3.2,3.2,0,0,1-.65,1,2.92,2.92,0,0,1-1,.71A3.4,3.4,0,0,1,3.3,8.8ZM1.48,1.43V0H2.81V1.43Zm.18,4.11a2.35,2.35,0,0,0,.12.77,2,2,0,0,0,.35.59,1.52,1.52,0,0,0,.52.39,1.58,1.58,0,0,0,1.3,0,1.52,1.52,0,0,0,.52-.39,2,2,0,0,0,.35-.6,2.35,2.35,0,0,0,.12-.77,2.27,2.27,0,0,0-.12-.75,1.76,1.76,0,0,0-.35-.6A1.52,1.52,0,0,0,4,3.79a1.44,1.44,0,0,0-.65-.14,1.58,1.58,0,0,0-.65.14,1.68,1.68,0,0,0-.52.4,2,2,0,0,0-.35.6A2.27,2.27,0,0,0,1.66,5.54ZM3.78,1.43V0H5.11V1.43Z"/></g></g></svg>