<svg xmlns="http://www.w3.org/2000/svg" viewBox="0 0 6.26 8.8"><defs><style>.cls-1{fill:#231f20;}</style></defs><g id="Layer_2" data-name="Layer 2"><g id="Layer_1-2" data-name="Layer 1"><path class="cls-1" d="M2,8.8A1.79,1.79,0,0,1,.5,8.17,2.92,2.92,0,0,1,0,6.32V2.39H1.61V6c0,1,.35,1.45,1,1.45a1.73,1.73,0,0,0,.91-.28,2,2,0,0,0,.71-.86V2.39H5.88V6.83A.56.56,0,0,0,6,7.19a.41.41,0,0,0,.29.12V8.68l-.4.06H5.57a1.16,1.16,0,0,1-.7-.2A.76.76,0,0,1,4.55,8l0-.5a2.65,2.65,0,0,1-1.08,1A3.19,3.19,0,0,1,2,8.8ZM1.12,1.43V0H2.45V1.43Zm2.3,0V0H4.75V1.43Z"/></g></g></svg>