<svg xmlns="http://www.w3.org/2000/svg" viewBox="0 0 7.62 8.69"><defs><style>.cls-1{fill:#231f20;}</style></defs><g id="Layer_2" data-name="Layer 2"><g id="Layer_1-2" data-name="Layer 1"><path class="cls-1" d="M.12,8.69a.12.12,0,1,1,0-.24.12.12,0,1,1,0,.24ZM.29,8.3a.12.12,0,0,1,0-.24.12.12,0,0,1,0,.24Zm.17-.38a.12.12,0,1,1,0-.24.12.12,0,1,1,0,.24Zm.16-.38a.12.12,0,0,1,0-.24.12.12,0,0,1,0,.24Zm.17-.39a.12.12,0,1,1,0-.24.12.12,0,1,1,0,.24ZM1,6.77a.12.12,0,0,1,0-.24.12.12,0,1,1,0,.24Zm.17-.39a.12.12,0,0,1,0-.24.12.12,0,0,1,0,.24ZM1.3,6a.12.12,0,1,1,0-.24A.12.12,0,1,1,1.3,6Zm.16-.38a.12.12,0,0,1,0-.24.12.12,0,0,1,0,.24Zm.16-.39a.12.12,0,0,1,0-.24.12.12,0,1,1,0,.24Zm.17-.38a.12.12,0,0,1,0-.24.12.12,0,0,1,0,.24Zm.09.67a.12.12,0,0,1,0-.24.12.12,0,0,1,0,.24ZM2,4.46a.12.12,0,0,1,0-.24.12.12,0,0,1,0,.24Zm.16-.38a.12.12,0,0,1,0-.24.12.12,0,0,1,0,.24Zm.15,1.44a.12.12,0,0,1,0-.24.12.12,0,1,1,0,.24Zm0-1.82a.12.12,0,0,1,0-.24.12.12,0,0,1,0,.24Zm.17-.39a.12.12,0,0,1,0-.24.12.12,0,0,1,0,.24Zm.17-.38a.11.11,0,0,1-.12-.12.11.11,0,0,1,.12-.12.11.11,0,0,1,.12.12A.11.11,0,0,1,2.62,2.93Zm0,2.59a.12.12,0,0,1,0-.24.12.12,0,0,1,0,.24Zm.13-3a.11.11,0,0,1-.12-.12.11.11,0,0,1,.12-.12.11.11,0,0,1,.12.12A.11.11,0,0,1,2.78,2.54ZM3,2.16A.11.11,0,0,1,2.83,2,.11.11,0,0,1,3,1.92.11.11,0,0,1,3.07,2,.11.11,0,0,1,3,2.16ZM3,5.52a.12.12,0,1,1,.12-.12A.11.11,0,0,1,3,5.52Zm.08-3.74A.11.11,0,0,1,3,1.66a.12.12,0,0,1,.24,0A.11.11,0,0,1,3.12,1.78Zm.17-.39a.11.11,0,0,1-.12-.12.12.12,0,0,1,.24,0A.11.11,0,0,1,3.29,1.39Zm.13,4.13a.12.12,0,1,1,.12-.12A.11.11,0,0,1,3.42,5.52ZM3.46,1A.11.11,0,0,1,3.34.89a.12.12,0,0,1,.24,0A.11.11,0,0,1,3.46,1ZM3.62.62A.11.11,0,0,1,3.5.5a.12.12,0,0,1,.24,0A.11.11,0,0,1,3.62.62ZM3.8.24A.11.11,0,0,1,3.68.12a.12.12,0,0,1,.24,0A.11.11,0,0,1,3.8.24Zm0,5.28a.12.12,0,1,1,.12-.12A.11.11,0,0,1,3.8,5.52ZM4,.62A.11.11,0,0,1,3.88.5a.12.12,0,0,1,.24,0A.11.11,0,0,1,4,.62ZM4.16,1A.11.11,0,0,1,4,.89a.12.12,0,0,1,.24,0A.11.11,0,0,1,4.16,1Zm0,4.51a.12.12,0,1,1,.12-.12A.11.11,0,0,1,4.19,5.52Zm.14-4.13a.11.11,0,0,1-.12-.12.12.12,0,0,1,.24,0A.11.11,0,0,1,4.33,1.39Zm.17.39a.11.11,0,0,1-.12-.12.12.12,0,0,1,.24,0A.11.11,0,0,1,4.5,1.78Zm.07,3.74a.12.12,0,1,1,.12-.12A.11.11,0,0,1,4.57,5.52Zm.1-3.36A.11.11,0,0,1,4.55,2a.12.12,0,0,1,.24,0A.11.11,0,0,1,4.67,2.16Zm.17.38a.11.11,0,0,1-.12-.12.12.12,0,0,1,.24,0A.11.11,0,0,1,4.84,2.54Zm.12,3a.12.12,0,1,1,.12-.12A.11.11,0,0,1,5,5.52ZM5,2.93a.11.11,0,0,1-.12-.12.12.12,0,0,1,.24,0A.11.11,0,0,1,5,2.93Zm.17.38a.12.12,0,1,1,.12-.12A.11.11,0,0,1,5.17,3.31Zm.17.39a.12.12,0,1,1,.12-.12A.11.11,0,0,1,5.34,3.7Zm0,1.82a.12.12,0,1,1,.12-.12A.11.11,0,0,1,5.34,5.52ZM5.5,4.08A.12.12,0,1,1,5.62,4,.11.11,0,0,1,5.5,4.08Zm.16.38a.12.12,0,1,1,.12-.12A.11.11,0,0,1,5.66,4.46Zm.06,1.06a.12.12,0,1,1,.12-.12A.11.11,0,0,1,5.72,5.52Zm.11-.67A.12.12,0,1,1,6,4.73.11.11,0,0,1,5.83,4.85ZM6,5.23a.12.12,0,1,1,.12-.12A.11.11,0,0,1,6,5.23Zm.16.39a.12.12,0,1,1,.12-.12A.11.11,0,0,1,6.16,5.62ZM6.32,6a.12.12,0,1,1,.12-.12A.11.11,0,0,1,6.32,6Zm.17.38a.12.12,0,1,1,.12-.12A.11.11,0,0,1,6.49,6.38Zm.17.39a.12.12,0,1,1,.12-.12A.11.11,0,0,1,6.66,6.77Zm.17.38A.12.12,0,1,1,7,7,.11.11,0,0,1,6.83,7.15ZM7,7.54a.12.12,0,1,1,.12-.12A.11.11,0,0,1,7,7.54Zm.16.38a.12.12,0,1,1,.12-.12A.11.11,0,0,1,7.16,7.92Zm.17.38a.12.12,0,1,1,.12-.12A.11.11,0,0,1,7.33,8.3Zm.17.39a.12.12,0,1,1,.12-.12A.11.11,0,0,1,7.5,8.69Z"/></g></g></svg>