<svg xmlns="http://www.w3.org/2000/svg" viewBox="0 0 5.98 8.38"><defs><style>.cls-1{fill:#231f20;}</style></defs><g id="Layer_2" data-name="Layer 2"><g id="Layer_1-2" data-name="Layer 1"><path class="cls-1" d="M.12.29A.11.11,0,0,1,0,.17.11.11,0,0,1,.12.05.11.11,0,0,1,.24.17.11.11,0,0,1,.12.29Zm0,.44A.11.11,0,0,1,0,.61.11.11,0,0,1,.12.49.11.11,0,0,1,.24.61.11.11,0,0,1,.12.73Zm0,.46A.11.11,0,0,1,0,1.07.11.11,0,0,1,.12,1a.11.11,0,0,1,.12.12A.11.11,0,0,1,.12,1.19Zm0,.43A.11.11,0,0,1,0,1.5a.11.11,0,0,1,.12-.12.11.11,0,0,1,.12.12A.11.11,0,0,1,.12,1.62Zm0,.48A.11.11,0,0,1,0,2a.11.11,0,0,1,.12-.12A.11.11,0,0,1,.24,2,.11.11,0,0,1,.12,2.1Zm0,.47A.11.11,0,0,1,0,2.45a.11.11,0,0,1,.12-.12.11.11,0,0,1,.12.12A.11.11,0,0,1,.12,2.57Zm0,.51A.11.11,0,0,1,0,3a.11.11,0,0,1,.12-.12A.11.11,0,0,1,.24,3,.11.11,0,0,1,.12,3.08Zm0,.48a.12.12,0,0,1,0-.24.12.12,0,0,1,0,.24ZM.12,4a.12.12,0,0,1,0-.24A.12.12,0,0,1,.12,4Zm0,.45a.12.12,0,1,1,0-.24.12.12,0,1,1,0,.24ZM.12,5a.12.12,0,1,1,0-.24A.12.12,0,1,1,.12,5Zm0,.48a.12.12,0,0,1,0-.24.12.12,0,0,1,0,.24Zm0,.47a.12.12,0,1,1,0-.24.12.12,0,1,1,0,.24Zm0,.49a.12.12,0,1,1,0-.24.12.12,0,1,1,0,.24Zm0,.49a.12.12,0,1,1,0-.24.12.12,0,1,1,0,.24Zm0,.49a.12.12,0,1,1,0-.24.12.12,0,1,1,0,.24Zm0,.48a.12.12,0,0,1,0-.24.12.12,0,0,1,0,.24Zm0,.48a.12.12,0,1,1,0-.24.12.12,0,1,1,0,.24ZM.52.24A.11.11,0,0,1,.4.12.11.11,0,0,1,.52,0,.11.11,0,0,1,.64.12.11.11,0,0,1,.52.24Zm0,4A.12.12,0,1,1,.52,4a.12.12,0,1,1,0,.24Zm0,4.12a.12.12,0,1,1,0-.24.12.12,0,0,1,0,.24ZM.94.24A.11.11,0,0,1,.82.12.11.11,0,0,1,.94,0a.11.11,0,0,1,.12.12A.11.11,0,0,1,.94.24Zm0,4A.12.12,0,1,1,.94,4a.12.12,0,1,1,0,.24Zm0,4.12a.12.12,0,0,1,0-.24.12.12,0,0,1,0,.24ZM1.36.24A.11.11,0,0,1,1.24.12.11.11,0,0,1,1.36,0a.11.11,0,0,1,.12.12A.11.11,0,0,1,1.36.24Zm0,4a.12.12,0,1,1,0-.24.12.12,0,0,1,0,.24Zm0,4.12a.12.12,0,0,1,0-.24.12.12,0,0,1,0,.24ZM1.78.24A.11.11,0,0,1,1.66.12.11.11,0,0,1,1.78,0,.11.11,0,0,1,1.9.12.11.11,0,0,1,1.78.24Zm0,4a.12.12,0,1,1,0-.24.12.12,0,0,1,0,.24Zm0,4.12a.12.12,0,0,1,0-.24.12.12,0,0,1,0,.24ZM2.2.24A.11.11,0,0,1,2.08.12.11.11,0,0,1,2.2,0a.11.11,0,0,1,.12.12A.11.11,0,0,1,2.2.24Zm0,4A.12.12,0,0,1,2.2,4a.12.12,0,0,1,0,.24Zm0,4.12a.12.12,0,0,1,0-.24.12.12,0,0,1,0,.24ZM2.62.24A.11.11,0,0,1,2.5.12.11.11,0,0,1,2.62,0a.11.11,0,0,1,.12.12A.11.11,0,0,1,2.62.24Zm0,4a.12.12,0,0,1,0-.24.12.12,0,0,1,0,.24Zm0,4.12a.12.12,0,0,1,0-.24.12.12,0,0,1,0,.24ZM3,.24A.11.11,0,0,1,2.92.12a.12.12,0,0,1,.24,0A.11.11,0,0,1,3,.24Zm0,4a.12.12,0,1,1,.12-.12A.11.11,0,0,1,3,4.26ZM3,8.38a.12.12,0,1,1,.12-.12A.11.11,0,0,1,3,8.38ZM3.46.24A.11.11,0,0,1,3.34.12a.12.12,0,0,1,.24,0A.11.11,0,0,1,3.46.24Zm0,4a.12.12,0,1,1,.12-.12A.11.11,0,0,1,3.46,4.26Zm0,4.12a.12.12,0,1,1,.12-.12A.11.11,0,0,1,3.46,8.38Zm.42-4.12A.12.12,0,1,1,4,4.14.11.11,0,0,1,3.88,4.26Zm0,4.12A.12.12,0,1,1,4,8.26.11.11,0,0,1,3.88,8.38Zm0-8.13A.11.11,0,0,1,3.77.13.12.12,0,1,1,4,.13.11.11,0,0,1,3.89.25Zm.38,4a.12.12,0,1,1,.12-.12A.11.11,0,0,1,4.27,4.25Zm0,3.85a.12.12,0,1,1-.12.12A.11.11,0,0,1,4.28,8.1Zm0-7.78A.11.11,0,0,1,4.19.2a.12.12,0,1,1,.24,0A.11.11,0,0,1,4.31.32Zm.32,3.89a.12.12,0,1,1-.12.12A.11.11,0,0,1,4.63,4.21Zm0-.29a.12.12,0,1,1,.12-.12A.11.11,0,0,1,4.66,3.92ZM4.67,8a.12.12,0,1,1-.12.12A.11.11,0,0,1,4.67,8Zm0-7.46A.11.11,0,0,1,4.57.41a.12.12,0,1,1,.24,0A.11.11,0,0,1,4.69.53ZM5,3.65a.12.12,0,1,1,.12-.12A.11.11,0,0,1,5,3.65ZM5,.84A.11.11,0,0,1,4.9.72a.12.12,0,0,1,.24,0A.11.11,0,0,1,5,.84ZM5,4.39a.12.12,0,1,1-.12.12A.11.11,0,0,1,5,4.39Zm0,3.4a.12.12,0,1,1-.12.12A.11.11,0,0,1,5.05,7.79Zm.17-4.48a.12.12,0,1,1,.12-.12A.11.11,0,0,1,5.22,3.31Zm0-2.1a.11.11,0,0,1-.12-.12.12.12,0,0,1,.24,0A.11.11,0,0,1,5.26,1.21Zm.07,3.46a.12.12,0,1,1-.12.12A.11.11,0,0,1,5.33,4.67Zm0,2.81a.12.12,0,1,1-.12.12A.11.11,0,0,1,5.38,7.48Zm0-4.56a.11.11,0,0,1-.12-.12.12.12,0,0,1,.24,0A.11.11,0,0,1,5.4,2.92Zm0-1.3A.11.11,0,0,1,5.3,1.5a.12.12,0,0,1,.24,0A.11.11,0,0,1,5.42,1.62Zm.06.85a.11.11,0,0,1-.12-.12.12.12,0,1,1,.24,0A.11.11,0,0,1,5.48,2.47ZM5.5,2a.11.11,0,0,1-.12-.12.12.12,0,0,1,.24,0A.11.11,0,0,1,5.5,2Zm.08,3a.12.12,0,1,1-.12.12A.11.11,0,0,1,5.58,5Zm0,2.1a.12.12,0,1,1-.12.12A.11.11,0,0,1,5.62,7.1Zm.14-1.7a.12.12,0,1,1-.12.12A.11.11,0,0,1,5.76,5.4Zm0,1.3a.12.12,0,1,1-.12.12A.11.11,0,0,1,5.78,6.7Zm.06-.86A.12.12,0,1,1,5.72,6,.11.11,0,0,1,5.84,5.84Zm0,.45a.12.12,0,1,1-.12.12A.11.11,0,0,1,5.86,6.29Z"/></g></g></svg>