<svg xmlns="http://www.w3.org/2000/svg" viewBox="0 0 7.26 8.62"><defs><style>.cls-1{fill:#231f20;}</style></defs><g id="Layer_2" data-name="Layer 2"><g id="Layer_1-2" data-name="Layer 1"><path class="cls-1" d="M.12,4.48a.12.12,0,1,1,0-.24.12.12,0,1,1,0,.24Zm0-.76A.12.12,0,1,1,.13,4a.12.12,0,1,1,0-.24ZM.16,5a.12.12,0,1,1,0-.24A.12.12,0,1,1,.16,5Zm0-1.75a.12.12,0,0,1,0,.24.12.12,0,1,1,0-.24ZM.26,5.47a.12.12,0,0,1,0-.24.12.12,0,0,1,0,.24ZM.34,2.75a.11.11,0,0,1,.12.12A.11.11,0,0,1,.34,3a.11.11,0,0,1-.12-.12A.11.11,0,0,1,.34,2.75ZM.42,6a.12.12,0,1,1,0-.24A.12.12,0,1,1,.42,6Zm.1-3.71a.11.11,0,0,1,.12.12.11.11,0,0,1-.12.12A.11.11,0,0,1,.4,2.39.11.11,0,0,1,.52,2.27ZM.64,6.42a.12.12,0,1,1,0-.24.12.12,0,1,1,0,.24ZM.76,1.84A.11.11,0,0,1,.88,2a.11.11,0,0,1-.12.12A.11.11,0,0,1,.64,2,.11.11,0,0,1,.76,1.84Zm.09,5a.12.12,0,1,1,0-.24.12.12,0,1,1,0,.24ZM1,1.43a.11.11,0,0,1,.12.12A.11.11,0,0,1,1,1.67a.11.11,0,0,1-.12-.12A.11.11,0,0,1,1,1.43Zm.14,5.79a.12.12,0,0,1,0-.24.12.12,0,0,1,0,.24ZM1.4,1a.11.11,0,0,1,.12.12.11.11,0,0,1-.12.12.11.11,0,0,1-.12-.12A.11.11,0,0,1,1.4,1Zm.12,6.55a.12.12,0,1,1,0-.24.12.12,0,0,1,0,.24ZM1.8.68A.11.11,0,0,1,1.92.8.11.11,0,0,1,1.8.92.11.11,0,0,1,1.68.8.11.11,0,0,1,1.8.68Zm.12,7.2a.12.12,0,1,1,0-.24.12.12,0,0,1,0,.24ZM2.24.41a.11.11,0,0,1,.12.12.11.11,0,0,1-.12.12A.11.11,0,0,1,2.12.53.11.11,0,0,1,2.24.41Zm.09,7.75a.12.12,0,0,1,0-.24.12.12,0,0,1,0,.24ZM2.7.22a.11.11,0,0,1,.12.12A.11.11,0,0,1,2.7.46.11.11,0,0,1,2.58.34.11.11,0,0,1,2.7.22Zm.1,8.17a.12.12,0,0,1,0-.24.12.12,0,0,1,0,.24ZM3.19.07a.11.11,0,0,1,.12.12.12.12,0,0,1-.24,0A.11.11,0,0,1,3.19.07Zm.09,8.47a.12.12,0,1,1,.12-.12A.11.11,0,0,1,3.28,8.54ZM3.67,0a.11.11,0,0,1,.12.12.12.12,0,1,1-.24,0A.11.11,0,0,1,3.67,0Zm.11,8.62A.12.12,0,1,1,3.9,8.5.11.11,0,0,1,3.78,8.62ZM4.16,0a.11.11,0,0,1,.12.12A.12.12,0,0,1,4,.12.11.11,0,0,1,4.16,0Zm.12,8.6a.12.12,0,1,1,.12-.12A.11.11,0,0,1,4.28,8.6ZM4.64.06a.11.11,0,0,1,.12.12.12.12,0,1,1-.24,0A.11.11,0,0,1,4.64.06Zm.15,8.47a.12.12,0,1,1,.12-.12A.11.11,0,0,1,4.79,8.53ZM5.11.2a.11.11,0,0,1,.12.12A.12.12,0,0,1,5,.32.11.11,0,0,1,5.11.2Zm.17,8.19a.12.12,0,1,1,.12-.12A.11.11,0,0,1,5.28,8.39Zm.29-8a.11.11,0,0,1,.12.12.12.12,0,0,1-.24,0A.11.11,0,0,1,5.57.4Zm.18,7.78a.12.12,0,1,1,.12-.12A.11.11,0,0,1,5.75,8.18ZM6,.65a.11.11,0,0,1,.12.12.12.12,0,0,1-.24,0A.11.11,0,0,1,6,.65Zm.16,7.27a.12.12,0,1,1,.12-.12A.11.11,0,0,1,6.17,7.92ZM6.38,1a.11.11,0,0,1,.12.12.12.12,0,1,1-.24,0A.11.11,0,0,1,6.38,1Zm.16,6.6a.12.12,0,1,1,.12-.12A.11.11,0,0,1,6.54,7.58Zm.17-6.21a.11.11,0,0,1,.12.12.12.12,0,1,1-.24,0A.11.11,0,0,1,6.71,1.37Zm.15,5.87A.12.12,0,1,1,7,7.12.11.11,0,0,1,6.86,7.24ZM7,1.78a.11.11,0,0,1,.12.12.12.12,0,1,1-.24,0A.11.11,0,0,1,7,1.78Zm.17,5a.12.12,0,1,1,.12-.12A.11.11,0,0,1,7.14,6.82Z"/></g></g></svg>