<svg xmlns="http://www.w3.org/2000/svg" viewBox="0 0 6.64 8.36"><defs><style>.cls-1{fill:#231f20;}</style></defs><g id="Layer_2" data-name="Layer 2"><g id="Layer_1-2" data-name="Layer 1"><path class="cls-1" d="M.12.28A.11.11,0,0,1,0,.16.11.11,0,0,1,.12,0,.11.11,0,0,1,.24.16.11.11,0,0,1,.12.28Zm0,.44A.11.11,0,0,1,0,.6.11.11,0,0,1,.12.48.11.11,0,0,1,.24.6.11.11,0,0,1,.12.72Zm0,.46A.11.11,0,0,1,0,1.06.11.11,0,0,1,.12.94a.11.11,0,0,1,.12.12A.11.11,0,0,1,.12,1.18Zm0,.43A.11.11,0,0,1,0,1.49a.11.11,0,0,1,.12-.12.11.11,0,0,1,.12.12A.11.11,0,0,1,.12,1.61Zm0,.48A.11.11,0,0,1,0,2a.11.11,0,0,1,.12-.12A.11.11,0,0,1,.24,2,.11.11,0,0,1,.12,2.09Zm0,.47A.11.11,0,0,1,0,2.44a.11.11,0,0,1,.12-.12.11.11,0,0,1,.12.12A.11.11,0,0,1,.12,2.56Zm0,.51A.11.11,0,0,1,0,3a.11.11,0,0,1,.12-.12A.11.11,0,0,1,.24,3,.11.11,0,0,1,.12,3.07Zm0,.48a.12.12,0,0,1,0-.24.12.12,0,0,1,0,.24ZM.12,4a.12.12,0,0,1,0-.24A.12.12,0,0,1,.12,4Zm0,.45a.12.12,0,1,1,0-.24.12.12,0,1,1,0,.24ZM.12,5a.12.12,0,0,1,0-.24A.12.12,0,0,1,.12,5Zm0,.48a.12.12,0,0,1,0-.24.12.12,0,0,1,0,.24Zm0,.46a.12.12,0,1,1,0-.24.12.12,0,1,1,0,.24Zm0,.5a.12.12,0,1,1,0-.24.12.12,0,1,1,0,.24Zm0,.49a.12.12,0,1,1,0-.24.12.12,0,1,1,0,.24Zm0,.49a.12.12,0,0,1,0-.24.12.12,0,0,1,0,.24Zm0,.48a.12.12,0,0,1,0-.24.12.12,0,0,1,0,.24Zm0,.48a.12.12,0,0,1,0-.24.12.12,0,0,1,0,.24ZM.52.24A.11.11,0,0,1,.4.12.11.11,0,0,1,.52,0,.11.11,0,0,1,.64.12.11.11,0,0,1,.52.24Zm0,8.12a.12.12,0,0,1,0-.24.12.12,0,0,1,0,.24ZM.94.24A.11.11,0,0,1,.82.12.11.11,0,0,1,.94,0a.11.11,0,0,1,.12.12A.11.11,0,0,1,.94.24Zm0,8.12a.12.12,0,0,1,0-.24.12.12,0,0,1,0,.24ZM1.36.24A.11.11,0,0,1,1.24.12.11.11,0,0,1,1.36,0a.11.11,0,0,1,.12.12A.11.11,0,0,1,1.36.24Zm0,8.12a.12.12,0,0,1,0-.24.12.12,0,0,1,0,.24ZM1.78.24A.11.11,0,0,1,1.66.12.11.11,0,0,1,1.78,0,.11.11,0,0,1,1.9.12.11.11,0,0,1,1.78.24Zm0,8.12a.12.12,0,0,1,0-.24.12.12,0,0,1,0,.24ZM2.2.24A.11.11,0,0,1,2.08.12.11.11,0,0,1,2.2,0a.11.11,0,0,1,.12.12A.11.11,0,0,1,2.2.24Zm0,8.12a.12.12,0,0,1,0-.24.12.12,0,0,1,0,.24ZM2.62.24A.11.11,0,0,1,2.5.12.11.11,0,0,1,2.62,0a.11.11,0,0,1,.12.12A.11.11,0,0,1,2.62.24Zm.06,8.12a.12.12,0,0,1,0-.24.12.12,0,0,1,0,.24ZM3,.25A.11.11,0,0,1,2.92.13a.12.12,0,1,1,.24,0A.11.11,0,0,1,3,.25Zm.09,8.1a.12.12,0,1,1,.12-.12A.11.11,0,0,1,3.13,8.35ZM3.46.29A.11.11,0,0,1,3.34.17a.12.12,0,1,1,.24,0A.11.11,0,0,1,3.46.29Zm.14,8a.12.12,0,1,1,.12-.12A.11.11,0,0,1,3.6,8.29ZM3.88.36A.11.11,0,0,1,3.76.24.12.12,0,0,1,4,.24.11.11,0,0,1,3.88.36ZM4.1,8.17a.12.12,0,1,1,.12-.12A.11.11,0,0,1,4.1,8.17ZM4.28.5A.11.11,0,0,1,4.16.38a.12.12,0,1,1,.24,0A.11.11,0,0,1,4.28.5ZM4.56,8a.12.12,0,1,1,.12-.12A.11.11,0,0,1,4.56,8Zm.1-7.3A.11.11,0,0,1,4.54.56a.12.12,0,0,1,.24,0A.11.11,0,0,1,4.66.68ZM5,7.73a.12.12,0,1,1,.12-.12A.11.11,0,0,1,5,7.73ZM5,.91A.11.11,0,0,1,4.91.79a.12.12,0,1,1,.24,0A.11.11,0,0,1,5,.91Zm.32.29a.11.11,0,0,1-.12-.12.12.12,0,1,1,.24,0A.11.11,0,0,1,5.35,1.2Zm0,6.23a.12.12,0,1,1,.12-.12A.11.11,0,0,1,5.36,7.43Zm.28-5.89a.11.11,0,0,1-.12-.12.12.12,0,0,1,.24,0A.11.11,0,0,1,5.64,1.54ZM5.7,7.06a.12.12,0,1,1,.12-.12A.11.11,0,0,1,5.7,7.06Zm.2-5.18a.11.11,0,0,1-.12-.12.12.12,0,1,1,.24,0A.11.11,0,0,1,5.9,1.88ZM6,6.61a.12.12,0,1,1,.12-.12A.11.11,0,0,1,6,6.61ZM6.1,2.28A.11.11,0,0,1,6,2.16a.12.12,0,1,1,.24,0A.11.11,0,0,1,6.1,2.28ZM6.17,6.2a.12.12,0,1,1,.12-.12A.11.11,0,0,1,6.17,6.2Zm.07-3.5a.11.11,0,0,1-.12-.12.12.12,0,0,1,.24,0A.11.11,0,0,1,6.24,2.7Zm.1,3.06a.12.12,0,1,1,.12-.12A.11.11,0,0,1,6.34,5.76Zm0-2.64A.11.11,0,0,1,6.24,3a.12.12,0,1,1,.24,0A.11.11,0,0,1,6.36,3.12Zm.08,2.2a.12.12,0,1,1,.12-.12A.11.11,0,0,1,6.44,5.32Zm0-1.78a.12.12,0,1,1,.12-.12A.11.11,0,0,1,6.46,3.54ZM6.5,4a.12.12,0,1,1,.12-.12A.11.11,0,0,1,6.5,4Zm0,.92a.12.12,0,1,1,.12-.12A.11.11,0,0,1,6.5,4.9Zm0-.45a.12.12,0,1,1,.12-.12A.11.11,0,0,1,6.52,4.45Z"/></g></g></svg>