<svg xmlns="http://www.w3.org/2000/svg" viewBox="0 0 5.36 8.32"><defs><style>.cls-1{fill:#231f20;}</style></defs><g id="Layer_2" data-name="Layer 2"><g id="Layer_1-2" data-name="Layer 1"><path class="cls-1" d="M.12.25A.11.11,0,0,1,0,.13.11.11,0,0,1,.12,0,.11.11,0,0,1,.24.13.11.11,0,0,1,.12.25ZM.12.7A.11.11,0,0,1,0,.58.11.11,0,0,1,.12.46.11.11,0,0,1,.24.58.11.11,0,0,1,.12.7Zm0,.45A.11.11,0,0,1,0,1,.11.11,0,0,1,.12.91.11.11,0,0,1,.24,1,.11.11,0,0,1,.12,1.15Zm0,.43A.11.11,0,0,1,0,1.46a.11.11,0,0,1,.12-.12.11.11,0,0,1,.12.12A.11.11,0,0,1,.12,1.58Zm0,.48A.11.11,0,0,1,0,1.94a.11.11,0,0,1,.12-.12.11.11,0,0,1,.12.12A.11.11,0,0,1,.12,2.06Zm0,.47A.11.11,0,0,1,0,2.41a.11.11,0,0,1,.12-.12.11.11,0,0,1,.12.12A.11.11,0,0,1,.12,2.53Zm0,.52A.11.11,0,0,1,0,2.93a.11.11,0,0,1,.12-.12.11.11,0,0,1,.12.12A.11.11,0,0,1,.12,3.05Zm0,.48a.12.12,0,1,1,0-.24.12.12,0,1,1,0,.24ZM.12,4a.12.12,0,0,1,0-.24A.12.12,0,0,1,.12,4Zm0,.44a.12.12,0,0,1,0-.24.12.12,0,0,1,0,.24Zm0,.48a.12.12,0,1,1,0-.24.12.12,0,1,1,0,.24Zm0,.48a.12.12,0,1,1,0-.24.12.12,0,1,1,0,.24Zm0,.47a.12.12,0,0,1,0-.24.12.12,0,0,1,0,.24Zm0,.49a.12.12,0,0,1,0-.24.12.12,0,0,1,0,.24Zm0,.49a.12.12,0,0,1,0-.24.12.12,0,0,1,0,.24Zm0,.5a.12.12,0,0,1,0-.24.12.12,0,0,1,0,.24Zm0,.48a.12.12,0,1,1,0-.24.12.12,0,1,1,0,.24Zm0,.48a.12.12,0,1,1,0-.24.12.12,0,1,1,0,.24Zm.4-4.11A.12.12,0,0,1,.52,4a.12.12,0,1,1,0,.24Zm0-4A.11.11,0,0,1,.44.12.11.11,0,0,1,.56,0,.11.11,0,0,1,.68.12.11.11,0,0,1,.56.24Zm.38,4A.12.12,0,0,1,.94,4a.12.12,0,1,1,0,.24Zm0-4A.11.11,0,0,1,.86.12.11.11,0,0,1,1,0,.11.11,0,0,1,1.1.12.11.11,0,0,1,1,.24Zm.38,4a.12.12,0,0,1,0-.24.12.12,0,0,1,0,.24Zm0-4A.11.11,0,0,1,1.28.12.11.11,0,0,1,1.4,0a.11.11,0,0,1,.12.12A.11.11,0,0,1,1.4.24Zm.39,4a.12.12,0,0,1,0-.24.12.12,0,0,1,0,.24Zm.05-4A.11.11,0,0,1,1.72.12.11.11,0,0,1,1.84,0,.11.11,0,0,1,2,.12.11.11,0,0,1,1.84.24Zm.38,4a.12.12,0,0,1,0-.24.12.12,0,0,1,0,.24Zm0-4A.11.11,0,0,1,2.15.12.11.11,0,0,1,2.27,0a.11.11,0,0,1,.12.12A.11.11,0,0,1,2.27.24Zm.37,4a.12.12,0,0,1,0-.24.12.12,0,0,1,0,.24Zm0-4A.11.11,0,0,1,2.57.12.11.11,0,0,1,2.69,0a.11.11,0,0,1,.12.12A.11.11,0,0,1,2.69.24Zm.37,4a.12.12,0,1,1,.12-.12A.11.11,0,0,1,3.06,4.21Zm0-4A.11.11,0,0,1,3,.12a.12.12,0,0,1,.24,0A.11.11,0,0,1,3.11.24Zm.38,4a.12.12,0,1,1,.12-.12A.11.11,0,0,1,3.49,4.21Zm0-4A.11.11,0,0,1,3.42.12a.12.12,0,0,1,.24,0A.11.11,0,0,1,3.54.24Zm.37,4A.12.12,0,1,1,4,4.09.11.11,0,0,1,3.91,4.21Zm0-4A.11.11,0,0,1,3.84.12a.12.12,0,1,1,.24,0A.11.11,0,0,1,4,.24Zm.38,4a.12.12,0,1,1,.12-.12A.11.11,0,0,1,4.34,4.21Zm0-4A.11.11,0,0,1,4.27.12a.12.12,0,1,1,.24,0A.11.11,0,0,1,4.39.24Zm.39,4a.12.12,0,1,1,.12-.12A.11.11,0,0,1,4.78,4.21Zm0-4A.11.11,0,0,1,4.7.12a.12.12,0,0,1,.24,0A.11.11,0,0,1,4.82.24Zm.42,0A.11.11,0,0,1,5.12.12a.12.12,0,0,1,.24,0A.11.11,0,0,1,5.24.24Z"/></g></g></svg>