<svg xmlns="http://www.w3.org/2000/svg" viewBox="0 0 6.31 8.3"><defs><style>.cls-1{fill:#231f20;}</style></defs><g id="Layer_2" data-name="Layer 2"><g id="Layer_1-2" data-name="Layer 1"><path class="cls-1" d="M.12.24A.11.11,0,0,1,0,.12.11.11,0,0,1,.12,0,.11.11,0,0,1,.24.12.11.11,0,0,1,.12.24Zm0,.44A.11.11,0,0,1,0,.56.11.11,0,0,1,.12.44.11.11,0,0,1,.24.56.11.11,0,0,1,.12.68Zm0,.46A.11.11,0,0,1,0,1,.11.11,0,0,1,.12.9.11.11,0,0,1,.24,1,.11.11,0,0,1,.12,1.14Zm0,.43A.11.11,0,0,1,0,1.45a.11.11,0,0,1,.12-.12.11.11,0,0,1,.12.12A.11.11,0,0,1,.12,1.57Zm0,.48A.11.11,0,0,1,0,1.93a.11.11,0,0,1,.12-.12.11.11,0,0,1,.12.12A.11.11,0,0,1,.12,2.05Zm0,.47A.11.11,0,0,1,0,2.4a.11.11,0,0,1,.12-.12.11.11,0,0,1,.12.12A.11.11,0,0,1,.12,2.52ZM.12,3A.11.11,0,0,1,0,2.92.11.11,0,0,1,.12,2.8a.11.11,0,0,1,.12.12A.11.11,0,0,1,.12,3Zm0,.48a.12.12,0,0,1,0-.24.12.12,0,0,1,0,.24ZM.12,4a.12.12,0,0,1,0-.24A.12.12,0,0,1,.12,4Zm0,.44a.12.12,0,0,1,0-.24.12.12,0,0,1,0,.24Zm0,.48a.12.12,0,1,1,0-.24.12.12,0,1,1,0,.24Zm0,.48a.12.12,0,1,1,0-.24.12.12,0,1,1,0,.24Zm0,.47a.12.12,0,0,1,0-.24.12.12,0,0,1,0,.24Zm0,.49a.12.12,0,0,1,0-.24.12.12,0,0,1,0,.24Zm0,.49a.12.12,0,1,1,0-.24.12.12,0,1,1,0,.24Zm0,.49a.12.12,0,1,1,0-.24.12.12,0,1,1,0,.24Zm0,.48a.12.12,0,1,1,0-.24.12.12,0,1,1,0,.24Zm0,.48a.12.12,0,1,1,0-.24.12.12,0,1,1,0,.24ZM.48,4.16a.12.12,0,0,1,0-.24.12.12,0,1,1,0,.24Zm.44,0a.12.12,0,0,1,0-.24.12.12,0,1,1,0,.24Zm.45,0a.12.12,0,0,1,0-.24.12.12,0,0,1,0,.24Zm.44,0a.12.12,0,1,1,0-.24.12.12,0,0,1,0,.24Zm.45,0a.12.12,0,0,1,0-.24.12.12,0,0,1,0,.24Zm.44,0a.12.12,0,0,1,0-.24.12.12,0,0,1,0,.24Zm.44,0A.12.12,0,1,1,3.26,4,.11.11,0,0,1,3.14,4.16Zm.45,0A.12.12,0,1,1,3.71,4,.11.11,0,0,1,3.59,4.16Zm.44,0A.12.12,0,1,1,4.15,4,.11.11,0,0,1,4,4.16Zm.45,0A.12.12,0,1,1,4.6,4,.11.11,0,0,1,4.48,4.16Zm.44,0A.12.12,0,1,1,5,4,.11.11,0,0,1,4.92,4.16Zm.47,0A.12.12,0,1,1,5.51,4,.11.11,0,0,1,5.39,4.16Zm.44,0A.12.12,0,1,1,6,4,.11.11,0,0,1,5.83,4.16ZM6.19.24A.11.11,0,0,1,6.07.12a.12.12,0,1,1,.24,0A.11.11,0,0,1,6.19.24Zm0,.44A.11.11,0,0,1,6.07.56a.12.12,0,0,1,.24,0A.11.11,0,0,1,6.19.68Zm0,.46A.11.11,0,0,1,6.07,1a.12.12,0,1,1,.24,0A.11.11,0,0,1,6.19,1.14Zm0,.43a.11.11,0,0,1-.12-.12.12.12,0,1,1,.24,0A.11.11,0,0,1,6.19,1.57Zm0,.48a.11.11,0,0,1-.12-.12.12.12,0,1,1,.24,0A.11.11,0,0,1,6.19,2.05Zm0,.47a.11.11,0,0,1-.12-.12.12.12,0,1,1,.24,0A.11.11,0,0,1,6.19,2.52Zm0,.52a.11.11,0,0,1-.12-.12.12.12,0,1,1,.24,0A.11.11,0,0,1,6.19,3Zm0,.48a.12.12,0,1,1,.12-.12A.11.11,0,0,1,6.19,3.52Zm0,.48a.12.12,0,1,1,.12-.12A.11.11,0,0,1,6.19,4Zm0,.44a.12.12,0,1,1,.12-.12A.11.11,0,0,1,6.19,4.44Zm0,.48a.12.12,0,1,1,.12-.12A.11.11,0,0,1,6.19,4.92Zm0,.48a.12.12,0,1,1,.12-.12A.11.11,0,0,1,6.19,5.4Zm0,.47a.12.12,0,1,1,.12-.12A.11.11,0,0,1,6.19,5.87Zm0,.49a.12.12,0,1,1,.12-.12A.11.11,0,0,1,6.19,6.36Zm0,.49a.12.12,0,1,1,.12-.12A.11.11,0,0,1,6.19,6.85Zm0,.49a.12.12,0,1,1,.12-.12A.11.11,0,0,1,6.19,7.34Zm0,.48a.12.12,0,1,1,.12-.12A.11.11,0,0,1,6.19,7.82Zm0,.48a.12.12,0,1,1,.12-.12A.11.11,0,0,1,6.19,8.3Z"/></g></g></svg>