<svg xmlns="http://www.w3.org/2000/svg" viewBox="0 0 0.24 8.66"><defs><style>.cls-1{fill:#231f20;}</style></defs><g id="Layer_2" data-name="Layer 2"><g id="Layer_1-2" data-name="Layer 1"><path class="cls-1" d="M-8.92-.07A.11.11,0,0,1-9-.19a.11.11,0,0,1,.12-.12.11.11,0,0,1,.12.12A.11.11,0,0,1-8.92-.07Zm0,.41A.11.11,0,0,1-9,.22.11.11,0,0,1-8.92.1.11.11,0,0,1-8.8.22.11.11,0,0,1-8.92.34Zm0,.42A.11.11,0,0,1-9,.64.11.11,0,0,1-8.92.52.11.11,0,0,1-8.8.64.11.11,0,0,1-8.92.76Zm0,.42A.11.11,0,0,1-9,1.06.11.11,0,0,1-8.92.94a.11.11,0,0,1,.12.12A.11.11,0,0,1-8.92,1.18Zm0,.42A.11.11,0,0,1-9,1.48a.11.11,0,0,1,.12-.12.11.11,0,0,1,.12.12A.11.11,0,0,1-8.92,1.6Zm0,.42A.11.11,0,0,1-9,1.9a.11.11,0,0,1,.12-.12.11.11,0,0,1,.12.12A.11.11,0,0,1-8.92,2Zm0,.42A.11.11,0,0,1-9,2.32a.11.11,0,0,1,.12-.12.11.11,0,0,1,.12.12A.11.11,0,0,1-8.92,2.44Zm0,.42A.11.11,0,0,1-9,2.74a.11.11,0,0,1,.12-.12.11.11,0,0,1,.12.12A.11.11,0,0,1-8.92,2.86Zm0,.43A.11.11,0,0,1-9,3.17a.11.11,0,0,1,.12-.12.11.11,0,0,1,.12.12A.11.11,0,0,1-8.92,3.29Zm0,.42A.11.11,0,0,1-9,3.59a.11.11,0,0,1,.12-.12.11.11,0,0,1,.12.12A.11.11,0,0,1-8.92,3.71Zm0,.42A.11.11,0,0,1-9,4a.11.11,0,0,1,.12-.12A.11.11,0,0,1-8.8,4,.11.11,0,0,1-8.92,4.13Zm0,.42A.11.11,0,0,1-9,4.43a.11.11,0,0,1,.12-.12.11.11,0,0,1,.12.12A.11.11,0,0,1-8.92,4.55Zm0,.42A.11.11,0,0,1-9,4.85a.11.11,0,0,1,.12-.12.11.11,0,0,1,.12.12A.11.11,0,0,1-8.92,5Zm0,.42A.11.11,0,0,1-9,5.27a.11.11,0,0,1,.12-.12.11.11,0,0,1,.12.12A.11.11,0,0,1-8.92,5.39Zm0,.42A.11.11,0,0,1-9,5.69a.11.11,0,0,1,.12-.12.11.11,0,0,1,.12.12A.11.11,0,0,1-8.92,5.81Zm0,.42A.11.11,0,0,1-9,6.11.11.11,0,0,1-8.92,6a.11.11,0,0,1,.12.12A.11.11,0,0,1-8.92,6.23Zm0,.44A.11.11,0,0,1-9,6.55a.11.11,0,0,1,.12-.12.11.11,0,0,1,.12.12A.11.11,0,0,1-8.92,6.67Zm0,.42A.11.11,0,0,1-9,7a.11.11,0,0,1,.12-.12A.11.11,0,0,1-8.8,7,.11.11,0,0,1-8.92,7.09Zm0,.42A.11.11,0,0,1-9,7.39a.11.11,0,0,1,.12-.12.11.11,0,0,1,.12.12A.11.11,0,0,1-8.92,7.51Zm0,.42A.11.11,0,0,1-9,7.81a.11.11,0,0,1,.12-.12.11.11,0,0,1,.12.12A.11.11,0,0,1-8.92,7.93Zm0,.42A.11.11,0,0,1-9,8.23a.11.11,0,0,1,.12-.12.11.11,0,0,1,.12.12A.11.11,0,0,1-8.92,8.35Z" transform="translate(9.04 0.31)"/></g></g></svg>