<svg xmlns="http://www.w3.org/2000/svg" viewBox="0 0 4.27 8.47"><defs><style>.cls-1{fill:#231f20;}</style></defs><g id="Layer_2" data-name="Layer 2"><g id="Layer_1-2" data-name="Layer 1"><path class="cls-1" d="M.12,8a.12.12,0,1,1,0-.24A.12.12,0,1,1,.12,8Zm.46.23A.12.12,0,1,1,.58,8a.12.12,0,1,1,0,.24Zm.52.14a.12.12,0,0,1,0-.24.12.12,0,0,1,0,.24Zm.54.07a.12.12,0,0,1,0-.24.12.12,0,0,1,0,.24Zm.52,0a.12.12,0,0,1,0-.24.12.12,0,0,1,0,.24Zm.5-.12a.12.12,0,0,1,0-.24.12.12,0,0,1,0,.24Zm.47-.23A.12.12,0,1,1,3.25,8,.11.11,0,0,1,3.13,8.11Zm.37-.36a.12.12,0,1,1,.12-.12A.11.11,0,0,1,3.5,7.75Zm.28-.43A.12.12,0,1,1,3.9,7.2.11.11,0,0,1,3.78,7.32Zm.16-.46a.12.12,0,1,1,.12-.12A.11.11,0,0,1,3.94,6.86ZM4,6.37a.12.12,0,1,1,.12-.12A.11.11,0,0,1,4,6.37Zm.06-.48a.12.12,0,1,1,.12-.12A.11.11,0,0,1,4.1,5.89Zm0-.5a.12.12,0,1,1,.12-.12A.11.11,0,0,1,4.14,5.39Zm0-5.15A.11.11,0,0,1,4,.12a.12.12,0,1,1,.24,0A.11.11,0,0,1,4.15.24Zm0,.44A.11.11,0,0,1,4,.56a.12.12,0,1,1,.24,0A.11.11,0,0,1,4.15.68Zm0,.46A.11.11,0,0,1,4,1a.12.12,0,1,1,.24,0A.11.11,0,0,1,4.15,1.14Zm0,.46A.11.11,0,0,1,4,1.48a.12.12,0,1,1,.24,0A.11.11,0,0,1,4.15,1.6Zm0,.44A.11.11,0,0,1,4,1.92a.12.12,0,1,1,.24,0A.11.11,0,0,1,4.15,2Zm0,.47A.11.11,0,0,1,4,2.39a.12.12,0,1,1,.24,0A.11.11,0,0,1,4.15,2.51Zm0,.53A.11.11,0,0,1,4,2.92a.12.12,0,1,1,.24,0A.11.11,0,0,1,4.15,3Zm0,.44a.12.12,0,1,1,.12-.12A.11.11,0,0,1,4.15,3.48Zm0,.49a.12.12,0,1,1,.12-.12A.11.11,0,0,1,4.15,4Zm0,.47a.12.12,0,1,1,.12-.12A.11.11,0,0,1,4.15,4.44Zm0,.47a.12.12,0,1,1,.12-.12A.11.11,0,0,1,4.15,4.91Z"/></g></g></svg>