<svg xmlns="http://www.w3.org/2000/svg" viewBox="0 0 5.96 8.45"><defs><style>.cls-1{fill:#231f20;}</style></defs><g id="Layer_2" data-name="Layer 2"><g id="Layer_1-2" data-name="Layer 1"><path class="cls-1" d="M.12.24A.11.11,0,0,1,0,.12.11.11,0,0,1,.12,0,.11.11,0,0,1,.24.12.11.11,0,0,1,.12.24Zm0,.44A.11.11,0,0,1,0,.56.11.11,0,0,1,.12.44.11.11,0,0,1,.24.56.11.11,0,0,1,.12.68Zm0,.46A.11.11,0,0,1,0,1,.11.11,0,0,1,.12.9.11.11,0,0,1,.24,1,.11.11,0,0,1,.12,1.14Zm0,.43A.11.11,0,0,1,0,1.45a.11.11,0,0,1,.12-.12.11.11,0,0,1,.12.12A.11.11,0,0,1,.12,1.57Zm0,.48A.11.11,0,0,1,0,1.93a.11.11,0,0,1,.12-.12.11.11,0,0,1,.12.12A.11.11,0,0,1,.12,2.05Zm0,.47A.11.11,0,0,1,0,2.4a.11.11,0,0,1,.12-.12.11.11,0,0,1,.12.12A.11.11,0,0,1,.12,2.52ZM.12,3A.11.11,0,0,1,0,2.92.11.11,0,0,1,.12,2.8a.11.11,0,0,1,.12.12A.11.11,0,0,1,.12,3Zm0,.48a.12.12,0,0,1,0-.24.12.12,0,0,1,0,.24ZM.12,4a.12.12,0,0,1,0-.24A.12.12,0,0,1,.12,4Zm0,.44a.12.12,0,0,1,0-.24.12.12,0,0,1,0,.24Zm0,.48a.12.12,0,1,1,0-.24.12.12,0,1,1,0,.24Zm0,.48a.12.12,0,1,1,0-.24.12.12,0,1,1,0,.24Zm0,.47a.12.12,0,0,1,0-.24.12.12,0,0,1,0,.24Zm0,.49a.12.12,0,0,1,0-.24.12.12,0,0,1,0,.24Zm0,.49a.12.12,0,1,1,0-.24.12.12,0,1,1,0,.24Zm0,.49a.12.12,0,1,1,0-.24.12.12,0,1,1,0,.24Zm0,.48a.12.12,0,1,1,0-.24.12.12,0,1,1,0,.24Zm0,.48a.12.12,0,1,1,0-.24.12.12,0,1,1,0,.24Zm.3-2.68a.12.12,0,0,1,0-.24.12.12,0,0,1,0,.24Zm.31-.34A.12.12,0,0,1,.73,5a.12.12,0,0,1,0,.24Zm.33-.34a.12.12,0,0,1,0-.24.12.12,0,0,1,0,.24Zm.32-.31a.12.12,0,0,1,0-.24.12.12,0,0,1,0,.24Zm.31-.33a.12.12,0,0,1,0-.24.12.12,0,0,1,0,.24ZM2,4a.12.12,0,0,1,0-.24A.12.12,0,0,1,2,4Zm.31-.33a.12.12,0,0,1,0-.24.12.12,0,0,1,0,.24Zm.07.44a.12.12,0,1,1,0-.24.12.12,0,0,1,0,.24Zm.24-.78a.12.12,0,0,1,0-.24.12.12,0,0,1,0,.24Zm0,1.13a.12.12,0,1,1,0-.24.12.12,0,1,1,0,.24ZM3,4.78a.12.12,0,0,1,0-.24.12.12,0,0,1,0,.24ZM3,3a.11.11,0,0,1-.12-.12A.11.11,0,0,1,3,2.74a.11.11,0,0,1,.12.12A.11.11,0,0,1,3,3Zm.25,2.16A.12.12,0,1,1,3.36,5,.11.11,0,0,1,3.24,5.14ZM3.3,2.65a.11.11,0,0,1-.12-.12.12.12,0,0,1,.24,0A.11.11,0,0,1,3.3,2.65Zm.24,2.87a.12.12,0,1,1,.12-.12A.11.11,0,0,1,3.54,5.52Zm.07-3.2a.11.11,0,0,1-.12-.12.12.12,0,0,1,.24,0A.11.11,0,0,1,3.61,2.32Zm.22,3.56A.12.12,0,1,1,4,5.76.11.11,0,0,1,3.83,5.88ZM4,2a.11.11,0,0,1-.12-.12.12.12,0,0,1,.24,0A.11.11,0,0,1,4,2Zm.17,4.25a.12.12,0,1,1,.12-.12A.11.11,0,0,1,4.12,6.24Zm.14-4.58a.11.11,0,0,1-.12-.12.12.12,0,0,1,.24,0A.11.11,0,0,1,4.26,1.66Zm.13,5a.12.12,0,1,1,.12-.12A.11.11,0,0,1,4.39,6.61ZM4.6,1.33a.11.11,0,0,1-.12-.12.12.12,0,1,1,.24,0A.11.11,0,0,1,4.6,1.33ZM4.69,7a.12.12,0,1,1,.12-.12A.11.11,0,0,1,4.69,7Zm.22-6A.11.11,0,0,1,4.79.89.12.12,0,0,1,5,.89.11.11,0,0,1,4.91,1ZM5,7.34a.12.12,0,1,1,.12-.12A.11.11,0,0,1,5,7.34ZM5.22.67A.11.11,0,0,1,5.1.55a.12.12,0,1,1,.24,0A.11.11,0,0,1,5.22.67Zm0,7a.12.12,0,1,1,.12-.12A.11.11,0,0,1,5.27,7.7Zm.27.38A.12.12,0,1,1,5.66,8,.11.11,0,0,1,5.54,8.08Zm0-7.73A.11.11,0,0,1,5.44.23a.12.12,0,0,1,.24,0A.11.11,0,0,1,5.56.35Zm.28,8.1A.12.12,0,1,1,6,8.33.11.11,0,0,1,5.84,8.45Z"/></g></g></svg>