<svg xmlns="http://www.w3.org/2000/svg" viewBox="0 0 5.7 8.66"><defs><style>.cls-1{fill:#231f20;}</style></defs><g id="Layer_2" data-name="Layer 2"><g id="Layer_1-2" data-name="Layer 1"><path class="cls-1" d="M.12.24A.11.11,0,0,1,0,.12.11.11,0,0,1,.12,0,.11.11,0,0,1,.24.12.11.11,0,0,1,.12.24Zm0,.41A.11.11,0,0,1,0,.53.11.11,0,0,1,.12.41.11.11,0,0,1,.24.53.11.11,0,0,1,.12.65Zm0,.42A.11.11,0,0,1,0,1,.11.11,0,0,1,.12.83.11.11,0,0,1,.24,1,.11.11,0,0,1,.12,1.07Zm0,.42A.11.11,0,0,1,0,1.37a.11.11,0,0,1,.12-.12.11.11,0,0,1,.12.12A.11.11,0,0,1,.12,1.49Zm0,.42A.11.11,0,0,1,0,1.79a.11.11,0,0,1,.12-.12.11.11,0,0,1,.12.12A.11.11,0,0,1,.12,1.91Zm0,.42A.11.11,0,0,1,0,2.21a.11.11,0,0,1,.12-.12.11.11,0,0,1,.12.12A.11.11,0,0,1,.12,2.33Zm0,.42A.11.11,0,0,1,0,2.63a.11.11,0,0,1,.12-.12.11.11,0,0,1,.12.12A.11.11,0,0,1,.12,2.75Zm0,.42a.12.12,0,1,1,0-.24.12.12,0,1,1,0,.24Zm0,.43a.12.12,0,0,1,0-.24.12.12,0,0,1,0,.24ZM.12,4a.12.12,0,0,1,0-.24A.12.12,0,0,1,.12,4Zm0,.42a.12.12,0,0,1,0-.24.12.12,0,0,1,0,.24Zm0,.42a.12.12,0,0,1,0-.24.12.12,0,0,1,0,.24Zm0,.42A.12.12,0,0,1,.12,5a.12.12,0,0,1,0,.24Zm0,.42a.12.12,0,0,1,0-.24.12.12,0,0,1,0,.24Zm0,.42a.12.12,0,0,1,0-.24.12.12,0,0,1,0,.24Zm0,.42a.12.12,0,0,1,0-.24.12.12,0,0,1,0,.24ZM.12,7a.12.12,0,1,1,0-.24A.12.12,0,1,1,.12,7Zm0,.42a.12.12,0,1,1,0-.24.12.12,0,1,1,0,.24Zm0,.42a.12.12,0,1,1,0-.24.12.12,0,1,1,0,.24Zm0,.42A.12.12,0,0,1,.12,8a.12.12,0,0,1,0,.24Zm0,.42a.12.12,0,1,1,0-.24.12.12,0,1,1,0,.24Zm.42,0a.12.12,0,1,1,0-.24.12.12,0,0,1,0,.24Zm.42,0a.12.12,0,0,1,0-.24.12.12,0,0,1,0,.24Zm.42,0a.12.12,0,1,1,0-.24.12.12,0,0,1,0,.24Zm.42,0a.12.12,0,1,1,0-.24.12.12,0,0,1,0,.24Zm.42,0a.12.12,0,1,1,0-.24.12.12,0,0,1,0,.24Zm.42,0a.12.12,0,1,1,0-.24.12.12,0,1,1,0,.24Zm.42,0a.12.12,0,1,1,.12-.12A.11.11,0,0,1,3.06,8.66Zm.42,0a.12.12,0,1,1,.12-.12A.11.11,0,0,1,3.48,8.66Zm.42,0A.12.12,0,1,1,4,8.54.11.11,0,0,1,3.9,8.66Zm.42,0a.12.12,0,1,1,.12-.12A.11.11,0,0,1,4.32,8.66Zm.42,0a.12.12,0,1,1,.12-.12A.11.11,0,0,1,4.74,8.66Zm.42,0a.12.12,0,1,1,.12-.12A.11.11,0,0,1,5.16,8.66Zm.42,0a.12.12,0,1,1,.12-.12A.11.11,0,0,1,5.58,8.66Z"/></g></g></svg>