<svg xmlns="http://www.w3.org/2000/svg" viewBox="0 0 8.26 8.34"><defs><style>.cls-1{fill:#231f20;}</style></defs><g id="Layer_2" data-name="Layer 2"><g id="Layer_1-2" data-name="Layer 1"><path class="cls-1" d="M.12.24A.11.11,0,0,1,0,.12.11.11,0,0,1,.12,0,.11.11,0,0,1,.24.12.11.11,0,0,1,.12.24Zm0,.48A.11.11,0,0,1,0,.6.11.11,0,0,1,.12.48.11.11,0,0,1,.24.6.11.11,0,0,1,.12.72Zm0,.46A.11.11,0,0,1,0,1.06.11.11,0,0,1,.12.94a.11.11,0,0,1,.12.12A.11.11,0,0,1,.12,1.18Zm0,.43A.11.11,0,0,1,0,1.49a.11.11,0,0,1,.12-.12.11.11,0,0,1,.12.12A.11.11,0,0,1,.12,1.61Zm0,.48A.11.11,0,0,1,0,2a.11.11,0,0,1,.12-.12A.11.11,0,0,1,.24,2,.11.11,0,0,1,.12,2.09Zm0,.47A.11.11,0,0,1,0,2.44a.11.11,0,0,1,.12-.12.11.11,0,0,1,.12.12A.11.11,0,0,1,.12,2.56Zm0,.51A.11.11,0,0,1,0,3a.11.11,0,0,1,.12-.12A.11.11,0,0,1,.24,3,.11.11,0,0,1,.12,3.07Zm0,.48a.12.12,0,0,1,0-.24.12.12,0,0,1,0,.24ZM.12,4a.12.12,0,0,1,0-.24A.12.12,0,0,1,.12,4Zm0,.45a.12.12,0,1,1,0-.24.12.12,0,1,1,0,.24ZM.12,5a.12.12,0,0,1,0-.24A.12.12,0,0,1,.12,5Zm0,.48a.12.12,0,0,1,0-.24.12.12,0,0,1,0,.24Zm0,.46a.12.12,0,1,1,0-.24.12.12,0,1,1,0,.24Zm0,.5a.12.12,0,1,1,0-.24.12.12,0,1,1,0,.24Zm0,.49a.12.12,0,1,1,0-.24.12.12,0,1,1,0,.24Zm0,.49a.12.12,0,0,1,0-.24.12.12,0,0,1,0,.24Zm0,.48a.12.12,0,0,1,0-.24.12.12,0,0,1,0,.24Zm0,.48a.12.12,0,0,1,0-.24.12.12,0,0,1,0,.24ZM.43.6A.11.11,0,0,1,.31.48.11.11,0,0,1,.43.36.11.11,0,0,1,.55.48.11.11,0,0,1,.43.6ZM.68,1A.11.11,0,0,1,.56.89.11.11,0,0,1,.68.77.11.11,0,0,1,.8.89.11.11,0,0,1,.68,1Zm.24.39A.11.11,0,0,1,.8,1.28a.11.11,0,0,1,.12-.12A.11.11,0,0,1,1,1.28.11.11,0,0,1,.92,1.4Zm.26.41a.11.11,0,0,1-.12-.12.11.11,0,0,1,.12-.12.11.11,0,0,1,.12.12A.11.11,0,0,1,1.18,1.81Zm.24.41A.11.11,0,0,1,1.3,2.1.11.11,0,0,1,1.42,2a.11.11,0,0,1,.12.12A.11.11,0,0,1,1.42,2.22Zm.25.41a.11.11,0,0,1-.12-.12.11.11,0,0,1,.12-.12.11.11,0,0,1,.12.12A.11.11,0,0,1,1.67,2.63ZM1.91,3a.11.11,0,0,1-.12-.12.11.11,0,0,1,.12-.12A.11.11,0,0,1,2,2.9.11.11,0,0,1,1.91,3Zm.25.41a.12.12,0,0,1,0-.24.12.12,0,0,1,0,.24Zm.24.41a.12.12,0,0,1,0-.24.12.12,0,0,1,0,.24Zm0,0a.12.12,0,0,1,0-.24.12.12,0,0,1,0,.24Zm.25.41a.12.12,0,1,1,0-.24.12.12,0,1,1,0,.24Zm.24.39a.12.12,0,1,1,0-.24.12.12,0,0,1,0,.24Zm.25.41a.12.12,0,1,1,.12-.12A.11.11,0,0,1,3.14,5.05Zm.24.41a.12.12,0,1,1,.12-.12A.11.11,0,0,1,3.38,5.46Zm.26.41a.12.12,0,1,1,.12-.12A.11.11,0,0,1,3.64,5.87Zm.24.39A.12.12,0,1,1,4,6.14.11.11,0,0,1,3.88,6.26Zm.25.41a.12.12,0,1,1,.12-.12A.11.11,0,0,1,4.13,6.67Zm.25-.41a.12.12,0,1,1,.12-.12A.11.11,0,0,1,4.38,6.26Zm.24-.39a.12.12,0,1,1,.12-.12A.11.11,0,0,1,4.62,5.87Zm.25-.41A.12.12,0,1,1,5,5.34.11.11,0,0,1,4.87,5.46Zm.24-.41a.12.12,0,1,1,.12-.12A.11.11,0,0,1,5.11,5.05Zm.25-.41a.12.12,0,1,1,.12-.12A.11.11,0,0,1,5.36,4.64Zm.24-.39a.12.12,0,1,1,.12-.12A.11.11,0,0,1,5.6,4.25Zm.26-.41A.12.12,0,1,1,6,3.72.11.11,0,0,1,5.86,3.84Zm0,0A.12.12,0,1,1,6,3.72.11.11,0,0,1,5.86,3.84Zm.24-.41a.12.12,0,1,1,.12-.12A.11.11,0,0,1,6.1,3.43ZM6.35,3a.11.11,0,0,1-.12-.12.12.12,0,0,1,.24,0A.11.11,0,0,1,6.35,3Zm.24-.39a.11.11,0,0,1-.12-.12.12.12,0,0,1,.24,0A.11.11,0,0,1,6.59,2.63Zm.25-.41a.11.11,0,0,1-.12-.12A.12.12,0,0,1,7,2.1.11.11,0,0,1,6.84,2.22Zm.24-.41A.11.11,0,0,1,7,1.69a.12.12,0,0,1,.24,0A.11.11,0,0,1,7.08,1.81Zm.25-.41a.11.11,0,0,1-.12-.12.12.12,0,0,1,.24,0A.11.11,0,0,1,7.33,1.4ZM7.57,1A.11.11,0,0,1,7.45.89a.12.12,0,0,1,.24,0A.11.11,0,0,1,7.57,1ZM7.82.6A.11.11,0,0,1,7.7.48a.12.12,0,0,1,.24,0A.11.11,0,0,1,7.82.6ZM8.14.24A.11.11,0,0,1,8,.12a.12.12,0,0,1,.24,0A.11.11,0,0,1,8.14.24Zm0,.48A.11.11,0,0,1,8,.6a.12.12,0,1,1,.24,0A.11.11,0,0,1,8.14.72Zm0,.46A.11.11,0,0,1,8,1.06a.12.12,0,1,1,.24,0A.11.11,0,0,1,8.14,1.18Zm0,.43A.11.11,0,0,1,8,1.49a.12.12,0,1,1,.24,0A.11.11,0,0,1,8.14,1.61Zm0,.48A.11.11,0,0,1,8,2a.12.12,0,1,1,.24,0A.11.11,0,0,1,8.14,2.09Zm0,.47A.11.11,0,0,1,8,2.44a.12.12,0,1,1,.24,0A.11.11,0,0,1,8.14,2.56Zm0,.51A.11.11,0,0,1,8,3a.12.12,0,1,1,.24,0A.11.11,0,0,1,8.14,3.07Zm0,.48a.12.12,0,1,1,.12-.12A.11.11,0,0,1,8.14,3.55Zm0,.48a.12.12,0,1,1,.12-.12A.11.11,0,0,1,8.14,4Zm0,.45a.12.12,0,1,1,.12-.12A.11.11,0,0,1,8.14,4.48Zm0,.48a.12.12,0,1,1,.12-.12A.11.11,0,0,1,8.14,5Zm0,.48a.12.12,0,1,1,.12-.12A.11.11,0,0,1,8.14,5.44Zm0,.46a.12.12,0,1,1,.12-.12A.11.11,0,0,1,8.14,5.9Zm0,.5a.12.12,0,1,1,.12-.12A.11.11,0,0,1,8.14,6.4Zm0,.49a.12.12,0,1,1,.12-.12A.11.11,0,0,1,8.14,6.89Zm0,.49a.12.12,0,1,1,.12-.12A.11.11,0,0,1,8.14,7.38Zm0,.48a.12.12,0,1,1,.12-.12A.11.11,0,0,1,8.14,7.86Zm0,.48a.12.12,0,1,1,.12-.12A.11.11,0,0,1,8.14,8.34Z"/></g></g></svg>