<svg xmlns="http://www.w3.org/2000/svg" viewBox="0 0 6.89 8.34"><defs><style>.cls-1{fill:#231f20;}</style></defs><g id="Layer_2" data-name="Layer 2"><g id="Layer_1-2" data-name="Layer 1"><path class="cls-1" d="M.12.24A.11.11,0,0,1,0,.12.11.11,0,0,1,.12,0,.11.11,0,0,1,.24.12.11.11,0,0,1,.12.24Zm0,.48A.11.11,0,0,1,0,.6.11.11,0,0,1,.12.48.11.11,0,0,1,.24.6.11.11,0,0,1,.12.72Zm0,.46A.11.11,0,0,1,0,1.06.11.11,0,0,1,.12.94a.11.11,0,0,1,.12.12A.11.11,0,0,1,.12,1.18Zm0,.43A.11.11,0,0,1,0,1.49a.11.11,0,0,1,.12-.12.11.11,0,0,1,.12.12A.11.11,0,0,1,.12,1.61Zm0,.48A.11.11,0,0,1,0,2a.11.11,0,0,1,.12-.12A.11.11,0,0,1,.24,2,.11.11,0,0,1,.12,2.09Zm0,.47A.11.11,0,0,1,0,2.44a.11.11,0,0,1,.12-.12.11.11,0,0,1,.12.12A.11.11,0,0,1,.12,2.56Zm0,.51A.11.11,0,0,1,0,3a.11.11,0,0,1,.12-.12A.11.11,0,0,1,.24,3,.11.11,0,0,1,.12,3.07Zm0,.48a.12.12,0,0,1,0-.24.12.12,0,0,1,0,.24ZM.12,4a.12.12,0,0,1,0-.24A.12.12,0,0,1,.12,4Zm0,.45a.12.12,0,1,1,0-.24.12.12,0,1,1,0,.24ZM.12,5a.12.12,0,0,1,0-.24A.12.12,0,0,1,.12,5Zm0,.48a.12.12,0,0,1,0-.24.12.12,0,0,1,0,.24Zm0,.46a.12.12,0,1,1,0-.24.12.12,0,1,1,0,.24Zm0,.5a.12.12,0,1,1,0-.24.12.12,0,1,1,0,.24Zm0,.49a.12.12,0,1,1,0-.24.12.12,0,1,1,0,.24Zm0,.49a.12.12,0,0,1,0-.24.12.12,0,0,1,0,.24Zm0,.48a.12.12,0,0,1,0-.24.12.12,0,0,1,0,.24Zm0,.48a.12.12,0,0,1,0-.24.12.12,0,0,1,0,.24ZM.43.47A.11.11,0,0,1,.31.35.11.11,0,0,1,.43.23.11.11,0,0,1,.55.35.11.11,0,0,1,.43.47ZM.72.83A.11.11,0,0,1,.6.71.11.11,0,0,1,.72.59.11.11,0,0,1,.84.71.11.11,0,0,1,.72.83ZM1,1.19a.11.11,0,0,1-.12-.12A.11.11,0,0,1,1,1a.11.11,0,0,1,.12.12A.11.11,0,0,1,1,1.19Zm.29.36a.11.11,0,0,1-.12-.12.11.11,0,0,1,.12-.12.11.11,0,0,1,.12.12A.11.11,0,0,1,1.3,1.55Zm.28.36a.11.11,0,0,1-.12-.12.11.11,0,0,1,.12-.12.11.11,0,0,1,.12.12A.11.11,0,0,1,1.58,1.91Zm.29.36a.11.11,0,0,1-.12-.12A.11.11,0,0,1,1.87,2,.11.11,0,0,1,2,2.15.11.11,0,0,1,1.87,2.27Zm.29.36A.11.11,0,0,1,2,2.51a.11.11,0,0,1,.12-.12.11.11,0,0,1,.12.12A.11.11,0,0,1,2.16,2.63ZM2.45,3a.11.11,0,0,1-.12-.12.11.11,0,0,1,.12-.12.11.11,0,0,1,.12.12A.11.11,0,0,1,2.45,3Zm.29.36a.12.12,0,0,1,0-.24.12.12,0,0,1,0,.24ZM3,3.71a.12.12,0,1,1,.12-.12A.11.11,0,0,1,3,3.71Zm.29.36A.12.12,0,1,1,3.43,4,.11.11,0,0,1,3.31,4.07Zm.29.36a.12.12,0,1,1,.12-.12A.11.11,0,0,1,3.6,4.43Zm.29.36A.12.12,0,1,1,4,4.67.11.11,0,0,1,3.89,4.79Zm.29.36A.12.12,0,1,1,4.3,5,.11.11,0,0,1,4.18,5.15Zm.28.36a.12.12,0,1,1,.12-.12A.11.11,0,0,1,4.46,5.51Zm.29.36a.12.12,0,1,1,.12-.12A.11.11,0,0,1,4.75,5.87ZM5,6.23a.12.12,0,1,1,.12-.12A.11.11,0,0,1,5,6.23Zm.29.36a.12.12,0,1,1,.12-.12A.11.11,0,0,1,5.33,6.59ZM5.62,7a.12.12,0,1,1,.12-.12A.11.11,0,0,1,5.62,7Zm.28.36A.12.12,0,1,1,6,7.19.11.11,0,0,1,5.9,7.31Zm.29.36a.12.12,0,1,1,.12-.12A.11.11,0,0,1,6.19,7.67ZM6.48,8a.12.12,0,1,1,.12-.12A.11.11,0,0,1,6.48,8ZM6.77.24A.11.11,0,0,1,6.65.12a.12.12,0,0,1,.24,0A.11.11,0,0,1,6.77.24Zm0,.48A.11.11,0,0,1,6.65.6a.12.12,0,0,1,.24,0A.11.11,0,0,1,6.77.72Zm0,.46a.11.11,0,0,1-.12-.12.12.12,0,0,1,.24,0A.11.11,0,0,1,6.77,1.18Zm0,.43a.11.11,0,0,1-.12-.12.12.12,0,0,1,.24,0A.11.11,0,0,1,6.77,1.61Zm0,.48A.11.11,0,0,1,6.65,2a.12.12,0,0,1,.24,0A.11.11,0,0,1,6.77,2.09Zm0,.47a.11.11,0,0,1-.12-.12.12.12,0,0,1,.24,0A.11.11,0,0,1,6.77,2.56Zm0,.51A.11.11,0,0,1,6.65,3a.12.12,0,1,1,.24,0A.11.11,0,0,1,6.77,3.07Zm0,.48a.12.12,0,1,1,.12-.12A.11.11,0,0,1,6.77,3.55Zm0,.48a.12.12,0,1,1,.12-.12A.11.11,0,0,1,6.77,4Zm0,.45a.12.12,0,1,1,.12-.12A.11.11,0,0,1,6.77,4.48Zm0,.48a.12.12,0,1,1,.12-.12A.11.11,0,0,1,6.77,5Zm0,.48a.12.12,0,1,1,.12-.12A.11.11,0,0,1,6.77,5.44Zm0,.46a.12.12,0,1,1,.12-.12A.11.11,0,0,1,6.77,5.9Zm0,.5a.12.12,0,1,1,.12-.12A.11.11,0,0,1,6.77,6.4Zm0,.49a.12.12,0,1,1,.12-.12A.11.11,0,0,1,6.77,6.89Zm0,.49a.12.12,0,1,1,.12-.12A.11.11,0,0,1,6.77,7.38Zm0,.48a.12.12,0,1,1,.12-.12A.11.11,0,0,1,6.77,7.86Zm0,.48a.12.12,0,1,1,.12-.12A.11.11,0,0,1,6.77,8.34Z"/></g></g></svg>