<svg xmlns="http://www.w3.org/2000/svg" viewBox="0 0 5.75 8.35"><defs><style>.cls-1{fill:#231f20;}</style></defs><g id="Layer_2" data-name="Layer 2"><g id="Layer_1-2" data-name="Layer 1"><path class="cls-1" d="M.12.29A.11.11,0,0,1,0,.17.11.11,0,0,1,.12.05.11.11,0,0,1,.24.17.11.11,0,0,1,.12.29Zm0,.44A.11.11,0,0,1,0,.61.11.11,0,0,1,.12.49.11.11,0,0,1,.24.61.11.11,0,0,1,.12.73Zm0,.46A.11.11,0,0,1,0,1.07.11.11,0,0,1,.12,1a.11.11,0,0,1,.12.12A.11.11,0,0,1,.12,1.19Zm0,.43A.11.11,0,0,1,0,1.5a.11.11,0,0,1,.12-.12.11.11,0,0,1,.12.12A.11.11,0,0,1,.12,1.62Zm0,.48A.11.11,0,0,1,0,2a.11.11,0,0,1,.12-.12A.11.11,0,0,1,.24,2,.11.11,0,0,1,.12,2.1Zm0,.47A.11.11,0,0,1,0,2.45a.11.11,0,0,1,.12-.12.11.11,0,0,1,.12.12A.11.11,0,0,1,.12,2.57Zm0,.51A.11.11,0,0,1,0,3a.11.11,0,0,1,.12-.12A.11.11,0,0,1,.24,3,.11.11,0,0,1,.12,3.08Zm0,.48a.12.12,0,0,1,0-.24.12.12,0,0,1,0,.24ZM.12,4a.12.12,0,0,1,0-.24A.12.12,0,0,1,.12,4Zm0,.45a.12.12,0,1,1,0-.24.12.12,0,1,1,0,.24ZM.12,5a.12.12,0,1,1,0-.24A.12.12,0,1,1,.12,5Zm0,.48a.12.12,0,0,1,0-.24.12.12,0,0,1,0,.24Zm0,.47a.12.12,0,1,1,0-.24.12.12,0,1,1,0,.24Zm0,.49a.12.12,0,1,1,0-.24.12.12,0,1,1,0,.24Zm0,.49a.12.12,0,1,1,0-.24.12.12,0,1,1,0,.24Zm0,.49a.12.12,0,1,1,0-.24.12.12,0,1,1,0,.24Zm0,.48a.12.12,0,0,1,0-.24.12.12,0,0,1,0,.24Zm0,.48a.12.12,0,1,1,0-.24.12.12,0,1,1,0,.24ZM.52.25A.11.11,0,0,1,.4.13.11.11,0,0,1,.52,0,.11.11,0,0,1,.64.13.11.11,0,0,1,.52.25Zm0,4.83a.12.12,0,0,1,0-.24.12.12,0,0,1,0,.24ZM.94.25A.11.11,0,0,1,.82.13.11.11,0,0,1,.94,0a.11.11,0,0,1,.12.12A.11.11,0,0,1,.94.25Zm0,4.83a.12.12,0,1,1,0-.24.12.12,0,1,1,0,.24ZM1.36.25A.11.11,0,0,1,1.24.13.11.11,0,0,1,1.36,0a.11.11,0,0,1,.12.12A.11.11,0,0,1,1.36.25Zm0,4.83a.12.12,0,1,1,0-.24.12.12,0,0,1,0,.24ZM1.78.25A.11.11,0,0,1,1.66.13.11.11,0,0,1,1.78,0,.11.11,0,0,1,1.9.13.11.11,0,0,1,1.78.25Zm0,4.83a.12.12,0,1,1,0-.24.12.12,0,0,1,0,.24ZM2.2.24A.11.11,0,0,1,2.08.12.11.11,0,0,1,2.2,0a.11.11,0,0,1,.12.12A.11.11,0,0,1,2.2.24Zm0,4.84a.12.12,0,0,1,0-.24.12.12,0,0,1,0,.24ZM2.62.24A.11.11,0,0,1,2.5.12.11.11,0,0,1,2.62,0a.11.11,0,0,1,.12.12A.11.11,0,0,1,2.62.24Zm0,4.84a.12.12,0,0,1,0-.24.12.12,0,0,1,0,.24ZM3,.24A.11.11,0,0,1,2.92.12a.12.12,0,0,1,.24,0A.11.11,0,0,1,3,.24Zm0,4.84A.12.12,0,1,1,3.17,5,.11.11,0,0,1,3.05,5.08ZM3.46.25A.11.11,0,0,1,3.34.13a.12.12,0,1,1,.24,0A.11.11,0,0,1,3.46.25Zm0,4.83A.12.12,0,1,1,3.6,5,.11.11,0,0,1,3.48,5.08ZM3.88.3A.11.11,0,0,1,3.76.18.12.12,0,0,1,4,.18.11.11,0,0,1,3.88.3ZM3.9,5A.12.12,0,1,1,4,4.92.11.11,0,0,1,3.9,5ZM4.27.43A.11.11,0,0,1,4.15.31a.12.12,0,0,1,.24,0A.11.11,0,0,1,4.27.43Zm0,4.24a.12.12,0,1,1-.12.12A.11.11,0,0,1,4.3,4.67ZM4.63.41a.11.11,0,0,1,.12.12.12.12,0,1,1-.24,0A.11.11,0,0,1,4.63.41Zm0,4a.12.12,0,1,1-.12.12A.11.11,0,0,1,4.67,4.44ZM5,.71a.11.11,0,0,1,.12.12.12.12,0,1,1-.24,0A.11.11,0,0,1,5,.71ZM5,4.15a.12.12,0,1,1-.12.12A.11.11,0,0,1,5,4.15Zm.25-3.07a.11.11,0,0,1,.12.12.12.12,0,0,1-.24,0A.11.11,0,0,1,5.23,1.08Zm0,2.71a.12.12,0,1,1-.12.12A.11.11,0,0,1,5.26,3.79ZM5.45,1.5a.11.11,0,0,1,.12.12.12.12,0,1,1-.24,0A.11.11,0,0,1,5.45,1.5Zm0,1.87a.12.12,0,1,1-.12.12A.11.11,0,0,1,5.45,3.37ZM5.57,2a.11.11,0,0,1,.12.12.12.12,0,0,1-.24,0A.11.11,0,0,1,5.57,2Zm0,1A.12.12,0,1,1,5.45,3,.11.11,0,0,1,5.57,2.92Zm.06-.48a.11.11,0,0,1,.12.12.12.12,0,1,1-.24,0A.11.11,0,0,1,5.63,2.44Z"/></g></g></svg>