<svg xmlns="http://www.w3.org/2000/svg" viewBox="0 0 7.81 8.53"><defs><style>.cls-1{fill:#231f20;}</style></defs><g id="Layer_2" data-name="Layer 2"><g id="Layer_1-2" data-name="Layer 1"><path class="cls-1" d="M.12,4.44a.12.12,0,0,1,0-.24.12.12,0,0,1,0,.24Zm0-.52a.12.12,0,1,1,0-.24.12.12,0,1,1,0,.24Zm0,1a.12.12,0,0,1,0-.24.12.12,0,0,1,0,.24Zm0-1.51a.12.12,0,1,1,0-.24.12.12,0,0,1,0,.24Zm0,2a.12.12,0,0,1,0-.24.12.12,0,0,1,0,.24ZM.34,3a.11.11,0,0,1-.12-.12.11.11,0,0,1,.12-.12.11.11,0,0,1,.12.12A.11.11,0,0,1,.34,3Zm.08,3a.12.12,0,0,1,0-.24.12.12,0,0,1,0,.24Zm.1-3.47A.11.11,0,0,1,.4,2.35a.11.11,0,0,1,.12-.12.11.11,0,0,1,.12.12A.11.11,0,0,1,.52,2.47Zm.1,3.91a.12.12,0,0,1,0-.24.12.12,0,0,1,0,.24ZM.76,2a.11.11,0,0,1-.12-.12A.11.11,0,0,1,.76,1.8a.11.11,0,0,1,.12.12A.11.11,0,0,1,.76,2ZM.86,6.8a.12.12,0,0,1,0-.24.12.12,0,0,1,0,.24ZM1,1.63a.11.11,0,0,1-.12-.12A.11.11,0,0,1,1,1.39a.11.11,0,0,1,.12.12A.11.11,0,0,1,1,1.63Zm.14,5.56a.12.12,0,0,1,0-.24.12.12,0,0,1,0,.24Zm.21-5.94a.11.11,0,0,1-.12-.12A.11.11,0,0,1,1.39,1a.11.11,0,0,1,.12.12A.11.11,0,0,1,1.39,1.25Zm.13,6.29a.12.12,0,0,1,0-.24.12.12,0,0,1,0,.24ZM1.79.91A.11.11,0,0,1,1.67.79.11.11,0,0,1,1.79.67a.11.11,0,0,1,.12.12A.11.11,0,0,1,1.79.91ZM1.9,7.84a.12.12,0,1,1,0-.24.12.12,0,1,1,0,.24ZM2.23.64A.11.11,0,0,1,2.11.52.11.11,0,0,1,2.23.4a.11.11,0,0,1,.12.12A.11.11,0,0,1,2.23.64ZM2.3,8.09a.12.12,0,0,1,0-.24.12.12,0,0,1,0,.24ZM2.69.44A.11.11,0,0,1,2.57.32.11.11,0,0,1,2.69.2a.11.11,0,0,1,.12.12A.11.11,0,0,1,2.69.44ZM2.77,8.3a.12.12,0,1,1,0-.24.12.12,0,1,1,0,.24Zm.4-8A.11.11,0,0,1,3.05.19a.12.12,0,0,1,.24,0A.11.11,0,0,1,3.17.31Zm0,8.13a.12.12,0,1,1,.12-.12A.11.11,0,0,1,3.2,8.44ZM3.65.24A.11.11,0,0,1,3.53.12a.12.12,0,0,1,.24,0A.11.11,0,0,1,3.65.24Zm0,8.26a.12.12,0,1,1,.12-.12A.11.11,0,0,1,3.66,8.5Zm.46,0a.12.12,0,1,1,.12-.12A.11.11,0,0,1,4.12,8.5Zm0-8.26A.11.11,0,0,1,4,.12a.12.12,0,1,1,.24,0A.11.11,0,0,1,4.14.24Zm.43,8.2a.12.12,0,1,1,.12-.12A.11.11,0,0,1,4.57,8.44ZM4.62.3A.11.11,0,0,1,4.5.18a.12.12,0,0,1,.24,0A.11.11,0,0,1,4.62.3Zm.43,8a.12.12,0,1,1,.12-.12A.11.11,0,0,1,5.05,8.3ZM5.11.44A.11.11,0,0,1,5,.32a.12.12,0,1,1,.24,0A.11.11,0,0,1,5.11.44ZM5.2,6.19a.12.12,0,1,1,.12-.12A.11.11,0,0,1,5.2,6.19Zm.27.35a.12.12,0,1,1,.12-.12A.11.11,0,0,1,5.47,6.54Zm0,1.57A.12.12,0,1,1,5.63,8,.11.11,0,0,1,5.51,8.11ZM5.57.64A.11.11,0,0,1,5.45.52a.12.12,0,0,1,.24,0A.11.11,0,0,1,5.57.64Zm.18,6.25a.12.12,0,1,1,.12-.12A.11.11,0,0,1,5.75,6.89Zm.17,1A.12.12,0,1,1,6,7.74.11.11,0,0,1,5.92,7.86ZM6,.91A.11.11,0,0,1,5.89.79a.12.12,0,0,1,.24,0A.11.11,0,0,1,6,.91ZM6,7.22a.12.12,0,1,1,.12-.12A.11.11,0,0,1,6,7.22Zm.27.34a.12.12,0,1,1,.12-.12A.11.11,0,0,1,6.29,7.56Zm.12-6.31a.11.11,0,0,1-.12-.12.12.12,0,1,1,.24,0A.11.11,0,0,1,6.41,1.25ZM6.56,7.9a.12.12,0,1,1,.12-.12A.11.11,0,0,1,6.56,7.9Zm.08-.69a.12.12,0,1,1,.12-.12A.11.11,0,0,1,6.64,7.21Zm.13-5.55a.11.11,0,0,1-.12-.12.12.12,0,0,1,.24,0A.11.11,0,0,1,6.77,1.66Zm.06,6.56A.12.12,0,1,1,7,8.1.11.11,0,0,1,6.83,8.22ZM7,6.83a.12.12,0,1,1,.12-.12A.11.11,0,0,1,7,6.83Zm.11-4.77a.11.11,0,0,1-.12-.12.12.12,0,0,1,.24,0A.11.11,0,0,1,7.06,2.06Zm0,6.47a.12.12,0,1,1,.12-.12A.11.11,0,0,1,7.08,8.53Zm.11-2.12a.12.12,0,1,1,.12-.12A.11.11,0,0,1,7.19,6.41ZM7.3,2.5a.11.11,0,0,1-.12-.12.12.12,0,0,1,.24,0A.11.11,0,0,1,7.3,2.5ZM7.39,6a.12.12,0,1,1,.12-.12A.11.11,0,0,1,7.39,6Zm.09-3a.11.11,0,0,1-.12-.12.12.12,0,1,1,.24,0A.11.11,0,0,1,7.48,3Zm.08,2.5a.12.12,0,1,1,.12-.12A.11.11,0,0,1,7.56,5.48Zm.05-2a.12.12,0,1,1,.12-.12A.11.11,0,0,1,7.61,3.46ZM7.66,5a.12.12,0,1,1,.12-.12A.11.11,0,0,1,7.66,5Zm0-1a.12.12,0,1,1,.12-.12A.11.11,0,0,1,7.68,4Zm0,.51a.12.12,0,1,1,.12-.12A.11.11,0,0,1,7.69,4.46Z"/></g></g></svg>