<svg xmlns="http://www.w3.org/2000/svg" viewBox="0 0 6.2 8.62"><defs><style>.cls-1{fill:#231f20;}</style></defs><g id="Layer_2" data-name="Layer 2"><g id="Layer_1-2" data-name="Layer 1"><path class="cls-1" d="M.12,7.09a.12.12,0,1,1,0,.24.12.12,0,1,1,0-.24ZM.4,2a.11.11,0,0,1,.12.12A.11.11,0,0,1,.4,2.2a.11.11,0,0,1-.12-.12A.11.11,0,0,1,.4,2Zm0,.51a.11.11,0,0,1,.12.12.11.11,0,0,1-.12.12A.11.11,0,0,1,.3,2.59.11.11,0,0,1,.42,2.47ZM.49,7.42a.12.12,0,1,1,0,.24.12.12,0,1,1,0-.24Zm0-5.93a.11.11,0,0,1,.12.12.11.11,0,0,1-.12.12.11.11,0,0,1-.12-.12A.11.11,0,0,1,.5,1.49ZM.58,2.94a.12.12,0,0,1,0,.24.12.12,0,0,1,0-.24ZM.72,1a.11.11,0,0,1,.12.12.11.11,0,0,1-.12.12A.11.11,0,0,1,.6,1.16.11.11,0,0,1,.72,1ZM.88,7.68a.12.12,0,1,1,0,.24.12.12,0,1,1,0-.24Zm0-4.34a.12.12,0,0,1,0,.24.12.12,0,0,1,0-.24ZM1,.67a.11.11,0,0,1,.12.12A.11.11,0,0,1,1,.91.11.11,0,0,1,.92.79.11.11,0,0,1,1,.67ZM1.27,7.9a.12.12,0,0,1,0,.24.12.12,0,1,1,0-.24Zm0-4.28a.12.12,0,0,1,0,.24.12.12,0,1,1,0-.24ZM1.45.38A.11.11,0,0,1,1.57.5a.11.11,0,0,1-.12.12A.11.11,0,0,1,1.33.5.11.11,0,0,1,1.45.38Zm.24,7.68a.12.12,0,0,1,0,.24.12.12,0,1,1,0-.24ZM1.74,3.8a.12.12,0,1,1,0,.24.12.12,0,0,1,0-.24ZM1.92.18A.11.11,0,0,1,2,.3a.11.11,0,0,1-.12.12A.11.11,0,0,1,1.8.3.11.11,0,0,1,1.92.18Zm.2,8a.12.12,0,0,1,0,.24.12.12,0,1,1,0-.24Zm.11-4.26a.12.12,0,1,1,0,.24.12.12,0,1,1,0-.24ZM2.42.07a.11.11,0,0,1,.12.12.11.11,0,0,1-.12.12A.11.11,0,0,1,2.3.19.11.11,0,0,1,2.42.07ZM2.58,8.3a.12.12,0,1,1,0,.24.12.12,0,0,1,0-.24ZM2.72,4a.12.12,0,0,1,0,.24.12.12,0,0,1,0-.24ZM2.9,0A.11.11,0,0,1,3,.13.11.11,0,0,1,2.9.25.11.11,0,0,1,2.78.13.11.11,0,0,1,2.9,0Zm.15,8.34a.12.12,0,1,1-.12.12A.11.11,0,0,1,3.05,8.35Zm.15-4.2a.12.12,0,1,1-.12.12A.11.11,0,0,1,3.2,4.15ZM3.38,0A.11.11,0,0,1,3.5.12a.12.12,0,0,1-.24,0A.11.11,0,0,1,3.38,0Zm.14,8.38a.12.12,0,1,1-.12.12A.11.11,0,0,1,3.52,8.38ZM3.7,4.26a.12.12,0,1,1-.12.12A.11.11,0,0,1,3.7,4.26ZM3.86.05A.11.11,0,0,1,4,.17a.12.12,0,1,1-.24,0A.11.11,0,0,1,3.86.05ZM4,8.32a.12.12,0,1,1-.12.12A.11.11,0,0,1,4,8.32Zm.22-3.95a.12.12,0,1,1-.12.12A.11.11,0,0,1,4.19,4.37ZM4.33.17a.11.11,0,0,1,.12.12.12.12,0,0,1-.24,0A.11.11,0,0,1,4.33.17Zm.09,8.05a.12.12,0,1,1-.12.12A.11.11,0,0,1,4.42,8.22Zm.24-3.68a.12.12,0,1,1-.12.12A.11.11,0,0,1,4.66,4.54ZM4.79.34a.11.11,0,0,1,.12.12.12.12,0,0,1-.24,0A.11.11,0,0,1,4.79.34Zm.07,7.75a.12.12,0,1,1-.12.12A.11.11,0,0,1,4.86,8.09ZM5.1,4.74A.12.12,0,1,1,5,4.86.11.11,0,0,1,5.1,4.74ZM5.23.59a.11.11,0,0,1,.12.12.12.12,0,1,1-.24,0A.11.11,0,0,1,5.23.59ZM5.29,7.9A.12.12,0,1,1,5.17,8,.11.11,0,0,1,5.29,7.9ZM5.51,5a.12.12,0,1,1-.12.12A.11.11,0,0,1,5.51,5ZM5.6.91A.11.11,0,0,1,5.72,1a.12.12,0,0,1-.24,0A.11.11,0,0,1,5.6.91Zm0,6.67a.12.12,0,1,1-.12.12A.11.11,0,0,1,5.64,7.58Zm.19-2.2a.12.12,0,1,1-.12.12A.11.11,0,0,1,5.83,5.38ZM5.89,7.2a.12.12,0,1,1-.12.12A.11.11,0,0,1,5.89,7.2ZM6,5.82a.12.12,0,1,1-.12.12A.11.11,0,0,1,6,5.82Zm0,.94a.12.12,0,1,1-.12.12A.11.11,0,0,1,6,6.76Zm0-.47A.12.12,0,1,1,6,6.41.11.11,0,0,1,6.08,6.29Z"/></g></g></svg>