<svg xmlns="http://www.w3.org/2000/svg" viewBox="0 0 6.92 8.38"><defs><style>.cls-1{fill:#231f20;}</style></defs><g id="Layer_2" data-name="Layer 2"><g id="Layer_1-2" data-name="Layer 1"><path class="cls-1" d="M.12.24A.11.11,0,0,1,0,.12.11.11,0,0,1,.12,0,.11.11,0,0,1,.24.12.11.11,0,0,1,.12.24Zm.44,0A.11.11,0,0,1,.44.12.11.11,0,0,1,.56,0,.11.11,0,0,1,.68.12.11.11,0,0,1,.56.24ZM1,.24A.11.11,0,0,1,.89.12.11.11,0,0,1,1,0a.11.11,0,0,1,.12.12A.11.11,0,0,1,1,.24Zm.44,0A.11.11,0,0,1,1.33.12.11.11,0,0,1,1.45,0a.11.11,0,0,1,.12.12A.11.11,0,0,1,1.45.24Zm.45,0A.11.11,0,0,1,1.78.12.11.11,0,0,1,1.9,0,.11.11,0,0,1,2,.12.11.11,0,0,1,1.9.24Zm.44,0A.11.11,0,0,1,2.22.12.11.11,0,0,1,2.34,0a.11.11,0,0,1,.12.12A.11.11,0,0,1,2.34.24Zm.44,0A.11.11,0,0,1,2.66.12.11.11,0,0,1,2.78,0,.11.11,0,0,1,2.9.12.11.11,0,0,1,2.78.24Zm.45,0A.11.11,0,0,1,3.11.12a.12.12,0,0,1,.24,0A.11.11,0,0,1,3.23.24Zm.24.32A.11.11,0,0,1,3.35.44a.12.12,0,1,1,.24,0A.11.11,0,0,1,3.47.56Zm0,.47A.11.11,0,0,1,3.35.91a.12.12,0,1,1,.24,0A.11.11,0,0,1,3.47,1Zm0,.45a.11.11,0,0,1-.12-.12.12.12,0,1,1,.24,0A.11.11,0,0,1,3.47,1.48Zm0,.49a.11.11,0,0,1-.12-.12.12.12,0,0,1,.24,0A.11.11,0,0,1,3.47,2Zm0,.48a.11.11,0,0,1-.12-.12.12.12,0,1,1,.24,0A.11.11,0,0,1,3.47,2.45Zm0,.53a.11.11,0,0,1-.12-.12.12.12,0,0,1,.24,0A.11.11,0,0,1,3.47,3Zm0,.49a.12.12,0,1,1,.12-.12A.11.11,0,0,1,3.47,3.47Zm0,.49a.12.12,0,1,1,.12-.12A.11.11,0,0,1,3.47,4Zm0,.46a.12.12,0,1,1,.12-.12A.11.11,0,0,1,3.47,4.42Zm0,.49a.12.12,0,1,1,.12-.12A.11.11,0,0,1,3.47,4.91Zm0,.49a.12.12,0,1,1,.12-.12A.11.11,0,0,1,3.47,5.4Zm0,.48a.12.12,0,1,1,.12-.12A.11.11,0,0,1,3.47,5.88Zm0,.5a.12.12,0,1,1,.12-.12A.11.11,0,0,1,3.47,6.38Zm0,.51a.12.12,0,1,1,.12-.12A.11.11,0,0,1,3.47,6.89Zm0,.5a.12.12,0,1,1,.12-.12A.11.11,0,0,1,3.47,7.39Zm0,.49a.12.12,0,1,1,.12-.12A.11.11,0,0,1,3.47,7.88Zm0,.5a.12.12,0,1,1,.12-.12A.11.11,0,0,1,3.47,8.38ZM3.67.24A.11.11,0,0,1,3.55.12a.12.12,0,0,1,.24,0A.11.11,0,0,1,3.67.24Zm.45,0A.11.11,0,0,1,4,.12a.12.12,0,1,1,.24,0A.11.11,0,0,1,4.12.24Zm.44,0A.11.11,0,0,1,4.44.12a.12.12,0,0,1,.24,0A.11.11,0,0,1,4.56.24ZM5,.24A.11.11,0,0,1,4.91.12a.12.12,0,1,1,.24,0A.11.11,0,0,1,5,.24Zm.44,0A.11.11,0,0,1,5.35.12a.12.12,0,0,1,.24,0A.11.11,0,0,1,5.47.24Zm.43,0A.11.11,0,0,1,5.78.12.12.12,0,1,1,6,.12.11.11,0,0,1,5.9.24Zm.45,0A.11.11,0,0,1,6.23.12a.12.12,0,0,1,.24,0A.11.11,0,0,1,6.35.24Zm.45,0A.11.11,0,0,1,6.68.12a.12.12,0,1,1,.24,0A.11.11,0,0,1,6.8.24Z"/></g></g></svg>