<svg xmlns="http://www.w3.org/2000/svg" viewBox="0 0 6.9 8.56"><defs><style>.cls-1{fill:#231f20;}</style></defs><g id="Layer_2" data-name="Layer 2"><g id="Layer_1-2" data-name="Layer 1"><path class="cls-1" d="M.12.24A.11.11,0,0,1,0,.12.11.11,0,0,1,.12,0,.11.11,0,0,1,.24.12.11.11,0,0,1,.12.24Zm0,.44A.11.11,0,0,1,0,.56.11.11,0,0,1,.12.44.11.11,0,0,1,.24.56.11.11,0,0,1,.12.68Zm0,.46A.11.11,0,0,1,0,1,.11.11,0,0,1,.12.9.11.11,0,0,1,.24,1,.11.11,0,0,1,.12,1.14Zm0,.43A.11.11,0,0,1,0,1.45a.11.11,0,0,1,.12-.12.11.11,0,0,1,.12.12A.11.11,0,0,1,.12,1.57Zm0,.48A.11.11,0,0,1,0,1.93a.11.11,0,0,1,.12-.12.11.11,0,0,1,.12.12A.11.11,0,0,1,.12,2.05Zm0,.47A.11.11,0,0,1,0,2.4a.11.11,0,0,1,.12-.12.11.11,0,0,1,.12.12A.11.11,0,0,1,.12,2.52ZM.12,3A.11.11,0,0,1,0,2.92.11.11,0,0,1,.12,2.8a.11.11,0,0,1,.12.12A.11.11,0,0,1,.12,3Zm0,.48a.12.12,0,0,1,0-.24.12.12,0,0,1,0,.24ZM.12,4a.12.12,0,0,1,0-.24A.12.12,0,0,1,.12,4Zm0,.44a.12.12,0,0,1,0-.24.12.12,0,0,1,0,.24Zm0,.48a.12.12,0,1,1,0-.24.12.12,0,1,1,0,.24Zm0,.48a.12.12,0,1,1,0-.24.12.12,0,1,1,0,.24Zm.1.47a.12.12,0,0,1,0-.24.12.12,0,0,1,0,.24Zm.13.45a.12.12,0,1,1,0-.24.12.12,0,1,1,0,.24Zm.18.46a.12.12,0,0,1,0-.24.12.12,0,0,1,0,.24Zm.23.43A.12.12,0,0,1,.82,7a.12.12,0,0,1,0,.24Zm.27.37a.12.12,0,1,1,0-.24.12.12,0,0,1,0,.24Zm.34.33a.12.12,0,1,1,0-.24.12.12,0,1,1,0,.24Zm.41.26a.12.12,0,1,1,0-.24.12.12,0,0,1,0,.24Zm.43.18a.12.12,0,1,1,0-.24.12.12,0,0,1,0,.24Zm.48.13a.12.12,0,1,1,0-.24.12.12,0,0,1,0,.24Zm.48.06a.12.12,0,1,1,.12-.12A.11.11,0,0,1,3.23,8.54Zm.45,0a.12.12,0,1,1,.12-.12A.11.11,0,0,1,3.68,8.56Zm.47-.08a.12.12,0,1,1,.12-.12A.11.11,0,0,1,4.15,8.48Zm.48-.13a.12.12,0,1,1,.12-.12A.11.11,0,0,1,4.63,8.35Zm.43-.18a.12.12,0,1,1,.12-.12A.11.11,0,0,1,5.06,8.17Zm.41-.26a.12.12,0,1,1,.12-.12A.11.11,0,0,1,5.47,7.91Zm.34-.33a.12.12,0,1,1,.12-.12A.11.11,0,0,1,5.81,7.58Zm.27-.37a.12.12,0,1,1,.12-.12A.11.11,0,0,1,6.08,7.21Zm.23-.43a.12.12,0,1,1,.12-.12A.11.11,0,0,1,6.31,6.78Zm.18-.46a.12.12,0,1,1,.12-.12A.11.11,0,0,1,6.49,6.32Zm.13-.45a.12.12,0,1,1,.12-.12A.11.11,0,0,1,6.62,5.87Zm.1-.47a.12.12,0,1,1,.12-.12A.11.11,0,0,1,6.72,5.4Zm0-.48a.12.12,0,1,1,.12-.12A.11.11,0,0,1,6.76,4.92Zm0-4.68A.11.11,0,0,1,6.66.12a.12.12,0,1,1,.24,0A.11.11,0,0,1,6.78.24Zm0,.44A.11.11,0,0,1,6.66.56a.12.12,0,1,1,.24,0A.11.11,0,0,1,6.78.68Zm0,.46A.11.11,0,0,1,6.66,1,.12.12,0,1,1,6.9,1,.11.11,0,0,1,6.78,1.14Zm0,.43a.11.11,0,0,1-.12-.12.12.12,0,1,1,.24,0A.11.11,0,0,1,6.78,1.57Zm0,.48a.11.11,0,0,1-.12-.12.12.12,0,0,1,.24,0A.11.11,0,0,1,6.78,2.05Zm0,.47a.11.11,0,0,1-.12-.12.12.12,0,1,1,.24,0A.11.11,0,0,1,6.78,2.52Zm0,.52a.11.11,0,0,1-.12-.12.12.12,0,1,1,.24,0A.11.11,0,0,1,6.78,3Zm0,.48A.12.12,0,1,1,6.9,3.4.11.11,0,0,1,6.78,3.52Zm0,.48a.12.12,0,1,1,.12-.12A.11.11,0,0,1,6.78,4Zm0,.44a.12.12,0,1,1,.12-.12A.11.11,0,0,1,6.78,4.44Z"/></g></g></svg>