<svg xmlns="http://www.w3.org/2000/svg" viewBox="0 0 7.39 8.58"><defs><style>.cls-1{fill:#231f20;}</style></defs><g id="Layer_2" data-name="Layer 2"><g id="Layer_1-2" data-name="Layer 1"><path class="cls-1" d="M.12.24A.11.11,0,0,1,0,.12.11.11,0,0,1,.12,0,.11.11,0,0,1,.24.12.11.11,0,0,1,.12.24Zm.19.4A.11.11,0,0,1,.19.52.11.11,0,0,1,.31.4.11.11,0,0,1,.43.52.11.11,0,0,1,.31.64ZM.48,1A.11.11,0,0,1,.36.91.11.11,0,0,1,.48.79.11.11,0,0,1,.6.91.11.11,0,0,1,.48,1Zm.17.4a.11.11,0,0,1-.12-.12.11.11,0,0,1,.12-.12.11.11,0,0,1,.12.12A.11.11,0,0,1,.65,1.43Zm.17.39A.11.11,0,0,1,.7,1.7a.11.11,0,0,1,.12-.12.11.11,0,0,1,.12.12A.11.11,0,0,1,.82,1.82Zm.16.4A.11.11,0,0,1,.86,2.1.11.11,0,0,1,1,2a.11.11,0,0,1,.12.12A.11.11,0,0,1,1,2.22Zm.17.4A.11.11,0,0,1,1,2.5a.11.11,0,0,1,.12-.12.11.11,0,0,1,.12.12A.11.11,0,0,1,1.15,2.62ZM1.32,3a.11.11,0,0,1-.12-.12.11.11,0,0,1,.12-.12.11.11,0,0,1,.12.12A.11.11,0,0,1,1.32,3Zm.17.4a.12.12,0,0,1,0-.24.12.12,0,1,1,0,.24Zm.17.39a.12.12,0,0,1,0-.24.12.12,0,0,1,0,.24Zm.15.4a.12.12,0,0,1,0-.24.12.12,0,0,1,0,.24ZM2,4.6a.12.12,0,0,1,0-.24A.12.12,0,1,1,2,4.6ZM2.15,5a.12.12,0,1,1,0-.24.12.12,0,1,1,0,.24Zm.17.4a.12.12,0,1,1,0-.24.12.12,0,1,1,0,.24Zm.15.39a.12.12,0,0,1,0-.24.12.12,0,0,1,0,.24Zm.17.4a.12.12,0,1,1,0-.24.12.12,0,1,1,0,.24Zm.17.4a.12.12,0,1,1,0-.24.12.12,0,0,1,0,.24ZM3,7a.12.12,0,0,1,0-.24A.12.12,0,1,1,3,7Zm.16.4a.12.12,0,1,1,.12-.12A.11.11,0,0,1,3.14,7.37Zm.17.41a.12.12,0,1,1,.12-.12A.11.11,0,0,1,3.31,7.78Zm.17.4a.12.12,0,1,1,.12-.12A.11.11,0,0,1,3.48,8.18Zm.2.4a.12.12,0,1,1,.12-.12A.11.11,0,0,1,3.68,8.58Zm.23-.4A.12.12,0,1,1,4,8.06.11.11,0,0,1,3.91,8.18Zm.17-.4a.12.12,0,1,1,.12-.12A.11.11,0,0,1,4.08,7.78Zm.17-.41a.12.12,0,1,1,.12-.12A.11.11,0,0,1,4.25,7.37ZM4.42,7a.12.12,0,1,1,.12-.12A.11.11,0,0,1,4.42,7Zm.16-.39a.12.12,0,1,1,.12-.12A.11.11,0,0,1,4.58,6.58Zm.17-.4a.12.12,0,1,1,.12-.12A.11.11,0,0,1,4.75,6.18Zm.17-.4A.12.12,0,1,1,5,5.66.11.11,0,0,1,4.92,5.78Zm.16-.39a.12.12,0,1,1,.12-.12A.11.11,0,0,1,5.08,5.39ZM5.24,5a.12.12,0,1,1,.12-.12A.11.11,0,0,1,5.24,5Zm.17-.39a.12.12,0,1,1,.12-.12A.11.11,0,0,1,5.41,4.6Zm.17-.4a.12.12,0,1,1,.12-.12A.11.11,0,0,1,5.58,4.2Zm.16-.4a.12.12,0,1,1,.12-.12A.11.11,0,0,1,5.74,3.8Zm.16-.39A.12.12,0,1,1,6,3.29.11.11,0,0,1,5.9,3.41ZM6.07,3A.11.11,0,0,1,6,2.89a.12.12,0,0,1,.24,0A.11.11,0,0,1,6.07,3Zm.17-.39a.11.11,0,0,1-.12-.12.12.12,0,0,1,.24,0A.11.11,0,0,1,6.24,2.62Zm.17-.4a.11.11,0,0,1-.12-.12.12.12,0,0,1,.24,0A.11.11,0,0,1,6.41,2.22Zm.17-.4a.11.11,0,0,1-.12-.12.12.12,0,1,1,.24,0A.11.11,0,0,1,6.58,1.82Zm.16-.39a.11.11,0,0,1-.12-.12.12.12,0,0,1,.24,0A.11.11,0,0,1,6.74,1.43ZM6.91,1A.11.11,0,0,1,6.79.91.12.12,0,0,1,7,.91.11.11,0,0,1,6.91,1ZM7.08.64A.11.11,0,0,1,7,.52a.12.12,0,0,1,.24,0A.11.11,0,0,1,7.08.64Zm.19-.4A.11.11,0,0,1,7.15.12a.12.12,0,0,1,.24,0A.11.11,0,0,1,7.27.24Z"/></g></g></svg>