<svg xmlns="http://www.w3.org/2000/svg" viewBox="0 0 11.7 8.58"><defs><style>.cls-1{fill:#231f20;}</style></defs><g id="Layer_2" data-name="Layer 2"><g id="Layer_1-2" data-name="Layer 1"><path class="cls-1" d="M.12.24A.11.11,0,0,1,0,.12.11.11,0,0,1,.12,0,.11.11,0,0,1,.24.12.11.11,0,0,1,.12.24Zm.19.4A.11.11,0,0,1,.19.52.11.11,0,0,1,.31.4.11.11,0,0,1,.43.52.11.11,0,0,1,.31.64ZM.48,1A.11.11,0,0,1,.36.91.11.11,0,0,1,.48.79.11.11,0,0,1,.6.91.11.11,0,0,1,.48,1Zm.17.4a.11.11,0,0,1-.12-.12.11.11,0,0,1,.12-.12.11.11,0,0,1,.12.12A.11.11,0,0,1,.65,1.43Zm.17.39A.11.11,0,0,1,.7,1.7a.11.11,0,0,1,.12-.12.11.11,0,0,1,.12.12A.11.11,0,0,1,.82,1.82Zm.16.4A.11.11,0,0,1,.86,2.1.11.11,0,0,1,1,2a.11.11,0,0,1,.12.12A.11.11,0,0,1,1,2.22Zm.17.4A.11.11,0,0,1,1,2.5a.11.11,0,0,1,.12-.12.11.11,0,0,1,.12.12A.11.11,0,0,1,1.15,2.62ZM1.32,3a.11.11,0,0,1-.12-.12.11.11,0,0,1,.12-.12.11.11,0,0,1,.12.12A.11.11,0,0,1,1.32,3Zm.17.4a.12.12,0,0,1,0-.24.12.12,0,1,1,0,.24Zm.17.39a.12.12,0,0,1,0-.24.12.12,0,0,1,0,.24Zm.15.4a.12.12,0,0,1,0-.24.12.12,0,0,1,0,.24ZM2,4.6a.12.12,0,0,1,0-.24A.12.12,0,1,1,2,4.6ZM2.15,5a.12.12,0,1,1,0-.24.12.12,0,1,1,0,.24Zm.17.4a.12.12,0,1,1,0-.24.12.12,0,1,1,0,.24Zm.15.39a.12.12,0,0,1,0-.24.12.12,0,0,1,0,.24Zm.17.4a.12.12,0,1,1,0-.24.12.12,0,1,1,0,.24Zm.17.4a.12.12,0,1,1,0-.24.12.12,0,0,1,0,.24ZM3,7a.12.12,0,0,1,0-.24A.12.12,0,1,1,3,7Zm.16.4a.12.12,0,1,1,.12-.12A.11.11,0,0,1,3.14,7.37Zm.17.41a.12.12,0,1,1,.12-.12A.11.11,0,0,1,3.31,7.78Zm.17.4a.12.12,0,1,1,.12-.12A.11.11,0,0,1,3.48,8.18Zm.24.4a.12.12,0,1,1,.12-.12A.11.11,0,0,1,3.72,8.58Zm.22-.4a.12.12,0,1,1,.12-.12A.11.11,0,0,1,3.94,8.18Zm.15-.4a.12.12,0,1,1,.12-.12A.11.11,0,0,1,4.09,7.78Zm.17-.41a.12.12,0,1,1,.12-.12A.11.11,0,0,1,4.26,7.37Zm0-7.13A.11.11,0,0,1,4.15.12a.12.12,0,0,1,.24,0A.11.11,0,0,1,4.27.24ZM4.44,7a.12.12,0,1,1,.12-.12A.11.11,0,0,1,4.44,7Zm0-6.33A.11.11,0,0,1,4.33.52a.12.12,0,0,1,.24,0A.11.11,0,0,1,4.45.64Zm.16,5.94a.12.12,0,1,1,.12-.12A.11.11,0,0,1,4.61,6.58ZM4.62,1A.11.11,0,0,1,4.5.91a.12.12,0,0,1,.24,0A.11.11,0,0,1,4.62,1Zm.16.4a.11.11,0,0,1-.12-.12.12.12,0,1,1,.24,0A.11.11,0,0,1,4.78,1.43Zm0,4.75a.12.12,0,1,1,.12-.12A.11.11,0,0,1,4.78,6.18ZM5,1.82a.11.11,0,0,1-.12-.12.12.12,0,1,1,.24,0A.11.11,0,0,1,5,1.82Zm0,4a.12.12,0,1,1,.12-.12A.11.11,0,0,1,5,5.78Zm.16-.39a.12.12,0,1,1,.12-.12A.11.11,0,0,1,5.12,5.39Zm0-3.17A.11.11,0,0,1,5,2.1a.12.12,0,1,1,.24,0A.11.11,0,0,1,5.14,2.22ZM5.3,5a.12.12,0,1,1,.12-.12A.11.11,0,0,1,5.3,5Zm0-2.37A.11.11,0,0,1,5.2,2.5a.12.12,0,0,1,.24,0A.11.11,0,0,1,5.32,2.62Zm.16,2a.12.12,0,1,1,.12-.12A.11.11,0,0,1,5.48,4.6ZM5.5,3a.11.11,0,0,1-.12-.12.12.12,0,0,1,.24,0A.11.11,0,0,1,5.5,3Zm.18.4a.12.12,0,1,1,.12-.12A.11.11,0,0,1,5.68,3.41Zm0,.79a.12.12,0,1,1,.12-.12A.11.11,0,0,1,5.68,4.2Zm.16-.4A.12.12,0,1,1,6,3.68.11.11,0,0,1,5.84,3.8ZM6,3.41a.12.12,0,1,1,.12-.12A.11.11,0,0,1,6,3.41ZM6,4.2a.12.12,0,1,1,.12-.12A.11.11,0,0,1,6,4.2ZM6.2,3a.11.11,0,0,1-.12-.12.12.12,0,1,1,.24,0A.11.11,0,0,1,6.2,3Zm0,1.59a.12.12,0,1,1,.12-.12A.11.11,0,0,1,6.22,4.6Zm.16-2a.11.11,0,0,1-.12-.12.12.12,0,1,1,.24,0A.11.11,0,0,1,6.38,2.62ZM6.4,5a.12.12,0,1,1,.12-.12A.11.11,0,0,1,6.4,5Zm.16-2.77a.11.11,0,0,1-.12-.12.12.12,0,1,1,.24,0A.11.11,0,0,1,6.56,2.22Zm0,3.17a.12.12,0,1,1,.12-.12A.11.11,0,0,1,6.58,5.39Zm.16-3.57a.11.11,0,0,1-.12-.12.12.12,0,0,1,.24,0A.11.11,0,0,1,6.74,1.82Zm0,4a.12.12,0,1,1,.12-.12A.11.11,0,0,1,6.74,5.78Zm.18-4.35a.11.11,0,0,1-.12-.12.12.12,0,0,1,.24,0A.11.11,0,0,1,6.92,1.43Zm0,4.75A.12.12,0,1,1,7,6.06.11.11,0,0,1,6.92,6.18ZM7.08,1A.11.11,0,0,1,7,.91a.12.12,0,0,1,.24,0A.11.11,0,0,1,7.08,1Zm0,5.55a.12.12,0,1,1,.12-.12A.11.11,0,0,1,7.09,6.58ZM7.25.64A.11.11,0,0,1,7.13.52a.12.12,0,0,1,.24,0A.11.11,0,0,1,7.25.64ZM7.26,7a.12.12,0,1,1,.12-.12A.11.11,0,0,1,7.26,7ZM7.43.24A.11.11,0,0,1,7.31.12a.12.12,0,0,1,.24,0A.11.11,0,0,1,7.43.24Zm0,7.13a.12.12,0,1,1,.12-.12A.11.11,0,0,1,7.44,7.37Zm.17.41a.12.12,0,1,1,.12-.12A.11.11,0,0,1,7.61,7.78Zm.15.4a.12.12,0,1,1,.12-.12A.11.11,0,0,1,7.76,8.18Zm.22.4a.12.12,0,1,1,.12-.12A.11.11,0,0,1,8,8.58Zm.24-.4a.12.12,0,1,1,.12-.12A.11.11,0,0,1,8.22,8.18Zm.17-.4a.12.12,0,1,1,.12-.12A.11.11,0,0,1,8.39,7.78Zm.17-.41a.12.12,0,1,1,.12-.12A.11.11,0,0,1,8.56,7.37ZM8.72,7a.12.12,0,1,1,.12-.12A.11.11,0,0,1,8.72,7Zm.17-.39A.12.12,0,1,1,9,6.46.11.11,0,0,1,8.89,6.58Zm.17-.4a.12.12,0,1,1,.12-.12A.11.11,0,0,1,9.06,6.18Zm.17-.4a.12.12,0,1,1,.12-.12A.11.11,0,0,1,9.23,5.78Zm.15-.39a.12.12,0,1,1,.12-.12A.11.11,0,0,1,9.38,5.39ZM9.55,5a.12.12,0,1,1,.12-.12A.11.11,0,0,1,9.55,5Zm.17-.39a.12.12,0,1,1,.12-.12A.11.11,0,0,1,9.72,4.6Zm.17-.4A.12.12,0,1,1,10,4.08.11.11,0,0,1,9.89,4.2ZM10,3.8a.12.12,0,1,1,.12-.12A.11.11,0,0,1,10,3.8Zm.17-.39a.12.12,0,1,1,.12-.12A.11.11,0,0,1,10.21,3.41Zm.17-.4a.11.11,0,0,1-.12-.12.12.12,0,1,1,.24,0A.11.11,0,0,1,10.38,3Zm.17-.39a.11.11,0,0,1-.12-.12.12.12,0,1,1,.24,0A.11.11,0,0,1,10.55,2.62Zm.17-.4a.11.11,0,0,1-.12-.12.12.12,0,1,1,.24,0A.11.11,0,0,1,10.72,2.22Zm.16-.4a.11.11,0,0,1-.12-.12.12.12,0,1,1,.24,0A.11.11,0,0,1,10.88,1.82Zm.17-.39a.11.11,0,0,1-.12-.12.12.12,0,1,1,.24,0A.11.11,0,0,1,11.05,1.43Zm.17-.4A.11.11,0,0,1,11.1.91a.12.12,0,0,1,.24,0A.11.11,0,0,1,11.22,1Zm.17-.39a.11.11,0,0,1-.12-.12.12.12,0,0,1,.24,0A.11.11,0,0,1,11.39.64Zm.19-.4a.11.11,0,0,1-.12-.12.12.12,0,0,1,.24,0A.11.11,0,0,1,11.58.24Z"/></g></g></svg>