<svg xmlns="http://www.w3.org/2000/svg" viewBox="0 0 7.15 8.72"><defs><style>.cls-1{fill:#231f20;}</style></defs><g id="Layer_2" data-name="Layer 2"><g id="Layer_1-2" data-name="Layer 1"><path class="cls-1" d="M.12.24A.11.11,0,0,1,0,.12.11.11,0,0,1,.12,0,.11.11,0,0,1,.24.12.11.11,0,0,1,.12.24ZM.36.56A.11.11,0,0,1,.24.44.11.11,0,0,1,.36.32.11.11,0,0,1,.48.44.11.11,0,0,1,.36.56Zm0,8.16a.12.12,0,0,1,0-.24.12.12,0,0,1,0,.24ZM.62.91A.11.11,0,0,1,.5.79.11.11,0,0,1,.62.67.11.11,0,0,1,.74.79.11.11,0,0,1,.62.91Zm0,7.47a.12.12,0,0,1,0-.24.12.12,0,0,1,0,.24ZM.88,1.25a.11.11,0,0,1-.12-.12A.11.11,0,0,1,.88,1,.11.11,0,0,1,1,1.13.11.11,0,0,1,.88,1.25ZM.92,8a.12.12,0,0,1,0-.24A.12.12,0,1,1,.92,8Zm.22-6.46A.11.11,0,0,1,1,1.46a.11.11,0,0,1,.12-.12.11.11,0,0,1,.12.12A.11.11,0,0,1,1.14,1.58ZM1.2,7.7a.12.12,0,0,1,0-.24.12.12,0,0,1,0,.24Zm.2-5.77a.11.11,0,0,1-.12-.12.11.11,0,0,1,.12-.12.11.11,0,0,1,.12.12A.11.11,0,0,1,1.4,1.93Zm.06,5.43a.12.12,0,0,1,0-.24.12.12,0,0,1,0,.24Zm.22-5.09a.11.11,0,0,1-.12-.12A.11.11,0,0,1,1.68,2a.11.11,0,0,1,.12.12A.11.11,0,0,1,1.68,2.27ZM1.74,7a.12.12,0,1,1,0-.24.12.12,0,1,1,0,.24ZM2,2.62a.11.11,0,0,1-.12-.12A.11.11,0,0,1,2,2.38a.11.11,0,0,1,.12.12A.11.11,0,0,1,2,2.62Zm.06,4a.12.12,0,1,1,0-.24.12.12,0,1,1,0,.24ZM2.23,3a.11.11,0,0,1-.12-.12.11.11,0,0,1,.12-.12.11.11,0,0,1,.12.12A.11.11,0,0,1,2.23,3Zm.06,3.36a.12.12,0,0,1,0-.24.12.12,0,0,1,0,.24Zm.21-3a.12.12,0,0,1,0-.24.12.12,0,0,1,0,.24ZM2.56,6a.12.12,0,1,1,0-.24.12.12,0,1,1,0,.24Zm.21-2.33a.12.12,0,0,1,0-.24.12.12,0,1,1,0,.24Zm0,2a.12.12,0,1,1,0-.24.12.12,0,1,1,0,.24ZM3,4a.12.12,0,1,1,.12-.12A.11.11,0,0,1,3,4Zm0,1.32a.12.12,0,1,1,.12-.12A.11.11,0,0,1,3.07,5.3Zm.24-1a.12.12,0,1,1,.12-.12A.11.11,0,0,1,3.31,4.33Zm0,.63a.12.12,0,1,1,.12-.12A.11.11,0,0,1,3.34,5Zm.24-.33a.12.12,0,1,1,.12-.12A.11.11,0,0,1,3.58,4.63ZM3.82,5a.12.12,0,1,1,.12-.12A.11.11,0,0,1,3.82,5Zm0-.63A.12.12,0,1,1,4,4.21.11.11,0,0,1,3.84,4.33Zm.24,1a.12.12,0,1,1,.12-.12A.11.11,0,0,1,4.08,5.3ZM4.12,4a.12.12,0,1,1,.12-.12A.11.11,0,0,1,4.12,4Zm.21,1.66a.12.12,0,1,1,.12-.12A.11.11,0,0,1,4.33,5.64Zm0-2a.12.12,0,1,1,.12-.12A.11.11,0,0,1,4.38,3.65ZM4.6,6a.12.12,0,1,1,.12-.12A.11.11,0,0,1,4.6,6Zm.06-2.67a.12.12,0,1,1,.12-.12A.11.11,0,0,1,4.66,3.31Zm.2,3A.12.12,0,1,1,5,6.2.11.11,0,0,1,4.86,6.32ZM4.92,3a.11.11,0,0,1-.12-.12.12.12,0,0,1,.24,0A.11.11,0,0,1,4.92,3Zm.22,3.7a.12.12,0,1,1,.12-.12A.11.11,0,0,1,5.14,6.66Zm.06-4a.11.11,0,0,1-.12-.12.12.12,0,1,1,.24,0A.11.11,0,0,1,5.2,2.62ZM5.41,7a.12.12,0,1,1,.12-.12A.11.11,0,0,1,5.41,7Zm.06-4.74a.11.11,0,0,1-.12-.12.12.12,0,1,1,.24,0A.11.11,0,0,1,5.47,2.27Zm.22,5.09a.12.12,0,1,1,.12-.12A.11.11,0,0,1,5.69,7.36Zm.06-5.43a.11.11,0,0,1-.12-.12.12.12,0,0,1,.24,0A.11.11,0,0,1,5.75,1.93ZM6,7.7a.12.12,0,1,1,.12-.12A.11.11,0,0,1,6,7.7ZM6,1.58a.11.11,0,0,1-.12-.12.12.12,0,0,1,.24,0A.11.11,0,0,1,6,1.58ZM6.23,8a.12.12,0,1,1,.12-.12A.11.11,0,0,1,6.23,8Zm0-6.79a.11.11,0,0,1-.12-.12.12.12,0,0,1,.24,0A.11.11,0,0,1,6.28,1.25Zm.21,7.13a.12.12,0,1,1,.12-.12A.11.11,0,0,1,6.49,8.38Zm0-7.47A.11.11,0,0,1,6.41.79a.12.12,0,1,1,.24,0A.11.11,0,0,1,6.53.91Zm.24,7.81a.12.12,0,1,1,.12-.12A.11.11,0,0,1,6.77,8.72Zm0-8.16A.11.11,0,0,1,6.67.44a.12.12,0,1,1,.24,0A.11.11,0,0,1,6.79.56ZM7,.24A.11.11,0,0,1,6.91.12a.12.12,0,1,1,.24,0A.11.11,0,0,1,7,.24Z"/></g></g></svg>