<svg xmlns="http://www.w3.org/2000/svg" viewBox="0 0 6.82 8.56"><defs><style>.cls-1{fill:#231f20;}</style></defs><g id="Layer_2" data-name="Layer 2"><g id="Layer_1-2" data-name="Layer 1"><path class="cls-1" d="M.12.24A.11.11,0,0,1,0,.12.11.11,0,0,1,.12,0,.11.11,0,0,1,.24.12.11.11,0,0,1,.12.24ZM.36.62A.11.11,0,0,1,.24.5.11.11,0,0,1,.36.38.11.11,0,0,1,.48.5.11.11,0,0,1,.36.62ZM.62,1A.11.11,0,0,1,.5.89.11.11,0,0,1,.62.77.11.11,0,0,1,.74.89.11.11,0,0,1,.62,1Zm.26.38a.11.11,0,0,1-.12-.12.11.11,0,0,1,.12-.12A.11.11,0,0,1,1,1.27.11.11,0,0,1,.88,1.39Zm.25.39A.11.11,0,0,1,1,1.66a.11.11,0,0,1,.12-.12.11.11,0,0,1,.12.12A.11.11,0,0,1,1.13,1.78Zm.24.38A.11.11,0,0,1,1.25,2a.11.11,0,0,1,.12-.12A.11.11,0,0,1,1.49,2,.11.11,0,0,1,1.37,2.16Zm.25.38a.11.11,0,0,1-.12-.12.11.11,0,0,1,.12-.12.11.11,0,0,1,.12.12A.11.11,0,0,1,1.62,2.54Zm.25.39a.11.11,0,0,1-.12-.12.11.11,0,0,1,.12-.12A.11.11,0,0,1,2,2.81.11.11,0,0,1,1.87,2.93Zm.27.38a.12.12,0,0,1,0-.24.12.12,0,0,1,0,.24Zm.24.39a.12.12,0,0,1,0-.24.12.12,0,0,1,0,.24Zm.24.38a.12.12,0,0,1,0-.24.12.12,0,0,1,0,.24Zm.26.38a.12.12,0,0,1,0-.24.12.12,0,0,1,0,.24Zm.25.39a.12.12,0,1,1,.12-.12A.11.11,0,0,1,3.13,4.85Zm.28.36a.12.12,0,1,1,.12-.12A.11.11,0,0,1,3.41,5.21Zm0,.47a.12.12,0,1,1,.12-.12A.11.11,0,0,1,3.41,5.68Zm0,.45A.12.12,0,1,1,3.53,6,.11.11,0,0,1,3.41,6.13Zm0,.48a.12.12,0,1,1,.12-.12A.11.11,0,0,1,3.41,6.61Zm0,.49A.12.12,0,1,1,3.53,7,.11.11,0,0,1,3.41,7.1Zm0,.5a.12.12,0,1,1,.12-.12A.11.11,0,0,1,3.41,7.6Zm0,.48A.12.12,0,1,1,3.53,8,.11.11,0,0,1,3.41,8.08Zm0,.48a.12.12,0,1,1,.12-.12A.11.11,0,0,1,3.41,8.56Zm.27-3.71a.12.12,0,1,1,.12-.12A.11.11,0,0,1,3.68,4.85Zm.26-.39a.12.12,0,1,1,.12-.12A.11.11,0,0,1,3.94,4.46Zm.26-.38A.12.12,0,1,1,4.32,4,.11.11,0,0,1,4.2,4.08Zm.24-.38a.12.12,0,1,1,.12-.12A.11.11,0,0,1,4.44,3.7Zm.24-.39a.12.12,0,1,1,.12-.12A.11.11,0,0,1,4.68,3.31Zm.26-.38a.11.11,0,0,1-.12-.12.12.12,0,1,1,.24,0A.11.11,0,0,1,4.94,2.93Zm.26-.39a.11.11,0,0,1-.12-.12.12.12,0,1,1,.24,0A.11.11,0,0,1,5.2,2.54Zm.25-.38A.11.11,0,0,1,5.33,2a.12.12,0,0,1,.24,0A.11.11,0,0,1,5.45,2.16Zm.24-.38a.11.11,0,0,1-.12-.12.12.12,0,1,1,.24,0A.11.11,0,0,1,5.69,1.78Zm.25-.39a.11.11,0,0,1-.12-.12.12.12,0,1,1,.24,0A.11.11,0,0,1,5.94,1.39ZM6.19,1A.11.11,0,0,1,6.07.89a.12.12,0,1,1,.24,0A.11.11,0,0,1,6.19,1ZM6.46.62A.11.11,0,0,1,6.34.5a.12.12,0,0,1,.24,0A.11.11,0,0,1,6.46.62ZM6.7.24A.11.11,0,0,1,6.58.12a.12.12,0,1,1,.24,0A.11.11,0,0,1,6.7.24Z"/></g></g></svg>