<svg xmlns="http://www.w3.org/2000/svg" viewBox="0 0 6.64 8.36"><defs><style>.cls-1{fill:#231f20;}</style></defs><g id="Layer_2" data-name="Layer 2"><g id="Layer_1-2" data-name="Layer 1"><path class="cls-1" d="M.12.24A.11.11,0,0,1,0,.12.11.11,0,0,1,.12,0,.11.11,0,0,1,.24.12.11.11,0,0,1,.12.24Zm0,8.12a.12.12,0,0,1,0-.24.12.12,0,0,1,0,.24ZM.32,8a.12.12,0,1,1,0-.24A.12.12,0,1,1,.32,8ZM.54.24A.11.11,0,0,1,.42.12.11.11,0,0,1,.54,0,.11.11,0,0,1,.66.12.11.11,0,0,1,.54.24Zm0,8.12a.12.12,0,0,1,0-.24.12.12,0,0,1,0,.24Zm.07-.73a.12.12,0,0,1,0-.24.12.12,0,0,1,0,.24ZM.9,7.27A.12.12,0,0,1,.9,7a.12.12,0,1,1,0,.24ZM1,.24A.11.11,0,0,1,.85.12.11.11,0,0,1,1,0a.11.11,0,0,1,.12.12A.11.11,0,0,1,1,.24ZM1,8.36a.12.12,0,1,1,0-.24.12.12,0,0,1,0,.24Zm.22-1.45a.12.12,0,1,1,0-.24.12.12,0,1,1,0,.24ZM1.4.24A.11.11,0,0,1,1.28.12.11.11,0,0,1,1.4,0a.11.11,0,0,1,.12.12A.11.11,0,0,1,1.4.24Zm0,8.12a.12.12,0,0,1,0-.24.12.12,0,0,1,0,.24Zm.08-1.81a.12.12,0,0,1,0-.24.12.12,0,0,1,0,.24Zm.3-.36a.12.12,0,0,1,0-.24.12.12,0,0,1,0,.24ZM1.84.24A.11.11,0,0,1,1.72.12.11.11,0,0,1,1.84,0,.11.11,0,0,1,2,.12.11.11,0,0,1,1.84.24Zm0,8.12a.12.12,0,0,1,0-.24.12.12,0,0,1,0,.24Zm.24-2.53a.12.12,0,1,1,0-.24.12.12,0,1,1,0,.24ZM2.26.24A.11.11,0,0,1,2.14.12.11.11,0,0,1,2.26,0a.11.11,0,0,1,.12.12A.11.11,0,0,1,2.26.24Zm0,8.12a.12.12,0,0,1,0-.24.12.12,0,0,1,0,.24Zm.1-2.89a.12.12,0,0,1,0-.24.12.12,0,1,1,0,.24Zm.28-.35a.12.12,0,0,1,0-.24.12.12,0,0,1,0,.24Zm0-4.88A.11.11,0,0,1,2.57.12.11.11,0,0,1,2.69,0a.11.11,0,0,1,.12.12A.11.11,0,0,1,2.69.24Zm0,8.12a.12.12,0,0,1,0-.24.12.12,0,0,1,0,.24Zm.24-3.6a.12.12,0,1,1,0-.24.12.12,0,0,1,0,.24ZM3.12.24A.11.11,0,0,1,3,.12a.12.12,0,0,1,.24,0A.11.11,0,0,1,3.12.24Zm0,8.12a.12.12,0,1,1,.12-.12A.11.11,0,0,1,3.12,8.36ZM3.2,4.42a.12.12,0,1,1,.12-.12A.11.11,0,0,1,3.2,4.42Zm.28-.34A.12.12,0,1,1,3.6,4,.11.11,0,0,1,3.48,4.08ZM3.54.24A.11.11,0,0,1,3.42.12a.12.12,0,0,1,.24,0A.11.11,0,0,1,3.54.24Zm0,8.12a.12.12,0,1,1,.12-.12A.11.11,0,0,1,3.54,8.36Zm.22-4.63a.12.12,0,1,1,.12-.12A.11.11,0,0,1,3.76,3.73ZM4,.24A.11.11,0,0,1,3.84.12a.12.12,0,1,1,.24,0A.11.11,0,0,1,4,.24ZM4,8.36a.12.12,0,1,1,.12-.12A.11.11,0,0,1,4,8.36ZM4,3.4a.12.12,0,1,1,.12-.12A.11.11,0,0,1,4,3.4Zm.29-.34a.11.11,0,0,1-.12-.12.12.12,0,1,1,.24,0A.11.11,0,0,1,4.31,3.06ZM4.39.24A.11.11,0,0,1,4.27.12a.12.12,0,1,1,.24,0A.11.11,0,0,1,4.39.24Zm0,8.12a.12.12,0,1,1,.12-.12A.11.11,0,0,1,4.39,8.36Zm.19-5.65a.11.11,0,0,1-.12-.12.12.12,0,0,1,.24,0A.11.11,0,0,1,4.58,2.71ZM4.81.24A.11.11,0,0,1,4.69.12a.12.12,0,1,1,.24,0A.11.11,0,0,1,4.81.24Zm0,8.12a.12.12,0,1,1,.12-.12A.11.11,0,0,1,4.81,8.36Zm.06-6a.11.11,0,0,1-.12-.12.12.12,0,1,1,.24,0A.11.11,0,0,1,4.87,2.35ZM5.16,2A.11.11,0,0,1,5,1.87a.12.12,0,0,1,.24,0A.11.11,0,0,1,5.16,2ZM5.24.24A.11.11,0,0,1,5.12.12a.12.12,0,0,1,.24,0A.11.11,0,0,1,5.24.24Zm0,8.12a.12.12,0,1,1,.12-.12A.11.11,0,0,1,5.24,8.36Zm.2-6.7a.11.11,0,0,1-.12-.12.12.12,0,1,1,.24,0A.11.11,0,0,1,5.44,1.66ZM5.68.24A.11.11,0,0,1,5.56.12a.12.12,0,0,1,.24,0A.11.11,0,0,1,5.68.24Zm0,8.12a.12.12,0,1,1,.12-.12A.11.11,0,0,1,5.68,8.36Zm0-7a.11.11,0,0,1-.12-.12.12.12,0,0,1,.24,0A.11.11,0,0,1,5.72,1.31ZM6,1A.11.11,0,0,1,5.89.84a.12.12,0,0,1,.24,0A.11.11,0,0,1,6,1ZM6.1.24A.11.11,0,0,1,6,.12a.12.12,0,0,1,.24,0A.11.11,0,0,1,6.1.24Zm0,8.12a.12.12,0,1,1,.12-.12A.11.11,0,0,1,6.1,8.36ZM6.29.61A.11.11,0,0,1,6.17.49a.12.12,0,1,1,.24,0A.11.11,0,0,1,6.29.61ZM6.52.24A.11.11,0,0,1,6.4.12a.12.12,0,0,1,.24,0A.11.11,0,0,1,6.52.24Zm0,8.12a.12.12,0,1,1,.12-.12A.11.11,0,0,1,6.52,8.36Z"/></g></g></svg>