<svg xmlns="http://www.w3.org/2000/svg" viewBox="0 0 6.89 10.98"><defs><style>.cls-1{fill:#231f20;}</style></defs><g id="Layer_2" data-name="Layer 2"><g id="Layer_1-2" data-name="Layer 1"><path class="cls-1" d="M.12,2.88A.11.11,0,0,1,0,2.76a.11.11,0,0,1,.12-.12.11.11,0,0,1,.12.12A.11.11,0,0,1,.12,2.88Zm0,.48a.12.12,0,1,1,0-.24.12.12,0,1,1,0,.24Zm0,.46a.12.12,0,1,1,0-.24.12.12,0,1,1,0,.24Zm0,.43A.12.12,0,1,1,.12,4a.12.12,0,1,1,0,.24Zm0,.48a.12.12,0,1,1,0-.24.12.12,0,1,1,0,.24Zm0,.47A.12.12,0,0,1,.12,5a.12.12,0,0,1,0,.24Zm0,.51a.12.12,0,0,1,0-.24.12.12,0,0,1,0,.24Zm0,.48A.12.12,0,0,1,.12,6a.12.12,0,0,1,0,.24Zm0,.48a.12.12,0,1,1,0-.24.12.12,0,1,1,0,.24Zm0,.45a.12.12,0,0,1,0-.24.12.12,0,0,1,0,.24Zm0,.48a.12.12,0,1,1,0-.24.12.12,0,1,1,0,.24Zm0,.48a.12.12,0,1,1,0-.24.12.12,0,1,1,0,.24Zm0,.46a.12.12,0,0,1,0-.24.12.12,0,1,1,0,.24Zm0,.5a.12.12,0,0,1,0-.24A.12.12,0,1,1,.12,9Zm0,.49a.12.12,0,1,1,0-.24.12.12,0,1,1,0,.24Zm0,.49a.12.12,0,0,1,0-.24.12.12,0,0,1,0,.24Zm0,.48a.12.12,0,0,1,0-.24.12.12,0,0,1,0,.24Zm0,.48a.12.12,0,1,1,0-.24.12.12,0,1,1,0,.24ZM.43,3.11A.11.11,0,0,1,.31,3a.11.11,0,0,1,.12-.12A.11.11,0,0,1,.55,3,.11.11,0,0,1,.43,3.11Zm.29.36a.12.12,0,0,1,0-.24.12.12,0,0,1,0,.24ZM1,3.83a.12.12,0,1,1,0-.24.12.12,0,0,1,0,.24Zm.29.36A.12.12,0,0,1,1.3,4a.12.12,0,0,1,0,.24Zm.28.36a.12.12,0,0,1,0-.24.12.12,0,0,1,0,.24Zm.29.36a.12.12,0,1,1,0-.24.12.12,0,0,1,0,.24ZM2,1.07A.11.11,0,0,1,1.87,1,.11.11,0,0,1,2,.83.11.11,0,0,1,2.11,1,.11.11,0,0,1,2,1.07ZM2.16.68A.11.11,0,0,1,2,.56.11.11,0,0,1,2.16.44a.11.11,0,0,1,.12.12A.11.11,0,0,1,2.16.68Zm0,4.59a.12.12,0,0,1,0-.24.12.12,0,0,1,0,.24Zm.29.36a.12.12,0,0,1,0-.24.12.12,0,0,1,0,.24Zm0-5.2A.11.11,0,0,1,2.36.31.11.11,0,0,1,2.48.19.11.11,0,0,1,2.6.31.11.11,0,0,1,2.48.43ZM2.74,6a.12.12,0,1,1,0-.24.12.12,0,1,1,0,.24ZM2.9.43A.11.11,0,0,1,2.78.31.11.11,0,0,1,2.9.19.11.11,0,0,1,3,.31.11.11,0,0,1,2.9.43ZM3,6.35a.12.12,0,1,1,.12-.12A.11.11,0,0,1,3,6.35ZM3.31.56A.11.11,0,0,1,3.19.44a.12.12,0,0,1,.24,0A.11.11,0,0,1,3.31.56Zm0,6.15a.12.12,0,1,1,.12-.12A.11.11,0,0,1,3.31,6.71Zm.29.36A.12.12,0,1,1,3.72,7,.11.11,0,0,1,3.6,7.07ZM3.71.76A.11.11,0,0,1,3.59.64a.12.12,0,0,1,.24,0A.11.11,0,0,1,3.71.76Zm.18,6.67A.12.12,0,1,1,4,7.31.11.11,0,0,1,3.89,7.43ZM4.13.88A.11.11,0,0,1,4,.76a.12.12,0,1,1,.24,0A.11.11,0,0,1,4.13.88Zm0,6.91a.12.12,0,1,1,.12-.12A.11.11,0,0,1,4.18,7.79Zm.28.36A.12.12,0,1,1,4.58,8,.11.11,0,0,1,4.46,8.15ZM4.56.84A.11.11,0,0,1,4.44.72a.12.12,0,0,1,.24,0A.11.11,0,0,1,4.56.84Zm.19,7.67a.12.12,0,1,1,.12-.12A.11.11,0,0,1,4.75,8.51ZM4.92.62A.11.11,0,0,1,4.8.5.12.12,0,0,1,5,.5.11.11,0,0,1,4.92.62ZM5,8.87a.12.12,0,1,1,.12-.12A.11.11,0,0,1,5,8.87ZM5.11.24A.11.11,0,0,1,5,.12a.12.12,0,1,1,.24,0A.11.11,0,0,1,5.11.24Zm.22,9a.12.12,0,1,1,.12-.12A.11.11,0,0,1,5.33,9.23Zm.29.36a.12.12,0,1,1,.12-.12A.11.11,0,0,1,5.62,9.59ZM5.9,10A.12.12,0,1,1,6,9.83.11.11,0,0,1,5.9,10Zm.29.36a.12.12,0,1,1,.12-.12A.11.11,0,0,1,6.19,10.31Zm.29.36a.12.12,0,1,1,.12-.12A.11.11,0,0,1,6.48,10.67Zm.29-7.79a.11.11,0,0,1-.12-.12.12.12,0,0,1,.24,0A.11.11,0,0,1,6.77,2.88Zm0,.48a.12.12,0,1,1,.12-.12A.11.11,0,0,1,6.77,3.36Zm0,.46a.12.12,0,1,1,.12-.12A.11.11,0,0,1,6.77,3.82Zm0,.43a.12.12,0,1,1,.12-.12A.11.11,0,0,1,6.77,4.25Zm0,.48a.12.12,0,1,1,.12-.12A.11.11,0,0,1,6.77,4.73Zm0,.47a.12.12,0,1,1,.12-.12A.11.11,0,0,1,6.77,5.2Zm0,.51a.12.12,0,1,1,.12-.12A.11.11,0,0,1,6.77,5.71Zm0,.48a.12.12,0,1,1,.12-.12A.11.11,0,0,1,6.77,6.19Zm0,.48a.12.12,0,1,1,.12-.12A.11.11,0,0,1,6.77,6.67Zm0,.45A.12.12,0,1,1,6.89,7,.11.11,0,0,1,6.77,7.12Zm0,.48a.12.12,0,1,1,.12-.12A.11.11,0,0,1,6.77,7.6Zm0,.48A.12.12,0,1,1,6.89,8,.11.11,0,0,1,6.77,8.08Zm0,.46a.12.12,0,1,1,.12-.12A.11.11,0,0,1,6.77,8.54Zm0,.5a.12.12,0,1,1,.12-.12A.11.11,0,0,1,6.77,9Zm0,.49a.12.12,0,1,1,.12-.12A.11.11,0,0,1,6.77,9.53Zm0,.49a.12.12,0,1,1,.12-.12A.11.11,0,0,1,6.77,10Zm0,.48a.12.12,0,1,1,.12-.12A.11.11,0,0,1,6.77,10.5Zm0,.48a.12.12,0,1,1,.12-.12A.11.11,0,0,1,6.77,11Z"/></g></g></svg>