<svg xmlns="http://www.w3.org/2000/svg" viewBox="0 0 6.2 8.88"><defs><style>.cls-1{fill:#231f20;}</style></defs><g id="Layer_2" data-name="Layer 2"><g id="Layer_1-2" data-name="Layer 1"><path class="cls-1" d="M2.15,8.88a2.34,2.34,0,0,1-.85-.15,2,2,0,0,1-.69-.42,2,2,0,0,1-.45-.63A1.86,1.86,0,0,1,0,6.89a1.74,1.74,0,0,1,.2-.82,1.81,1.81,0,0,1,.55-.65A2.92,2.92,0,0,1,1.6,5a3.61,3.61,0,0,1,1.08-.15,4.47,4.47,0,0,1,.82.07,3.3,3.3,0,0,1,.71.21V4.78a1.27,1.27,0,0,0-.35-1,1.46,1.46,0,0,0-1-.34,2.8,2.8,0,0,0-1,.18,4.75,4.75,0,0,0-1,.53l-.49-1A4.62,4.62,0,0,1,3,2.36,3.09,3.09,0,0,1,5.07,3,2.44,2.44,0,0,1,5.82,5v2a.56.56,0,0,0,.09.36.41.41,0,0,0,.29.12V8.76a3.19,3.19,0,0,1-.7.08,1.07,1.07,0,0,1-.71-.2.91.91,0,0,1-.3-.54l0-.35a2.74,2.74,0,0,1-1,.84A3,3,0,0,1,2.15,8.88ZM2.6,7.7a2,2,0,0,0,.78-.14A1.5,1.5,0,0,0,4,7.18a.6.6,0,0,0,.26-.46V6a3.74,3.74,0,0,0-.62-.17,3,3,0,0,0-.65-.07,1.69,1.69,0,0,0-1,.28.87.87,0,0,0-.4.72.85.85,0,0,0,.32.67A1.1,1.1,0,0,0,2.6,7.7Zm.78-6-1-.31L3,0H4.5Z"/></g></g></svg>