<svg xmlns="http://www.w3.org/2000/svg" viewBox="0 0 6.6 8.88"><defs><style>.cls-1{fill:#231f20;}</style></defs><g id="Layer_2" data-name="Layer 2"><g id="Layer_1-2" data-name="Layer 1"><path class="cls-1" d="M3.31,8.88a3.56,3.56,0,0,1-1.37-.26,3.13,3.13,0,0,1-1-.7,3.21,3.21,0,0,1-.67-1,3.51,3.51,0,0,1,0-2.5,3,3,0,0,1,.66-1,3.09,3.09,0,0,1,1-.71,3.4,3.4,0,0,1,1.38-.27,3.36,3.36,0,0,1,1.38.27,3,3,0,0,1,1,.71,3.06,3.06,0,0,1,.65,1A3.38,3.38,0,0,1,6.6,5.59a2.81,2.81,0,0,1,0,.3.78.78,0,0,1,0,.24H1.7a2.13,2.13,0,0,0,.18.66,1.54,1.54,0,0,0,.38.49,1.69,1.69,0,0,0,.51.32,1.72,1.72,0,0,0,.6.1,1.84,1.84,0,0,0,.91-.23,1.24,1.24,0,0,0,.58-.62l1.38.39A2.79,2.79,0,0,1,5.13,8.42,3.42,3.42,0,0,1,3.31,8.88ZM4.94,5.09A1.69,1.69,0,0,0,4.42,4,1.61,1.61,0,0,0,3.3,3.53a1.74,1.74,0,0,0-.61.11,1.67,1.67,0,0,0-.85.81,1.88,1.88,0,0,0-.16.64ZM3.71,1.74l-1-.31L3.32,0h1.5Z"/></g></g></svg>