<svg xmlns="http://www.w3.org/2000/svg" viewBox="0 0 6.59 8.88"><defs><style>.cls-1{fill:#231f20;}</style></defs><g id="Layer_2" data-name="Layer 2"><g id="Layer_1-2" data-name="Layer 1"><path class="cls-1" d="M3.3,8.88a3.57,3.57,0,0,1-1.38-.26,3.22,3.22,0,0,1-1-.72,3.1,3.1,0,0,1-.65-1A3.4,3.4,0,0,1,0,5.63,3.47,3.47,0,0,1,.23,4.38a3.2,3.2,0,0,1,.65-1,3.05,3.05,0,0,1,1-.71A3.4,3.4,0,0,1,3.3,2.36a3.32,3.32,0,0,1,1.37.27,3.05,3.05,0,0,1,1,.71,3.2,3.2,0,0,1,.65,1,3.47,3.47,0,0,1,.23,1.25,3.4,3.4,0,0,1-.23,1.23A3.11,3.11,0,0,1,4.68,8.62,3.57,3.57,0,0,1,3.3,8.88ZM1.66,5.63a2.29,2.29,0,0,0,.12.76A1.81,1.81,0,0,0,2.13,7a1.52,1.52,0,0,0,.52.39,1.44,1.44,0,0,0,.65.14A1.44,1.44,0,0,0,4,7.37,1.52,1.52,0,0,0,4.47,7a1.76,1.76,0,0,0,.35-.6,2.29,2.29,0,0,0,.12-.76,2.29,2.29,0,0,0-.12-.76,2,2,0,0,0-.35-.6A1.52,1.52,0,0,0,4,3.87a1.58,1.58,0,0,0-.65-.14,1.44,1.44,0,0,0-.65.15,1.52,1.52,0,0,0-.52.39,2,2,0,0,0-.35.6A2.33,2.33,0,0,0,1.66,5.63ZM3.71,1.74l-1-.31L3.32,0h1.5Z"/></g></g></svg>