<svg xmlns="http://www.w3.org/2000/svg" viewBox="0 0 6.26 8.88"><defs><style>.cls-1{fill:#231f20;}</style></defs><g id="Layer_2" data-name="Layer 2"><g id="Layer_1-2" data-name="Layer 1"><path class="cls-1" d="M2,8.88A1.81,1.81,0,0,1,.5,8.26,3,3,0,0,1,0,6.41V2.47H1.61V6.06c0,1,.35,1.45,1,1.45a1.65,1.65,0,0,0,.91-.28,2,2,0,0,0,.71-.86V2.47H5.88V6.91A.56.56,0,0,0,6,7.27a.41.41,0,0,0,.29.12V8.76l-.4.06H5.57a1.1,1.1,0,0,1-.7-.2.76.76,0,0,1-.32-.54l0-.51a2.67,2.67,0,0,1-1.08,1A3.31,3.31,0,0,1,2,8.88ZM3.35,1.74l-1-.31L3,0h1.5Z"/></g></g></svg>