<svg xmlns="http://www.w3.org/2000/svg" viewBox="0 0 5.36 8.86"><defs><style>.cls-1{fill:#231f20;}</style></defs><g id="Layer_2" data-name="Layer 2"><g id="Layer_1-2" data-name="Layer 1"><path class="cls-1" d="M.12,7.1a.12.12,0,1,1,0-.24.12.12,0,1,1,0,.24Zm.1-.48a.12.12,0,0,1,0-.24.12.12,0,0,1,0,.24Zm0,1a.12.12,0,0,1,0-.24.12.12,0,1,1,0,.24ZM.42,8a.12.12,0,1,1,0-.24A.12.12,0,1,1,.42,8Zm.1-1.9a.12.12,0,0,1,0-.24.12.12,0,0,1,0,.24Zm.09-2.7a.12.12,0,0,1,0-.24.12.12,0,0,1,0,.24Zm.13,5a.12.12,0,0,1,0-.24.12.12,0,0,1,0,.24ZM.91,5.84a.12.12,0,0,1,0-.24.12.12,0,0,1,0,.24ZM1,3.19A.12.12,0,0,1,1,3a.12.12,0,0,1,0,.24Zm.13,5.49a.12.12,0,0,1,0-.24.12.12,0,0,1,0,.24Zm.22-3a.12.12,0,0,1,0-.24.12.12,0,0,1,0,.24ZM1.45,3a.11.11,0,0,1-.12-.12.11.11,0,0,1,.12-.12.11.11,0,0,1,.12.12A.11.11,0,0,1,1.45,3ZM1.6,8.82a.12.12,0,1,1,0-.24.12.12,0,1,1,0,.24ZM1.84.24A.11.11,0,0,1,1.72.12.11.11,0,0,1,1.84,0,.11.11,0,0,1,2,.12.11.11,0,0,1,1.84.24Zm0,.4A.11.11,0,0,1,1.72.52.11.11,0,0,1,1.84.4.11.11,0,0,1,2,.52.11.11,0,0,1,1.84.64Zm0,.39A.11.11,0,0,1,1.72.91.11.11,0,0,1,1.84.79.11.11,0,0,1,2,.91.11.11,0,0,1,1.84,1Zm0,4.47a.12.12,0,1,1,0-.24.12.12,0,1,1,0,.24Zm0-2.67a.11.11,0,0,1-.12-.12.11.11,0,0,1,.12-.12A.11.11,0,0,1,2,2.71.11.11,0,0,1,1.9,2.83Zm.18,6a.12.12,0,0,1,0-.24.12.12,0,0,1,0,.24Zm.26-3.4a.12.12,0,0,1,0-.24.12.12,0,1,1,0,.24Zm0-2.71a.11.11,0,0,1-.12-.12.11.11,0,0,1,.12-.12.11.11,0,0,1,.12.12A.11.11,0,0,1,2.38,2.75Zm.24,6.06a.12.12,0,0,1,0-.24.12.12,0,0,1,0,.24Zm.24-3.34a.12.12,0,0,1,0-.24.12.12,0,1,1,0,.24Zm0-2.72a.11.11,0,0,1-.12-.12.11.11,0,0,1,.12-.12A.11.11,0,0,1,3,2.63.11.11,0,0,1,2.87,2.75ZM3.1,8.69a.12.12,0,1,1,.12-.12A.11.11,0,0,1,3.1,8.69Zm.22-3.17a.12.12,0,1,1,.12-.12A.11.11,0,0,1,3.32,5.52Zm0-2.68a.11.11,0,0,1-.12-.12.12.12,0,0,1,.24,0A.11.11,0,0,1,3.34,2.84Zm0-2.6A.11.11,0,0,1,3.23.12a.12.12,0,0,1,.24,0A.11.11,0,0,1,3.35.24Zm0,.4A.11.11,0,0,1,3.23.52a.12.12,0,0,1,.24,0A.11.11,0,0,1,3.35.64Zm0,.39A.11.11,0,0,1,3.23.91a.12.12,0,0,1,.24,0A.11.11,0,0,1,3.35,1ZM3.53,8.5a.12.12,0,1,1,.12-.12A.11.11,0,0,1,3.53,8.5Zm.24-5.45a.11.11,0,0,1-.12-.12.12.12,0,0,1,.24,0A.11.11,0,0,1,3.77,3.05Zm.06,2.61A.12.12,0,1,1,4,5.54.11.11,0,0,1,3.83,5.66Zm.09,2.6A.12.12,0,1,1,4,8.14.11.11,0,0,1,3.92,8.26Zm.23-4.91a.12.12,0,1,1,.12-.12A.11.11,0,0,1,4.15,3.35ZM4.3,5.84a.12.12,0,1,1,.12-.12A.11.11,0,0,1,4.3,5.84Zm0,2.07a.12.12,0,1,1,.12-.12A.11.11,0,0,1,4.31,7.91Zm.13-4.17a.12.12,0,1,1,.12-.12A.11.11,0,0,1,4.44,3.74Zm.19.45a.12.12,0,1,1,.12-.12A.11.11,0,0,1,4.63,4.19Zm.06,3.39a.12.12,0,1,1,.12-.12A.11.11,0,0,1,4.69,7.58Zm0-2.91a.12.12,0,1,1,.12-.12A.11.11,0,0,1,4.72,4.67Zm0,1a.12.12,0,1,1,.12-.12A.11.11,0,0,1,4.73,5.65Zm0,.49A.12.12,0,1,1,4.85,6,.11.11,0,0,1,4.73,6.14Zm0,.48a.12.12,0,1,1,.12-.12A.11.11,0,0,1,4.73,6.62Zm0,.48A.12.12,0,1,1,4.85,7,.11.11,0,0,1,4.73,7.1Zm0-1.95A.12.12,0,1,1,4.86,5,.11.11,0,0,1,4.74,5.15Zm0,2.91a.12.12,0,1,1,.12-.12A.11.11,0,0,1,4.79,8.06Zm.15.42a.12.12,0,1,1,.12-.12A.11.11,0,0,1,4.94,8.48Zm.3.3a.12.12,0,1,1,.12-.12A.11.11,0,0,1,5.24,8.78Z"/></g></g></svg>