<svg xmlns="http://www.w3.org/2000/svg" viewBox="0 0 5.84 8.82"><defs><style>.cls-1{fill:#231f20;}</style></defs><g id="Layer_2" data-name="Layer 2"><g id="Layer_1-2" data-name="Layer 1"><path class="cls-1" d="M.12,5.78a.12.12,0,0,1,0-.24.12.12,0,0,1,0,.24ZM.17,5.3a.12.12,0,0,1,0-.24.12.12,0,0,1,0,.24ZM.17,6a.12.12,0,1,1,0,.24A.12.12,0,0,1,.17,6ZM.26,4.86a.12.12,0,0,1,0-.24.12.12,0,0,1,0,.24Zm0,1.6a.12.12,0,0,1,0,.24.12.12,0,0,1,0-.24Zm.18-2a.12.12,0,1,1,0-.24.12.12,0,1,1,0,.24Zm0,2.48a.12.12,0,1,1,0,.24.12.12,0,0,1,0-.24ZM.7,4a.12.12,0,0,1,0-.24A.12.12,0,0,1,.7,4Zm0,3.32a.12.12,0,1,1,0,.24.12.12,0,1,1,0-.24ZM1,3.59a.12.12,0,1,1,0-.24.12.12,0,0,1,0,.24ZM1,7.73A.12.12,0,1,1,1,8a.12.12,0,1,1,0-.24Zm.39-4.48a.12.12,0,1,1,0-.24.12.12,0,0,1,0,.24Zm0,4.81a.12.12,0,1,1,0,.24.12.12,0,1,1,0-.24ZM1.88,3a.11.11,0,0,1-.12-.12.11.11,0,0,1,.12-.12A.11.11,0,0,1,2,2.86.11.11,0,0,1,1.88,3Zm0,5.36a.12.12,0,0,1,0,.24.12.12,0,1,1,0-.24ZM2.16.24A.11.11,0,0,1,2,.12.11.11,0,0,1,2.16,0a.11.11,0,0,1,.12.12A.11.11,0,0,1,2.16.24Zm0,.4A.11.11,0,0,1,2,.52.11.11,0,0,1,2.16.4a.11.11,0,0,1,.12.12A.11.11,0,0,1,2.16.64Zm0,.39A.11.11,0,0,1,2,.91.11.11,0,0,1,2.16.79a.11.11,0,0,1,.12.12A.11.11,0,0,1,2.16,1Zm.2,1.79a.11.11,0,0,1-.12-.12.11.11,0,0,1,.12-.12.11.11,0,0,1,.12.12A.11.11,0,0,1,2.36,2.82Zm0,5.68a.12.12,0,0,1,0,.24.12.12,0,0,1,0-.24Zm.57-5.76a.11.11,0,0,1-.12-.12.11.11,0,0,1,.12-.12.11.11,0,0,1,.12.12A.11.11,0,0,1,2.93,2.74Zm0,5.84a.12.12,0,0,1,0,.24.12.12,0,1,1,0-.24Zm.55-5.76a.11.11,0,0,1-.12-.12.12.12,0,0,1,.24,0A.11.11,0,0,1,3.48,2.82Zm0,5.68a.12.12,0,1,1-.12.12A.11.11,0,0,1,3.48,8.5ZM3.67.24A.11.11,0,0,1,3.55.12a.12.12,0,0,1,.24,0A.11.11,0,0,1,3.67.24Zm0,.4A.11.11,0,0,1,3.55.52a.12.12,0,0,1,.24,0A.11.11,0,0,1,3.67.64Zm0,.39A.11.11,0,0,1,3.55.91a.12.12,0,0,1,.24,0A.11.11,0,0,1,3.67,1ZM4,3a.11.11,0,0,1-.12-.12.12.12,0,0,1,.24,0A.11.11,0,0,1,4,3ZM4,8.34a.12.12,0,1,1-.12.12A.11.11,0,0,1,4,8.34Zm.47-5.09a.12.12,0,1,1,.12-.12A.11.11,0,0,1,4.43,3.25Zm0,4.81a.12.12,0,1,1-.12.12A.11.11,0,0,1,4.43,8.06Zm.38-4.47a.12.12,0,1,1,.12-.12A.11.11,0,0,1,4.81,3.59Zm0,4.14a.12.12,0,1,1-.12.12A.11.11,0,0,1,4.81,7.73ZM5.15,4a.12.12,0,1,1,.12-.12A.11.11,0,0,1,5.15,4Zm0,3.32A.12.12,0,1,1,5,7.44.11.11,0,0,1,5.15,7.32Zm.25-2.9a.12.12,0,1,1,.12-.12A.11.11,0,0,1,5.4,4.42Zm0,2.48A.12.12,0,1,1,5.28,7,.11.11,0,0,1,5.4,6.9Zm.18-2a.12.12,0,1,1,.12-.12A.11.11,0,0,1,5.58,4.86Zm0,1.6a.12.12,0,1,1-.12.12A.11.11,0,0,1,5.58,6.46Zm.08-1.14a.12.12,0,1,1,.12-.12A.11.11,0,0,1,5.66,5.32Zm0,.69a.12.12,0,1,1-.12.12A.11.11,0,0,1,5.68,6Zm0-.23a.12.12,0,1,1,.12-.12A.11.11,0,0,1,5.72,5.78Z"/></g></g></svg>