<svg xmlns="http://www.w3.org/2000/svg" viewBox="0 0 5.12 8.82"><defs><style>.cls-1{fill:#231f20;}</style></defs><g id="Layer_2" data-name="Layer 2"><g id="Layer_1-2" data-name="Layer 1"><path class="cls-1" d="M.12,2.54a.11.11,0,0,1,.12.12.11.11,0,0,1-.12.12A.11.11,0,0,1,0,2.66.11.11,0,0,1,.12,2.54ZM.12,3a.12.12,0,0,1,0,.24A.12.12,0,0,1,.12,3Zm0,.44a.12.12,0,0,1,0,.24.12.12,0,0,1,0-.24Zm0,.5a.12.12,0,0,1,0,.24.12.12,0,1,1,0-.24Zm0,.46a.12.12,0,1,1,0,.24.12.12,0,1,1,0-.24Zm0,.48a.12.12,0,1,1,0,.24.12.12,0,1,1,0-.24Zm0,.48a.12.12,0,1,1,0,.24.12.12,0,1,1,0-.24Zm0,.44A.12.12,0,1,1,.12,6a.12.12,0,1,1,0-.24Zm0,.37a.12.12,0,0,1,0,.24.12.12,0,0,1,0-.24Zm.06.46a.12.12,0,1,1,0,.24.12.12,0,1,1,0-.24ZM.24,7a.12.12,0,0,1,0,.24A.12.12,0,0,1,.24,7Zm.1.42a.12.12,0,0,1,0,.24.12.12,0,0,1,0-.24Zm.16.41a.12.12,0,1,1,0,.24.12.12,0,1,1,0-.24Zm.27.34a.12.12,0,1,1,0,.24.12.12,0,1,1,0-.24Zm.47.27a.12.12,0,1,1,0,.24.12.12,0,1,1,0-.24ZM1.67.24A.11.11,0,0,1,1.55.12.11.11,0,0,1,1.67,0a.11.11,0,0,1,.12.12A.11.11,0,0,1,1.67.24Zm0,.4A.11.11,0,0,1,1.55.52.11.11,0,0,1,1.67.4a.11.11,0,0,1,.12.12A.11.11,0,0,1,1.67.64Zm0,.39A.11.11,0,0,1,1.55.91.11.11,0,0,1,1.67.79a.11.11,0,0,1,.12.12A.11.11,0,0,1,1.67,1Zm.08,7.55a.12.12,0,0,1,0,.24.12.12,0,1,1,0-.24Zm.54-.05a.12.12,0,0,1,0,.24.12.12,0,0,1,0-.24Zm.52-.18a.12.12,0,0,1,0,.24.12.12,0,0,1,0-.24ZM3.18.24A.11.11,0,0,1,3.06.12a.12.12,0,0,1,.24,0A.11.11,0,0,1,3.18.24Zm0,.4A.11.11,0,0,1,3.06.52a.12.12,0,1,1,.24,0A.11.11,0,0,1,3.18.64Zm0,.39A.11.11,0,0,1,3.06.91a.12.12,0,1,1,.24,0A.11.11,0,0,1,3.18,1Zm.1,7.11a.12.12,0,1,1-.12.12A.11.11,0,0,1,3.28,8.14Zm.42-.29A.12.12,0,1,1,3.58,8,.11.11,0,0,1,3.7,7.85Zm.38-.39A.12.12,0,1,1,4,7.58.11.11,0,0,1,4.08,7.46Zm.3-.4a.12.12,0,1,1-.12.12A.11.11,0,0,1,4.38,7.06Zm.38-4.52a.11.11,0,0,1,.12.12.12.12,0,1,1-.24,0A.11.11,0,0,1,4.76,2.54Zm0,.42a.12.12,0,1,1-.12.12A.11.11,0,0,1,4.76,3Zm0,.44a.12.12,0,1,1-.12.12A.11.11,0,0,1,4.76,3.4Zm0,.5A.12.12,0,1,1,4.64,4,.11.11,0,0,1,4.76,3.9Zm0,.46a.12.12,0,1,1-.12.12A.11.11,0,0,1,4.76,4.36Zm0,.48A.12.12,0,1,1,4.64,5,.11.11,0,0,1,4.76,4.84Zm0,.48a.12.12,0,1,1-.12.12A.11.11,0,0,1,4.76,5.32Zm0,.49a.12.12,0,1,1-.12.12A.11.11,0,0,1,4.76,5.81Zm0,.48a.12.12,0,1,1-.12.12A.11.11,0,0,1,4.76,6.29Zm0,.45a.12.12,0,1,1-.12.12A.11.11,0,0,1,4.76,6.74Zm0,.45a.12.12,0,1,1-.12.12A.11.11,0,0,1,4.76,7.19Zm0,.48a.12.12,0,1,1-.12.12A.11.11,0,0,1,4.8,7.67Zm.07.45a.12.12,0,1,1-.12.12A.11.11,0,0,1,4.87,8.12ZM5,8.54a.12.12,0,1,1-.12.12A.11.11,0,0,1,5,8.54Z"/></g></g></svg>