<svg xmlns="http://www.w3.org/2000/svg" viewBox="0 0 5.92 7.26"><defs><style>.cls-1{fill:#231f20;}</style></defs><g id="Layer_2" data-name="Layer 2"><g id="Layer_1-2" data-name="Layer 1"><path class="cls-1" d="M.12,4a.12.12,0,1,1,0-.24A.12.12,0,1,1,.12,4Zm0-.66a.12.12,0,0,1,0,.24.12.12,0,0,1,0-.24Zm0,1.1a.12.12,0,1,1,0-.24.12.12,0,1,1,0,.24Zm0-1.54A.11.11,0,0,1,.29,3a.11.11,0,0,1-.12.12A.11.11,0,0,1,.05,3,.11.11,0,0,1,.17,2.86Zm.07,2a.12.12,0,0,1,0-.24.12.12,0,0,1,0,.24Zm0-2.44a.11.11,0,0,1,.12.12.11.11,0,0,1-.12.12.11.11,0,0,1-.12-.12A.11.11,0,0,1,.25,2.41ZM.37,5.28A.12.12,0,0,1,.37,5a.12.12,0,0,1,0,.24ZM.38,2A.11.11,0,0,1,.5,2.1a.11.11,0,0,1-.12.12A.11.11,0,0,1,.26,2.1.11.11,0,0,1,.38,2ZM.54,5.69a.12.12,0,0,1,0-.24.12.12,0,0,1,0,.24Zm0-4.12a.11.11,0,0,1,.12.12.11.11,0,0,1-.12.12.11.11,0,0,1-.12-.12A.11.11,0,0,1,.55,1.57ZM.76,6.06a.12.12,0,1,1,0-.24.12.12,0,1,1,0,.24Zm0-4.86a.11.11,0,0,1,.12.12.11.11,0,0,1-.12.12.11.11,0,0,1-.12-.12A.11.11,0,0,1,.77,1.2ZM1,6.4a.12.12,0,1,1,0-.24A.12.12,0,1,1,1,6.4ZM1,.86A.11.11,0,0,1,1.15,1,.11.11,0,0,1,1,1.1.11.11,0,0,1,.91,1,.11.11,0,0,1,1,.86ZM1.32,6.7a.12.12,0,0,1,0-.24.12.12,0,0,1,0,.24Zm0-6.14a.11.11,0,0,1,.12.12A.11.11,0,0,1,1.33.8.11.11,0,0,1,1.21.68.11.11,0,0,1,1.33.56Zm.34,6.38a.12.12,0,0,1,0-.24.12.12,0,0,1,0,.24Zm0-6.62A.11.11,0,0,1,1.8.44a.11.11,0,0,1-.12.12A.11.11,0,0,1,1.56.44.11.11,0,0,1,1.68.32Zm.38,6.8a.12.12,0,0,1,0-.24.12.12,0,0,1,0,.24Zm0-7A.11.11,0,0,1,2.2.26a.11.11,0,0,1-.12.12A.11.11,0,0,1,2,.26.11.11,0,0,1,2.08.14ZM2.5,7.22A.12.12,0,0,1,2.5,7a.12.12,0,1,1,0,.24ZM2.51,0a.11.11,0,0,1,.12.12.11.11,0,0,1-.12.12A.11.11,0,0,1,2.39.16.11.11,0,0,1,2.51,0Zm.43,7.22a.12.12,0,1,1,0-.24.12.12,0,1,1,0,.24ZM3,0a.11.11,0,0,1,.12.12A.11.11,0,0,1,3,.24.11.11,0,0,1,2.83.12.11.11,0,0,1,3,0Zm.43,7.22A.12.12,0,1,1,3.5,7.1.11.11,0,0,1,3.38,7.22ZM3.4,0a.11.11,0,0,1,.12.12.12.12,0,1,1-.24,0A.11.11,0,0,1,3.4,0Zm.42,7.08A.12.12,0,1,1,3.94,7,.11.11,0,0,1,3.82,7.12Zm0-7A.11.11,0,0,1,4,.26a.12.12,0,0,1-.24,0A.11.11,0,0,1,3.83.14Zm.38,6.8a.12.12,0,1,1,.12-.12A.11.11,0,0,1,4.21,6.94Zm0-6.62a.11.11,0,0,1,.12.12.12.12,0,1,1-.24,0A.11.11,0,0,1,4.22.32ZM4.57,6.7a.12.12,0,1,1,.12-.12A.11.11,0,0,1,4.57,6.7Zm0-6.14A.11.11,0,0,1,4.7.68a.12.12,0,0,1-.24,0A.11.11,0,0,1,4.58.56Zm.3,5.85A.12.12,0,1,1,5,6.29.11.11,0,0,1,4.88,6.41ZM4.9.85A.11.11,0,0,1,5,1a.12.12,0,1,1-.24,0A.11.11,0,0,1,4.9.85Zm.25,5.22A.12.12,0,1,1,5.27,6,.11.11,0,0,1,5.15,6.07Zm0-4.88a.11.11,0,0,1,.12.12.12.12,0,0,1-.24,0A.11.11,0,0,1,5.16,1.19Zm.2,4.51a.12.12,0,1,1,.12-.12A.11.11,0,0,1,5.36,5.7Zm0-4.14a.11.11,0,0,1,.12.12.12.12,0,1,1-.24,0A.11.11,0,0,1,5.38,1.56Zm.15,3.73a.12.12,0,1,1,.12-.12A.11.11,0,0,1,5.53,5.29ZM5.54,2a.11.11,0,0,1,.12.12.12.12,0,1,1-.24,0A.11.11,0,0,1,5.54,2Zm.12,2.89a.12.12,0,1,1,.12-.12A.11.11,0,0,1,5.66,4.86Zm0-2.46a.11.11,0,0,1,.12.12.12.12,0,0,1-.24,0A.11.11,0,0,1,5.68,2.4Zm.07,2a.12.12,0,1,1,.12-.12A.11.11,0,0,1,5.75,4.42Zm0-1.58A.11.11,0,0,1,5.88,3a.12.12,0,0,1-.24,0A.11.11,0,0,1,5.76,2.84ZM5.78,4a.12.12,0,1,1,.12-.12A.11.11,0,0,1,5.78,4Zm0-.68a.12.12,0,1,1-.12.12A.11.11,0,0,1,5.8,3.29Z"/></g></g></svg>