<svg xmlns="http://www.w3.org/2000/svg" viewBox="0 0 3.79 6.72"><defs><style>.cls-1{fill:#231f20;}</style></defs><g id="Layer_2" data-name="Layer 2"><g id="Layer_1-2" data-name="Layer 1"><path class="cls-1" d="M.12,1.36A.11.11,0,0,1,0,1.24a.11.11,0,0,1,.12-.12.11.11,0,0,1,.12.12A.11.11,0,0,1,.12,1.36ZM.31,6.72a.12.12,0,0,1,0-.24.12.12,0,1,1,0,.24ZM.54,1.21a.11.11,0,0,1-.12-.12A.11.11,0,0,1,.54,1a.11.11,0,0,1,.12.12A.11.11,0,0,1,.54,1.21ZM.73,6.72a.12.12,0,1,1,0-.24.12.12,0,1,1,0,.24ZM.94,1A.11.11,0,0,1,.82.9.11.11,0,0,1,.94.78.11.11,0,0,1,1.06.9.11.11,0,0,1,.94,1Zm.21,5.7a.12.12,0,0,1,0-.24.12.12,0,1,1,0,.24ZM1.31.78A.11.11,0,0,1,1.19.66.11.11,0,0,1,1.31.54a.11.11,0,0,1,.12.12A.11.11,0,0,1,1.31.78Zm.26,5.94a.12.12,0,0,1,0-.24.12.12,0,0,1,0,.24ZM1.64.49A.11.11,0,0,1,1.52.37.11.11,0,0,1,1.64.25a.11.11,0,0,1,.12.12A.11.11,0,0,1,1.64.49ZM2,.24A.11.11,0,0,1,1.87.12.11.11,0,0,1,2,0a.11.11,0,0,1,.12.12A.11.11,0,0,1,2,.24ZM2,.67A.11.11,0,0,1,1.87.55.11.11,0,0,1,2,.43a.11.11,0,0,1,.12.12A.11.11,0,0,1,2,.67ZM2,1.1A.11.11,0,0,1,1.87,1,.11.11,0,0,1,2,.86.11.11,0,0,1,2.11,1,.11.11,0,0,1,2,1.1Zm0,.44a.11.11,0,0,1-.12-.12A.11.11,0,0,1,2,1.3a.11.11,0,0,1,.12.12A.11.11,0,0,1,2,1.54ZM2,2a.11.11,0,0,1-.12-.12A.11.11,0,0,1,2,1.73a.11.11,0,0,1,.12.12A.11.11,0,0,1,2,2ZM2,2.4a.11.11,0,0,1-.12-.12A.11.11,0,0,1,2,2.16a.11.11,0,0,1,.12.12A.11.11,0,0,1,2,2.4Zm0,.43a.11.11,0,0,1-.12-.12A.11.11,0,0,1,2,2.59a.11.11,0,0,1,.12.12A.11.11,0,0,1,2,2.83Zm0,.43A.12.12,0,0,1,2,3a.12.12,0,0,1,0,.24ZM2,3.7a.12.12,0,0,1,0-.24A.12.12,0,0,1,2,3.7Zm0,.43a.12.12,0,1,1,0-.24.12.12,0,0,1,0,.24Zm0,.43a.12.12,0,1,1,0-.24.12.12,0,1,1,0,.24ZM2,5a.12.12,0,1,1,0-.24A.12.12,0,0,1,2,5Zm0,.43a.12.12,0,0,1,0-.24.12.12,0,0,1,0,.24Zm0,.44a.12.12,0,0,1,0-.24.12.12,0,0,1,0,.24Zm0,.43a.12.12,0,0,1,0-.24.12.12,0,0,1,0,.24Zm0,.43a.12.12,0,0,1,0-.24.12.12,0,0,1,0,.24Zm.42,0a.12.12,0,0,1,0-.24.12.12,0,0,1,0,.24Zm.42,0a.12.12,0,1,1,0-.24.12.12,0,1,1,0,.24Zm.42,0a.12.12,0,1,1,.12-.12A.11.11,0,0,1,3.25,6.72Zm.42,0a.12.12,0,1,1,.12-.12A.11.11,0,0,1,3.67,6.72Z"/></g></g></svg>