<svg xmlns="http://www.w3.org/2000/svg" viewBox="0 0 4.88 6.82"><defs><style>.cls-1{fill:#231f20;}</style></defs><g id="Layer_2" data-name="Layer 2"><g id="Layer_1-2" data-name="Layer 1"><path class="cls-1" d="M.12,6.82a.12.12,0,1,1,0-.24.12.12,0,1,1,0,.24Zm.06-.45a.12.12,0,0,1,0-.24.12.12,0,0,1,0,.24Zm.1-5.12a.11.11,0,0,1-.12-.12A.11.11,0,0,1,.28,1a.11.11,0,0,1,.12.12A.11.11,0,0,1,.28,1.25Zm0,4.69a.12.12,0,0,1,0-.24.12.12,0,0,1,0,.24Zm.18-.42a.12.12,0,0,1,0-.24.12.12,0,1,1,0,.24Zm.09,1.3a.12.12,0,1,1,0-.24.12.12,0,1,1,0,.24ZM.58,1A.11.11,0,0,1,.46.83.11.11,0,0,1,.58.71.11.11,0,0,1,.7.83.11.11,0,0,1,.58,1ZM.71,5.1a.12.12,0,1,1,0-.24.12.12,0,1,1,0,.24ZM.94.67A.11.11,0,0,1,.82.55.11.11,0,0,1,.94.43a.11.11,0,0,1,.12.12A.11.11,0,0,1,.94.67ZM1,6.82a.12.12,0,1,1,0-.24.12.12,0,1,1,0,.24ZM1,4.72a.12.12,0,1,1,0-.24.12.12,0,1,1,0,.24ZM1.34.47A.11.11,0,0,1,1.22.35.11.11,0,0,1,1.34.23a.11.11,0,0,1,.12.12A.11.11,0,0,1,1.34.47Zm0,6.35a.12.12,0,1,1,0-.24.12.12,0,0,1,0,.24ZM1.43,4.4a.12.12,0,1,1,0-.24.12.12,0,1,1,0,.24ZM1.76.32A.11.11,0,0,1,1.64.2.11.11,0,0,1,1.76.08.11.11,0,0,1,1.88.2.11.11,0,0,1,1.76.32Zm.05,6.5a.12.12,0,1,1,0-.24.12.12,0,1,1,0,.24Zm.05-2.66a.12.12,0,1,1,0-.24.12.12,0,0,1,0,.24ZM2.2.24A.11.11,0,0,1,2.08.12.11.11,0,0,1,2.2,0a.11.11,0,0,1,.12.12A.11.11,0,0,1,2.2.24Zm0,6.58a.12.12,0,1,1,0-.24.12.12,0,0,1,0,.24ZM2.28,4a.12.12,0,0,1,0-.24.12.12,0,1,1,0,.24ZM2.64.24A.11.11,0,0,1,2.52.12.11.11,0,0,1,2.64,0a.11.11,0,0,1,.12.12A.11.11,0,0,1,2.64.24Zm0,6.58a.12.12,0,1,1,0-.24.12.12,0,1,1,0,.24Zm.06-3a.12.12,0,0,1,0-.24.12.12,0,1,1,0,.24ZM3.08.31A.11.11,0,0,1,3,.19a.12.12,0,0,1,.24,0A.11.11,0,0,1,3.08.31Zm0,6.51A.12.12,0,1,1,3.2,6.7.11.11,0,0,1,3.08,6.82Zm0-3.22a.12.12,0,1,1,.12-.12A.11.11,0,0,1,3.13,3.6ZM3.5,6.82a.12.12,0,1,1,.12-.12A.11.11,0,0,1,3.5,6.82Zm0-6.34A.11.11,0,0,1,3.4.36a.12.12,0,0,1,.24,0A.11.11,0,0,1,3.52.48Zm0,2.92a.12.12,0,1,1,.12-.12A.11.11,0,0,1,3.53,3.4ZM3.9.74A.11.11,0,0,1,3.78.62.12.12,0,0,1,4,.62.11.11,0,0,1,3.9.74Zm0,2.4A.12.12,0,1,1,4,3,.11.11,0,0,1,3.9,3.14Zm0,3.68A.12.12,0,1,1,4,6.7.11.11,0,0,1,3.91,6.82Zm.29-4a.11.11,0,0,1-.12-.12.12.12,0,0,1,.24,0A.11.11,0,0,1,4.2,2.83Zm0-1.74A.11.11,0,0,1,4.09,1a.12.12,0,1,1,.24,0A.11.11,0,0,1,4.21,1.09Zm.13,5.73a.12.12,0,1,1,.12-.12A.11.11,0,0,1,4.34,6.82Zm0-5.31a.11.11,0,0,1-.12-.12.12.12,0,0,1,.24,0A.11.11,0,0,1,4.39,1.51Zm0,.93a.11.11,0,0,1-.12-.12.12.12,0,0,1,.24,0A.11.11,0,0,1,4.39,2.44ZM4.45,2a.11.11,0,0,1-.12-.12.12.12,0,1,1,.24,0A.11.11,0,0,1,4.45,2Zm.31,4.84a.12.12,0,1,1,.12-.12A.11.11,0,0,1,4.76,6.82Z"/></g></g></svg>