<svg xmlns="http://www.w3.org/2000/svg" viewBox="0 0 5.16 8.62"><defs><style>.cls-1{fill:#231f20;}</style></defs><g id="Layer_2" data-name="Layer 2"><g id="Layer_1-2" data-name="Layer 1"><path class="cls-1" d="M.12,7.12a.12.12,0,0,1,0-.24.12.12,0,0,1,0,.24Zm.19.4a.12.12,0,0,1,0-.24.12.12,0,1,1,0,.24ZM.4,1.46a.11.11,0,0,1-.12-.12A.11.11,0,0,1,.4,1.22a.11.11,0,0,1,.12.12A.11.11,0,0,1,.4,1.46Zm.19,6.4a.12.12,0,0,1,0-.24.12.12,0,0,1,0,.24ZM.64,1.1A.11.11,0,0,1,.52,1,.11.11,0,0,1,.64.86.11.11,0,0,1,.76,1,.11.11,0,0,1,.64,1.1ZM.92,8.15a.12.12,0,1,1,0-.24.12.12,0,1,1,0,.24ZM1,.8A.11.11,0,0,1,.83.68.11.11,0,0,1,1,.56a.11.11,0,0,1,.12.12A.11.11,0,0,1,1,.8ZM1.32.56A.11.11,0,0,1,1.2.44.11.11,0,0,1,1.32.32a.11.11,0,0,1,.12.12A.11.11,0,0,1,1.32.56Zm0,7.8a.12.12,0,0,1,0-.24.12.12,0,0,1,0,.24Zm.41-8A.11.11,0,0,1,1.61.26.11.11,0,0,1,1.73.14a.11.11,0,0,1,.12.12A.11.11,0,0,1,1.73.38Zm0,8.14a.12.12,0,0,1,0-.24.12.12,0,0,1,0,.24ZM2.16.29A.11.11,0,0,1,2,.17.11.11,0,0,1,2.16.05a.11.11,0,0,1,.12.12A.11.11,0,0,1,2.16.29Zm0,8.3a.12.12,0,0,1,0-.24.12.12,0,0,1,0,.24ZM2.3,4.15a.12.12,0,0,1,0-.24.12.12,0,0,1,0,.24ZM2.59.24A.11.11,0,0,1,2.47.12.11.11,0,0,1,2.59,0a.11.11,0,0,1,.12.12A.11.11,0,0,1,2.59.24Zm0,8.38a.12.12,0,1,1,0-.24.12.12,0,1,1,0,.24Zm.1-4.47a.12.12,0,1,1,0-.24.12.12,0,0,1,0,.24ZM3,.28A.11.11,0,0,1,2.92.16a.12.12,0,0,1,.24,0A.11.11,0,0,1,3,.28Zm0,8.3a.12.12,0,1,1,.12-.12A.11.11,0,0,1,3.05,8.58Zm.11-4.44A.12.12,0,1,1,3.28,4,.11.11,0,0,1,3.16,4.14ZM3.47.37A.11.11,0,0,1,3.35.25a.12.12,0,1,1,.24,0A.11.11,0,0,1,3.47.37Zm0,8.11a.12.12,0,1,1,.12-.12A.11.11,0,0,1,3.48,8.48ZM3.58,4a.12.12,0,1,1,.12-.12A.11.11,0,0,1,3.58,4Zm0,.34A.12.12,0,1,1,3.7,4.2.11.11,0,0,1,3.58,4.32ZM3.86.56A.11.11,0,0,1,3.74.44.12.12,0,0,1,4,.44.11.11,0,0,1,3.86.56Zm0,7.74A.12.12,0,1,1,4,8.18.11.11,0,0,1,3.9,8.3ZM4,3.8a.12.12,0,1,1,.12-.12A.11.11,0,0,1,4,3.8Zm0,.69a.12.12,0,1,1,.12-.12A.11.11,0,0,1,4,4.49ZM4.21.82A.11.11,0,0,1,4.09.7a.12.12,0,1,1,.24,0A.11.11,0,0,1,4.21.82ZM4.28,8a.12.12,0,1,1,.12-.12A.11.11,0,0,1,4.28,8Zm0-4.48a.12.12,0,1,1,.12-.12A.11.11,0,0,1,4.32,3.56Zm.07,1.19a.12.12,0,1,1,.12-.12A.11.11,0,0,1,4.39,4.75Zm.12-3.61A.11.11,0,0,1,4.39,1a.12.12,0,0,1,.24,0A.11.11,0,0,1,4.51,1.14Zm.09,2.1a.12.12,0,1,1,.12-.12A.11.11,0,0,1,4.6,3.24Zm0,4.48a.12.12,0,1,1,.12-.12A.11.11,0,0,1,4.6,7.72Zm.1-2.61A.12.12,0,1,1,4.82,5,.11.11,0,0,1,4.7,5.11Zm0-3.59a.11.11,0,0,1-.12-.12.12.12,0,1,1,.24,0A.11.11,0,0,1,4.73,1.52Zm.06,1.32a.11.11,0,0,1-.12-.12.12.12,0,1,1,.24,0A.11.11,0,0,1,4.79,2.84Zm0,4.48a.12.12,0,1,1,.12-.12A.11.11,0,0,1,4.82,7.32Zm0-5.38a.11.11,0,0,1-.12-.12.12.12,0,1,1,.24,0A.11.11,0,0,1,4.85,1.94Zm0,.46a.11.11,0,0,1-.12-.12.12.12,0,0,1,.24,0A.11.11,0,0,1,4.85,2.4Zm.06,3.14A.12.12,0,1,1,5,5.42.11.11,0,0,1,4.91,5.54ZM5,6.89a.12.12,0,1,1,.12-.12A.11.11,0,0,1,5,6.89ZM5,6a.12.12,0,1,1,.12-.12A.11.11,0,0,1,5,6Zm0,.45a.12.12,0,1,1,.12-.12A.11.11,0,0,1,5,6.44Z"/></g></g></svg>