<svg xmlns="http://www.w3.org/2000/svg" viewBox="0 0 5.7 8"><defs><style>.cls-1{fill:#231f20;}</style></defs><g id="Layer_2" data-name="Layer 2"><g id="Layer_1-2" data-name="Layer 1"><path class="cls-1" d="M.12,5.84a.12.12,0,1,1,0-.24.12.12,0,1,1,0,.24Zm.19-.39a.12.12,0,0,1,0-.24.12.12,0,0,1,0,.24Zm.23.39a.12.12,0,1,1,0-.24.12.12,0,1,1,0,.24Zm0-.75a.12.12,0,0,1,0-.24.12.12,0,1,1,0,.24Zm.26-.36a.12.12,0,1,1,0-.24.12.12,0,1,1,0,.24ZM1,5.84A.12.12,0,0,1,1,5.6a.12.12,0,0,1,0,.24Zm.13-1.47a.12.12,0,0,1,0-.24.12.12,0,0,1,0,.24ZM1.36,4a.12.12,0,0,1,0-.24.12.12,0,0,1,0,.24Zm0,1.82a.12.12,0,1,1,0-.24.12.12,0,0,1,0,.24ZM1.6,3.67a.12.12,0,1,1,0-.24.12.12,0,0,1,0,.24Zm.2,2.17a.12.12,0,1,1,0-.24.12.12,0,0,1,0,.24Zm.06-2.52a.12.12,0,0,1,0-.24.12.12,0,1,1,0,.24ZM2.12,3A.11.11,0,0,1,2,2.86a.11.11,0,0,1,.12-.12.11.11,0,0,1,.12.12A.11.11,0,0,1,2.12,3Zm.1,2.86a.12.12,0,1,1,0-.24.12.12,0,1,1,0,.24Zm.17-3.22a.11.11,0,0,1-.12-.12.11.11,0,0,1,.12-.12.11.11,0,0,1,.12.12A.11.11,0,0,1,2.39,2.62Zm.25,3.22a.12.12,0,1,1,0-.24.12.12,0,0,1,0,.24Zm0-3.57a.11.11,0,0,1-.12-.12A.11.11,0,0,1,2.65,2a.11.11,0,0,1,.12.12A.11.11,0,0,1,2.65,2.27Zm.25-.35a.11.11,0,0,1-.12-.12.11.11,0,0,1,.12-.12A.11.11,0,0,1,3,1.8.11.11,0,0,1,2.9,1.92Zm.16,3.92a.12.12,0,1,1,.12-.12A.11.11,0,0,1,3.06,5.84Zm.11-4.27a.11.11,0,0,1-.12-.12.12.12,0,0,1,.24,0A.11.11,0,0,1,3.17,1.57Zm.27-.33a.11.11,0,0,1-.12-.12.12.12,0,0,1,.24,0A.11.11,0,0,1,3.44,1.24Zm0,4.6a.12.12,0,1,1,.12-.12A.11.11,0,0,1,3.48,5.84ZM3.7.89A.11.11,0,0,1,3.58.77a.12.12,0,1,1,.24,0A.11.11,0,0,1,3.7.89Zm.2,5A.12.12,0,1,1,4,5.72.11.11,0,0,1,3.9,5.84ZM4,.54A.11.11,0,0,1,3.84.42a.12.12,0,1,1,.24,0A.11.11,0,0,1,4,.54Zm.35,5.74a.12.12,0,1,1,.12-.12A.11.11,0,0,1,4.31,6.28Zm0,.43a.12.12,0,1,1,.12-.12A.11.11,0,0,1,4.31,6.71Zm0,.43A.12.12,0,1,1,4.43,7,.11.11,0,0,1,4.31,7.14Zm0,.43a.12.12,0,1,1,.12-.12A.11.11,0,0,1,4.31,7.57Zm0,.43a.12.12,0,1,1,.12-.12A.11.11,0,0,1,4.31,8Zm0-7.76A.11.11,0,0,1,4.2.12a.12.12,0,0,1,.24,0A.11.11,0,0,1,4.32.24Zm0,.43A.11.11,0,0,1,4.2.55a.12.12,0,0,1,.24,0A.11.11,0,0,1,4.32.67Zm0,.43A.11.11,0,0,1,4.2,1a.12.12,0,0,1,.24,0A.11.11,0,0,1,4.32,1.1Zm0,.42A.11.11,0,0,1,4.2,1.4a.12.12,0,0,1,.24,0A.11.11,0,0,1,4.32,1.52Zm0,.44a.11.11,0,0,1-.12-.12.12.12,0,0,1,.24,0A.11.11,0,0,1,4.32,2Zm0,.43a.11.11,0,0,1-.12-.12.12.12,0,0,1,.24,0A.11.11,0,0,1,4.32,2.39Zm0,.43A.11.11,0,0,1,4.2,2.7a.12.12,0,0,1,.24,0A.11.11,0,0,1,4.32,2.82Zm0,.43a.12.12,0,1,1,.12-.12A.11.11,0,0,1,4.32,3.25Zm0,.43a.12.12,0,1,1,.12-.12A.11.11,0,0,1,4.32,3.68Zm0,.44A.12.12,0,1,1,4.44,4,.11.11,0,0,1,4.32,4.12Zm0,.43a.12.12,0,1,1,.12-.12A.11.11,0,0,1,4.32,4.55Zm0,.43a.12.12,0,1,1,.12-.12A.11.11,0,0,1,4.32,5Zm0,.43a.12.12,0,1,1,.12-.12A.11.11,0,0,1,4.32,5.41Zm0,.43a.12.12,0,1,1,.12-.12A.11.11,0,0,1,4.32,5.84Zm.42,0a.12.12,0,1,1,.12-.12A.11.11,0,0,1,4.74,5.84Zm.42,0a.12.12,0,1,1,.12-.12A.11.11,0,0,1,5.16,5.84Zm.42,0a.12.12,0,1,1,.12-.12A.11.11,0,0,1,5.58,5.84Z"/></g></g></svg>