<svg xmlns="http://www.w3.org/2000/svg" viewBox="0 0 5.46 8.38"><defs><style>.cls-1{fill:#231f20;}</style></defs><g id="Layer_2" data-name="Layer 2"><g id="Layer_1-2" data-name="Layer 1"><path class="cls-1" d="M.12,6.86a.12.12,0,0,1,0-.24.12.12,0,0,1,0,.24ZM.31,4.32a.12.12,0,1,1,0-.24.12.12,0,1,1,0,.24Zm0,2.95A.12.12,0,0,1,.35,7a.12.12,0,1,1,0,.24Zm0-3.43a.12.12,0,0,1,0-.24.12.12,0,0,1,0,.24Zm.1-.44a.12.12,0,1,1,0-.24.12.12,0,1,1,0,.24Zm.1-.46a.11.11,0,0,1-.12-.12A.11.11,0,0,1,.58,2.7a.11.11,0,0,1,.12.12A.11.11,0,0,1,.58,2.94ZM.65,7.61a.12.12,0,0,1,0-.24.12.12,0,0,1,0,.24Zm0-5.13a.11.11,0,0,1-.12-.12.11.11,0,0,1,.12-.12.11.11,0,0,1,.12.12A.11.11,0,0,1,.67,2.48Zm0,1.6a.12.12,0,1,1,0-.24.12.12,0,0,1,0,.24ZM.77,2a.11.11,0,0,1-.12-.12A.11.11,0,0,1,.77,1.8a.11.11,0,0,1,.12.12A.11.11,0,0,1,.77,2Zm.09-.46a.11.11,0,0,1-.12-.12.11.11,0,0,1,.12-.12A.11.11,0,0,1,1,1.46.11.11,0,0,1,.86,1.58ZM1,1.15A.11.11,0,0,1,.84,1,.11.11,0,0,1,1,.91.11.11,0,0,1,1.08,1,.11.11,0,0,1,1,1.15ZM1,7.9a.12.12,0,0,1,0-.24A.12.12,0,1,1,1,7.9ZM1,3.76a.12.12,0,0,1,0-.24.12.12,0,0,1,0,.24ZM1.06.7A.11.11,0,0,1,.94.58.11.11,0,0,1,1.06.46a.11.11,0,0,1,.12.12A.11.11,0,0,1,1.06.7ZM1.15.24A.11.11,0,0,1,1,.12.11.11,0,0,1,1.15,0a.11.11,0,0,1,.12.12A.11.11,0,0,1,1.15.24Zm.23,3.24a.12.12,0,0,1,0-.24.12.12,0,1,1,0,.24Zm0,4.63a.12.12,0,0,1,0-.24.12.12,0,0,1,0,.24ZM1.57.24A.11.11,0,0,1,1.45.12.11.11,0,0,1,1.57,0a.11.11,0,0,1,.12.12A.11.11,0,0,1,1.57.24ZM1.8,3.31a.12.12,0,0,1,0-.24.12.12,0,0,1,0,.24Zm0,5a.12.12,0,0,1,0-.24.12.12,0,0,1,0,.24ZM2,.24A.11.11,0,0,1,1.87.12.11.11,0,0,1,2,0a.11.11,0,0,1,.12.12A.11.11,0,0,1,2,.24Zm.25,8.1a.12.12,0,0,1,0-.24.12.12,0,0,1,0,.24Zm0-5.14a.12.12,0,0,1,0-.24.12.12,0,0,1,0,.24Zm.15-3A.11.11,0,0,1,2.29.12.11.11,0,0,1,2.41,0a.11.11,0,0,1,.12.12A.11.11,0,0,1,2.41.24Zm.27,8.14a.12.12,0,1,1,0-.24.12.12,0,0,1,0,.24Zm0-5.21a.12.12,0,1,1,0-.24.12.12,0,0,1,0,.24ZM2.84.24A.11.11,0,0,1,2.72.12.11.11,0,0,1,2.84,0,.11.11,0,0,1,3,.12.11.11,0,0,1,2.84.24Zm.27,8.09a.12.12,0,1,1,.12-.12A.11.11,0,0,1,3.11,8.33Zm0-5.14a.12.12,0,1,1,.12-.12A.11.11,0,0,1,3.13,3.19ZM3.26.24A.11.11,0,0,1,3.14.12a.12.12,0,0,1,.24,0A.11.11,0,0,1,3.26.24Zm.28,8a.12.12,0,1,1,.12-.12A.11.11,0,0,1,3.54,8.23Zm0-4.94a.12.12,0,1,1,.12-.12A.11.11,0,0,1,3.56,3.29Zm.12-3A.11.11,0,0,1,3.56.12a.12.12,0,0,1,.24,0A.11.11,0,0,1,3.68.24ZM4,8.05a.12.12,0,1,1,.12-.12A.11.11,0,0,1,4,8.05ZM4,3.47a.12.12,0,1,1,.12-.12A.11.11,0,0,1,4,3.47ZM4.1.24A.11.11,0,0,1,4,.12a.12.12,0,0,1,.24,0A.11.11,0,0,1,4.1.24ZM4.36,7.8a.12.12,0,1,1,.12-.12A.11.11,0,0,1,4.36,7.8Zm0-4.08a.12.12,0,1,1,.12-.12A.11.11,0,0,1,4.37,3.72ZM4.54.24A.11.11,0,0,1,4.42.12a.12.12,0,0,1,.24,0A.11.11,0,0,1,4.54.24ZM4.7,7.5a.12.12,0,1,1,.12-.12A.11.11,0,0,1,4.7,7.5ZM4.72,4a.12.12,0,1,1,.12-.12A.11.11,0,0,1,4.72,4ZM5,.24A.11.11,0,0,1,4.84.12a.12.12,0,1,1,.24,0A.11.11,0,0,1,5,.24ZM5,7.12A.12.12,0,1,1,5.08,7,.11.11,0,0,1,5,7.12ZM5,4.44a.12.12,0,1,1,.12-.12A.11.11,0,0,1,5,4.44ZM5.17,6.7a.12.12,0,1,1,.12-.12A.11.11,0,0,1,5.17,6.7Zm0-1.83a.12.12,0,1,1,.12-.12A.11.11,0,0,1,5.18,4.87Zm.11,1.37a.12.12,0,1,1,.12-.12A.11.11,0,0,1,5.29,6.24Zm0-.91a.12.12,0,1,1,.12-.12A.11.11,0,0,1,5.3,5.33Zm0,.45a.12.12,0,1,1,.12-.12A.11.11,0,0,1,5.34,5.78Z"/></g></g></svg>