<svg xmlns="http://www.w3.org/2000/svg" viewBox="0 0 5.83 8.52"><defs><style>.cls-1{fill:#231f20;}</style></defs><g id="Layer_2" data-name="Layer 2"><g id="Layer_1-2" data-name="Layer 1"><path class="cls-1" d="M.12,5.1a.12.12,0,1,1,0-.24.12.12,0,1,1,0,.24Zm0,.48a.12.12,0,0,1,0-.24.12.12,0,0,1,0,.24Zm0-1a.12.12,0,0,1,0-.24.12.12,0,0,1,0,.24Zm0,1.44a.12.12,0,0,1,0-.24.12.12,0,1,1,0,.24Zm0-1.91a.12.12,0,1,1,0-.24.12.12,0,1,1,0,.24Zm0-.44a.12.12,0,1,1,0-.24.12.12,0,0,1,0,.24Zm.06-.43a.12.12,0,0,1,0-.24.12.12,0,0,1,0,.24Zm0,3.26a.12.12,0,0,1,0-.24.12.12,0,0,1,0,.24ZM.35,2.87a.11.11,0,0,1-.12-.12.11.11,0,0,1,.12-.12.11.11,0,0,1,.12.12A.11.11,0,0,1,.35,2.87ZM.43,7a.12.12,0,1,1,0-.24A.12.12,0,1,1,.43,7Zm0-4.57a.11.11,0,0,1-.12-.12A.11.11,0,0,1,.47,2.2a.11.11,0,0,1,.12.12A.11.11,0,0,1,.47,2.44ZM.55,4.38a.12.12,0,0,1,0-.24.12.12,0,0,1,0,.24ZM.61,2A.11.11,0,0,1,.49,1.9a.11.11,0,0,1,.12-.12.11.11,0,0,1,.12.12A.11.11,0,0,1,.61,2Zm.05,5.4a.12.12,0,1,1,0-.24.12.12,0,0,1,0,.24ZM.8,1.6a.11.11,0,0,1-.12-.12A.11.11,0,0,1,.8,1.36a.11.11,0,0,1,.12.12A.11.11,0,0,1,.8,1.6ZM.8,4a.12.12,0,0,1,0-.24A.12.12,0,0,1,.8,4ZM1,7.75a.12.12,0,1,1,0-.24.12.12,0,0,1,0,.24ZM1.07,1.2A.11.11,0,0,1,1,1.08.11.11,0,0,1,1.07,1a.11.11,0,0,1,.12.12A.11.11,0,0,1,1.07,1.2Zm.08,2.48a.12.12,0,0,1,0-.24.12.12,0,0,1,0,.24ZM1.3,8a.12.12,0,0,1,0-.24A.12.12,0,1,1,1.3,8ZM1.38.86A.11.11,0,0,1,1.26.74.11.11,0,0,1,1.38.62.11.11,0,0,1,1.5.74.11.11,0,0,1,1.38.86Zm.14,2.55a.12.12,0,0,1,0-.24.12.12,0,0,1,0,.24Zm.17,4.85a.12.12,0,0,1,0-.24.12.12,0,1,1,0,.24ZM1.73.6A.11.11,0,0,1,1.61.48.11.11,0,0,1,1.73.36a.11.11,0,0,1,.12.12A.11.11,0,0,1,1.73.6Zm.18,2.6a.12.12,0,0,1,0-.24.12.12,0,0,1,0,.24ZM2.11.41A.11.11,0,0,1,2,.29.11.11,0,0,1,2.11.17a.11.11,0,0,1,.12.12A.11.11,0,0,1,2.11.41Zm0,8a.12.12,0,1,1,0-.24.12.12,0,0,1,0,.24Zm.21-5.34A.11.11,0,0,1,2.21,3a.11.11,0,0,1,.12-.12A.11.11,0,0,1,2.45,3,.11.11,0,0,1,2.33,3.07ZM2.52.28A.11.11,0,0,1,2.4.16.11.11,0,0,1,2.52,0a.11.11,0,0,1,.12.12A.11.11,0,0,1,2.52.28Zm0,8.2a.12.12,0,1,1,0-.24.12.12,0,0,1,0,.24ZM2.76,3a.11.11,0,0,1-.12-.12.11.11,0,0,1,.12-.12.11.11,0,0,1,.12.12A.11.11,0,0,1,2.76,3ZM3,.24A.11.11,0,0,1,2.83.12.11.11,0,0,1,3,0a.11.11,0,0,1,.12.12A.11.11,0,0,1,3,.24ZM3,8.52a.12.12,0,0,1,0-.24.12.12,0,0,1,0,.24ZM3.2,3a.11.11,0,0,1-.12-.12.12.12,0,1,1,.24,0A.11.11,0,0,1,3.2,3ZM3.38.26A.11.11,0,0,1,3.26.14a.12.12,0,0,1,.24,0A.11.11,0,0,1,3.38.26Zm0,8.21a.12.12,0,1,1,.12-.12A.11.11,0,0,1,3.42,8.47Zm.24-5.39A.11.11,0,0,1,3.54,3a.12.12,0,1,1,.24,0A.11.11,0,0,1,3.66,3.08ZM3.8.4A.11.11,0,0,1,3.68.28a.12.12,0,1,1,.24,0A.11.11,0,0,1,3.8.4Zm.05,8A.12.12,0,1,1,4,8.26.11.11,0,0,1,3.85,8.38ZM4.1,3.24a.12.12,0,1,1,.12-.12A.11.11,0,0,1,4.1,3.24ZM4.21.6A.11.11,0,0,1,4.09.48a.12.12,0,1,1,.24,0A.11.11,0,0,1,4.21.6Zm.06,7.6a.12.12,0,1,1,.12-.12A.11.11,0,0,1,4.27,8.2Zm.25-4.73a.12.12,0,1,1,.12-.12A.11.11,0,0,1,4.52,3.47ZM4.57.86A.11.11,0,0,1,4.45.74a.12.12,0,0,1,.24,0A.11.11,0,0,1,4.57.86Zm.1,7.08a.12.12,0,1,1,.12-.12A.11.11,0,0,1,4.67,7.94ZM4.91,1.2a.11.11,0,0,1-.12-.12.12.12,0,0,1,.24,0A.11.11,0,0,1,4.91,1.2Zm0,2.57A.12.12,0,1,1,5,3.65.11.11,0,0,1,4.91,3.77ZM5,7.64a.12.12,0,1,1,.12-.12A.11.11,0,0,1,5,7.64Zm.15-6a.11.11,0,0,1-.12-.12.12.12,0,0,1,.24,0A.11.11,0,0,1,5.17,1.61Zm0,2.53A.12.12,0,1,1,5.34,4,.11.11,0,0,1,5.22,4.14Zm0,3.12a.12.12,0,1,1,.12-.12A.11.11,0,0,1,5.27,7.26Zm.2-2.71a.12.12,0,1,1,.12-.12A.11.11,0,0,1,5.47,4.55Zm0,2.29a.12.12,0,1,1,.12-.12A.11.11,0,0,1,5.48,6.84ZM5.63,5a.12.12,0,1,1,.12-.12A.11.11,0,0,1,5.63,5Zm0,1.39a.12.12,0,1,1,.12-.12A.11.11,0,0,1,5.63,6.38Zm.08-.93a.12.12,0,1,1,.12-.12A.11.11,0,0,1,5.71,5.45Zm0,.48a.12.12,0,1,1,.12-.12A.11.11,0,0,1,5.71,5.93Z"/></g></g></svg>