<svg xmlns="http://www.w3.org/2000/svg" viewBox="0 0 5.28 8.46"><defs><style>.cls-1{fill:#231f20;}</style></defs><g id="Layer_2" data-name="Layer 2"><g id="Layer_1-2" data-name="Layer 1"><path class="cls-1" d="M.12.24A.11.11,0,0,1,0,.12.11.11,0,0,1,.12,0,.11.11,0,0,1,.24.12.11.11,0,0,1,.12.24Zm.42,0A.11.11,0,0,1,.42.12.11.11,0,0,1,.54,0,.11.11,0,0,1,.66.12.11.11,0,0,1,.54.24ZM1,8.46a.12.12,0,1,1,0-.24.12.12,0,1,1,0,.24ZM1,.24A.11.11,0,0,1,.84.12.11.11,0,0,1,1,0a.11.11,0,0,1,.12.12A.11.11,0,0,1,1,.24Zm.18,7.85a.12.12,0,0,1,0-.24.12.12,0,1,1,0,.24Zm.19-.37a.12.12,0,1,1,0-.24.12.12,0,1,1,0,.24Zm0-7.48A.11.11,0,0,1,1.26.12.11.11,0,0,1,1.38,0,.11.11,0,0,1,1.5.12.11.11,0,0,1,1.38.24Zm.14,7.1a.12.12,0,1,1,0-.24.12.12,0,0,1,0,.24ZM1.72,7a.12.12,0,0,1,0-.24.12.12,0,1,1,0,.24ZM1.8.24A.11.11,0,0,1,1.68.12.11.11,0,0,1,1.8,0a.11.11,0,0,1,.12.12A.11.11,0,0,1,1.8.24ZM1.91,6.6a.12.12,0,0,1,0-.24.12.12,0,0,1,0,.24Zm.19-.37A.12.12,0,0,1,2.1,6a.12.12,0,1,1,0,.24Zm.12-6A.11.11,0,0,1,2.1.12.11.11,0,0,1,2.22,0a.11.11,0,0,1,.12.12A.11.11,0,0,1,2.22.24Zm.07,5.62a.12.12,0,0,1,0-.24.12.12,0,0,1,0,.24Zm.19-.38a.12.12,0,1,1,0-.24.12.12,0,1,1,0,.24ZM2.64.24A.11.11,0,0,1,2.52.12.11.11,0,0,1,2.64,0a.11.11,0,0,1,.12.12A.11.11,0,0,1,2.64.24Zm0,4.87a.12.12,0,0,1,0-.24.12.12,0,0,1,0,.24Zm.19-.37a.12.12,0,0,1,0-.24.12.12,0,0,1,0,.24ZM3.06.24A.11.11,0,0,1,2.94.12a.12.12,0,0,1,.24,0A.11.11,0,0,1,3.06.24Zm0,4.13a.12.12,0,1,1,.12-.12A.11.11,0,0,1,3.06,4.37ZM3.25,4a.12.12,0,1,1,.12-.12A.11.11,0,0,1,3.25,4Zm.19-.38a.12.12,0,1,1,.12-.12A.11.11,0,0,1,3.44,3.62Zm0-3.38A.11.11,0,0,1,3.36.12a.12.12,0,0,1,.24,0A.11.11,0,0,1,3.48.24Zm.16,3a.12.12,0,1,1,.12-.12A.11.11,0,0,1,3.64,3.25Zm.19-.37a.11.11,0,0,1-.12-.12.12.12,0,0,1,.24,0A.11.11,0,0,1,3.83,2.88ZM3.9.24A.11.11,0,0,1,3.78.12.12.12,0,1,1,4,.12.11.11,0,0,1,3.9.24ZM4,2.51a.11.11,0,0,1-.12-.12.12.12,0,0,1,.24,0A.11.11,0,0,1,4,2.51Zm.19-.37A.11.11,0,0,1,4.09,2a.12.12,0,1,1,.24,0A.11.11,0,0,1,4.21,2.14ZM4.32.24A.11.11,0,0,1,4.2.12a.12.12,0,0,1,.24,0A.11.11,0,0,1,4.32.24ZM4.4,1.76a.11.11,0,0,1-.12-.12.12.12,0,1,1,.24,0A.11.11,0,0,1,4.4,1.76Zm.2-.37a.11.11,0,0,1-.12-.12.12.12,0,1,1,.24,0A.11.11,0,0,1,4.6,1.39ZM4.74.24A.11.11,0,0,1,4.62.12a.12.12,0,0,1,.24,0A.11.11,0,0,1,4.74.24Zm0,.78A.11.11,0,0,1,4.67.9a.12.12,0,1,1,.24,0A.11.11,0,0,1,4.79,1ZM5,.65A.11.11,0,0,1,4.86.53a.12.12,0,0,1,.24,0A.11.11,0,0,1,5,.65ZM5.16.24A.11.11,0,0,1,5,.12a.12.12,0,0,1,.24,0A.11.11,0,0,1,5.16.24Z"/></g></g></svg>