<svg xmlns="http://www.w3.org/2000/svg" viewBox="0 0 5.47 8.5"><defs><style>.cls-1{fill:#231f20;}</style></defs><g id="Layer_2" data-name="Layer 2"><g id="Layer_1-2" data-name="Layer 1"><path class="cls-1" d="M.12,6.32a.12.12,0,1,1,0-.24.12.12,0,1,1,0,.24Zm0-.42a.12.12,0,1,1,0-.24.12.12,0,1,1,0,.24Zm0,.83a.12.12,0,0,1,0-.24.12.12,0,1,1,0,.24ZM.3,5.51a.12.12,0,0,1,0-.24.12.12,0,1,1,0,.24Zm0,1.62a.12.12,0,0,1,0-.24.12.12,0,0,1,0,.24Zm0-4.84A.11.11,0,0,1,.2,2.17a.11.11,0,0,1,.12-.12.11.11,0,0,1,.12.12A.11.11,0,0,1,.32,2.29Zm0-.39a.11.11,0,0,1-.12-.12.11.11,0,0,1,.12-.12.11.11,0,0,1,.12.12A.11.11,0,0,1,.35,1.9Zm.06.8a.11.11,0,0,1-.12-.12.11.11,0,0,1,.12-.12.11.11,0,0,1,.12.12A.11.11,0,0,1,.41,2.7ZM.46,1.51a.11.11,0,0,1-.12-.12.11.11,0,0,1,.12-.12.11.11,0,0,1,.12.12A.11.11,0,0,1,.46,1.51ZM.52,5.16a.12.12,0,0,1,0-.24.12.12,0,0,1,0,.24Zm0,2.32a.12.12,0,1,1,0-.24.12.12,0,1,1,0,.24ZM.59,3.06a.11.11,0,0,1-.12-.12.11.11,0,0,1,.12-.12.11.11,0,0,1,.12.12A.11.11,0,0,1,.59,3.06Zm.06-1.9A.11.11,0,0,1,.53,1,.11.11,0,0,1,.65.92.11.11,0,0,1,.77,1,.11.11,0,0,1,.65,1.16ZM.78,4.87a.12.12,0,0,1,0-.24.12.12,0,0,1,0,.24Zm0,2.91a.12.12,0,0,1,0-.24.12.12,0,0,1,0,.24Zm0-4.42a.12.12,0,0,1,0-.24.12.12,0,1,1,0,.24ZM.92.88A.11.11,0,0,1,.8.76.11.11,0,0,1,.92.64.11.11,0,0,1,1,.76.11.11,0,0,1,.92.88Zm.17,3.75a.12.12,0,0,1,0-.24.12.12,0,0,1,0,.24ZM1.15,8a.12.12,0,0,1,0-.24.12.12,0,1,1,0,.24Zm0-4.43a.12.12,0,0,1,0-.24.12.12,0,1,1,0,.24Zm.08-3A.11.11,0,0,1,1.12.53.11.11,0,0,1,1.24.41a.11.11,0,0,1,.12.12A.11.11,0,0,1,1.24.65Zm.2,3.79a.12.12,0,0,1,0-.24.12.12,0,0,1,0,.24Zm.07-.65a.12.12,0,1,1,0-.24.12.12,0,0,1,0,.24Zm0,4.45a.12.12,0,0,1,0-.24.12.12,0,0,1,0,.24ZM1.6.46A.11.11,0,0,1,1.48.34.11.11,0,0,1,1.6.22a.11.11,0,0,1,.12.12A.11.11,0,0,1,1.6.46Zm.22,3.82a.12.12,0,0,1,0-.24.12.12,0,0,1,0,.24ZM1.91,4a.12.12,0,0,1,0-.24.12.12,0,0,1,0,.24ZM2,8.39a.12.12,0,1,1,0-.24.12.12,0,0,1,0,.24Zm0-8A.11.11,0,0,1,1.85.22.11.11,0,0,1,2,.1a.11.11,0,0,1,.12.12A.11.11,0,0,1,2,.34ZM2.3,4.09a.12.12,0,0,1,0-.24.12.12,0,0,1,0,.24ZM2.38.25A.11.11,0,0,1,2.26.13.11.11,0,0,1,2.38,0,.11.11,0,0,1,2.5.13.11.11,0,0,1,2.38.25Zm0,8.22a.12.12,0,0,1,0-.24.12.12,0,0,1,0,.24ZM2.76.24A.11.11,0,0,1,2.64.12.11.11,0,0,1,2.76,0a.11.11,0,0,1,.12.12A.11.11,0,0,1,2.76.24Zm0,3.85a.12.12,0,0,1,0-.24.12.12,0,1,1,0,.24Zm0,4.41a.12.12,0,0,1,0-.24.12.12,0,0,1,0,.24Zm.39,0a.12.12,0,1,1,.12-.12A.11.11,0,0,1,3.17,8.47Zm0-8.21A.11.11,0,0,1,3.06.14a.12.12,0,0,1,.24,0A.11.11,0,0,1,3.18.26Zm0,3.84A.12.12,0,1,1,3.35,4,.11.11,0,0,1,3.23,4.1Zm.33,4.28a.12.12,0,1,1,.12-.12A.11.11,0,0,1,3.56,8.38Zm0-8A.11.11,0,0,1,3.46.23a.12.12,0,0,1,.24,0A.11.11,0,0,1,3.58.35Zm0,3.6a.12.12,0,1,1,.12-.12A.11.11,0,0,1,3.62,4Zm0,.33a.12.12,0,1,1,.12-.12A.11.11,0,0,1,3.65,4.28ZM4,.47A.11.11,0,0,1,3.83.35a.12.12,0,0,1,.24,0A.11.11,0,0,1,4,.47ZM4,8.22a.12.12,0,1,1,.12-.12A.11.11,0,0,1,4,8.22ZM4,3.79a.12.12,0,1,1,.12-.12A.11.11,0,0,1,4,3.79Zm0,.65a.12.12,0,1,1,.12-.12A.11.11,0,0,1,4,4.44ZM4.3.65A.11.11,0,0,1,4.18.53a.12.12,0,1,1,.24,0A.11.11,0,0,1,4.3.65ZM4.32,8a.12.12,0,1,1,.12-.12A.11.11,0,0,1,4.32,8Zm0-4.43a.12.12,0,1,1,.12-.12A.11.11,0,0,1,4.37,3.61Zm0,1a.12.12,0,1,1,.12-.12A.11.11,0,0,1,4.38,4.63ZM4.61.88A.11.11,0,0,1,4.49.76a.12.12,0,1,1,.24,0A.11.11,0,0,1,4.61.88Zm.06,6.9a.12.12,0,1,1,.12-.12A.11.11,0,0,1,4.67,7.78Zm0-4.42a.12.12,0,1,1,.12-.12A.11.11,0,0,1,4.68,3.36Zm0,1.51a.12.12,0,1,1,.12-.12A.11.11,0,0,1,4.69,4.87Zm.19-3.71A.11.11,0,0,1,4.76,1,.12.12,0,1,1,5,1,.11.11,0,0,1,4.88,1.16Zm.06,1.9a.11.11,0,0,1-.12-.12.12.12,0,1,1,.24,0A.11.11,0,0,1,4.94,3.06Zm0,4.42a.12.12,0,1,1,.12-.12A.11.11,0,0,1,4.94,7.48ZM5,5.16A.12.12,0,1,1,5.08,5,.11.11,0,0,1,5,5.16Zm.12-3.65A.11.11,0,0,1,5,1.39a.12.12,0,0,1,.24,0A.11.11,0,0,1,5.08,1.51Zm0,1.19A.11.11,0,0,1,5,2.58a.12.12,0,1,1,.24,0A.11.11,0,0,1,5.12,2.7Zm0,4.43A.12.12,0,1,1,5.28,7,.11.11,0,0,1,5.16,7.13Zm0-1.62a.12.12,0,1,1,.12-.12A.11.11,0,0,1,5.17,5.51Zm0-3.61a.11.11,0,0,1-.12-.12.12.12,0,0,1,.24,0A.11.11,0,0,1,5.18,1.9Zm0,.39a.11.11,0,0,1-.12-.12.12.12,0,1,1,.24,0A.11.11,0,0,1,5.21,2.29ZM5.3,6.73a.12.12,0,1,1,.12-.12A.11.11,0,0,1,5.3,6.73Zm0-.83a.12.12,0,1,1,.12-.12A.11.11,0,0,1,5.32,5.9Zm0,.42a.12.12,0,1,1,.12-.12A.11.11,0,0,1,5.35,6.32Z"/></g></g></svg>