<svg xmlns="http://www.w3.org/2000/svg" viewBox="0 0 5.83 8.52"><defs><style>.cls-1{fill:#231f20;}</style></defs><g id="Layer_2" data-name="Layer 2"><g id="Layer_1-2" data-name="Layer 1"><path class="cls-1" d="M.12,2.59a.11.11,0,0,1,.12.12.11.11,0,0,1-.12.12A.11.11,0,0,1,0,2.71.11.11,0,0,1,.12,2.59Zm0,.48a.12.12,0,0,1,0,.24.12.12,0,0,1,0-.24ZM.2,2.14a.11.11,0,0,1,.12.12.11.11,0,0,1-.12.12.11.11,0,0,1-.12-.12A.11.11,0,0,1,.2,2.14Zm0,1.39a.12.12,0,0,1,0,.24.12.12,0,1,1,0-.24ZM.35,1.68a.11.11,0,0,1,.12.12.11.11,0,0,1-.12.12A.11.11,0,0,1,.23,1.8.11.11,0,0,1,.35,1.68ZM.36,4a.12.12,0,0,1,0,.24A.12.12,0,0,1,.36,4Zm.2-2.71a.11.11,0,0,1,.12.12.11.11,0,0,1-.12.12.11.11,0,0,1-.12-.12A.11.11,0,0,1,.56,1.26Zm0,3.12a.12.12,0,0,1,0,.24.12.12,0,0,1,0-.24ZM.66,6.91a.12.12,0,0,1,0,.24.12.12,0,1,1,0-.24Zm.16-6A.11.11,0,0,1,.94,1a.11.11,0,0,1-.12.12A.11.11,0,0,1,.7,1,.11.11,0,0,1,.82.88Zm.1,3.87A.12.12,0,1,1,.92,5a.12.12,0,1,1,0-.24Zm0,2.57a.12.12,0,1,1,0,.24.12.12,0,0,1,0-.24ZM1.16.58A.11.11,0,0,1,1.28.7a.11.11,0,0,1-.12.12A.11.11,0,0,1,1,.7.11.11,0,0,1,1.16.58Zm.09,7.09a.12.12,0,1,1,0,.24.12.12,0,1,1,0-.24Zm.06-2.62a.12.12,0,0,1,0,.24.12.12,0,0,1,0-.24ZM1.56.32a.11.11,0,0,1,.12.12.11.11,0,0,1-.12.12A.11.11,0,0,1,1.44.44.11.11,0,0,1,1.56.32Zm.05,7.61a.12.12,0,0,1,0,.24.12.12,0,1,1,0-.24Zm.12-2.65a.12.12,0,1,1,0,.24.12.12,0,0,1,0-.24ZM2,.14A.11.11,0,0,1,2.1.26.11.11,0,0,1,2,.38.11.11,0,0,1,1.86.26.11.11,0,0,1,2,.14Zm0,8a.12.12,0,0,1,0,.24.12.12,0,0,1,0-.24Zm.15-2.7a.12.12,0,1,1,0,.24.12.12,0,1,1,0-.24ZM2.41.05a.11.11,0,0,1,.12.12.11.11,0,0,1-.12.12A.11.11,0,0,1,2.29.17.11.11,0,0,1,2.41.05Zm0,8.21a.12.12,0,0,1,0,.24.12.12,0,0,1,0-.24Zm.18-2.75a.12.12,0,0,1,0,.24.12.12,0,0,1,0-.24ZM2.84,0A.11.11,0,0,1,3,.12a.11.11,0,0,1-.12.12A.11.11,0,0,1,2.72.12.11.11,0,0,1,2.84,0Zm0,8.28a.12.12,0,0,1,0,.24.12.12,0,0,1,0-.24Zm.19-2.77A.12.12,0,1,1,3,5.63.11.11,0,0,1,3.07,5.51ZM3.28,0A.11.11,0,0,1,3.4.16a.12.12,0,1,1-.24,0A.11.11,0,0,1,3.28,0Zm0,8.2a.12.12,0,1,1-.12.12A.11.11,0,0,1,3.31,8.24ZM3.5,5.45a.12.12,0,1,1-.12.12A.11.11,0,0,1,3.5,5.45ZM3.71.11a.11.11,0,0,1,.12.12.12.12,0,0,1-.24,0A.11.11,0,0,1,3.71.11Zm0,8a.12.12,0,1,1-.12.12A.11.11,0,0,1,3.72,8.11Zm.2-2.79a.12.12,0,1,1-.12.12A.11.11,0,0,1,3.92,5.32Zm.18,2.6A.12.12,0,1,1,4,8,.11.11,0,0,1,4.1,7.92Zm0-7.66a.11.11,0,0,1,.12.12A.12.12,0,1,1,4,.38.11.11,0,0,1,4.14.26Zm.17,4.85a.12.12,0,1,1-.12.12A.11.11,0,0,1,4.31,5.11Zm.14,2.55a.12.12,0,1,1-.12.12A.11.11,0,0,1,4.45,7.66ZM4.54.48A.11.11,0,0,1,4.66.6a.12.12,0,0,1-.24,0A.11.11,0,0,1,4.54.48Zm.14,4.36A.12.12,0,1,1,4.56,5,.11.11,0,0,1,4.68,4.84Zm.08,2.48a.12.12,0,1,1-.12.12A.11.11,0,0,1,4.76,7.32ZM4.87.77A.11.11,0,0,1,5,.89a.12.12,0,1,1-.24,0A.11.11,0,0,1,4.87.77ZM5,4.51a.12.12,0,1,1-.12.12A.11.11,0,0,1,5,4.51ZM5,6.92A.12.12,0,1,1,4.91,7,.11.11,0,0,1,5,6.92ZM5.17,1.1a.11.11,0,0,1,.12.12.12.12,0,0,1-.24,0A.11.11,0,0,1,5.17,1.1Zm0,5.4a.12.12,0,1,1-.12.12A.11.11,0,0,1,5.22,6.5Zm0-2.42a.12.12,0,1,1-.12.12A.11.11,0,0,1,5.24,4.08Zm.12,2a.12.12,0,1,1-.12.12A.11.11,0,0,1,5.36,6.08Zm0-4.57a.11.11,0,0,1,.12.12.12.12,0,0,1-.24,0A.11.11,0,0,1,5.4,1.51Zm.08,4.14a.12.12,0,1,1-.12.12A.11.11,0,0,1,5.48,5.65ZM5.57,2a.11.11,0,0,1,.12.12.12.12,0,0,1-.24,0A.11.11,0,0,1,5.57,2Zm0,3.26a.12.12,0,1,1-.12.12A.11.11,0,0,1,5.57,5.23Zm.06-.43a.12.12,0,1,1-.12.12A.11.11,0,0,1,5.63,4.8Zm0-.44a.12.12,0,1,1-.12.12A.11.11,0,0,1,5.65,4.36Zm0-1.91a.11.11,0,0,1,.12.12.12.12,0,0,1-.24,0A.11.11,0,0,1,5.66,2.45Zm0,1.44A.12.12,0,1,1,5.57,4,.11.11,0,0,1,5.69,3.89Zm0-1a.12.12,0,1,1-.12.12A.11.11,0,0,1,5.7,2.94Zm0,.48a.12.12,0,1,1-.12.12A.11.11,0,0,1,5.71,3.42Z"/></g></g></svg>