<svg xmlns="http://www.w3.org/2000/svg" viewBox="0 0 5.36 6.35"><defs><style>.cls-1{fill:#231f20;}</style></defs><g id="Layer_2" data-name="Layer 2"><g id="Layer_1-2" data-name="Layer 1"><path class="cls-1" d="M.12,4.6a.12.12,0,1,1,0-.24.12.12,0,1,1,0,.24Zm.1-.48a.12.12,0,0,1,0-.24.12.12,0,0,1,0,.24Zm0,1a.12.12,0,1,1,0-.24.12.12,0,1,1,0,.24Zm.2.45a.12.12,0,0,1,0-.24.12.12,0,0,1,0,.24Zm.1-1.89a.12.12,0,0,1,0-.24.12.12,0,0,1,0,.24ZM.61.94A.11.11,0,0,1,.49.82.11.11,0,0,1,.61.7.11.11,0,0,1,.73.82.11.11,0,0,1,.61.94ZM.74,5.89a.12.12,0,0,1,0-.24.12.12,0,0,1,0,.24ZM.91,3.34a.12.12,0,0,1,0-.24.12.12,0,0,1,0,.24ZM1,.68A.11.11,0,0,1,.9.56.11.11,0,0,1,1,.44a.11.11,0,0,1,.12.12A.11.11,0,0,1,1,.68Zm.13,5.49a.12.12,0,1,1,0-.24.12.12,0,1,1,0,.24Zm.22-3a.12.12,0,0,1,0-.24.12.12,0,0,1,0,.24ZM1.45.48A.11.11,0,0,1,1.33.36.11.11,0,0,1,1.45.24a.11.11,0,0,1,.12.12A.11.11,0,0,1,1.45.48ZM1.6,6.31a.12.12,0,1,1,0-.24.12.12,0,1,1,0,.24ZM1.85,3a.11.11,0,0,1-.12-.12.11.11,0,0,1,.12-.12A.11.11,0,0,1,2,2.87.11.11,0,0,1,1.85,3ZM1.9.32A.11.11,0,0,1,1.78.2.11.11,0,0,1,1.9.08.11.11,0,0,1,2,.2.11.11,0,0,1,1.9.32Zm.18,6a.12.12,0,1,1,0-.24.12.12,0,1,1,0,.24ZM2.34,3a.11.11,0,0,1-.12-.12.11.11,0,0,1,.12-.12.11.11,0,0,1,.12.12A.11.11,0,0,1,2.34,3Zm0-2.71A.11.11,0,0,1,2.26.12.11.11,0,0,1,2.38,0,.11.11,0,0,1,2.5.12.11.11,0,0,1,2.38.24ZM2.62,6.3a.12.12,0,0,1,0-.24.12.12,0,0,1,0,.24ZM2.86,3a.11.11,0,0,1-.12-.12.11.11,0,0,1,.12-.12A.11.11,0,0,1,3,2.84.11.11,0,0,1,2.86,3Zm0-2.72A.11.11,0,0,1,2.75.12.11.11,0,0,1,2.87,0,.11.11,0,0,1,3,.12.11.11,0,0,1,2.87.24ZM3.1,6.18a.12.12,0,1,1,.12-.12A.11.11,0,0,1,3.1,6.18ZM3.32,3a.11.11,0,0,1-.12-.12.12.12,0,1,1,.24,0A.11.11,0,0,1,3.32,3Zm0-2.67A.11.11,0,0,1,3.22.22a.12.12,0,0,1,.24,0A.11.11,0,0,1,3.34.34ZM3.53,6a.12.12,0,1,1,.12-.12A.11.11,0,0,1,3.53,6ZM3.77.54A.11.11,0,0,1,3.65.42a.12.12,0,0,1,.24,0A.11.11,0,0,1,3.77.54Zm.06,2.62A.12.12,0,1,1,4,3,.11.11,0,0,1,3.83,3.16Zm.09,2.59A.12.12,0,1,1,4,5.63.11.11,0,0,1,3.92,5.75ZM4.15.84A.11.11,0,0,1,4,.72a.12.12,0,1,1,.24,0A.11.11,0,0,1,4.15.84Zm.15,2.5a.12.12,0,1,1,.12-.12A.11.11,0,0,1,4.3,3.34Zm0,2.06a.12.12,0,1,1,.12-.12A.11.11,0,0,1,4.31,5.4Zm.13-4.16a.11.11,0,0,1-.12-.12.12.12,0,1,1,.24,0A.11.11,0,0,1,4.44,1.24Zm.19.44a.11.11,0,0,1-.12-.12.12.12,0,1,1,.24,0A.11.11,0,0,1,4.63,1.68Zm.06,3.4A.12.12,0,1,1,4.81,5,.11.11,0,0,1,4.69,5.08Zm0-2.92A.11.11,0,0,1,4.6,2a.12.12,0,0,1,.24,0A.11.11,0,0,1,4.72,2.16Zm0,1A.12.12,0,1,1,4.85,3,.11.11,0,0,1,4.73,3.14Zm0,.5a.12.12,0,1,1,.12-.12A.11.11,0,0,1,4.73,3.64Zm0,.48A.12.12,0,1,1,4.85,4,.11.11,0,0,1,4.73,4.12Zm0,.48a.12.12,0,1,1,.12-.12A.11.11,0,0,1,4.73,4.6Zm0-2a.11.11,0,0,1-.12-.12.12.12,0,0,1,.24,0A.11.11,0,0,1,4.74,2.64Zm0,2.92a.12.12,0,1,1,.12-.12A.11.11,0,0,1,4.79,5.56ZM4.94,6a.12.12,0,1,1,.12-.12A.11.11,0,0,1,4.94,6Zm.3.3a.12.12,0,1,1,.12-.12A.11.11,0,0,1,5.24,6.28Z"/></g></g></svg>