<svg xmlns="http://www.w3.org/2000/svg" viewBox="0 0 5.62 8.83"><defs><style>.cls-1{fill:#231f20;}</style></defs><g id="Layer_2" data-name="Layer 2"><g id="Layer_1-2" data-name="Layer 1"><path class="cls-1" d="M.12.24A.11.11,0,0,1,0,.12.11.11,0,0,1,.12,0,.11.11,0,0,1,.24.12.11.11,0,0,1,.12.24Zm0,.44A.11.11,0,0,1,0,.56.11.11,0,0,1,.12.44.11.11,0,0,1,.24.56.11.11,0,0,1,.12.68Zm0,.46A.11.11,0,0,1,0,1,.11.11,0,0,1,.12.9.11.11,0,0,1,.24,1,.11.11,0,0,1,.12,1.14Zm0,.43A.11.11,0,0,1,0,1.45a.11.11,0,0,1,.12-.12.11.11,0,0,1,.12.12A.11.11,0,0,1,.12,1.57Zm0,.48A.11.11,0,0,1,0,1.93a.11.11,0,0,1,.12-.12.11.11,0,0,1,.12.12A.11.11,0,0,1,.12,2.05Zm0,.47A.11.11,0,0,1,0,2.4a.11.11,0,0,1,.12-.12.11.11,0,0,1,.12.12A.11.11,0,0,1,.12,2.52ZM.12,3A.11.11,0,0,1,0,2.92.11.11,0,0,1,.12,2.8a.11.11,0,0,1,.12.12A.11.11,0,0,1,.12,3Zm0,.48a.12.12,0,0,1,0-.24.12.12,0,0,1,0,.24ZM.12,4a.12.12,0,0,1,0-.24A.12.12,0,0,1,.12,4Zm0,.44a.12.12,0,0,1,0-.24.12.12,0,0,1,0,.24Zm0,.48a.12.12,0,1,1,0-.24.12.12,0,1,1,0,.24Zm0,.48a.12.12,0,1,1,0-.24.12.12,0,1,1,0,.24Zm0,.47a.12.12,0,0,1,0-.24.12.12,0,0,1,0,.24Zm0,.48a.12.12,0,1,1,0-.24.12.12,0,1,1,0,.24Zm0,.48a.12.12,0,1,1,0-.24.12.12,0,1,1,0,.24Zm0,.48a.12.12,0,1,1,0-.24.12.12,0,1,1,0,.24Zm0,.48a.12.12,0,0,1,0-.24.12.12,0,0,1,0,.24Zm0,.48A.12.12,0,0,1,.12,8a.12.12,0,0,1,0,.24Zm0,.48a.12.12,0,0,1,0-.24.12.12,0,0,1,0,.24ZM.46,4.2A.12.12,0,0,1,.46,4a.12.12,0,0,1,0,.24Zm0,3.38a.12.12,0,1,1,0-.24.12.12,0,1,1,0,.24ZM.76,3.83a.12.12,0,1,1,0-.24.12.12,0,0,1,0,.24Zm0,4.1a.12.12,0,1,1,0-.24.12.12,0,1,1,0,.24Zm.31-4.47a.12.12,0,1,1,0-.24.12.12,0,0,1,0,.24Zm0,4.77A.12.12,0,1,1,1.1,8a.12.12,0,1,1,0,.24Zm.33-5.06a.12.12,0,0,1,0-.24.12.12,0,1,1,0,.24Zm0,5.31a.12.12,0,0,1,0-.24.12.12,0,1,1,0,.24Zm.4-5.55a.11.11,0,0,1-.12-.12.11.11,0,0,1,.12-.12A.11.11,0,0,1,2,2.81.11.11,0,0,1,1.85,2.93Zm0,5.71a.12.12,0,1,1,0-.24.12.12,0,1,1,0,.24Zm.41.14a.12.12,0,0,1,0-.24.12.12,0,0,1,0,.24Zm.07-6a.11.11,0,0,1-.12-.12.11.11,0,0,1,.12-.12.11.11,0,0,1,.12.12A.11.11,0,0,1,2.33,2.76Zm.38,6.07a.12.12,0,0,1,0-.24.12.12,0,1,1,0,.24Zm.1-6.12a.11.11,0,0,1-.12-.12.11.11,0,0,1,.12-.12.11.11,0,0,1,.12.12A.11.11,0,0,1,2.81,2.71Zm.38,6.07a.12.12,0,1,1,.12-.12A.11.11,0,0,1,3.19,8.78Zm.1-6a.11.11,0,0,1-.12-.12.12.12,0,1,1,.24,0A.11.11,0,0,1,3.29,2.77Zm.37,5.87a.12.12,0,1,1,.12-.12A.11.11,0,0,1,3.66,8.64Zm.11-5.71a.11.11,0,0,1-.12-.12.12.12,0,0,1,.24,0A.11.11,0,0,1,3.77,2.93Zm.3,5.51a.12.12,0,1,1,.12-.12A.11.11,0,0,1,4.07,8.44Zm.15-5.25a.12.12,0,1,1,.12-.12A.11.11,0,0,1,4.22,3.19Zm.22,5a.12.12,0,1,1,.12-.12A.11.11,0,0,1,4.44,8.17Zm.18-4.63a.12.12,0,1,1,.12-.12A.11.11,0,0,1,4.62,3.54Zm.13,4.31a.12.12,0,1,1,.12-.12A.11.11,0,0,1,4.75,7.85ZM5,3.94a.12.12,0,1,1,.12-.12A.11.11,0,0,1,5,3.94ZM5,7.48a.12.12,0,1,1,.12-.12A.11.11,0,0,1,5,7.48Zm.15-3.14a.12.12,0,1,1,.12-.12A.11.11,0,0,1,5.17,4.34Zm.06,2.72a.12.12,0,1,1,.12-.12A.11.11,0,0,1,5.23,7.06Zm.11-2.28a.12.12,0,1,1,.12-.12A.11.11,0,0,1,5.34,4.78Zm0,1.82a.12.12,0,1,1,.12-.12A.11.11,0,0,1,5.39,6.6Zm.06-1.38a.12.12,0,1,1,.12-.12A.11.11,0,0,1,5.45,5.22Zm0,1a.12.12,0,1,1,.12-.12A.11.11,0,0,1,5.47,6.17Zm0-.48a.12.12,0,1,1,.12-.12A.11.11,0,0,1,5.5,5.69Z"/></g></g></svg>