<svg xmlns="http://www.w3.org/2000/svg" viewBox="0 0 5.62 8.83"><defs><style>.cls-1{fill:#231f20;}</style></defs><g id="Layer_2" data-name="Layer 2"><g id="Layer_1-2" data-name="Layer 1"><path class="cls-1" d="M.12,5.69a.12.12,0,0,1,0-.24.12.12,0,0,1,0,.24Zm0,.48a.12.12,0,1,1,0-.24.12.12,0,1,1,0,.24Zm0-1A.12.12,0,1,1,.17,5a.12.12,0,0,1,0,.24ZM.23,6.6a.12.12,0,1,1,0-.24.12.12,0,1,1,0,.24ZM.28,4.78a.12.12,0,0,1,0-.24.12.12,0,0,1,0,.24Zm.1,2.28a.12.12,0,1,1,0-.24.12.12,0,1,1,0,.24ZM.44,4.34a.12.12,0,1,1,0-.24.12.12,0,1,1,0,.24ZM.6,7.48a.12.12,0,1,1,0-.24.12.12,0,1,1,0,.24ZM.66,3.94a.12.12,0,0,1,0-.24.12.12,0,0,1,0,.24Zm.2,3.91a.12.12,0,1,1,0-.24.12.12,0,1,1,0,.24ZM1,3.54A.12.12,0,0,1,1,3.3a.12.12,0,0,1,0,.24Zm.18,4.63a.12.12,0,0,1,0-.24.12.12,0,1,1,0,.24Zm.21-5a.12.12,0,0,1,0-.24.12.12,0,1,1,0,.24Zm.16,5.25a.12.12,0,1,1,0-.24.12.12,0,0,1,0,.24Zm.3-5.51a.11.11,0,0,1-.12-.12.11.11,0,0,1,.12-.12A.11.11,0,0,1,2,2.81.11.11,0,0,1,1.85,2.93ZM2,8.64A.12.12,0,1,1,2,8.4a.12.12,0,0,1,0,.24Zm.37-5.87a.11.11,0,0,1-.12-.12.11.11,0,0,1,.12-.12.11.11,0,0,1,.12.12A.11.11,0,0,1,2.33,2.77Zm.09,6a.12.12,0,1,1,0-.24.12.12,0,0,1,0,.24Zm.39-6.07a.11.11,0,0,1-.12-.12.11.11,0,0,1,.12-.12.11.11,0,0,1,.12.12A.11.11,0,0,1,2.81,2.71ZM2.9,8.83a.12.12,0,1,1,0-.24.12.12,0,1,1,0,.24Zm.39-6.07a.11.11,0,0,1-.12-.12.12.12,0,1,1,.24,0A.11.11,0,0,1,3.29,2.76Zm.07,6a.12.12,0,1,1,.12-.12A.11.11,0,0,1,3.36,8.78Zm.41-5.85a.11.11,0,0,1-.12-.12.12.12,0,0,1,.24,0A.11.11,0,0,1,3.77,2.93Zm0,5.71a.12.12,0,1,1,.12-.12A.11.11,0,0,1,3.77,8.64Zm.39-.16a.12.12,0,1,1,.12-.12A.11.11,0,0,1,4.16,8.48Zm0-5.31a.12.12,0,1,1,.12-.12A.11.11,0,0,1,4.19,3.17Zm.32,5.06a.12.12,0,1,1,.12-.12A.11.11,0,0,1,4.51,8.23Zm0-4.77a.12.12,0,1,1,.12-.12A.11.11,0,0,1,4.55,3.46Zm.31.37A.12.12,0,1,1,5,3.71.11.11,0,0,1,4.86,3.83Zm0,4.1A.12.12,0,1,1,5,7.81.11.11,0,0,1,4.86,7.93Zm.29-.35a.12.12,0,1,1,.12-.12A.11.11,0,0,1,5.15,7.58Zm0-3.38a.12.12,0,1,1,.12-.12A.11.11,0,0,1,5.16,4.2Zm.34-4A.11.11,0,0,1,5.38.12a.12.12,0,0,1,.24,0A.11.11,0,0,1,5.5.24Zm0,.44A.11.11,0,0,1,5.38.56a.12.12,0,1,1,.24,0A.11.11,0,0,1,5.5.68Zm0,.46A.11.11,0,0,1,5.38,1a.12.12,0,0,1,.24,0A.11.11,0,0,1,5.5,1.14Zm0,.43a.11.11,0,0,1-.12-.12.12.12,0,0,1,.24,0A.11.11,0,0,1,5.5,1.57Zm0,.48a.11.11,0,0,1-.12-.12.12.12,0,0,1,.24,0A.11.11,0,0,1,5.5,2.05Zm0,.47a.11.11,0,0,1-.12-.12.12.12,0,0,1,.24,0A.11.11,0,0,1,5.5,2.52ZM5.5,3a.11.11,0,0,1-.12-.12.12.12,0,0,1,.24,0A.11.11,0,0,1,5.5,3Zm0,.48a.12.12,0,1,1,.12-.12A.11.11,0,0,1,5.5,3.52ZM5.5,4a.12.12,0,1,1,.12-.12A.11.11,0,0,1,5.5,4Zm0,.44a.12.12,0,1,1,.12-.12A.11.11,0,0,1,5.5,4.44Zm0,.48a.12.12,0,1,1,.12-.12A.11.11,0,0,1,5.5,4.92Zm0,.48a.12.12,0,1,1,.12-.12A.11.11,0,0,1,5.5,5.4Zm0,.47a.12.12,0,1,1,.12-.12A.11.11,0,0,1,5.5,5.87Zm0,.48a.12.12,0,1,1,.12-.12A.11.11,0,0,1,5.5,6.35Zm0,.48a.12.12,0,1,1,.12-.12A.11.11,0,0,1,5.5,6.83Zm0,.48a.12.12,0,1,1,.12-.12A.11.11,0,0,1,5.5,7.31Zm0,.48a.12.12,0,1,1,.12-.12A.11.11,0,0,1,5.5,7.79Zm0,.48a.12.12,0,1,1,.12-.12A.11.11,0,0,1,5.5,8.27Zm0,.48a.12.12,0,1,1,.12-.12A.11.11,0,0,1,5.5,8.75Z"/></g></g></svg>