<svg xmlns="http://www.w3.org/2000/svg" viewBox="0 0 5.84 6.35"><defs><style>.cls-1{fill:#231f20;}</style></defs><g id="Layer_2" data-name="Layer 2"><g id="Layer_1-2" data-name="Layer 1"><path class="cls-1" d="M.12,3.29a.12.12,0,0,1,0-.24.12.12,0,0,1,0,.24Zm.05-.48a.11.11,0,0,1-.12-.12.11.11,0,0,1,.12-.12.11.11,0,0,1,.12.12A.11.11,0,0,1,.17,2.81Zm0,.71a.12.12,0,0,1,0,.24.12.12,0,1,1,0-.24ZM.26,2.36a.11.11,0,0,1-.12-.12.11.11,0,0,1,.12-.12.11.11,0,0,1,.12.12A.11.11,0,0,1,.26,2.36ZM.26,4a.12.12,0,0,1,0,.24A.12.12,0,0,1,.26,4Zm.18-2A.11.11,0,0,1,.32,1.8a.11.11,0,0,1,.12-.12.11.11,0,0,1,.12.12A.11.11,0,0,1,.44,1.92Zm0,2.48a.12.12,0,1,1,0,.24.12.12,0,0,1,0-.24ZM.61,3.29a.12.12,0,0,1,0-.24.12.12,0,0,1,0,.24ZM.7,1.5a.11.11,0,0,1-.12-.12A.11.11,0,0,1,.7,1.26a.11.11,0,0,1,.12.12A.11.11,0,0,1,.7,1.5Zm0,3.32a.12.12,0,1,1,0,.24.12.12,0,1,1,0-.24ZM1,1.09A.11.11,0,0,1,.91,1,.11.11,0,0,1,1,.85.11.11,0,0,1,1.15,1,.11.11,0,0,1,1,1.09ZM1,5.23a.12.12,0,1,1,0,.24.12.12,0,1,1,0-.24ZM1.1,3.29a.12.12,0,1,1,0-.24.12.12,0,0,1,0,.24ZM1.42.76A.11.11,0,0,1,1.3.64.11.11,0,0,1,1.42.52a.11.11,0,0,1,.12.12A.11.11,0,0,1,1.42.76Zm0,4.81a.12.12,0,1,1,0,.24.12.12,0,1,1,0-.24Zm.21-2.28a.12.12,0,0,1,0-.24.12.12,0,0,1,0,.24ZM1.88.48A.11.11,0,0,1,1.76.36.11.11,0,0,1,1.88.24.11.11,0,0,1,2,.36.11.11,0,0,1,1.88.48Zm0,5.36a.12.12,0,0,1,0,.24.12.12,0,1,1,0-.24Zm.29-2.55a.12.12,0,0,1,0-.24.12.12,0,0,1,0,.24ZM2.35,6a.12.12,0,1,1,0,.24.12.12,0,1,1,0-.24Zm0-5.7A.11.11,0,0,1,2.24.2.11.11,0,0,1,2.36.08.11.11,0,0,1,2.48.2.11.11,0,0,1,2.36.32Zm.36,3a.12.12,0,0,1,0-.24.12.12,0,0,1,0,.24Zm.21-3A.11.11,0,0,1,2.81.12.11.11,0,0,1,2.93,0a.11.11,0,0,1,.12.12A.11.11,0,0,1,2.93.24Zm0,5.87a.12.12,0,0,1,0,.24.12.12,0,0,1,0-.24Zm.31-2.82a.12.12,0,1,1,.12-.12A.11.11,0,0,1,3.24,3.29Zm.24-3A.11.11,0,0,1,3.36.2.12.12,0,0,1,3.6.2.11.11,0,0,1,3.48.32Zm0,5.73a.12.12,0,1,1-.12.12A.11.11,0,0,1,3.49,6.05Zm.25-2.76a.12.12,0,1,1,.12-.12A.11.11,0,0,1,3.74,3.29ZM4,.48A.11.11,0,0,1,3.84.36a.12.12,0,1,1,.24,0A.11.11,0,0,1,4,.48ZM4,5.88A.12.12,0,1,1,3.9,6,.11.11,0,0,1,4,5.88Zm.2-2.59a.12.12,0,1,1,.12-.12A.11.11,0,0,1,4.22,3.29ZM4.43.76A.11.11,0,0,1,4.31.64a.12.12,0,0,1,.24,0A.11.11,0,0,1,4.43.76Zm.05,4.87a.12.12,0,1,1-.12.12A.11.11,0,0,1,4.48,5.63Zm.24-2.34a.12.12,0,1,1,.12-.12A.11.11,0,0,1,4.72,3.29Zm.09-2.2A.11.11,0,0,1,4.69,1a.12.12,0,0,1,.24,0A.11.11,0,0,1,4.81,1.09Zm.05,4.2a.12.12,0,1,1-.12.12A.11.11,0,0,1,4.86,5.29ZM5.15,1.5A.11.11,0,0,1,5,1.38a.12.12,0,1,1,.24,0A.11.11,0,0,1,5.15,1.5Zm0,3.38A.12.12,0,1,1,5.08,5,.11.11,0,0,1,5.2,4.88Zm.06-1.59a.12.12,0,1,1,.12-.12A.11.11,0,0,1,5.26,3.29ZM5.4,1.92a.11.11,0,0,1-.12-.12.12.12,0,1,1,.24,0A.11.11,0,0,1,5.4,1.92Zm.18.44a.11.11,0,0,1-.12-.12.12.12,0,0,1,.24,0A.11.11,0,0,1,5.58,2.36Zm.08.46a.11.11,0,0,1-.12-.12.12.12,0,0,1,.24,0A.11.11,0,0,1,5.66,2.82Zm.06.47a.12.12,0,1,1,.12-.12A.11.11,0,0,1,5.72,3.29Z"/></g></g></svg>