<svg xmlns="http://www.w3.org/2000/svg" viewBox="0 0 3.61 8.82"><defs><style>.cls-1{fill:#231f20;}</style></defs><g id="Layer_2" data-name="Layer 2"><g id="Layer_1-2" data-name="Layer 1"><path class="cls-1" d="M.12,3.61a.12.12,0,1,1,0-.24.12.12,0,1,1,0,.24Zm.44,0a.12.12,0,1,1,0-.24.12.12,0,1,1,0,.24ZM1.08,2A.11.11,0,0,1,1,1.84a.11.11,0,0,1,.12-.12.11.11,0,0,1,.12.12A.11.11,0,0,1,1.08,2Zm0,.45A.11.11,0,0,1,1,2.29a.11.11,0,0,1,.12-.12.11.11,0,0,1,.12.12A.11.11,0,0,1,1.08,2.41Zm0,.48A.11.11,0,0,1,1,2.77a.11.11,0,0,1,.12-.12.11.11,0,0,1,.12.12A.11.11,0,0,1,1.08,2.89Zm0,.51a.12.12,0,1,1,0-.24.12.12,0,0,1,0,.24Zm0,.45a.12.12,0,0,1,0-.24.12.12,0,0,1,0,.24Zm0,.48a.12.12,0,1,1,0-.24.12.12,0,1,1,0,.24Zm0,.48a.12.12,0,1,1,0-.24.12.12,0,1,1,0,.24Zm0,.45a.12.12,0,1,1,0-.24.12.12,0,1,1,0,.24Zm0,.48a.12.12,0,1,1,0-.24.12.12,0,1,1,0,.24Zm0,.45a.12.12,0,0,1,0-.24.12.12,0,0,1,0,.24Zm0,.47a.12.12,0,1,1,0-.24.12.12,0,1,1,0,.24Zm0,.43a.12.12,0,1,1,0-.24.12.12,0,0,1,0,.24Zm0,.45a.12.12,0,0,1,0-.24.12.12,0,0,1,0,.24Zm0,.43a.12.12,0,1,1,0-.24.12.12,0,1,1,0,.24Zm0,.42a.12.12,0,1,1,0-.24.12.12,0,1,1,0,.24Zm0,.43a.12.12,0,1,1,0-.24.12.12,0,1,1,0,.24Zm.07-7.31A.11.11,0,0,1,1,1.39a.11.11,0,0,1,.12-.12.11.11,0,0,1,.12.12A.11.11,0,0,1,1.15,1.51Zm.16-.44A.11.11,0,0,1,1.19,1,.11.11,0,0,1,1.31.83.11.11,0,0,1,1.43,1,.11.11,0,0,1,1.31,1.07Zm.23,2.54a.12.12,0,0,1,0-.24.12.12,0,1,1,0,.24Zm0-2.9A.11.11,0,0,1,1.43.59.11.11,0,0,1,1.55.47a.11.11,0,0,1,.12.12A.11.11,0,0,1,1.55.71ZM1.86.43A.11.11,0,0,1,1.74.31.11.11,0,0,1,1.86.19.11.11,0,0,1,2,.31.11.11,0,0,1,1.86.43ZM2,3.61a.12.12,0,1,1,0-.24.12.12,0,0,1,0,.24ZM2.27.25A.11.11,0,0,1,2.15.13.11.11,0,0,1,2.27,0a.11.11,0,0,1,.12.12A.11.11,0,0,1,2.27.25Zm.2,3.36a.12.12,0,1,1,0-.24.12.12,0,0,1,0,.24ZM2.7.24A.11.11,0,0,1,2.58.12.11.11,0,0,1,2.7,0a.11.11,0,0,1,.12.12A.11.11,0,0,1,2.7.24Zm.42.08A.11.11,0,0,1,3,.2a.12.12,0,0,1,.24,0A.11.11,0,0,1,3.12.32Zm.37.17A.11.11,0,0,1,3.37.37a.12.12,0,1,1,.24,0A.11.11,0,0,1,3.49.49Z"/></g></g></svg>