<svg xmlns="http://www.w3.org/2000/svg" viewBox="0 0 4.81 8.76"><defs><style>.cls-1{fill:#231f20;}</style></defs><g id="Layer_2" data-name="Layer 2"><g id="Layer_1-2" data-name="Layer 1"><path class="cls-1" d="M.12.24A.11.11,0,0,1,0,.12.11.11,0,0,1,.12,0,.11.11,0,0,1,.24.12.11.11,0,0,1,.12.24Zm0,.44A.11.11,0,0,1,0,.56.11.11,0,0,1,.12.44.11.11,0,0,1,.24.56.11.11,0,0,1,.12.68Zm0,.42A.11.11,0,0,1,0,1,.11.11,0,0,1,.12.86.11.11,0,0,1,.24,1,.11.11,0,0,1,.12,1.1Zm0,.47A.11.11,0,0,1,0,1.45a.11.11,0,0,1,.12-.12.11.11,0,0,1,.12.12A.11.11,0,0,1,.12,1.57ZM.12,2A.11.11,0,0,1,0,1.87a.11.11,0,0,1,.12-.12.11.11,0,0,1,.12.12A.11.11,0,0,1,.12,2Zm0,.42A.11.11,0,0,1,0,2.29a.11.11,0,0,1,.12-.12.11.11,0,0,1,.12.12A.11.11,0,0,1,.12,2.41Zm0,.47A.11.11,0,0,1,0,2.76a.11.11,0,0,1,.12-.12.11.11,0,0,1,.12.12A.11.11,0,0,1,.12,2.88Zm0,.41a.12.12,0,0,1,0-.24.12.12,0,0,1,0,.24Zm0,.39a.12.12,0,0,1,0-.24.12.12,0,0,1,0,.24Zm0,.44a.12.12,0,0,1,0-.24.12.12,0,0,1,0,.24Zm0,.44a.12.12,0,1,1,0-.24.12.12,0,1,1,0,.24ZM.12,5a.12.12,0,1,1,0-.24A.12.12,0,1,1,.12,5Zm0,.48a.12.12,0,1,1,0-.24.12.12,0,1,1,0,.24ZM.12,6a.12.12,0,1,1,0-.24A.12.12,0,1,1,.12,6Zm0,.48a.12.12,0,1,1,0-.24.12.12,0,1,1,0,.24ZM.12,7a.12.12,0,0,1,0-.24A.12.12,0,0,1,.12,7Zm0,.45a.12.12,0,1,1,0-.24.12.12,0,1,1,0,.24Zm0,.51a.12.12,0,1,1,0-.24.12.12,0,1,1,0,.24Zm0,.43a.12.12,0,0,1,0-.24.12.12,0,0,1,0,.24Zm0,.42a.12.12,0,1,1,0-.24.12.12,0,1,1,0,.24ZM.49,4.28A.12.12,0,0,1,.49,4a.12.12,0,0,1,0,.24Zm.3-.42a.12.12,0,1,1,0-.24.12.12,0,1,1,0,.24Zm.34-.38a.12.12,0,0,1,0-.24.12.12,0,0,1,0,.24Zm.41-.31a.12.12,0,0,1,0-.24.12.12,0,1,1,0,.24ZM2,3a.11.11,0,0,1-.12-.12A.11.11,0,0,1,2,2.71a.11.11,0,0,1,.12.12A.11.11,0,0,1,2,3Zm.52-.18a.11.11,0,0,1-.12-.12.11.11,0,0,1,.12-.12.11.11,0,0,1,.12.12A.11.11,0,0,1,2.52,2.77Zm.54,0a.11.11,0,0,1-.12-.12.12.12,0,0,1,.24,0A.11.11,0,0,1,3.06,2.72Zm.52.11a.11.11,0,0,1-.12-.12.12.12,0,0,1,.24,0A.11.11,0,0,1,3.58,2.83ZM4,3.11A.11.11,0,0,1,3.92,3a.12.12,0,1,1,.24,0A.11.11,0,0,1,4,3.11Zm.27.33a.12.12,0,1,1,.12-.12A.11.11,0,0,1,4.31,3.44Zm.17.41a.12.12,0,1,1,.12-.12A.11.11,0,0,1,4.48,3.85Zm.09.42a.12.12,0,1,1,.12-.12A.11.11,0,0,1,4.57,4.27Zm.06.45a.12.12,0,1,1,.12-.12A.11.11,0,0,1,4.63,4.72Zm.06.45a.12.12,0,1,1,.12-.12A.11.11,0,0,1,4.69,5.17Zm0,.37a.12.12,0,1,1,.12-.12A.11.11,0,0,1,4.69,5.54Zm0,.45a.12.12,0,1,1,.12-.12A.11.11,0,0,1,4.69,6Zm0,.48a.12.12,0,1,1,.12-.12A.11.11,0,0,1,4.69,6.47Zm0,.48a.12.12,0,1,1,.12-.12A.11.11,0,0,1,4.69,7Zm0,.45a.12.12,0,1,1,.12-.12A.11.11,0,0,1,4.69,7.4Zm0,.51a.12.12,0,1,1,.12-.12A.11.11,0,0,1,4.69,7.91Zm0,.43a.12.12,0,1,1,.12-.12A.11.11,0,0,1,4.69,8.34Zm0,.42a.12.12,0,1,1,.12-.12A.11.11,0,0,1,4.69,8.76Z"/></g></g></svg>