<svg xmlns="http://www.w3.org/2000/svg" viewBox="0 0 0.24 8.76"><defs><style>.cls-1{fill:#231f20;}</style></defs><g id="Layer_2" data-name="Layer 2"><g id="Layer_1-2" data-name="Layer 1"><path class="cls-1" d="M-6.94.24A.11.11,0,0,1-7.06.12.11.11,0,0,1-6.94,0a.11.11,0,0,1,.12.12A.11.11,0,0,1-6.94.24Zm0,.44A.11.11,0,0,1-7.06.56.11.11,0,0,1-6.94.44a.11.11,0,0,1,.12.12A.11.11,0,0,1-6.94.68Zm0,.42A.11.11,0,0,1-7.06,1,.11.11,0,0,1-6.94.86.11.11,0,0,1-6.82,1,.11.11,0,0,1-6.94,1.1Zm0,1.66a.11.11,0,0,1-.12-.12.11.11,0,0,1,.12-.12.11.11,0,0,1,.12.12A.11.11,0,0,1-6.94,2.76Zm0,.44a.11.11,0,0,1-.12-.12A.11.11,0,0,1-6.94,3a.11.11,0,0,1,.12.12A.11.11,0,0,1-6.94,3.2Zm0,.48a.11.11,0,0,1-.12-.12.11.11,0,0,1,.12-.12.11.11,0,0,1,.12.12A.11.11,0,0,1-6.94,3.68Zm0,.44A.11.11,0,0,1-7.06,4a.11.11,0,0,1,.12-.12A.11.11,0,0,1-6.82,4,.11.11,0,0,1-6.94,4.12Zm0,.44a.11.11,0,0,1-.12-.12.11.11,0,0,1,.12-.12.11.11,0,0,1,.12.12A.11.11,0,0,1-6.94,4.56Zm0,.46a.11.11,0,0,1-.12-.12.11.11,0,0,1,.12-.12.11.11,0,0,1,.12.12A.11.11,0,0,1-6.94,5Zm0,.48a.11.11,0,0,1-.12-.12.11.11,0,0,1,.12-.12.11.11,0,0,1,.12.12A.11.11,0,0,1-6.94,5.5Zm0,.49a.11.11,0,0,1-.12-.12.11.11,0,0,1,.12-.12.11.11,0,0,1,.12.12A.11.11,0,0,1-6.94,6Zm0,.48a.11.11,0,0,1-.12-.12.11.11,0,0,1,.12-.12.11.11,0,0,1,.12.12A.11.11,0,0,1-6.94,6.47Zm0,.48a.11.11,0,0,1-.12-.12.11.11,0,0,1,.12-.12.11.11,0,0,1,.12.12A.11.11,0,0,1-6.94,7Zm0,.45a.11.11,0,0,1-.12-.12.11.11,0,0,1,.12-.12.11.11,0,0,1,.12.12A.11.11,0,0,1-6.94,7.4Zm0,.51a.11.11,0,0,1-.12-.12.11.11,0,0,1,.12-.12.11.11,0,0,1,.12.12A.11.11,0,0,1-6.94,7.91Zm0,.43a.11.11,0,0,1-.12-.12.11.11,0,0,1,.12-.12.11.11,0,0,1,.12.12A.11.11,0,0,1-6.94,8.34Zm0,.42a.11.11,0,0,1-.12-.12.11.11,0,0,1,.12-.12.11.11,0,0,1,.12.12A.11.11,0,0,1-6.94,8.76Z" transform="translate(7.06)"/></g></g></svg>