<svg xmlns="http://www.w3.org/2000/svg" viewBox="0 0 2.72 10.76"><defs><style>.cls-1{fill:#231f20;}</style></defs><g id="Layer_2" data-name="Layer 2"><g id="Layer_1-2" data-name="Layer 1"><path class="cls-1" d="M.12,10.49a.12.12,0,0,1,0-.24.12.12,0,0,1,0,.24Zm.41.2a.12.12,0,1,1,0-.24.12.12,0,0,1,0,.24Zm.43.07a.12.12,0,0,1,0-.24.12.12,0,0,1,0,.24Zm.47,0a.12.12,0,1,1,0-.24.12.12,0,1,1,0,.24Zm.44-.21a.12.12,0,0,1,0-.24.12.12,0,0,1,0,.24Zm.39-.33a.12.12,0,0,1,0-.24.12.12,0,0,1,0,.24Zm.25-.42a.12.12,0,0,1,0-.24.12.12,0,0,1,0,.24ZM2.59.24A.11.11,0,0,1,2.47.12.11.11,0,0,1,2.59,0a.11.11,0,0,1,.12.12A.11.11,0,0,1,2.59.24Zm0,.44A.11.11,0,0,1,2.47.56.11.11,0,0,1,2.59.44a.11.11,0,0,1,.12.12A.11.11,0,0,1,2.59.68Zm0,.42A.11.11,0,0,1,2.47,1,.11.11,0,0,1,2.59.86.11.11,0,0,1,2.71,1,.11.11,0,0,1,2.59,1.1Zm0,1.66a.11.11,0,0,1-.12-.12.11.11,0,0,1,.12-.12.11.11,0,0,1,.12.12A.11.11,0,0,1,2.59,2.76Zm0,.47a.12.12,0,0,1,0-.24.12.12,0,1,1,0,.24Zm0,.47a.12.12,0,0,1,0-.24.12.12,0,0,1,0,.24Zm0,.48a.12.12,0,1,1,0-.24.12.12,0,1,1,0,.24Zm0,.44a.12.12,0,0,1,0-.24.12.12,0,0,1,0,.24Zm0,.46a.12.12,0,1,1,0-.24.12.12,0,1,1,0,.24Zm0,.48a.12.12,0,0,1,0-.24.12.12,0,1,1,0,.24Zm0,.49a.12.12,0,0,1,0-.24.12.12,0,1,1,0,.24Zm0,.48a.12.12,0,0,1,0-.24.12.12,0,1,1,0,.24Zm0,.48a.12.12,0,1,1,0-.24.12.12,0,1,1,0,.24Zm0,.45a.12.12,0,0,1,0-.24.12.12,0,0,1,0,.24Zm0,.51a.12.12,0,0,1,0-.24.12.12,0,1,1,0,.24Zm0,.48a.12.12,0,0,1,0-.24.12.12,0,1,1,0,.24Zm0,.9a.12.12,0,0,1,0-.24.12.12,0,1,1,0,.24Zm0-.43a.12.12,0,1,1,0-.24.12.12,0,1,1,0,.24Z"/></g></g></svg>