<svg xmlns="http://www.w3.org/2000/svg" viewBox="0 0 4.73 8.76"><defs><style>.cls-1{fill:#231f20;}</style></defs><g id="Layer_2" data-name="Layer 2"><g id="Layer_1-2" data-name="Layer 1"><path class="cls-1" d="M.12.24A.11.11,0,0,1,0,.12.11.11,0,0,1,.12,0,.11.11,0,0,1,.24.12.11.11,0,0,1,.12.24Zm0,.44A.11.11,0,0,1,0,.56.11.11,0,0,1,.12.44.11.11,0,0,1,.24.56.11.11,0,0,1,.12.68Zm0,.46A.11.11,0,0,1,0,1,.11.11,0,0,1,.12.9.11.11,0,0,1,.24,1,.11.11,0,0,1,.12,1.14Zm0,.43A.11.11,0,0,1,0,1.45a.11.11,0,0,1,.12-.12.11.11,0,0,1,.12.12A.11.11,0,0,1,.12,1.57Zm0,.48A.11.11,0,0,1,0,1.93a.11.11,0,0,1,.12-.12.11.11,0,0,1,.12.12A.11.11,0,0,1,.12,2.05Zm0,.47A.11.11,0,0,1,0,2.4a.11.11,0,0,1,.12-.12.11.11,0,0,1,.12.12A.11.11,0,0,1,.12,2.52ZM.12,3A.11.11,0,0,1,0,2.92.11.11,0,0,1,.12,2.8a.11.11,0,0,1,.12.12A.11.11,0,0,1,.12,3Zm0,.48a.12.12,0,0,1,0-.24.12.12,0,0,1,0,.24ZM.12,4a.12.12,0,0,1,0-.24A.12.12,0,0,1,.12,4Zm0,.44a.12.12,0,0,1,0-.24.12.12,0,0,1,0,.24Zm0,.48a.12.12,0,1,1,0-.24.12.12,0,1,1,0,.24Zm0,.48a.12.12,0,1,1,0-.24.12.12,0,1,1,0,.24Zm0,.47a.12.12,0,0,1,0-.24.12.12,0,0,1,0,.24Zm0,.48a.12.12,0,1,1,0-.24.12.12,0,1,1,0,.24Zm0,.48a.12.12,0,1,1,0-.24.12.12,0,1,1,0,.24Zm0,.48a.12.12,0,1,1,0-.24.12.12,0,1,1,0,.24Zm0,.48a.12.12,0,0,1,0-.24.12.12,0,0,1,0,.24Zm0,.48A.12.12,0,0,1,.12,8a.12.12,0,0,1,0,.24Zm0,.48a.12.12,0,0,1,0-.24.12.12,0,0,1,0,.24Zm.4-2.27a.12.12,0,0,1,0-.24.12.12,0,0,1,0,.24Zm.37-.35a.12.12,0,0,1,0-.24.12.12,0,0,1,0,.24Zm.38-.32a.12.12,0,1,1,0-.24.12.12,0,1,1,0,.24Zm.37-.35a.12.12,0,0,1,0-.24.12.12,0,0,1,0,.24ZM2,5.11a.12.12,0,0,1,0-.24.12.12,0,0,1,0,.24Zm.25.41a.12.12,0,1,1,0-.24.12.12,0,0,1,0,.24Zm.16-.77a.12.12,0,1,1,0-.24.12.12,0,1,1,0,.24Zm.1,1.12a.12.12,0,1,1,0-.24.12.12,0,1,1,0,.24Zm.26.35a.12.12,0,0,1,0-.24.12.12,0,1,1,0,.24Zm0-1.8a.12.12,0,1,1,0-.24.12.12,0,1,1,0,.24ZM3,6.56a.12.12,0,1,1,.12-.12A.11.11,0,0,1,3,6.56Zm.11-2.49A.12.12,0,1,1,3.25,4,.11.11,0,0,1,3.13,4.07ZM3.25,6.9a.12.12,0,1,1,.12-.12A.11.11,0,0,1,3.25,6.9Zm.21-3.14a.12.12,0,1,1,.12-.12A.11.11,0,0,1,3.46,3.76Zm.06,3.48a.12.12,0,1,1,.12-.12A.11.11,0,0,1,3.52,7.24Zm.27.39a.12.12,0,1,1,.12-.12A.11.11,0,0,1,3.79,7.63Zm0-4.19a.12.12,0,1,1,.12-.12A.11.11,0,0,1,3.8,3.44ZM4.06,8a.12.12,0,1,1,.12-.12A.11.11,0,0,1,4.06,8Zm.09-4.89A.11.11,0,0,1,4,3a.12.12,0,1,1,.24,0A.11.11,0,0,1,4.15,3.11Zm.16,5.23a.12.12,0,1,1,.12-.12A.11.11,0,0,1,4.31,8.34Zm.2-5.59a.11.11,0,0,1-.12-.12.12.12,0,0,1,.24,0A.11.11,0,0,1,4.51,2.75Zm.1,6a.12.12,0,1,1,.12-.12A.11.11,0,0,1,4.61,8.76Z"/></g></g></svg>