<svg xmlns="http://www.w3.org/2000/svg" viewBox="0 0 1.81 8.77"><defs><style>.cls-1{fill:#231f20;}</style></defs><g id="Layer_2" data-name="Layer 2"><g id="Layer_1-2" data-name="Layer 1"><path class="cls-1" d="M.12.24A.11.11,0,0,1,0,.12.11.11,0,0,1,.12,0,.11.11,0,0,1,.24.12.11.11,0,0,1,.12.24Zm0,.44A.11.11,0,0,1,0,.56.11.11,0,0,1,.12.44.11.11,0,0,1,.24.56.11.11,0,0,1,.12.68Zm0,.46A.11.11,0,0,1,0,1,.11.11,0,0,1,.12.9.11.11,0,0,1,.24,1,.11.11,0,0,1,.12,1.14Zm0,.43A.11.11,0,0,1,0,1.45a.11.11,0,0,1,.12-.12.11.11,0,0,1,.12.12A.11.11,0,0,1,.12,1.57Zm0,.48A.11.11,0,0,1,0,1.93a.11.11,0,0,1,.12-.12.11.11,0,0,1,.12.12A.11.11,0,0,1,.12,2.05Zm0,.47A.11.11,0,0,1,0,2.4a.11.11,0,0,1,.12-.12.11.11,0,0,1,.12.12A.11.11,0,0,1,.12,2.52ZM.12,3A.11.11,0,0,1,0,2.92.11.11,0,0,1,.12,2.8a.11.11,0,0,1,.12.12A.11.11,0,0,1,.12,3Zm0,.48a.12.12,0,0,1,0-.24.12.12,0,0,1,0,.24ZM.12,4a.12.12,0,0,1,0-.24A.12.12,0,0,1,.12,4Zm0,.44a.12.12,0,0,1,0-.24.12.12,0,0,1,0,.24Zm0,.48a.12.12,0,1,1,0-.24.12.12,0,1,1,0,.24Zm0,.48a.12.12,0,1,1,0-.24.12.12,0,1,1,0,.24Zm0,.47a.12.12,0,0,1,0-.24.12.12,0,0,1,0,.24Zm0,.48a.12.12,0,1,1,0-.24.12.12,0,1,1,0,.24Zm0,.48a.12.12,0,1,1,0-.24.12.12,0,1,1,0,.24Zm0,.48a.12.12,0,1,1,0-.24.12.12,0,1,1,0,.24Zm0,.48a.12.12,0,0,1,0-.24.12.12,0,0,1,0,.24Zm.07.45A.12.12,0,0,1,.19,8a.12.12,0,0,1,0,.24Zm.27.35a.12.12,0,0,1,0-.24.12.12,0,0,1,0,.24Zm.38.18a.12.12,0,1,1,0-.24.12.12,0,0,1,0,.24Zm.44,0a.12.12,0,0,1,0-.24.12.12,0,0,1,0,.24Zm.41-.11a.12.12,0,1,1,0-.24.12.12,0,0,1,0,.24Z"/></g></g></svg>