<svg xmlns="http://www.w3.org/2000/svg" viewBox="0 0 8.9 6.28"><defs><style>.cls-1{fill:#231f20;}</style></defs><g id="Layer_2" data-name="Layer 2"><g id="Layer_1-2" data-name="Layer 1"><path class="cls-1" d="M.12.28A.11.11,0,0,1,0,.16.11.11,0,0,1,.12,0,.11.11,0,0,1,.24.16.11.11,0,0,1,.12.28Zm0,.44A.11.11,0,0,1,0,.6.11.11,0,0,1,.12.48.11.11,0,0,1,.24.6.11.11,0,0,1,.12.72Zm0,.48A.11.11,0,0,1,0,1.08.11.11,0,0,1,.12,1a.11.11,0,0,1,.12.12A.11.11,0,0,1,.12,1.2Zm0,.43A.11.11,0,0,1,0,1.51a.11.11,0,0,1,.12-.12.11.11,0,0,1,.12.12A.11.11,0,0,1,.12,1.63Zm0,.45A.11.11,0,0,1,0,2a.11.11,0,0,1,.12-.12A.11.11,0,0,1,.24,2,.11.11,0,0,1,.12,2.08Zm0,.45A.11.11,0,0,1,0,2.41a.11.11,0,0,1,.12-.12.11.11,0,0,1,.12.12A.11.11,0,0,1,.12,2.53ZM.12,3A.11.11,0,0,1,0,2.89a.11.11,0,0,1,.12-.12.11.11,0,0,1,.12.12A.11.11,0,0,1,.12,3Zm0,.49a.12.12,0,0,1,0-.24.12.12,0,0,1,0,.24ZM.12,4a.12.12,0,0,1,0-.24A.12.12,0,0,1,.12,4Zm0,.48a.12.12,0,0,1,0-.24.12.12,0,0,1,0,.24Zm0,.46a.12.12,0,1,1,0-.24.12.12,0,1,1,0,.24Zm0,.5a.12.12,0,1,1,0-.24.12.12,0,1,1,0,.24Zm0,.44a.12.12,0,0,1,0-.24.12.12,0,0,1,0,.24Zm0,.42A.12.12,0,0,1,.12,6a.12.12,0,0,1,0,.24ZM.49,1.8a.11.11,0,0,1-.12-.12.11.11,0,0,1,.12-.12.11.11,0,0,1,.12.12A.11.11,0,0,1,.49,1.8Zm.25-.47a.11.11,0,0,1-.12-.12.11.11,0,0,1,.12-.12.11.11,0,0,1,.12.12A.11.11,0,0,1,.74,1.33ZM1.1.9A.11.11,0,0,1,1,.78.11.11,0,0,1,1.1.66a.11.11,0,0,1,.12.12A.11.11,0,0,1,1.1.9ZM1.45.62A.11.11,0,0,1,1.33.5.11.11,0,0,1,1.45.38.11.11,0,0,1,1.57.5.11.11,0,0,1,1.45.62ZM1.88.4A.11.11,0,0,1,1.76.28.11.11,0,0,1,1.88.16.11.11,0,0,1,2,.28.11.11,0,0,1,1.88.4ZM2.36.25A.11.11,0,0,1,2.24.13.11.11,0,0,1,2.36,0a.11.11,0,0,1,.12.12A.11.11,0,0,1,2.36.25Zm.47,0A.11.11,0,0,1,2.71.12.11.11,0,0,1,2.83,0,.11.11,0,0,1,3,.12.11.11,0,0,1,2.83.24Zm.48.11A.11.11,0,0,1,3.19.23a.12.12,0,0,1,.24,0A.11.11,0,0,1,3.31.35ZM3.78.6A.11.11,0,0,1,3.66.48a.12.12,0,0,1,.24,0A.11.11,0,0,1,3.78.6Zm.3.36A.11.11,0,0,1,4,.84a.12.12,0,0,1,.24,0A.11.11,0,0,1,4.08,1Zm.17.41a.11.11,0,0,1-.12-.12.12.12,0,0,1,.24,0A.11.11,0,0,1,4.25,1.37Zm.09.42a.11.11,0,0,1-.12-.12.12.12,0,0,1,.24,0A.11.11,0,0,1,4.34,1.79Zm.12.85a.11.11,0,0,1-.12-.12.12.12,0,1,1,.24,0A.11.11,0,0,1,4.46,2.64Zm0,.42a.11.11,0,0,1-.12-.12.12.12,0,1,1,.24,0A.11.11,0,0,1,4.46,3.06Zm0,.44a.12.12,0,1,1,.12-.12A.11.11,0,0,1,4.46,3.5Zm0,.51a.12.12,0,1,1,.12-.12A.11.11,0,0,1,4.46,4Zm0,.45a.12.12,0,1,1,.12-.12A.11.11,0,0,1,4.46,4.46Zm0,.5a.12.12,0,1,1,.12-.12A.11.11,0,0,1,4.46,5Zm0,.44a.12.12,0,1,1,.12-.12A.11.11,0,0,1,4.46,5.4Zm0,.46a.12.12,0,1,1,.12-.12A.11.11,0,0,1,4.46,5.86Zm0,.42a.12.12,0,1,1,.12-.12A.11.11,0,0,1,4.46,6.28Zm.06-4.1a.11.11,0,0,1-.12-.12.12.12,0,1,1,.24,0A.11.11,0,0,1,4.52,2.18Zm.29-.38a.11.11,0,0,1-.12-.12.12.12,0,0,1,.24,0A.11.11,0,0,1,4.81,1.8Zm.25-.47a.11.11,0,0,1-.12-.12.12.12,0,1,1,.24,0A.11.11,0,0,1,5.06,1.33ZM5.42.9A.11.11,0,0,1,5.3.78a.12.12,0,0,1,.24,0A.11.11,0,0,1,5.42.9ZM5.77.62A.11.11,0,0,1,5.65.5a.12.12,0,0,1,.24,0A.11.11,0,0,1,5.77.62ZM6.2.4A.11.11,0,0,1,6.08.28a.12.12,0,1,1,.24,0A.11.11,0,0,1,6.2.4ZM6.68.25A.11.11,0,0,1,6.56.13a.12.12,0,0,1,.24,0A.11.11,0,0,1,6.68.25Zm.47,0A.11.11,0,0,1,7,.12a.12.12,0,1,1,.24,0A.11.11,0,0,1,7.15.24Zm.48.11A.11.11,0,0,1,7.51.23a.12.12,0,1,1,.24,0A.11.11,0,0,1,7.63.35ZM8.1.6A.11.11,0,0,1,8,.48a.12.12,0,1,1,.24,0A.11.11,0,0,1,8.1.6ZM8.4,1A.11.11,0,0,1,8.28.84a.12.12,0,0,1,.24,0A.11.11,0,0,1,8.4,1Zm.17.41a.11.11,0,0,1-.12-.12.12.12,0,1,1,.24,0A.11.11,0,0,1,8.57,1.37Zm.09.42a.11.11,0,0,1-.12-.12.12.12,0,1,1,.24,0A.11.11,0,0,1,8.66,1.79Zm.06.44a.11.11,0,0,1-.12-.12.12.12,0,0,1,.24,0A.11.11,0,0,1,8.72,2.23Zm.06.46a.11.11,0,0,1-.12-.12.12.12,0,0,1,.24,0A.11.11,0,0,1,8.78,2.69Zm0,.41A.11.11,0,0,1,8.66,3,.12.12,0,0,1,8.9,3,.11.11,0,0,1,8.78,3.1Zm0,.4a.12.12,0,1,1,.12-.12A.11.11,0,0,1,8.78,3.5Zm0,.48a.12.12,0,1,1,.12-.12A.11.11,0,0,1,8.78,4Zm0,.48a.12.12,0,1,1,.12-.12A.11.11,0,0,1,8.78,4.46Zm0,.46A.12.12,0,1,1,8.9,4.8.11.11,0,0,1,8.78,4.92Zm0,.5A.12.12,0,1,1,8.9,5.3.11.11,0,0,1,8.78,5.42Zm0,.44a.12.12,0,1,1,.12-.12A.11.11,0,0,1,8.78,5.86Zm0,.42a.12.12,0,1,1,.12-.12A.11.11,0,0,1,8.78,6.28Z"/></g></g></svg>