<svg xmlns="http://www.w3.org/2000/svg" viewBox="0 0 4.81 6.28"><defs><style>.cls-1{fill:#231f20;}</style></defs><g id="Layer_2" data-name="Layer 2"><g id="Layer_1-2" data-name="Layer 1"><path class="cls-1" d="M.12.28A.11.11,0,0,1,0,.16.11.11,0,0,1,.12,0,.11.11,0,0,1,.24.16.11.11,0,0,1,.12.28Zm0,.44A.11.11,0,0,1,0,.6.11.11,0,0,1,.12.48.11.11,0,0,1,.24.6.11.11,0,0,1,.12.72Zm0,.48A.11.11,0,0,1,0,1.08.11.11,0,0,1,.12,1a.11.11,0,0,1,.12.12A.11.11,0,0,1,.12,1.2Zm0,.43A.11.11,0,0,1,0,1.51a.11.11,0,0,1,.12-.12.11.11,0,0,1,.12.12A.11.11,0,0,1,.12,1.63Zm0,.45A.11.11,0,0,1,0,2a.11.11,0,0,1,.12-.12A.11.11,0,0,1,.24,2,.11.11,0,0,1,.12,2.08Zm0,.45A.11.11,0,0,1,0,2.41a.11.11,0,0,1,.12-.12.11.11,0,0,1,.12.12A.11.11,0,0,1,.12,2.53ZM.12,3A.11.11,0,0,1,0,2.89a.11.11,0,0,1,.12-.12.11.11,0,0,1,.12.12A.11.11,0,0,1,.12,3Zm0,.49a.12.12,0,0,1,0-.24.12.12,0,0,1,0,.24ZM.12,4a.12.12,0,0,1,0-.24A.12.12,0,0,1,.12,4Zm0,.48a.12.12,0,0,1,0-.24.12.12,0,0,1,0,.24Zm0,.46a.12.12,0,1,1,0-.24.12.12,0,1,1,0,.24Zm0,.5a.12.12,0,1,1,0-.24.12.12,0,1,1,0,.24Zm0,.44a.12.12,0,0,1,0-.24.12.12,0,0,1,0,.24Zm0,.42A.12.12,0,0,1,.12,6a.12.12,0,0,1,0,.24ZM.49,1.8a.11.11,0,0,1-.12-.12.11.11,0,0,1,.12-.12.11.11,0,0,1,.12.12A.11.11,0,0,1,.49,1.8Zm.3-.42a.11.11,0,0,1-.12-.12.11.11,0,0,1,.12-.12.11.11,0,0,1,.12.12A.11.11,0,0,1,.79,1.38ZM1.13,1A.11.11,0,0,1,1,.88.11.11,0,0,1,1.13.76a.11.11,0,0,1,.12.12A.11.11,0,0,1,1.13,1ZM1.54.68A.11.11,0,0,1,1.42.56.11.11,0,0,1,1.54.44a.11.11,0,0,1,.12.12A.11.11,0,0,1,1.54.68ZM2,.47A.11.11,0,0,1,1.88.35.11.11,0,0,1,2,.23a.11.11,0,0,1,.12.12A.11.11,0,0,1,2,.47ZM2.52.29A.11.11,0,0,1,2.4.17.11.11,0,0,1,2.52.05a.11.11,0,0,1,.12.12A.11.11,0,0,1,2.52.29Zm.54,0A.11.11,0,0,1,2.94.12a.12.12,0,0,1,.24,0A.11.11,0,0,1,3.06.24Zm.52.11A.11.11,0,0,1,3.46.23a.12.12,0,0,1,.24,0A.11.11,0,0,1,3.58.35ZM4,.62A.11.11,0,0,1,3.92.5a.12.12,0,0,1,.24,0A.11.11,0,0,1,4,.62ZM4.31,1A.11.11,0,0,1,4.19.84a.12.12,0,0,1,.24,0A.11.11,0,0,1,4.31,1Zm.17.41a.11.11,0,0,1-.12-.12.12.12,0,1,1,.24,0A.11.11,0,0,1,4.48,1.37Zm.09.42a.11.11,0,0,1-.12-.12.12.12,0,0,1,.24,0A.11.11,0,0,1,4.57,1.79Zm.06.44a.11.11,0,0,1-.12-.12.12.12,0,1,1,.24,0A.11.11,0,0,1,4.63,2.23Zm.06.46a.11.11,0,0,1-.12-.12.12.12,0,1,1,.24,0A.11.11,0,0,1,4.69,2.69Zm0,.37a.11.11,0,0,1-.12-.12.12.12,0,1,1,.24,0A.11.11,0,0,1,4.69,3.06Zm0,.44a.12.12,0,1,1,.12-.12A.11.11,0,0,1,4.69,3.5Zm0,.48a.12.12,0,1,1,.12-.12A.11.11,0,0,1,4.69,4Zm0,.48a.12.12,0,1,1,.12-.12A.11.11,0,0,1,4.69,4.46Zm0,.46a.12.12,0,1,1,.12-.12A.11.11,0,0,1,4.69,4.92Zm0,.5a.12.12,0,1,1,.12-.12A.11.11,0,0,1,4.69,5.42Zm0,.44a.12.12,0,1,1,.12-.12A.11.11,0,0,1,4.69,5.86Zm0,.42a.12.12,0,1,1,.12-.12A.11.11,0,0,1,4.69,6.28Z"/></g></g></svg>