<svg xmlns="http://www.w3.org/2000/svg" viewBox="0 0 5.62 8.84"><defs><style>.cls-1{fill:#231f20;}</style></defs><g id="Layer_2" data-name="Layer 2"><g id="Layer_1-2" data-name="Layer 1"><path class="cls-1" d="M.12.29A.11.11,0,0,1,0,.17.11.11,0,0,1,.12.05.11.11,0,0,1,.24.17.11.11,0,0,1,.12.29ZM.12.7A.11.11,0,0,1,0,.58.11.11,0,0,1,.12.46.11.11,0,0,1,.24.58.11.11,0,0,1,.12.7Zm0,.4A.11.11,0,0,1,0,1,.11.11,0,0,1,.12.86.11.11,0,0,1,.24,1,.11.11,0,0,1,.12,1.1Zm0,.42A.11.11,0,0,1,0,1.4a.11.11,0,0,1,.12-.12.11.11,0,0,1,.12.12A.11.11,0,0,1,.12,1.52ZM.12,2A.11.11,0,0,1,0,1.85a.11.11,0,0,1,.12-.12.11.11,0,0,1,.12.12A.11.11,0,0,1,.12,2Zm0,.48A.11.11,0,0,1,0,2.33a.11.11,0,0,1,.12-.12.11.11,0,0,1,.12.12A.11.11,0,0,1,.12,2.45Zm0,.48A.11.11,0,0,1,0,2.81a.11.11,0,0,1,.12-.12.11.11,0,0,1,.12.12A.11.11,0,0,1,.12,2.93Zm0,.47a.12.12,0,0,1,0-.24.12.12,0,0,1,0,.24Zm0,.48a.12.12,0,1,1,0-.24.12.12,0,1,1,0,.24Zm0,.48a.12.12,0,0,1,0-.24.12.12,0,0,1,0,.24Zm0,.48a.12.12,0,1,1,0-.24.12.12,0,1,1,0,.24Zm0,.48a.12.12,0,1,1,0-.24.12.12,0,1,1,0,.24Zm0,.43a.12.12,0,1,1,0-.24.12.12,0,1,1,0,.24Zm0,.44A.12.12,0,0,1,.12,6a.12.12,0,0,1,0,.24Zm0,.47a.12.12,0,1,1,0-.24.12.12,0,1,1,0,.24Zm0,.47a.12.12,0,0,1,0-.24.12.12,0,0,1,0,.24Zm0,.43a.12.12,0,1,1,0-.24.12.12,0,1,1,0,.24ZM.12,8a.12.12,0,1,1,0-.24A.12.12,0,1,1,.12,8Zm0,.43a.12.12,0,1,1,0-.24.12.12,0,1,1,0,.24Zm0,.43a.12.12,0,0,1,0-.24.12.12,0,0,1,0,.24ZM.46,1.73a.11.11,0,0,1-.12-.12.11.11,0,0,1,.12-.12.11.11,0,0,1,.12.12A.11.11,0,0,1,.46,1.73Zm0,3.38a.12.12,0,0,1,0-.24.12.12,0,0,1,0,.24ZM.76,1.36a.11.11,0,0,1-.12-.12.11.11,0,0,1,.12-.12.11.11,0,0,1,.12.12A.11.11,0,0,1,.76,1.36Zm0,4.1a.12.12,0,0,1,0-.24.12.12,0,0,1,0,.24ZM1.07,1A.11.11,0,0,1,1,.86.11.11,0,0,1,1.07.74a.11.11,0,0,1,.12.12A.11.11,0,0,1,1.07,1Zm0,4.78a.12.12,0,1,1,0-.24.12.12,0,1,1,0,.24ZM1.43.7A.11.11,0,0,1,1.31.58.11.11,0,0,1,1.43.46a.11.11,0,0,1,.12.12A.11.11,0,0,1,1.43.7ZM1.45,6a.12.12,0,1,1,0-.24.12.12,0,1,1,0,.24ZM1.85.46A.11.11,0,0,1,1.73.34.11.11,0,0,1,1.85.22.11.11,0,0,1,2,.34.11.11,0,0,1,1.85.46Zm0,5.71a.12.12,0,1,1,0-.24.12.12,0,1,1,0,.24Zm.41.14a.12.12,0,0,1,0-.24.12.12,0,1,1,0,.24Zm.07-6A.11.11,0,0,1,2.21.17.11.11,0,0,1,2.33.05a.11.11,0,0,1,.12.12A.11.11,0,0,1,2.33.29Zm.38,6.07a.12.12,0,0,1,0-.24.12.12,0,0,1,0,.24ZM2.81.24A.11.11,0,0,1,2.69.12.11.11,0,0,1,2.81,0a.11.11,0,0,1,.12.12A.11.11,0,0,1,2.81.24Zm.38,6.07a.12.12,0,1,1,.12-.12A.11.11,0,0,1,3.19,6.31Zm.1-6A.11.11,0,0,1,3.17.18a.12.12,0,0,1,.24,0A.11.11,0,0,1,3.29.3Zm.37,5.87a.12.12,0,1,1,.12-.12A.11.11,0,0,1,3.66,6.17ZM3.77.46A.11.11,0,0,1,3.65.34a.12.12,0,0,1,.24,0A.11.11,0,0,1,3.77.46ZM4.07,6a.12.12,0,1,1,.12-.12A.11.11,0,0,1,4.07,6ZM4.22.72A.11.11,0,0,1,4.1.6a.12.12,0,1,1,.24,0A.11.11,0,0,1,4.22.72Zm.22,5a.12.12,0,1,1,.12-.12A.11.11,0,0,1,4.44,5.7Zm.18-4.63A.11.11,0,0,1,4.5,1a.12.12,0,1,1,.24,0A.11.11,0,0,1,4.62,1.07Zm.13,4.31a.12.12,0,1,1,.12-.12A.11.11,0,0,1,4.75,5.38ZM5,1.46a.11.11,0,0,1-.12-.12.12.12,0,1,1,.24,0A.11.11,0,0,1,5,1.46ZM5,5a.12.12,0,1,1,.12-.12A.11.11,0,0,1,5,5Zm.15-3.13a.11.11,0,0,1-.12-.12.12.12,0,0,1,.24,0A.11.11,0,0,1,5.17,1.87Zm.06,2.71a.12.12,0,1,1,.12-.12A.11.11,0,0,1,5.23,4.58ZM5.34,2.3a.11.11,0,0,1-.12-.12.12.12,0,0,1,.24,0A.11.11,0,0,1,5.34,2.3Zm0,1.83A.12.12,0,1,1,5.51,4,.11.11,0,0,1,5.39,4.13Zm.06-1.38a.11.11,0,0,1-.12-.12.12.12,0,0,1,.24,0A.11.11,0,0,1,5.45,2.75Zm0,1a.12.12,0,1,1,.12-.12A.11.11,0,0,1,5.47,3.7Zm0-.48a.12.12,0,1,1,.12-.12A.11.11,0,0,1,5.5,3.22Z"/></g></g></svg>