<svg xmlns="http://www.w3.org/2000/svg" viewBox="0 0 5.62 8.83"><defs><style>.cls-1{fill:#231f20;}</style></defs><g id="Layer_2" data-name="Layer 2"><g id="Layer_1-2" data-name="Layer 1"><path class="cls-1" d="M.12,3.14a.12.12,0,1,1,0,.24.12.12,0,1,1,0-.24Zm0-.48a.11.11,0,0,1,.12.12.11.11,0,0,1-.12.12A.11.11,0,0,1,0,2.78.11.11,0,0,1,.14,2.66Zm0,.95a.12.12,0,0,1,0,.24.12.12,0,0,1,0-.24ZM.23,2.23a.11.11,0,0,1,.12.12.11.11,0,0,1-.12.12.11.11,0,0,1-.12-.12A.11.11,0,0,1,.23,2.23ZM.28,4.06a.12.12,0,0,1,0,.24.12.12,0,0,1,0-.24Zm.1-2.28A.11.11,0,0,1,.5,1.9.11.11,0,0,1,.38,2,.11.11,0,0,1,.26,1.9.11.11,0,0,1,.38,1.78ZM.44,4.49a.12.12,0,1,1,0,.24.12.12,0,1,1,0-.24ZM.6,1.36a.11.11,0,0,1,.12.12A.11.11,0,0,1,.6,1.6a.11.11,0,0,1-.12-.12A.11.11,0,0,1,.6,1.36ZM.66,4.9a.12.12,0,1,1,0,.24.12.12,0,0,1,0-.24ZM.86,1A.11.11,0,0,1,1,1.1a.11.11,0,0,1-.12.12A.11.11,0,0,1,.74,1.1.11.11,0,0,1,.86,1ZM1,5.29a.12.12,0,0,1,0,.24.12.12,0,0,1,0-.24ZM1.18.66A.11.11,0,0,1,1.3.78.11.11,0,0,1,1.18.9.11.11,0,0,1,1.06.78.11.11,0,0,1,1.18.66Zm.21,5a.12.12,0,0,1,0,.24.12.12,0,0,1,0-.24ZM1.55.4a.11.11,0,0,1,.12.12.11.11,0,0,1-.12.12A.11.11,0,0,1,1.43.52.11.11,0,0,1,1.55.4Zm.3,5.5a.12.12,0,1,1,0,.24.12.12,0,0,1,0-.24ZM2,.19a.11.11,0,0,1,.12.12A.11.11,0,0,1,2,.43.11.11,0,0,1,1.84.31.11.11,0,0,1,2,.19Zm.37,5.87a.12.12,0,1,1,0,.24.12.12,0,1,1,0-.24Zm.09-6a.11.11,0,0,1,.12.12.11.11,0,0,1-.12.12A.11.11,0,0,1,2.3.17.11.11,0,0,1,2.42.05Zm.39,6.07a.12.12,0,0,1,0,.24.12.12,0,0,1,0-.24ZM2.9,0A.11.11,0,0,1,3,.12.11.11,0,0,1,2.9.24.11.11,0,0,1,2.78.12.11.11,0,0,1,2.9,0Zm.39,6.07a.12.12,0,1,1-.12.12A.11.11,0,0,1,3.29,6.07Zm.07-6a.11.11,0,0,1,.12.12.12.12,0,0,1-.24,0A.11.11,0,0,1,3.36.05Zm.41.14a.11.11,0,0,1,.12.12.12.12,0,0,1-.24,0A.11.11,0,0,1,3.77.19Zm0,5.71A.12.12,0,1,1,3.65,6,.11.11,0,0,1,3.77,5.9ZM4.16.35a.11.11,0,0,1,.12.12A.12.12,0,0,1,4,.47.11.11,0,0,1,4.16.35Zm0,5.31a.12.12,0,1,1-.12.12A.11.11,0,0,1,4.19,5.66ZM4.51.6a.11.11,0,0,1,.12.12.12.12,0,0,1-.24,0A.11.11,0,0,1,4.51.6Zm0,4.78a.12.12,0,1,1-.12.12A.11.11,0,0,1,4.55,5.38ZM4.86.9A.11.11,0,0,1,5,1a.12.12,0,1,1-.24,0A.11.11,0,0,1,4.86.9Zm0,4.1a.12.12,0,1,1-.12.12A.11.11,0,0,1,4.86,5Zm.29-3.75a.11.11,0,0,1,.12.12.12.12,0,0,1-.24,0A.11.11,0,0,1,5.15,1.25Zm0,3.38A.12.12,0,1,1,5,4.75.11.11,0,0,1,5.16,4.63ZM5.5.08A.11.11,0,0,1,5.62.2a.12.12,0,0,1-.24,0A.11.11,0,0,1,5.5.08Zm0,.48a.11.11,0,0,1,.12.12.12.12,0,0,1-.24,0A.11.11,0,0,1,5.5.56ZM5.5,1a.11.11,0,0,1,.12.12.12.12,0,0,1-.24,0A.11.11,0,0,1,5.5,1Zm0,.48a.11.11,0,0,1,.12.12.12.12,0,0,1-.24,0A.11.11,0,0,1,5.5,1.52ZM5.5,2a.11.11,0,0,1,.12.12.12.12,0,0,1-.24,0A.11.11,0,0,1,5.5,2Zm0,.48a.11.11,0,0,1,.12.12.12.12,0,0,1-.24,0A.11.11,0,0,1,5.5,2.48ZM5.5,3a.12.12,0,1,1-.12.12A.11.11,0,0,1,5.5,3Zm0,.47a.12.12,0,1,1-.12.12A.11.11,0,0,1,5.5,3.43Zm0,.48A.12.12,0,1,1,5.38,4,.11.11,0,0,1,5.5,3.91Zm0,.48a.12.12,0,1,1-.12.12A.11.11,0,0,1,5.5,4.39Zm0,.45A.12.12,0,1,1,5.38,5,.11.11,0,0,1,5.5,4.84Zm0,.48a.12.12,0,1,1-.12.12A.11.11,0,0,1,5.5,5.32Zm0,.48a.12.12,0,1,1-.12.12A.11.11,0,0,1,5.5,5.8Zm0,.51a.12.12,0,1,1-.12.12A.11.11,0,0,1,5.5,6.31Zm0,.47a.12.12,0,1,1-.12.12A.11.11,0,0,1,5.5,6.78Zm0,.48a.12.12,0,1,1-.12.12A.11.11,0,0,1,5.5,7.26Zm0,.43a.12.12,0,1,1-.12.12A.11.11,0,0,1,5.5,7.69Zm0,.46a.12.12,0,1,1-.12.12A.11.11,0,0,1,5.5,8.15Zm0,.44a.12.12,0,1,1-.12.12A.11.11,0,0,1,5.5,8.59Z"/></g></g></svg>