<svg xmlns="http://www.w3.org/2000/svg" viewBox="0 0 2.64 6.24"><defs><style>.cls-1{fill:#231f20;}</style></defs><g id="Layer_2" data-name="Layer 2"><g id="Layer_1-2" data-name="Layer 1"><path class="cls-1" d="M.12.24A.11.11,0,0,1,0,.12.11.11,0,0,1,.12,0,.11.11,0,0,1,.24.12.11.11,0,0,1,.12.24Zm0,.44A.11.11,0,0,1,0,.56.11.11,0,0,1,.12.44.11.11,0,0,1,.24.56.11.11,0,0,1,.12.68Zm0,.48A.11.11,0,0,1,0,1,.11.11,0,0,1,.12.92.11.11,0,0,1,.24,1,.11.11,0,0,1,.12,1.16Zm0,.44A.11.11,0,0,1,0,1.48a.11.11,0,0,1,.12-.12.11.11,0,0,1,.12.12A.11.11,0,0,1,.12,1.6ZM.12,2A.11.11,0,0,1,0,1.92.11.11,0,0,1,.12,1.8a.11.11,0,0,1,.12.12A.11.11,0,0,1,.12,2Zm0,.46A.11.11,0,0,1,0,2.38a.11.11,0,0,1,.12-.12.11.11,0,0,1,.12.12A.11.11,0,0,1,.12,2.5ZM.12,3A.11.11,0,0,1,0,2.86a.11.11,0,0,1,.12-.12.11.11,0,0,1,.12.12A.11.11,0,0,1,.12,3Zm0,.49a.12.12,0,0,1,0-.24.12.12,0,0,1,0,.24ZM.12,4a.12.12,0,0,1,0-.24A.12.12,0,0,1,.12,4Zm0,.48a.12.12,0,1,1,0-.24.12.12,0,1,1,0,.24Zm0,.45a.12.12,0,0,1,0-.24.12.12,0,0,1,0,.24Zm0,.51a.12.12,0,1,1,0-.24.12.12,0,1,1,0,.24Zm0,.43a.12.12,0,1,1,0-.24.12.12,0,1,1,0,.24Zm0,.42A.12.12,0,1,1,.12,6a.12.12,0,1,1,0,.24Zm.34-4a.11.11,0,0,1-.12-.12A.11.11,0,0,1,.46,2a.11.11,0,0,1,.12.12A.11.11,0,0,1,.46,2.21Zm.19-.45a.11.11,0,0,1-.12-.12.11.11,0,0,1,.12-.12.11.11,0,0,1,.12.12A.11.11,0,0,1,.65,1.76Zm.21-.43a.11.11,0,0,1-.12-.12.11.11,0,0,1,.12-.12A.11.11,0,0,1,1,1.21.11.11,0,0,1,.86,1.33ZM1.21.92A.11.11,0,0,1,1.09.8.11.11,0,0,1,1.21.68.11.11,0,0,1,1.33.8.11.11,0,0,1,1.21.92ZM1.58.6A.11.11,0,0,1,1.46.48.11.11,0,0,1,1.58.36.11.11,0,0,1,1.7.48.11.11,0,0,1,1.58.6ZM2,.37A.11.11,0,0,1,1.91.25.11.11,0,0,1,2,.13a.11.11,0,0,1,.12.12A.11.11,0,0,1,2,.37ZM2.52.28A.11.11,0,0,1,2.4.16.11.11,0,0,1,2.52,0a.11.11,0,0,1,.12.12A.11.11,0,0,1,2.52.28Z"/></g></g></svg>