<svg xmlns="http://www.w3.org/2000/svg" viewBox="0 0 4.62 6.37"><defs><style>.cls-1{fill:#231f20;}</style></defs><g id="Layer_2" data-name="Layer 2"><g id="Layer_1-2" data-name="Layer 1"><path class="cls-1" d="M.12,5.24a.12.12,0,1,1,0,.24.12.12,0,1,1,0-.24ZM.41,1.8a.11.11,0,0,1,.12.12A.11.11,0,0,1,.41,2a.11.11,0,0,1-.12-.12A.11.11,0,0,1,.41,1.8Zm0-.22A.11.11,0,0,1,.3,1.46a.11.11,0,0,1,.12-.12.11.11,0,0,1,.12.12A.11.11,0,0,1,.42,1.58Zm0,4a.12.12,0,0,1,0,.24.12.12,0,0,1,0-.24ZM.53,2.2a.11.11,0,0,1,.12.12.11.11,0,0,1-.12.12.11.11,0,0,1-.12-.12A.11.11,0,0,1,.53,2.2ZM.59,1.13A.11.11,0,0,1,.47,1,.11.11,0,0,1,.59.89.11.11,0,0,1,.71,1,.11.11,0,0,1,.59,1.13ZM.82,2.5a.11.11,0,0,1,.12.12.11.11,0,0,1-.12.12A.11.11,0,0,1,.7,2.62.11.11,0,0,1,.82,2.5ZM.88.74A.11.11,0,0,1,.76.62.11.11,0,0,1,.88.5.11.11,0,0,1,1,.62.11.11,0,0,1,.88.74Zm0,5.06A.12.12,0,0,1,.88,6a.12.12,0,0,1,0-.24ZM1.2,2.68a.11.11,0,0,1,.12.12.11.11,0,0,1-.12.12.11.11,0,0,1-.12-.12A.11.11,0,0,1,1.2,2.68ZM1.27.49A.11.11,0,0,1,1.15.37.11.11,0,0,1,1.27.25a.11.11,0,0,1,.12.12A.11.11,0,0,1,1.27.49ZM1.32,6a.12.12,0,0,1,0,.24.12.12,0,0,1,0-.24Zm.29-3.17a.11.11,0,0,1,.12.12.11.11,0,0,1-.12.12.11.11,0,0,1-.12-.12A.11.11,0,0,1,1.61,2.81ZM1.75.32A.11.11,0,0,1,1.63.2.11.11,0,0,1,1.75.08.11.11,0,0,1,1.87.2.11.11,0,0,1,1.75.32ZM1.82,6.1a.12.12,0,0,1,0,.24.12.12,0,1,1,0-.24ZM2,2.92a.12.12,0,0,1,0,.24.12.12,0,0,1,0-.24ZM2.26.24A.11.11,0,0,1,2.14.12.11.11,0,0,1,2.26,0a.11.11,0,0,1,.12.12A.11.11,0,0,1,2.26.24Zm.1,5.89a.12.12,0,0,1,0,.24.12.12,0,0,1,0-.24ZM2.48,3a.12.12,0,1,1,0,.24.12.12,0,0,1,0-.24ZM2.76.25A.11.11,0,0,1,2.64.13.11.11,0,0,1,2.76,0a.11.11,0,0,1,.12.12A.11.11,0,0,1,2.76.25ZM2.88,6.1a.12.12,0,0,1,0,.24.12.12,0,0,1,0-.24Zm.05-3a.12.12,0,0,1,0,.24.12.12,0,1,1,0-.24ZM3.22.34A.11.11,0,0,1,3.1.22a.12.12,0,1,1,.24,0A.11.11,0,0,1,3.22.34ZM3.35,6a.12.12,0,1,1-.12.12A.11.11,0,0,1,3.35,6Zm0-2.7a.12.12,0,1,1-.12.12A.11.11,0,0,1,3.36,3.26ZM3.62.49A.11.11,0,0,1,3.5.37a.12.12,0,0,1,.24,0A.11.11,0,0,1,3.62.49Zm.14,5.29a.12.12,0,1,1-.12.12A.11.11,0,0,1,3.76,5.78Zm0-2.35a.12.12,0,1,1-.12.12A.11.11,0,0,1,3.78,3.43ZM4,.68A.11.11,0,0,1,3.9.56a.12.12,0,0,1,.24,0A.11.11,0,0,1,4,.68Zm.11,4.79A.12.12,0,1,1,4,5.59.11.11,0,0,1,4.13,5.47Zm0-1.77a.12.12,0,1,1-.12.12A.11.11,0,0,1,4.18,3.7ZM4.33,1A.11.11,0,0,1,4.21.85a.12.12,0,0,1,.24,0A.11.11,0,0,1,4.33,1ZM4.4,5.08a.12.12,0,1,1-.12.12A.11.11,0,0,1,4.4,5.08Zm0-1a.12.12,0,1,1-.12.12A.11.11,0,0,1,4.44,4.09Zm.06.51a.12.12,0,1,1-.12.12A.11.11,0,0,1,4.5,4.6Z"/></g></g></svg>