<svg xmlns="http://www.w3.org/2000/svg" viewBox="0 0 3.18 8.3"><defs><style>.cls-1{fill:#231f20;}</style></defs><g id="Layer_2" data-name="Layer 2"><g id="Layer_1-2" data-name="Layer 1"><path class="cls-1" d="M.12,2.35A.11.11,0,0,1,0,2.23a.11.11,0,0,1,.12-.12.11.11,0,0,1,.12.12A.11.11,0,0,1,.12,2.35Zm.44,0a.11.11,0,0,1-.12-.12.11.11,0,0,1,.12-.12.11.11,0,0,1,.12.12A.11.11,0,0,1,.56,2.35ZM1.08.24A.11.11,0,0,1,1,.12.11.11,0,0,1,1.08,0,.11.11,0,0,1,1.2.12.11.11,0,0,1,1.08.24Zm0,.46A.11.11,0,0,1,1,.58.11.11,0,0,1,1.08.46.11.11,0,0,1,1.2.58.11.11,0,0,1,1.08.7Zm0,.45A.11.11,0,0,1,1,1,.11.11,0,0,1,1.08.91.11.11,0,0,1,1.2,1,.11.11,0,0,1,1.08,1.15Zm0,.48A.11.11,0,0,1,1,1.51a.11.11,0,0,1,.12-.12.11.11,0,0,1,.12.12A.11.11,0,0,1,1.08,1.63Zm0,.51A.11.11,0,0,1,1,2a.11.11,0,0,1,.12-.12A.11.11,0,0,1,1.2,2,.11.11,0,0,1,1.08,2.14Zm0,.45A.11.11,0,0,1,1,2.47a.11.11,0,0,1,.12-.12.11.11,0,0,1,.12.12A.11.11,0,0,1,1.08,2.59Zm0,.48A.11.11,0,0,1,1,3a.11.11,0,0,1,.12-.12A.11.11,0,0,1,1.2,3,.11.11,0,0,1,1.08,3.07Zm0,.48a.12.12,0,0,1,0-.24.12.12,0,0,1,0,.24Zm0,.45a.12.12,0,0,1,0-.24.12.12,0,0,1,0,.24Zm0,.48a.12.12,0,1,1,0-.24.12.12,0,1,1,0,.24Zm0,.48a.12.12,0,0,1,0-.24.12.12,0,0,1,0,.24Zm0,.46a.12.12,0,1,1,0-.24.12.12,0,1,1,0,.24Zm0,.48a.12.12,0,1,1,0-.24.12.12,0,1,1,0,.24Zm0,.48a.12.12,0,0,1,0-.24.12.12,0,0,1,0,.24Zm0,.48a.12.12,0,0,1,0-.24.12.12,0,0,1,0,.24Zm0,.48a.12.12,0,1,1,0-.24.12.12,0,0,1,0,.24Zm.07.46a.12.12,0,0,1,0-.24.12.12,0,0,1,0,.24Zm.27.35a.12.12,0,1,1,0-.24.12.12,0,0,1,0,.24Zm.12-5.8a.11.11,0,0,1-.12-.12.11.11,0,0,1,.12-.12.11.11,0,0,1,.12.12A.11.11,0,0,1,1.54,2.35Zm.28,6a.12.12,0,1,1,0-.24.12.12,0,0,1,0,.24Zm.17-6a.11.11,0,0,1-.12-.12A.11.11,0,0,1,2,2.11a.11.11,0,0,1,.12.12A.11.11,0,0,1,2,2.35Zm.27,6a.12.12,0,0,1,0-.24.12.12,0,0,1,0,.24Zm.21-6a.11.11,0,0,1-.12-.12.11.11,0,0,1,.12-.12.11.11,0,0,1,.12.12A.11.11,0,0,1,2.47,2.35ZM2.68,8.2a.12.12,0,0,1,0-.24.12.12,0,0,1,0,.24ZM3.06,8a.12.12,0,1,1,.12-.12A.11.11,0,0,1,3.06,8Z"/></g></g></svg>