<svg xmlns="http://www.w3.org/2000/svg" viewBox="0 0 5.12 6.28"><defs><style>.cls-1{fill:#231f20;}</style></defs><g id="Layer_2" data-name="Layer 2"><g id="Layer_1-2" data-name="Layer 1"><path class="cls-1" d="M.12,0A.11.11,0,0,1,.24.12.11.11,0,0,1,.12.24.11.11,0,0,1,0,.12.11.11,0,0,1,.12,0Zm0,.42A.11.11,0,0,1,.24.54.11.11,0,0,1,.12.66.11.11,0,0,1,0,.54.11.11,0,0,1,.12.42Zm0,.43A.11.11,0,0,1,.24,1a.11.11,0,0,1-.12.12A.11.11,0,0,1,0,1,.11.11,0,0,1,.12.85Zm0,.51a.11.11,0,0,1,.12.12.11.11,0,0,1-.12.12A.11.11,0,0,1,0,1.48.11.11,0,0,1,.12,1.36Zm0,.45a.11.11,0,0,1,.12.12.11.11,0,0,1-.12.12A.11.11,0,0,1,0,1.93.11.11,0,0,1,.12,1.81Zm0,.48a.11.11,0,0,1,.12.12.11.11,0,0,1-.12.12A.11.11,0,0,1,0,2.41.11.11,0,0,1,.12,2.29Zm0,.48a.11.11,0,0,1,.12.12A.11.11,0,0,1,.12,3,.11.11,0,0,1,0,2.89.11.11,0,0,1,.12,2.77Zm0,.45a.12.12,0,1,1,0,.24.12.12,0,1,1,0-.24Zm0,.37a.12.12,0,0,1,0,.24.12.12,0,0,1,0-.24ZM.18,4a.12.12,0,0,1,0,.24A.12.12,0,0,1,.18,4Zm.06.45a.12.12,0,1,1,0,.24.12.12,0,1,1,0-.24Zm.1.42a.12.12,0,1,1,0,.24.12.12,0,0,1,0-.24Zm.16.41a.12.12,0,1,1,0,.24.12.12,0,1,1,0-.24Zm.27.33a.12.12,0,1,1,0,.24.12.12,0,1,1,0-.24Zm.47.28a.12.12,0,1,1,0,.24.12.12,0,1,1,0-.24ZM1.75,6a.12.12,0,0,1,0,.24.12.12,0,0,1,0-.24Zm.54,0a.12.12,0,0,1,0,.24.12.12,0,0,1,0-.24Zm.52-.18a.12.12,0,0,1,0,.24.12.12,0,0,1,0-.24Zm.47-.22a.12.12,0,1,1-.12.12A.11.11,0,0,1,3.28,5.59ZM3.7,5.3a.12.12,0,1,1-.12.12A.11.11,0,0,1,3.7,5.3Zm.38-.38A.12.12,0,1,1,4,5,.11.11,0,0,1,4.08,4.92Zm.3-.41a.12.12,0,1,1-.12.12A.11.11,0,0,1,4.38,4.51ZM4.76,0a.11.11,0,0,1,.12.12.12.12,0,0,1-.24,0A.11.11,0,0,1,4.76,0Zm0,.42a.11.11,0,0,1,.12.12.12.12,0,0,1-.24,0A.11.11,0,0,1,4.76.42Zm0,.43A.11.11,0,0,1,4.88,1a.12.12,0,0,1-.24,0A.11.11,0,0,1,4.76.85Zm0,.51a.11.11,0,0,1,.12.12.12.12,0,0,1-.24,0A.11.11,0,0,1,4.76,1.36Zm0,.45a.11.11,0,0,1,.12.12.12.12,0,0,1-.24,0A.11.11,0,0,1,4.76,1.81Zm0,.48a.11.11,0,0,1,.12.12.12.12,0,0,1-.24,0A.11.11,0,0,1,4.76,2.29Zm0,.48a.11.11,0,0,1,.12.12.12.12,0,1,1-.24,0A.11.11,0,0,1,4.76,2.77Zm0,.49a.12.12,0,1,1-.12.12A.11.11,0,0,1,4.76,3.26Zm0,.48a.12.12,0,1,1-.12.12A.11.11,0,0,1,4.76,3.74Zm0,.46a.12.12,0,1,1-.12.12A.11.11,0,0,1,4.76,4.2Zm0,.44a.12.12,0,1,1-.12.12A.11.11,0,0,1,4.76,4.64Zm0,.48a.12.12,0,1,1-.12.12A.11.11,0,0,1,4.8,5.12Zm.07.46a.12.12,0,1,1-.12.12A.11.11,0,0,1,4.87,5.58ZM5,6a.12.12,0,1,1-.12.12A.11.11,0,0,1,5,6Z"/></g></g></svg>