<svg xmlns="http://www.w3.org/2000/svg" viewBox="0 0 8.71 6.24"><defs><style>.cls-1{fill:#231f20;}</style></defs><g id="Layer_2" data-name="Layer 2"><g id="Layer_1-2" data-name="Layer 1"><path class="cls-1" d="M.12.24A.11.11,0,0,1,0,.12.11.11,0,0,1,.12,0,.11.11,0,0,1,.24.12.11.11,0,0,1,.12.24ZM.3.68A.11.11,0,0,1,.18.56.11.11,0,0,1,.3.44.11.11,0,0,1,.42.56.11.11,0,0,1,.3.68Zm.18.45A.11.11,0,0,1,.36,1,.11.11,0,0,1,.48.89.11.11,0,0,1,.6,1,.11.11,0,0,1,.48,1.13Zm.19.43a.11.11,0,0,1-.12-.12.11.11,0,0,1,.12-.12.11.11,0,0,1,.12.12A.11.11,0,0,1,.67,1.56ZM.86,2A.11.11,0,0,1,.74,1.9a.11.11,0,0,1,.12-.12A.11.11,0,0,1,1,1.9.11.11,0,0,1,.86,2Zm.22.48A.11.11,0,0,1,1,2.38a.11.11,0,0,1,.12-.12.11.11,0,0,1,.12.12A.11.11,0,0,1,1.08,2.5Zm.2.48a.11.11,0,0,1-.12-.12.11.11,0,0,1,.12-.12.11.11,0,0,1,.12.12A.11.11,0,0,1,1.28,3Zm.18.43a.12.12,0,0,1,0-.24.12.12,0,0,1,0,.24Zm.2.45a.12.12,0,0,1,0-.24.12.12,0,1,1,0,.24Zm.21.48a.12.12,0,1,1,0-.24.12.12,0,0,1,0,.24Zm.19.5a.12.12,0,1,1,0-.24.12.12,0,1,1,0,.24Zm.2.46a.12.12,0,0,1,0-.24.12.12,0,0,1,0,.24Zm.21.46a.12.12,0,1,1,0-.24.12.12,0,0,1,0,.24Zm.25.48a.12.12,0,1,1,0-.24.12.12,0,1,1,0,.24ZM3,5.76a.12.12,0,0,1,0-.24.12.12,0,0,1,0,.24Zm.22-.46a.12.12,0,1,1,.12-.12A.11.11,0,0,1,3.18,5.3Zm.19-.46a.12.12,0,1,1,.12-.12A.11.11,0,0,1,3.37,4.84Zm0-4.6A.11.11,0,0,1,3.28.12a.12.12,0,0,1,.24,0A.11.11,0,0,1,3.4.24Zm.16,4.1a.12.12,0,1,1,.12-.12A.11.11,0,0,1,3.56,4.34Zm0-3.66A.11.11,0,0,1,3.46.56a.12.12,0,0,1,.24,0A.11.11,0,0,1,3.58.68Zm.18.45A.11.11,0,0,1,3.64,1a.12.12,0,0,1,.24,0A.11.11,0,0,1,3.76,1.13Zm0,2.73a.12.12,0,1,1,.12-.12A.11.11,0,0,1,3.78,3.86ZM4,1.56a.11.11,0,0,1-.12-.12.12.12,0,1,1,.24,0A.11.11,0,0,1,4,1.56ZM4,3.41a.12.12,0,1,1,.12-.12A.11.11,0,0,1,4,3.41ZM4.14,2A.11.11,0,0,1,4,1.9a.12.12,0,1,1,.24,0A.11.11,0,0,1,4.14,2Zm0,1A.11.11,0,0,1,4,2.86a.12.12,0,0,1,.24,0A.11.11,0,0,1,4.15,3Zm.21-.48a.11.11,0,0,1-.12-.12.12.12,0,0,1,.24,0A.11.11,0,0,1,4.36,2.5Zm.2.48a.11.11,0,0,1-.12-.12.12.12,0,0,1,.24,0A.11.11,0,0,1,4.56,3Zm0-1a.11.11,0,0,1-.12-.12.12.12,0,0,1,.24,0A.11.11,0,0,1,4.57,2Zm.17,1.39a.12.12,0,1,1,.12-.12A.11.11,0,0,1,4.74,3.41Zm0-1.85a.11.11,0,0,1-.12-.12.12.12,0,0,1,.24,0A.11.11,0,0,1,4.76,1.56Zm.17,2.3a.12.12,0,1,1,.12-.12A.11.11,0,0,1,4.93,3.86ZM5,1.13A.11.11,0,0,1,4.84,1a.12.12,0,1,1,.24,0A.11.11,0,0,1,5,1.13ZM5.14.68A.11.11,0,0,1,5,.56a.12.12,0,1,1,.24,0A.11.11,0,0,1,5.14.68Zm0,3.66a.12.12,0,1,1,.12-.12A.11.11,0,0,1,5.15,4.34ZM5.32.24A.11.11,0,0,1,5.2.12a.12.12,0,0,1,.24,0A.11.11,0,0,1,5.32.24Zm0,4.6a.12.12,0,1,1,.12-.12A.11.11,0,0,1,5.34,4.84Zm.19.46a.12.12,0,1,1,.12-.12A.11.11,0,0,1,5.53,5.3Zm.22.46a.12.12,0,1,1,.12-.12A.11.11,0,0,1,5.75,5.76ZM6,6.24a.12.12,0,1,1,.12-.12A.11.11,0,0,1,6,6.24Zm.24-.48a.12.12,0,1,1,.12-.12A.11.11,0,0,1,6.24,5.76Zm.22-.46a.12.12,0,1,1,.12-.12A.11.11,0,0,1,6.46,5.3Zm.19-.46a.12.12,0,1,1,.12-.12A.11.11,0,0,1,6.65,4.84Zm.19-.5A.12.12,0,1,1,7,4.22.11.11,0,0,1,6.84,4.34Zm.22-.48a.12.12,0,1,1,.12-.12A.11.11,0,0,1,7.06,3.86Zm.19-.45a.12.12,0,1,1,.12-.12A.11.11,0,0,1,7.25,3.41ZM7.43,3a.11.11,0,0,1-.12-.12.12.12,0,0,1,.24,0A.11.11,0,0,1,7.43,3Zm.2-.48a.11.11,0,0,1-.12-.12.12.12,0,0,1,.24,0A.11.11,0,0,1,7.63,2.5ZM7.85,2a.11.11,0,0,1-.12-.12A.12.12,0,0,1,8,1.9.11.11,0,0,1,7.85,2ZM8,1.56a.11.11,0,0,1-.12-.12.12.12,0,0,1,.24,0A.11.11,0,0,1,8,1.56Zm.19-.43A.11.11,0,0,1,8.11,1a.12.12,0,0,1,.24,0A.11.11,0,0,1,8.23,1.13ZM8.41.68A.11.11,0,0,1,8.29.56a.12.12,0,0,1,.24,0A.11.11,0,0,1,8.41.68ZM8.59.24A.11.11,0,0,1,8.47.12a.12.12,0,1,1,.24,0A.11.11,0,0,1,8.59.24Z"/></g></g></svg>