<svg xmlns="http://www.w3.org/2000/svg" viewBox="0 0 4.97 6.24"><defs><style>.cls-1{fill:#231f20;}</style></defs><g id="Layer_2" data-name="Layer 2"><g id="Layer_1-2" data-name="Layer 1"><path class="cls-1" d="M.12.24A.11.11,0,0,1,0,.12.11.11,0,0,1,.12,0,.11.11,0,0,1,.24.12.11.11,0,0,1,.12.24ZM.12,6a.12.12,0,1,1,0,.24A.12.12,0,1,1,.12,6ZM.41.64A.11.11,0,0,1,.29.52.11.11,0,0,1,.41.4.11.11,0,0,1,.53.52.11.11,0,0,1,.41.64Zm0,5a.12.12,0,1,1,0,.24.12.12,0,1,1,0-.24ZM.73,1A.11.11,0,0,1,.61.91.11.11,0,0,1,.73.79.11.11,0,0,1,.85.91.11.11,0,0,1,.73,1Zm0,4.18a.12.12,0,0,1,0,.24.12.12,0,0,1,0-.24ZM1,1.4A.11.11,0,0,1,.9,1.28.11.11,0,0,1,1,1.16a.11.11,0,0,1,.12.12A.11.11,0,0,1,1,1.4ZM1,4.84a.12.12,0,1,1,0,.24.12.12,0,1,1,0-.24ZM1.3,1.76a.11.11,0,0,1-.12-.12.11.11,0,0,1,.12-.12.11.11,0,0,1,.12.12A.11.11,0,0,1,1.3,1.76Zm0,2.72a.12.12,0,1,1,0,.24.12.12,0,0,1,0-.24Zm.31-2.34A.11.11,0,0,1,1.49,2a.11.11,0,0,1,.12-.12A.11.11,0,0,1,1.73,2,.11.11,0,0,1,1.61,2.14Zm0,2a.12.12,0,0,1,0,.24.12.12,0,1,1,0-.24Zm.31-1.58A.11.11,0,0,1,1.8,2.4a.11.11,0,0,1,.12-.12A.11.11,0,0,1,2,2.4.11.11,0,0,1,1.92,2.52Zm0,1.2a.12.12,0,1,1,0,.24.12.12,0,1,1,0-.24Zm.25-.84a.11.11,0,0,1-.12-.12.11.11,0,0,1,.12-.12.11.11,0,0,1,.12.12A.11.11,0,0,1,2.17,2.88Zm0,.48a.12.12,0,0,1,0,.24.12.12,0,0,1,0-.24Zm.29-.11a.12.12,0,0,1,0-.24.12.12,0,0,1,0,.24Zm.34-.37a.11.11,0,0,1-.12-.12.11.11,0,0,1,.12-.12.11.11,0,0,1,.12.12A.11.11,0,0,1,2.8,2.88Zm0,.48a.12.12,0,0,1,0,.24.12.12,0,0,1,0-.24Zm.25-.84a.11.11,0,0,1-.12-.12.12.12,0,1,1,.24,0A.11.11,0,0,1,3.05,2.52Zm0,1.2a.12.12,0,1,1-.12.12A.11.11,0,0,1,3.05,3.72Zm.31-1.58A.11.11,0,0,1,3.24,2a.12.12,0,1,1,.24,0A.11.11,0,0,1,3.36,2.14Zm0,2a.12.12,0,1,1-.12.12A.11.11,0,0,1,3.36,4.1Zm.31-2.34a.11.11,0,0,1-.12-.12.12.12,0,0,1,.24,0A.11.11,0,0,1,3.67,1.76Zm0,2.72a.12.12,0,1,1-.12.12A.11.11,0,0,1,3.67,4.48ZM4,1.4a.11.11,0,0,1-.12-.12.12.12,0,1,1,.24,0A.11.11,0,0,1,4,1.4ZM4,4.84A.12.12,0,1,1,3.83,5,.11.11,0,0,1,4,4.84ZM4.24,1A.11.11,0,0,1,4.12.91a.12.12,0,0,1,.24,0A.11.11,0,0,1,4.24,1Zm0,4.18a.12.12,0,1,1-.12.12A.11.11,0,0,1,4.24,5.21ZM4.56.64A.11.11,0,0,1,4.44.52a.12.12,0,0,1,.24,0A.11.11,0,0,1,4.56.64Zm0,5a.12.12,0,1,1-.12.12A.11.11,0,0,1,4.56,5.6ZM4.85.24A.11.11,0,0,1,4.73.12.12.12,0,0,1,5,.12.11.11,0,0,1,4.85.24ZM4.85,6a.12.12,0,1,1-.12.12A.11.11,0,0,1,4.85,6Z"/></g></g></svg>