<svg xmlns="http://www.w3.org/2000/svg" viewBox="0 0 5.44 8.8"><defs><style>.cls-1{fill:#231f20;}</style></defs><g id="Layer_2" data-name="Layer 2"><g id="Layer_1-2" data-name="Layer 1"><path class="cls-1" d="M.12.24A.11.11,0,0,1,0,.12.11.11,0,0,1,.12,0,.11.11,0,0,1,.24.12.11.11,0,0,1,.12.24ZM.3.68A.11.11,0,0,1,.18.56.11.11,0,0,1,.3.44.11.11,0,0,1,.42.56.11.11,0,0,1,.3.68Zm.18.45A.11.11,0,0,1,.36,1,.11.11,0,0,1,.48.89.11.11,0,0,1,.6,1,.11.11,0,0,1,.48,1.13Zm.19.43a.11.11,0,0,1-.12-.12.11.11,0,0,1,.12-.12.11.11,0,0,1,.12.12A.11.11,0,0,1,.67,1.56ZM.86,2A.11.11,0,0,1,.74,1.9a.11.11,0,0,1,.12-.12A.11.11,0,0,1,1,1.9.11.11,0,0,1,.86,2ZM1,8.8a.12.12,0,1,1,0-.24A.12.12,0,1,1,1,8.8Zm.05-6.3A.11.11,0,0,1,1,2.38a.11.11,0,0,1,.12-.12.11.11,0,0,1,.12.12A.11.11,0,0,1,1.08,2.5Zm.2.48a.11.11,0,0,1-.12-.12.11.11,0,0,1,.12-.12.11.11,0,0,1,.12.12A.11.11,0,0,1,1.28,3Zm.18.43a.12.12,0,0,1,0-.24.12.12,0,0,1,0,.24Zm0,5.27a.12.12,0,0,1,0-.24.12.12,0,0,1,0,.24Zm.18-4.82a.12.12,0,0,1,0-.24.12.12,0,1,1,0,.24Zm.14,4.5a.12.12,0,0,1,0-.24.12.12,0,0,1,0,.24Zm.07-4a.12.12,0,1,1,0-.24.12.12,0,0,1,0,.24ZM2,8a.12.12,0,0,1,0-.24A.12.12,0,0,1,2,8Zm0-3.12a.12.12,0,1,1,0-.24.12.12,0,1,1,0,.24Zm.16,2.7a.12.12,0,0,1,0-.24.12.12,0,0,1,0,.24Zm0-2.24a.12.12,0,0,1,0-.24.12.12,0,0,1,0,.24Zm.13,1.83a.12.12,0,0,1,0-.24.12.12,0,0,1,0,.24Zm.08-1.37a.12.12,0,1,1,0-.24.12.12,0,0,1,0,.24Zm.11.94a.12.12,0,1,1,0-.24.12.12,0,0,1,0,.24Zm.14-.46a.12.12,0,1,1,0-.24.12.12,0,1,1,0,.24ZM3,5.76a.12.12,0,0,1,0-.24.12.12,0,0,1,0,.24Zm.22-.46a.12.12,0,1,1,.12-.12A.11.11,0,0,1,3.18,5.3Zm.19-.46a.12.12,0,1,1,.12-.12A.11.11,0,0,1,3.37,4.84Zm.19-.5a.12.12,0,1,1,.12-.12A.11.11,0,0,1,3.56,4.34Zm.22-.48a.12.12,0,1,1,.12-.12A.11.11,0,0,1,3.78,3.86ZM4,3.41a.12.12,0,1,1,.12-.12A.11.11,0,0,1,4,3.41ZM4.15,3A.11.11,0,0,1,4,2.86a.12.12,0,0,1,.24,0A.11.11,0,0,1,4.15,3Zm.21-.48a.11.11,0,0,1-.12-.12.12.12,0,0,1,.24,0A.11.11,0,0,1,4.36,2.5ZM4.57,2a.11.11,0,0,1-.12-.12.12.12,0,0,1,.24,0A.11.11,0,0,1,4.57,2Zm.19-.46a.11.11,0,0,1-.12-.12.12.12,0,0,1,.24,0A.11.11,0,0,1,4.76,1.56ZM5,1.13A.11.11,0,0,1,4.84,1a.12.12,0,1,1,.24,0A.11.11,0,0,1,5,1.13ZM5.14.68A.11.11,0,0,1,5,.56a.12.12,0,1,1,.24,0A.11.11,0,0,1,5.14.68ZM5.32.24A.11.11,0,0,1,5.2.12a.12.12,0,0,1,.24,0A.11.11,0,0,1,5.32.24Z"/></g></g></svg>