<svg xmlns="http://www.w3.org/2000/svg" viewBox="0 0 4.97 6.24"><defs><style>.cls-1{fill:#231f20;}</style></defs><g id="Layer_2" data-name="Layer 2"><g id="Layer_1-2" data-name="Layer 1"><path class="cls-1" d="M.12.24A.11.11,0,0,1,0,.12.11.11,0,0,1,.12,0,.11.11,0,0,1,.24.12.11.11,0,0,1,.12.24ZM.12,6a.12.12,0,1,1,0,.24A.12.12,0,1,1,.12,6Zm.29-.4a.12.12,0,1,1,0,.24.12.12,0,1,1,0-.24ZM.52.24A.11.11,0,0,1,.4.12.11.11,0,0,1,.52,0,.11.11,0,0,1,.64.12.11.11,0,0,1,.52.24Zm0,6A.12.12,0,1,1,.53,6a.12.12,0,1,1,0,.24Zm.2-1a.12.12,0,0,1,0,.24.12.12,0,0,1,0-.24Zm.19-5A.11.11,0,0,1,.8.12.11.11,0,0,1,.92,0,.11.11,0,0,1,1,.12.11.11,0,0,1,.92.24Zm0,6A.12.12,0,1,1,1,6a.12.12,0,1,1,0,.24ZM1,4.84a.12.12,0,1,1,0,.24.12.12,0,1,1,0-.24Zm.28-.36a.12.12,0,1,1,0,.24.12.12,0,0,1,0-.24ZM1.36.24A.11.11,0,0,1,1.24.12.11.11,0,0,1,1.36,0a.11.11,0,0,1,.12.12A.11.11,0,0,1,1.36.24Zm0,6a.12.12,0,1,1,0-.24.12.12,0,0,1,0,.24ZM1.61,4.1a.12.12,0,0,1,0,.24.12.12,0,1,1,0-.24Zm.14,2.14a.12.12,0,1,1,0-.24.12.12,0,1,1,0,.24Zm0-6A.11.11,0,0,1,1.64.12.11.11,0,0,1,1.76,0a.11.11,0,0,1,.12.12A.11.11,0,0,1,1.76.24Zm.16,3.48a.12.12,0,1,1,0,.24.12.12,0,1,1,0-.24Zm.25-.36a.12.12,0,0,1,0,.24.12.12,0,0,1,0-.24Zm0-3.12A.11.11,0,0,1,2.06.12.11.11,0,0,1,2.18,0,.11.11,0,0,1,2.3.12.11.11,0,0,1,2.18.24Zm0,6a.12.12,0,0,1,0-.24.12.12,0,1,1,0,.24Zm.28-3a.12.12,0,0,1,0-.24.12.12,0,0,1,0,.24Zm.17-3A.11.11,0,0,1,2.51.12.11.11,0,0,1,2.63,0a.11.11,0,0,1,.12.12A.11.11,0,0,1,2.63.24Zm0,6a.12.12,0,1,1,0-.24.12.12,0,0,1,0,.24ZM2.8,2.88a.11.11,0,0,1-.12-.12.11.11,0,0,1,.12-.12.11.11,0,0,1,.12.12A.11.11,0,0,1,2.8,2.88Zm.25-.36a.11.11,0,0,1-.12-.12.12.12,0,1,1,.24,0A.11.11,0,0,1,3.05,2.52Zm0-2.28A.11.11,0,0,1,3,.12a.12.12,0,0,1,.24,0A.11.11,0,0,1,3.07.24Zm0,6a.12.12,0,1,1,.12-.12A.11.11,0,0,1,3.08,6.24Zm.28-4.1A.11.11,0,0,1,3.24,2a.12.12,0,1,1,.24,0A.11.11,0,0,1,3.36,2.14ZM3.53.24A.11.11,0,0,1,3.41.12a.12.12,0,0,1,.24,0A.11.11,0,0,1,3.53.24Zm0,6a.12.12,0,1,1,.12-.12A.11.11,0,0,1,3.54,6.24Zm.13-4.48a.11.11,0,0,1-.12-.12.12.12,0,0,1,.24,0A.11.11,0,0,1,3.67,1.76ZM4,1.4a.11.11,0,0,1-.12-.12.12.12,0,1,1,.24,0A.11.11,0,0,1,4,1.4ZM4,.24A.11.11,0,0,1,3.84.12a.12.12,0,1,1,.24,0A.11.11,0,0,1,4,.24Zm0,6a.12.12,0,1,1,.12-.12A.11.11,0,0,1,4,6.24ZM4.24,1A.11.11,0,0,1,4.12.91a.12.12,0,0,1,.24,0A.11.11,0,0,1,4.24,1ZM4.38.24A.11.11,0,0,1,4.26.12a.12.12,0,1,1,.24,0A.11.11,0,0,1,4.38.24Zm0,6a.12.12,0,1,1,.12-.12A.11.11,0,0,1,4.43,6.24ZM4.56.64A.11.11,0,0,1,4.44.52a.12.12,0,0,1,.24,0A.11.11,0,0,1,4.56.64Zm.29-.4A.11.11,0,0,1,4.73.12.12.12,0,0,1,5,.12.11.11,0,0,1,4.85.24ZM4.85,6a.12.12,0,1,1-.12.12A.11.11,0,0,1,4.85,6Z"/></g></g></svg>