<svg xmlns="http://www.w3.org/2000/svg" viewBox="0 0 4.81 8.78"><defs><style>.cls-1{fill:#231f20;}</style></defs><g id="Layer_2" data-name="Layer 2"><g id="Layer_1-2" data-name="Layer 1"><path class="cls-1" d="M.12,2.78A.11.11,0,0,1,0,2.66a.11.11,0,0,1,.12-.12.11.11,0,0,1,.12.12A.11.11,0,0,1,.12,2.78Zm0,.45A.12.12,0,0,1,.12,3a.12.12,0,0,1,0,.24Zm0,.48a.12.12,0,1,1,0-.24.12.12,0,1,1,0,.24Zm0,.43a.12.12,0,1,1,0-.24.12.12,0,0,1,0,.24Zm0,.44a.12.12,0,1,1,0-.24.12.12,0,1,1,0,.24ZM.12,5a.12.12,0,0,1,0-.24A.12.12,0,0,1,.12,5Zm0,.48a.12.12,0,1,1,0-.24.12.12,0,1,1,0,.24ZM.12,6a.12.12,0,1,1,0-.24A.12.12,0,1,1,.12,6Zm0,.48a.12.12,0,1,1,0-.24.12.12,0,1,1,0,.24ZM.12,7a.12.12,0,1,1,0-.24A.12.12,0,1,1,.12,7Zm0,.46a.12.12,0,1,1,0-.24.12.12,0,1,1,0,.24Zm0,.5a.12.12,0,1,1,0-.24.12.12,0,1,1,0,.24Zm0,.43a.12.12,0,0,1,0-.24.12.12,0,0,1,0,.24Zm0,.42a.12.12,0,1,1,0-.24.12.12,0,1,1,0,.24ZM.49,4.31a.12.12,0,1,1,0-.24.12.12,0,1,1,0,.24Zm.3-.42a.12.12,0,0,1,0-.24.12.12,0,0,1,0,.24Zm0-2.82A.11.11,0,0,1,.72,1,.11.11,0,0,1,.84.83.11.11,0,0,1,1,1,.11.11,0,0,1,.84,1.07ZM1,.68A.11.11,0,0,1,.89.56.11.11,0,0,1,1,.44a.11.11,0,0,1,.12.12A.11.11,0,0,1,1,.68ZM1.13,3.5a.12.12,0,0,1,0-.24.12.12,0,0,1,0,.24ZM1.33.43A.11.11,0,0,1,1.21.31.11.11,0,0,1,1.33.19a.11.11,0,0,1,.12.12A.11.11,0,0,1,1.33.43Zm.21,2.76a.12.12,0,0,1,0-.24.12.12,0,0,1,0,.24ZM1.75.43A.11.11,0,0,1,1.63.31.11.11,0,0,1,1.75.19a.11.11,0,0,1,.12.12A.11.11,0,0,1,1.75.43ZM2,3a.11.11,0,0,1-.12-.12A.11.11,0,0,1,2,2.74a.11.11,0,0,1,.12.12A.11.11,0,0,1,2,3ZM2.16.56A.11.11,0,0,1,2,.44.11.11,0,0,1,2.16.32a.11.11,0,0,1,.12.12A.11.11,0,0,1,2.16.56ZM2.52,2.8a.11.11,0,0,1-.12-.12.11.11,0,0,1,.12-.12.11.11,0,0,1,.12.12A.11.11,0,0,1,2.52,2.8Zm0-2A.11.11,0,0,1,2.44.64.11.11,0,0,1,2.56.52a.11.11,0,0,1,.12.12A.11.11,0,0,1,2.56.76ZM3,.88A.11.11,0,0,1,2.86.76.11.11,0,0,1,3,.64.11.11,0,0,1,3.1.76.11.11,0,0,1,3,.88Zm.08,1.87a.11.11,0,0,1-.12-.12.12.12,0,0,1,.24,0A.11.11,0,0,1,3.06,2.75ZM3.41.84A.11.11,0,0,1,3.29.72a.12.12,0,1,1,.24,0A.11.11,0,0,1,3.41.84Zm.17,2a.11.11,0,0,1-.12-.12.12.12,0,0,1,.24,0A.11.11,0,0,1,3.58,2.86ZM3.77.62A.11.11,0,0,1,3.65.5a.12.12,0,0,1,.24,0A.11.11,0,0,1,3.77.62ZM4,.24A.11.11,0,0,1,3.84.12a.12.12,0,1,1,.24,0A.11.11,0,0,1,4,.24ZM4,3.13A.12.12,0,1,1,4.16,3,.11.11,0,0,1,4,3.13Zm.27.34a.12.12,0,1,1,.12-.12A.11.11,0,0,1,4.31,3.47Zm.17.41a.12.12,0,1,1,.12-.12A.11.11,0,0,1,4.48,3.88Zm.09.42a.12.12,0,1,1,.12-.12A.11.11,0,0,1,4.57,4.3Zm.06.44a.12.12,0,1,1,.12-.12A.11.11,0,0,1,4.63,4.74Zm.06.46a.12.12,0,1,1,.12-.12A.11.11,0,0,1,4.69,5.2Zm0,.37a.12.12,0,1,1,.12-.12A.11.11,0,0,1,4.69,5.57Zm0,.44a.12.12,0,1,1,.12-.12A.11.11,0,0,1,4.69,6Zm0,.48a.12.12,0,1,1,.12-.12A.11.11,0,0,1,4.69,6.49Zm0,.48a.12.12,0,1,1,.12-.12A.11.11,0,0,1,4.69,7Zm0,.46a.12.12,0,1,1,.12-.12A.11.11,0,0,1,4.69,7.43Zm0,.5a.12.12,0,1,1,.12-.12A.11.11,0,0,1,4.69,7.93Zm0,.43a.12.12,0,1,1,.12-.12A.11.11,0,0,1,4.69,8.36Zm0,.42a.12.12,0,1,1,.12-.12A.11.11,0,0,1,4.69,8.78Z"/></g></g></svg>