<svg xmlns="http://www.w3.org/2000/svg" viewBox="0 0 6.19 7.28"><defs><style>.cls-1{fill:#231f20;}</style></defs><g id="Layer_2" data-name="Layer 2"><g id="Layer_1-2" data-name="Layer 1"><path class="cls-1" d="M6.19,3.65A4.56,4.56,0,0,1,6,5.11a3.7,3.7,0,0,1-.65,1.15,3,3,0,0,1-1,.75,2.84,2.84,0,0,1-1.23.27A2.85,2.85,0,0,1,1.86,7a3,3,0,0,1-1-.75A3.91,3.91,0,0,1,.23,5.11,4.56,4.56,0,0,1,0,3.65,4.52,4.52,0,0,1,.23,2.19,3.78,3.78,0,0,1,.88,1a2.88,2.88,0,0,1,1-.76A2.72,2.72,0,0,1,3.1,0,2.71,2.71,0,0,1,4.33.28a2.88,2.88,0,0,1,1,.76A3.59,3.59,0,0,1,6,2.19,4.52,4.52,0,0,1,6.19,3.65Zm-1.62,0a3,3,0,0,0-.11-.88,2.18,2.18,0,0,0-.3-.69,1.43,1.43,0,0,0-.47-.45,1.2,1.2,0,0,0-.59-.15,1.23,1.23,0,0,0-.61.15A1.43,1.43,0,0,0,2,2.08a2.18,2.18,0,0,0-.3.69,3,3,0,0,0-.11.88,3,3,0,0,0,.11.87,2.18,2.18,0,0,0,.3.69,1.4,1.4,0,0,0,.47.44,1.13,1.13,0,0,0,.61.16,1.11,1.11,0,0,0,.59-.16,1.4,1.4,0,0,0,.47-.44,2.18,2.18,0,0,0,.3-.69A3,3,0,0,0,4.57,3.65Z"/></g></g></svg>