<svg xmlns="http://www.w3.org/2000/svg" viewBox="0 0 5.78 6.97"><defs><style>.cls-1{fill:#231f20;}</style></defs><g id="Layer_2" data-name="Layer 2"><g id="Layer_1-2" data-name="Layer 1"><path class="cls-1" d="M0,7A5.89,5.89,0,0,1,.08,6a2.81,2.81,0,0,1,.3-.81A2.79,2.79,0,0,1,1,4.49a5.56,5.56,0,0,1,.93-.64l.87-.46A4.21,4.21,0,0,0,3.38,3a1.49,1.49,0,0,0,.39-.34.62.62,0,0,0,.13-.4.81.81,0,0,0-.29-.62,1.21,1.21,0,0,0-.83-.26,1.72,1.72,0,0,0-.52.08,1.85,1.85,0,0,0-.45.21,2.88,2.88,0,0,0-.39.3,3.47,3.47,0,0,0-.32.34l-1-1.19A3.29,3.29,0,0,1,.52.77,4.58,4.58,0,0,1,1.19.4,5.91,5.91,0,0,1,2.06.11a4.6,4.6,0,0,1,1-.11A3.64,3.64,0,0,1,4.16.15,2.39,2.39,0,0,1,5,.57a1.89,1.89,0,0,1,.51.65A2,2,0,0,1,5.65,2a1.72,1.72,0,0,1-.15.74,2.39,2.39,0,0,1-.4.58,3.11,3.11,0,0,1-.52.44L4,4.13l-.49.27c-.18.11-.37.22-.55.35a4.88,4.88,0,0,0-.49.38,1.54,1.54,0,0,0-.35.39H5.78V7Z"/></g></g></svg>