<svg xmlns="http://www.w3.org/2000/svg" viewBox="0 0 5.9 8.68"><defs><style>.cls-1{fill:#231f20;}</style></defs><g id="Layer_2" data-name="Layer 2"><g id="Layer_1-2" data-name="Layer 1"><path class="cls-1" d="M4.24,4.08a2,2,0,0,1,1.2.71A2.23,2.23,0,0,1,5.9,6.22a2.31,2.31,0,0,1-.22,1A2.2,2.2,0,0,1,5.06,8a2.91,2.91,0,0,1-1,.49,4.35,4.35,0,0,1-1.3.18,4.09,4.09,0,0,1-1.61-.3A2.88,2.88,0,0,1,0,7.52L.91,6.38A2.23,2.23,0,0,0,1.66,7a2.42,2.42,0,0,0,1.08.21,1.77,1.77,0,0,0,1.11-.29A1,1,0,0,0,4.24,6a1.12,1.12,0,0,0-.45-1,2.15,2.15,0,0,0-1.34-.34H2.11V3.54h.37a1.82,1.82,0,0,0,1.16-.33A1,1,0,0,0,4,2.36a.85.85,0,0,0-.33-.73,1.5,1.5,0,0,0-.88-.24,2,2,0,0,0-1,.25,2,2,0,0,0-.71.71l-1-1.13A1.86,1.86,0,0,1,.6.73,3.45,3.45,0,0,1,1.28.34,3.93,3.93,0,0,1,2.1.09,4.6,4.6,0,0,1,3,0,3.61,3.61,0,0,1,4.13.16,2.72,2.72,0,0,1,5,.59a1.87,1.87,0,0,1,.56.66,1.92,1.92,0,0,1,.2.87,2.26,2.26,0,0,1-.11.69,2,2,0,0,1-.31.59,2.06,2.06,0,0,1-.49.44A1.62,1.62,0,0,1,4.24,4.08Z"/></g></g></svg>