<svg xmlns="http://www.w3.org/2000/svg" viewBox="0 0 5.93 8.64"><defs><style>.cls-1{fill:#231f20;}</style></defs><g id="Layer_2" data-name="Layer 2"><g id="Layer_1-2" data-name="Layer 1"><path class="cls-1" d="M3.13,3a3.18,3.18,0,0,1,1.12.2,2.64,2.64,0,0,1,.89.56,2.72,2.72,0,0,1,.58.86,2.9,2.9,0,0,1,.21,1.12,2.86,2.86,0,0,1-.24,1.18,2.54,2.54,0,0,1-.65.9,3,3,0,0,1-1,.59,3.59,3.59,0,0,1-1.24.21,3.42,3.42,0,0,1-1.68-.4A2.71,2.71,0,0,1,0,7.16l.92-1A2.61,2.61,0,0,0,1.76,7a2.22,2.22,0,0,0,1.05.27,1.49,1.49,0,0,0,1.06-.39,1.33,1.33,0,0,0,.41-1A1.34,1.34,0,0,0,2.9,4.4a1.52,1.52,0,0,0-.73.18,1.47,1.47,0,0,0-.55.5H.22a1.82,1.82,0,0,1,0-.27q.06-.24.12-.6l.16-.82.18-.92C.86,1.74,1,.91,1.2,0H5.4V1.46h-3L2,3.37a.94.94,0,0,1,.42-.25A2.29,2.29,0,0,1,3.13,3Z"/></g></g></svg>