<svg xmlns="http://www.w3.org/2000/svg" viewBox="0 0 6.19 8.63"><defs><style>.cls-1{fill:#231f20;}</style></defs><g id="Layer_2" data-name="Layer 2"><g id="Layer_1-2" data-name="Layer 1"><path class="cls-1" d="M6.19,6A2.38,2.38,0,0,1,6,7.08a2.59,2.59,0,0,1-.68.83,2.94,2.94,0,0,1-1,.53,3.59,3.59,0,0,1-1.2.19,3.68,3.68,0,0,1-1.2-.2,3.06,3.06,0,0,1-1-.56A2.6,2.6,0,0,1,.24,7,2.44,2.44,0,0,1,0,5.94a1.85,1.85,0,0,1,.12-.67,2.11,2.11,0,0,1,.31-.55,2.63,2.63,0,0,1,.43-.45A2.24,2.24,0,0,1,1.33,4a1.94,1.94,0,0,1-.75-.65,1.58,1.58,0,0,1-.32-1,2,2,0,0,1,.26-1A2.49,2.49,0,0,1,1.19.61,3,3,0,0,1,2.11.16,3.11,3.11,0,0,1,3.1,0a3.5,3.5,0,0,1,1,.15A2.87,2.87,0,0,1,5,.6a2.53,2.53,0,0,1,.68.74,2,2,0,0,1,.26,1,1.69,1.69,0,0,1-.08.5,2,2,0,0,1-.24.46,2,2,0,0,1-.35.37A1.86,1.86,0,0,1,4.84,4a3.08,3.08,0,0,1,.5.33,2.37,2.37,0,0,1,.43.46,2.24,2.24,0,0,1,.31.57A2.06,2.06,0,0,1,6.19,6ZM4.56,5.9a1.08,1.08,0,0,0-.13-.54A1.16,1.16,0,0,0,4.1,5a1.35,1.35,0,0,0-.48-.24,1.61,1.61,0,0,0-.54-.09,1.71,1.71,0,0,0-.55.09A1.48,1.48,0,0,0,2.07,5a1.38,1.38,0,0,0-.32.4,1.14,1.14,0,0,0-.12.52,1,1,0,0,0,.13.53,1.26,1.26,0,0,0,.33.4,1.43,1.43,0,0,0,.47.26,1.61,1.61,0,0,0,.54.09,1.72,1.72,0,0,0,.55-.1,1.66,1.66,0,0,0,.47-.26,1.42,1.42,0,0,0,.32-.41A1.07,1.07,0,0,0,4.56,5.9ZM1.9,2.41a.87.87,0,0,0,.1.44,1.07,1.07,0,0,0,.29.31,1,1,0,0,0,.38.19,1.25,1.25,0,0,0,.43.07,1.32,1.32,0,0,0,.42-.07,1.41,1.41,0,0,0,.39-.19,1.22,1.22,0,0,0,.28-.32A.9.9,0,0,0,4.3,2.4a.84.84,0,0,0-.36-.71,1.42,1.42,0,0,0-.86-.26,1.36,1.36,0,0,0-.84.27A.86.86,0,0,0,1.9,2.41Z"/></g></g></svg>