<svg xmlns="http://www.w3.org/2000/svg" viewBox="0 0 6.25 8.7"><defs><style>.cls-1{fill:#231f20;}</style></defs><g id="Layer_2" data-name="Layer 2"><g id="Layer_1-2" data-name="Layer 1"><path class="cls-1" d="M0,3A2.83,2.83,0,0,1,.24,1.8,3.1,3.1,0,0,1,.89.86a3,3,0,0,1,1-.63A3.32,3.32,0,0,1,3.11,0a3.21,3.21,0,0,1,1.3.26A2.77,2.77,0,0,1,5.4,1,3.76,3.76,0,0,1,6,2.26a5.63,5.63,0,0,1,.22,1.65A8.47,8.47,0,0,1,6,6a4.72,4.72,0,0,1-.66,1.5,2.94,2.94,0,0,1-1,.92A2.94,2.94,0,0,1,3,8.7a3.3,3.3,0,0,1-1.49-.35,3.2,3.2,0,0,1-1.15-1l.93-1A2.09,2.09,0,0,0,2,7.06a2.12,2.12,0,0,0,1,.25,1.49,1.49,0,0,0,1.27-.64,3,3,0,0,0,.5-1.8A1.69,1.69,0,0,1,4,5.56,2.33,2.33,0,0,1,3,5.81a3,3,0,0,1-1.17-.22A2.8,2.8,0,0,1,.85,5,2.81,2.81,0,0,1,0,3Zm3.11-1.6a1.54,1.54,0,0,0-.61.12,1.74,1.74,0,0,0-.5.35,1.87,1.87,0,0,0-.34.52A1.58,1.58,0,0,0,1.54,3a1.54,1.54,0,0,0,.12.61,1.92,1.92,0,0,0,.34.5,1.45,1.45,0,0,0,.5.33,1.54,1.54,0,0,0,.61.12,1.58,1.58,0,0,0,.61-.12,1.56,1.56,0,0,0,.5-.33,1.67,1.67,0,0,0,.33-.5A1.39,1.39,0,0,0,4.68,3a1.42,1.42,0,0,0-.13-.61,1.39,1.39,0,0,0-.34-.51,1.61,1.61,0,0,0-.5-.35A1.35,1.35,0,0,0,3.11,1.36Z"/></g></g></svg>