<svg xmlns="http://www.w3.org/2000/svg" viewBox="0 0 1.75 10.99"><defs><style>.cls-1{fill:#231f20;}</style></defs><g id="Layer_2" data-name="Layer 2"><g id="Layer_1-2" data-name="Layer 1"><path class="cls-1" d="M.12.24A.11.11,0,0,1,0,.12.11.11,0,0,1,.12,0,.11.11,0,0,1,.24.12.11.11,0,0,1,.12.24Zm0,.4A.11.11,0,0,1,0,.52.11.11,0,0,1,.12.4.11.11,0,0,1,.24.52.11.11,0,0,1,.12.64ZM.12,1A.11.11,0,0,1,0,.91.11.11,0,0,1,.12.79.11.11,0,0,1,.24.91.11.11,0,0,1,.12,1ZM.88,2.57a.11.11,0,0,1-.12-.12.11.11,0,0,1,.12-.12A.11.11,0,0,1,1,2.45.11.11,0,0,1,.88,2.57ZM.88,3a.11.11,0,0,1-.12-.12.11.11,0,0,1,.12-.12A.11.11,0,0,1,1,2.86.11.11,0,0,1,.88,3Zm0,.42a.12.12,0,0,1,0-.24.12.12,0,0,1,0,.24Zm0,.42a.12.12,0,1,1,0-.24.12.12,0,0,1,0,.24Zm0,.42A.12.12,0,1,1,.88,4a.12.12,0,1,1,0,.24Zm0,.42a.12.12,0,1,1,0-.24.12.12,0,1,1,0,.24Zm0,.42a.12.12,0,1,1,0-.24.12.12,0,1,1,0,.24Zm0,.42a.12.12,0,1,1,0-.24.12.12,0,1,1,0,.24Zm0,.43a.12.12,0,1,1,0-.24.12.12,0,1,1,0,.24Zm0,.42a.12.12,0,0,1,0-.24.12.12,0,1,1,0,.24Zm0,.42a.12.12,0,0,1,0-.24.12.12,0,1,1,0,.24Zm0,.42A.12.12,0,0,1,.88,7a.12.12,0,0,1,0,.24Zm0,.42a.12.12,0,0,1,0-.24.12.12,0,0,1,0,.24ZM.88,8a.12.12,0,1,1,0-.24A.12.12,0,0,1,.88,8Zm0,.42a.12.12,0,1,1,0-.24.12.12,0,0,1,0,.24Zm0,.42a.12.12,0,1,1,0-.24.12.12,0,1,1,0,.24Zm0,.44a.12.12,0,0,1,0-.24.12.12,0,0,1,0,.24Zm0,.42a.12.12,0,1,1,0-.24.12.12,0,1,1,0,.24Zm0,.42a.12.12,0,0,1,0-.24.12.12,0,0,1,0,.24Zm0,.42a.12.12,0,1,1,0-.24.12.12,0,1,1,0,.24Zm0,.42a.12.12,0,0,1,0-.24.12.12,0,0,1,0,.24ZM1.63.24A.11.11,0,0,1,1.51.12.11.11,0,0,1,1.63,0a.11.11,0,0,1,.12.12A.11.11,0,0,1,1.63.24Zm0,.4A.11.11,0,0,1,1.51.52.11.11,0,0,1,1.63.4a.11.11,0,0,1,.12.12A.11.11,0,0,1,1.63.64Zm0,.39A.11.11,0,0,1,1.51.91.11.11,0,0,1,1.63.79a.11.11,0,0,1,.12.12A.11.11,0,0,1,1.63,1Z"/></g></g></svg>