<svg xmlns="http://www.w3.org/2000/svg" viewBox="0 0 6.9 11.09"><defs><style>.cls-1{fill:#231f20;}</style></defs><g id="Layer_2" data-name="Layer 2"><g id="Layer_1-2" data-name="Layer 1"><path class="cls-1" d="M.12,2.77A.11.11,0,0,1,0,2.65a.11.11,0,0,1,.12-.12.11.11,0,0,1,.12.12A.11.11,0,0,1,.12,2.77Zm0,.45A.12.12,0,0,1,.12,3a.12.12,0,0,1,0,.24Zm0,.45a.12.12,0,1,1,0-.24.12.12,0,1,1,0,.24Zm0,.43a.12.12,0,0,1,0-.24.12.12,0,0,1,0,.24Zm0,.48a.12.12,0,1,1,0-.24.12.12,0,1,1,0,.24Zm0,.47a.12.12,0,0,1,0-.24.12.12,0,0,1,0,.24Zm0,.52a.12.12,0,1,1,0-.24.12.12,0,1,1,0,.24Zm0,.48a.12.12,0,0,1,0-.24.12.12,0,0,1,0,.24Zm0,.48a.12.12,0,0,1,0-.24.12.12,0,0,1,0,.24ZM.12,7a.12.12,0,1,1,0-.24A.12.12,0,1,1,.12,7Zm0,.48a.12.12,0,0,1,0-.24.12.12,0,0,1,0,.24Zm0,.48a.12.12,0,1,1,0-.24.12.12,0,1,1,0,.24Zm.1.47a.12.12,0,0,1,0-.24.12.12,0,0,1,0,.24Zm.13.46a.12.12,0,0,1,0-.24.12.12,0,0,1,0,.24Zm.18.45a.12.12,0,0,1,0-.24.12.12,0,0,1,0,.24Zm.23.43a.12.12,0,0,1,0-.24.12.12,0,0,1,0,.24Zm.27.38a.12.12,0,1,1,0-.24.12.12,0,1,1,0,.24Zm.34.32a.12.12,0,1,1,0-.24.12.12,0,1,1,0,.24Zm.41.26a.12.12,0,0,1,0-.24.12.12,0,1,1,0,.24Zm.43.18a.12.12,0,1,1,0-.24.12.12,0,0,1,0,.24ZM2.69.24A.11.11,0,0,1,2.57.12.11.11,0,0,1,2.69,0a.11.11,0,0,1,.12.12A.11.11,0,0,1,2.69.24Zm0,.4A.11.11,0,0,1,2.57.52.11.11,0,0,1,2.69.4a.11.11,0,0,1,.12.12A.11.11,0,0,1,2.69.64Zm0,.39A.11.11,0,0,1,2.57.91.11.11,0,0,1,2.69.79a.11.11,0,0,1,.12.12A.11.11,0,0,1,2.69,1Zm.06,10a.12.12,0,0,1,0-.24.12.12,0,0,1,0,.24Zm.48.06A.12.12,0,1,1,3.35,11,.11.11,0,0,1,3.23,11.08Zm.45,0A.12.12,0,1,1,3.8,11,.11.11,0,0,1,3.68,11.09ZM4.15,11a.12.12,0,1,1,.12-.12A.11.11,0,0,1,4.15,11ZM4.2.24A.11.11,0,0,1,4.08.12a.12.12,0,1,1,.24,0A.11.11,0,0,1,4.2.24Zm0,.4A.11.11,0,0,1,4.08.52a.12.12,0,1,1,.24,0A.11.11,0,0,1,4.2.64ZM4.2,1A.11.11,0,0,1,4.08.91a.12.12,0,1,1,.24,0A.11.11,0,0,1,4.2,1Zm.43,9.85a.12.12,0,1,1,.12-.12A.11.11,0,0,1,4.63,10.88Zm.43-.18a.12.12,0,1,1,.12-.12A.11.11,0,0,1,5.06,10.7Zm.41-.26a.12.12,0,1,1,.12-.12A.11.11,0,0,1,5.47,10.44Zm.34-.32A.12.12,0,1,1,5.93,10,.11.11,0,0,1,5.81,10.12Zm.27-.38a.12.12,0,1,1,.12-.12A.11.11,0,0,1,6.08,9.74Zm.23-.43a.12.12,0,1,1,.12-.12A.11.11,0,0,1,6.31,9.31Zm.18-.45a.12.12,0,1,1,.12-.12A.11.11,0,0,1,6.49,8.86Zm.13-.46a.12.12,0,1,1,.12-.12A.11.11,0,0,1,6.62,8.4Zm.1-.47a.12.12,0,1,1,.12-.12A.11.11,0,0,1,6.72,7.93Zm0-.48a.12.12,0,1,1,.12-.12A.11.11,0,0,1,6.76,7.45Zm0-4.68a.11.11,0,0,1-.12-.12.12.12,0,1,1,.24,0A.11.11,0,0,1,6.78,2.77Zm0,.45A.12.12,0,1,1,6.9,3.1.11.11,0,0,1,6.78,3.22Zm0,.45a.12.12,0,1,1,.12-.12A.11.11,0,0,1,6.78,3.67Zm0,.43A.12.12,0,1,1,6.9,4,.11.11,0,0,1,6.78,4.1Zm0,.48a.12.12,0,1,1,.12-.12A.11.11,0,0,1,6.78,4.58Zm0,.47a.12.12,0,1,1,.12-.12A.11.11,0,0,1,6.78,5.05Zm0,.52a.12.12,0,1,1,.12-.12A.11.11,0,0,1,6.78,5.57Zm0,.48a.12.12,0,1,1,.12-.12A.11.11,0,0,1,6.78,6.05Zm0,.48a.12.12,0,1,1,.12-.12A.11.11,0,0,1,6.78,6.53Zm0,.44a.12.12,0,1,1,.12-.12A.11.11,0,0,1,6.78,7Z"/></g></g></svg>