<svg xmlns="http://www.w3.org/2000/svg" viewBox="0 0 6.2 6.52"><defs><style>.cls-1{fill:#231f20;}</style></defs><g id="Layer_2" data-name="Layer 2"><g id="Layer_1-2" data-name="Layer 1"><path class="cls-1" d="M2.15,6.52a2.34,2.34,0,0,1-.85-.15A2,2,0,0,1,.61,6a2,2,0,0,1-.45-.63A1.91,1.91,0,0,1,0,4.52,1.77,1.77,0,0,1,.2,3.7a1.86,1.86,0,0,1,.55-.64,2.69,2.69,0,0,1,.85-.41A3.61,3.61,0,0,1,2.68,2.5a4.47,4.47,0,0,1,.82.07,3.31,3.31,0,0,1,.71.2V2.41a1.3,1.3,0,0,0-.35-1,1.5,1.5,0,0,0-1-.33,2.8,2.8,0,0,0-1,.18,4.68,4.68,0,0,0-1,.52L.35.8A4.69,4.69,0,0,1,3,0,3,3,0,0,1,5.07.67a2.42,2.42,0,0,1,.75,1.92v2a.56.56,0,0,0,.09.36A.41.41,0,0,0,6.2,5V6.4a4,4,0,0,1-.7.08,1.13,1.13,0,0,1-.71-.2.91.91,0,0,1-.3-.54l0-.35a2.74,2.74,0,0,1-1,.84A3,3,0,0,1,2.15,6.52ZM2.6,5.34a2.25,2.25,0,0,0,.78-.14A1.52,1.52,0,0,0,4,4.81a.58.58,0,0,0,.26-.45V3.64a3.74,3.74,0,0,0-.62-.18,3.74,3.74,0,0,0-.65-.06,1.69,1.69,0,0,0-1,.28.85.85,0,0,0-.4.71.87.87,0,0,0,.32.68A1.1,1.1,0,0,0,2.6,5.34Z"/></g></g></svg>