<svg xmlns="http://www.w3.org/2000/svg" viewBox="0 0 6.52 8.88"><defs><style>.cls-1{fill:#231f20;}</style></defs><g id="Layer_2" data-name="Layer 2"><g id="Layer_1-2" data-name="Layer 1"><path class="cls-1" d="M3.58,8.88a2.62,2.62,0,0,1-1.29-.32,2.53,2.53,0,0,1-.89-.89V8.76H0V0H1.61V3.58a2.38,2.38,0,0,1,.88-.9,2.51,2.51,0,0,1,1.28-.32,2.28,2.28,0,0,1,1.11.27,2.59,2.59,0,0,1,.87.71,3,3,0,0,1,.57,1,4.05,4.05,0,0,1,.2,1.26,3.5,3.5,0,0,1-.23,1.27,3.13,3.13,0,0,1-.61,1,3,3,0,0,1-.94.69A2.69,2.69,0,0,1,3.58,8.88ZM3.13,7.51a1.67,1.67,0,0,0,.71-.15A1.59,1.59,0,0,0,4.39,7a2,2,0,0,0,.36-.59,2.09,2.09,0,0,0,.12-.72,2.24,2.24,0,0,0-.12-.73,1.82,1.82,0,0,0-.34-.61,1.61,1.61,0,0,0-.52-.42,1.34,1.34,0,0,0-.66-.16,1.48,1.48,0,0,0-1,.36A2.27,2.27,0,0,0,1.61,5v1.5a1.4,1.4,0,0,0,.24.43,1.65,1.65,0,0,0,.37.33,1.78,1.78,0,0,0,.44.21A1.33,1.33,0,0,0,3.13,7.51Z"/></g></g></svg>