<svg xmlns="http://www.w3.org/2000/svg" viewBox="0 0 6.18 6.52"><defs><style>.cls-1{fill:#231f20;}</style></defs><g id="Layer_2" data-name="Layer 2"><g id="Layer_1-2" data-name="Layer 1"><path class="cls-1" d="M0,3.25A3.51,3.51,0,0,1,.23,2,3,3,0,0,1,.89,1a3.36,3.36,0,0,1,1-.71A3.57,3.57,0,0,1,3.31,0,3.35,3.35,0,0,1,5.07.44,2.91,2.91,0,0,1,6.16,1.61l-1.58.48A1.4,1.4,0,0,0,4,1.55a1.53,1.53,0,0,0-.74-.18,1.44,1.44,0,0,0-.65.14,1.62,1.62,0,0,0-.52.38,1.81,1.81,0,0,0-.35.59,2.39,2.39,0,0,0-.12.77A2.11,2.11,0,0,0,1.79,4a2,2,0,0,0,.35.6A1.52,1.52,0,0,0,2.66,5a1.57,1.57,0,0,0,.64.14,1.51,1.51,0,0,0,.8-.22,1.23,1.23,0,0,0,.51-.53l1.57.48A2.64,2.64,0,0,1,5.11,6.06a3.38,3.38,0,0,1-1.79.46,3.4,3.4,0,0,1-1.38-.27,3.15,3.15,0,0,1-1-.71,3.2,3.2,0,0,1-.67-1A3.45,3.45,0,0,1,0,3.25Z"/></g></g></svg>