<svg xmlns="http://www.w3.org/2000/svg" viewBox="0 0 6.91 8.88"><defs><style>.cls-1{fill:#231f20;}</style></defs><g id="Layer_2" data-name="Layer 2"><g id="Layer_1-2" data-name="Layer 1"><path class="cls-1" d="M3,8.88a2.84,2.84,0,0,1-1.2-.25,2.76,2.76,0,0,1-.95-.7,3.27,3.27,0,0,1-.62-1A3.53,3.53,0,0,1,0,5.62,3.82,3.82,0,0,1,.21,4.34a3.35,3.35,0,0,1,.58-1,2.71,2.71,0,0,1,.89-.69,2.5,2.5,0,0,1,1.13-.26,2.41,2.41,0,0,1,1.25.34,2.44,2.44,0,0,1,.87.88V0H6.54V6.91a.64.64,0,0,0,.08.36.41.41,0,0,0,.29.12V8.76a3.3,3.3,0,0,1-.68.08,1.13,1.13,0,0,1-.71-.21.8.8,0,0,1-.31-.57l0-.39a2.2,2.2,0,0,1-.94.9A2.62,2.62,0,0,1,3,8.88Zm.42-1.37a1.33,1.33,0,0,0,.47-.08,1.51,1.51,0,0,0,.44-.22,1.94,1.94,0,0,0,.37-.33,1.47,1.47,0,0,0,.24-.42V5a1.57,1.57,0,0,0-.27-.49,1.75,1.75,0,0,0-.39-.38,2,2,0,0,0-.47-.26,1.26,1.26,0,0,0-.49-.1,1.34,1.34,0,0,0-.66.16,1.54,1.54,0,0,0-.53.42,2.22,2.22,0,0,0-.45,1.34,1.9,1.9,0,0,0,.13.73A2,2,0,0,0,2.16,7a1.59,1.59,0,0,0,.55.4A1.75,1.75,0,0,0,3.41,7.51Z"/></g></g></svg>