<svg xmlns="http://www.w3.org/2000/svg" viewBox="0 0 6.53 9.07"><defs><style>.cls-1{fill:#231f20;}</style></defs><g id="Layer_2" data-name="Layer 2"><g id="Layer_1-2" data-name="Layer 1"><path class="cls-1" d="M2.83,6.43a2.55,2.55,0,0,1-1.15-.25,2.85,2.85,0,0,1-.89-.69,3.09,3.09,0,0,1-.59-1A3.87,3.87,0,0,1,0,3.25,3.53,3.53,0,0,1,.22,2a3.1,3.1,0,0,1,.6-1,2.65,2.65,0,0,1,.92-.7A2.76,2.76,0,0,1,2.93,0,2.44,2.44,0,0,1,4.21.33a2.73,2.73,0,0,1,.91.88V.11H6.53v6a2.76,2.76,0,0,1-.27,1.24,2.66,2.66,0,0,1-.72.94,3.27,3.27,0,0,1-1.11.59A4.71,4.71,0,0,1,3,9.07,3.94,3.94,0,0,1,1.3,8.73a3.41,3.41,0,0,1-1.2-1L1,6.91a2.44,2.44,0,0,0,.91.7A2.69,2.69,0,0,0,3,7.86a2.44,2.44,0,0,0,.71-.1,1.87,1.87,0,0,0,.61-.32,1.53,1.53,0,0,0,.41-.55,2,2,0,0,0,.15-.79V5.3A2.16,2.16,0,0,1,4,6.14,2.63,2.63,0,0,1,2.83,6.43Zm.54-1.28a1.44,1.44,0,0,0,.51-.09,1.81,1.81,0,0,0,.44-.22,1.67,1.67,0,0,0,.36-.34,1.69,1.69,0,0,0,.24-.41V2.59a1.94,1.94,0,0,0-.68-.89,1.64,1.64,0,0,0-1-.33,1.39,1.39,0,0,0-.68.16A1.63,1.63,0,0,0,2.09,2a1.76,1.76,0,0,0-.33.62,2.18,2.18,0,0,0-.12.72A1.89,1.89,0,0,0,1.78,4a1.87,1.87,0,0,0,.36.59A1.63,1.63,0,0,0,2.69,5,1.54,1.54,0,0,0,3.37,5.15Z"/></g></g></svg>