<svg xmlns="http://www.w3.org/2000/svg" viewBox="0 0 5.84 8.76"><defs><style>.cls-1{fill:#231f20;}</style></defs><g id="Layer_2" data-name="Layer 2"><g id="Layer_1-2" data-name="Layer 1"><path class="cls-1" d="M5.84,8.76H4.24V5.23A1.83,1.83,0,0,0,4,4.13a.93.93,0,0,0-.78-.35,1.16,1.16,0,0,0-.46.1,1.5,1.5,0,0,0-.45.27,2,2,0,0,0-.4.41,1.54,1.54,0,0,0-.26.53V8.76H0V0H1.61V3.64a2.39,2.39,0,0,1,.94-1,2.66,2.66,0,0,1,1.31-.33,2.09,2.09,0,0,1,1,.21,1.55,1.55,0,0,1,.6.56,2.49,2.49,0,0,1,.3.79,4.63,4.63,0,0,1,.08.92Z"/></g></g></svg>