<svg xmlns="http://www.w3.org/2000/svg" viewBox="0 0 9.77 6.4"><defs><style>.cls-1{fill:#231f20;}</style></defs><g id="Layer_2" data-name="Layer 2"><g id="Layer_1-2" data-name="Layer 1"><path class="cls-1" d="M9.77,6.4H8.16V2.87A1.91,1.91,0,0,0,7.9,1.76a.83.83,0,0,0-.71-.34,1.36,1.36,0,0,0-.9.36,2,2,0,0,0-.6,1V6.4H4.08V2.87a1.91,1.91,0,0,0-.26-1.11.83.83,0,0,0-.71-.34,1.4,1.4,0,0,0-.9.36,2,2,0,0,0-.6.94V6.4H0V.11H1.45V1.27a2.35,2.35,0,0,1,1-.94A2.82,2.82,0,0,1,3.79,0,1.83,1.83,0,0,1,5,.38a1.8,1.8,0,0,1,.55,1,2.71,2.71,0,0,1,1-1A2.59,2.59,0,0,1,7.88,0a1.81,1.81,0,0,1,1,.22,1.56,1.56,0,0,1,.58.56,2.47,2.47,0,0,1,.28.79,5.47,5.47,0,0,1,.08.9Z"/></g></g></svg>