<svg xmlns="http://www.w3.org/2000/svg" viewBox="0 0 5.84 6.4"><defs><style>.cls-1{fill:#231f20;}</style></defs><g id="Layer_2" data-name="Layer 2"><g id="Layer_1-2" data-name="Layer 1"><path class="cls-1" d="M5.84,6.4H4.24V2.87A1.83,1.83,0,0,0,4,1.76a.86.86,0,0,0-.73-.34,1.46,1.46,0,0,0-.49.09,2.27,2.27,0,0,0-.48.27,2.67,2.67,0,0,0-.4.42,1.5,1.5,0,0,0-.26.52V6.4H0V.11H1.45V1.27a2.34,2.34,0,0,1,1-.93A3.17,3.17,0,0,1,4,0a1.84,1.84,0,0,1,1,.22,1.46,1.46,0,0,1,.57.56,2.48,2.48,0,0,1,.29.79,5.46,5.46,0,0,1,.07.9Z"/></g></g></svg>