<svg xmlns="http://www.w3.org/2000/svg" viewBox="0 0 6.59 6.52"><defs><style>.cls-1{fill:#231f20;}</style></defs><g id="Layer_2" data-name="Layer 2"><g id="Layer_1-2" data-name="Layer 1"><path class="cls-1" d="M3.3,6.52a3.4,3.4,0,0,1-1.38-.27,3.05,3.05,0,0,1-1-.71,3.2,3.2,0,0,1-.65-1A3.46,3.46,0,0,1,.23,2,3.1,3.1,0,0,1,.88,1a3.22,3.22,0,0,1,1-.72A3.57,3.57,0,0,1,3.3,0,3.49,3.49,0,0,1,4.67.26a3.22,3.22,0,0,1,1,.72,3.1,3.1,0,0,1,.65,1,3.46,3.46,0,0,1,0,2.48,3.2,3.2,0,0,1-.65,1,2.92,2.92,0,0,1-1,.71A3.4,3.4,0,0,1,3.3,6.52ZM1.66,3.26A2.35,2.35,0,0,0,1.78,4a2,2,0,0,0,.35.59A1.52,1.52,0,0,0,2.65,5,1.58,1.58,0,0,0,4,5a1.52,1.52,0,0,0,.52-.39A2,2,0,0,0,4.82,4a2.35,2.35,0,0,0,.12-.77,2.27,2.27,0,0,0-.12-.75,1.76,1.76,0,0,0-.35-.6A1.52,1.52,0,0,0,4,1.51a1.44,1.44,0,0,0-.65-.14,1.58,1.58,0,0,0-.65.14,1.68,1.68,0,0,0-.52.4,2,2,0,0,0-.35.6A2.27,2.27,0,0,0,1.66,3.26Z"/></g></g></svg>