<svg xmlns="http://www.w3.org/2000/svg" viewBox="0 0 6.52 8.95"><defs><style>.cls-1{fill:#231f20;}</style></defs><g id="Layer_2" data-name="Layer 2"><g id="Layer_1-2" data-name="Layer 1"><path class="cls-1" d="M3.77,6.52a2.49,2.49,0,0,1-1.3-.33,2.33,2.33,0,0,1-.86-.9V9H0V.11H1.4V1.19A2.67,2.67,0,0,1,2.3.32,2.56,2.56,0,0,1,3.58,0,2.71,2.71,0,0,1,4.75.26,2.9,2.9,0,0,1,5.68,1a3.17,3.17,0,0,1,.61,1,3.47,3.47,0,0,1,.23,1.25,3.82,3.82,0,0,1-.21,1.28,3.13,3.13,0,0,1-.57,1.05,2.54,2.54,0,0,1-.87.69A2.38,2.38,0,0,1,3.77,6.52ZM3.23,5.15A1.34,1.34,0,0,0,3.89,5a1.54,1.54,0,0,0,.53-.42A2,2,0,0,0,4.75,4a2.18,2.18,0,0,0,.12-.72,2,2,0,0,0-.13-.74,1.79,1.79,0,0,0-.37-.59,1.69,1.69,0,0,0-.55-.4,1.74,1.74,0,0,0-.69-.14,1.33,1.33,0,0,0-.47.08,1.51,1.51,0,0,0-.44.22A1.94,1.94,0,0,0,1.85,2a1.47,1.47,0,0,0-.24.42V3.9a2,2,0,0,0,.66.89A1.47,1.47,0,0,0,3.23,5.15Z"/></g></g></svg>