<svg xmlns="http://www.w3.org/2000/svg" viewBox="0 0 6.95 8.94"><defs><style>.cls-1{fill:#231f20;}</style></defs><g id="Layer_2" data-name="Layer 2"><g id="Layer_1-2" data-name="Layer 1"><path class="cls-1" d="M2.75,6.52a2.45,2.45,0,0,1-1.11-.26,2.92,2.92,0,0,1-.87-.7,3.6,3.6,0,0,1-.57-1A4.09,4.09,0,0,1,0,3.24,3.49,3.49,0,0,1,.22,2a3.33,3.33,0,0,1,.62-1A2.94,2.94,0,0,1,1.78.25,2.66,2.66,0,0,1,2.94,0,2.43,2.43,0,0,1,4.21.33a2.68,2.68,0,0,1,.9.87V.11H6.52V7a.57.57,0,0,0,.09.37A.57.57,0,0,0,7,7.5V8.87l-.45.05-.43,0a1.33,1.33,0,0,1-.45-.08,1.31,1.31,0,0,1-.36-.23A1.23,1.23,0,0,1,5,8.29a1.08,1.08,0,0,1-.09-.44V5.29a2.28,2.28,0,0,1-.9.92A2.61,2.61,0,0,1,2.75,6.52Zm.6-1.37a1.49,1.49,0,0,0,.9-.29,2.8,2.8,0,0,0,.66-.74V2.63a1.49,1.49,0,0,0-.24-.49,1.81,1.81,0,0,0-.37-.41,2.2,2.2,0,0,0-.47-.27,1.52,1.52,0,0,0-.51-.09,1.5,1.5,0,0,0-.67.15A1.7,1.7,0,0,0,2.12,2a2,2,0,0,0-.35.62,2.18,2.18,0,0,0-.13.72A2.15,2.15,0,0,0,1.77,4a1.85,1.85,0,0,0,.35.59A1.46,1.46,0,0,0,2.65,5,1.6,1.6,0,0,0,3.35,5.15Z"/></g></g></svg>