<svg xmlns="http://www.w3.org/2000/svg" viewBox="0 0 5.39 6.53"><defs><style>.cls-1{fill:#231f20;}</style></defs><g id="Layer_2" data-name="Layer 2"><g id="Layer_1-2" data-name="Layer 1"><path class="cls-1" d="M2.84,6.53A5.07,5.07,0,0,1,1.3,6.28,3.81,3.81,0,0,1,0,5.56l.6-1a5.26,5.26,0,0,0,1.12.62,3.05,3.05,0,0,0,1.09.21,1.34,1.34,0,0,0,.75-.18.58.58,0,0,0,.28-.52.52.52,0,0,0-.32-.49,6,6,0,0,0-1.06-.36,10,10,0,0,1-1-.33,2.68,2.68,0,0,1-.7-.35,1.11,1.11,0,0,1-.38-.46,1.41,1.41,0,0,1-.12-.61A2.05,2.05,0,0,1,.4,1.21,2,2,0,0,1,.92.56,2.6,2.6,0,0,1,1.71.14a3.41,3.41,0,0,1,1-.14A4.34,4.34,0,0,1,4,.2,3.37,3.37,0,0,1,5.15.86l-.65,1a3.71,3.71,0,0,0-.93-.53,2.6,2.6,0,0,0-.89-.17A1.33,1.33,0,0,0,2,1.31a.58.58,0,0,0-.27.54.54.54,0,0,0,.06.27.67.67,0,0,0,.21.2,2.41,2.41,0,0,0,.38.16L3,2.64A10,10,0,0,1,4.06,3a3.16,3.16,0,0,1,.76.38,1.36,1.36,0,0,1,.43.5,1.55,1.55,0,0,1,.14.68A1.73,1.73,0,0,1,4.7,6,2.9,2.9,0,0,1,2.84,6.53Z"/></g></g></svg>