<svg xmlns="http://www.w3.org/2000/svg" viewBox="0 0 6.26 6.41"><defs><style>.cls-1{fill:#231f20;}</style></defs><g id="Layer_2" data-name="Layer 2"><g id="Layer_1-2" data-name="Layer 1"><path class="cls-1" d="M2,6.41A1.79,1.79,0,0,1,.5,5.78,2.9,2.9,0,0,1,0,3.94V0H1.61V3.59c0,1,.35,1.45,1,1.45a1.65,1.65,0,0,0,.91-.28,2,2,0,0,0,.71-.86V0H5.88V4.44A.56.56,0,0,0,6,4.8a.41.41,0,0,0,.29.12V6.29l-.4.06H5.57a1.16,1.16,0,0,1-.7-.2.76.76,0,0,1-.32-.54l0-.51a2.65,2.65,0,0,1-1.08,1A3.19,3.19,0,0,1,2,6.41Z"/></g></g></svg>