<svg xmlns="http://www.w3.org/2000/svg" viewBox="0 0 5.84 8.76"><defs><style>.cls-1{fill:#231f20;}</style></defs><g id="Layer_2" data-name="Layer 2"><g id="Layer_1-2" data-name="Layer 1"><path class="cls-1" d="M5.84,8.76H4.24V5.23A1.8,1.8,0,0,0,4,4.13a.87.87,0,0,0-.73-.35,1.26,1.26,0,0,0-.49.1,1.64,1.64,0,0,0-.48.27,2.23,2.23,0,0,0-.4.41,1.54,1.54,0,0,0-.26.53V8.76H0V2.47H1.45V3.64a2.36,2.36,0,0,1,1-.94A3.3,3.3,0,0,1,4,2.36a2,2,0,0,1,1,.22,1.46,1.46,0,0,1,.57.56,2.54,2.54,0,0,1,.29.8,5.29,5.29,0,0,1,.07.9Zm-2-7.22a1.14,1.14,0,0,1-.48-.09A2.69,2.69,0,0,1,3,1.27l-.35-.19A.8.8,0,0,0,2.24,1a.48.48,0,0,0-.31.08.64.64,0,0,0-.18.19.6.6,0,0,0-.07.2.58.58,0,0,0,0,.1H.78a1.43,1.43,0,0,1,.07-.36A1.87,1.87,0,0,1,1.09.69,1.69,1.69,0,0,1,1.52.23,1.09,1.09,0,0,1,2.18,0a1.14,1.14,0,0,1,.48.09L3,.32l.35.19A.8.8,0,0,0,3.77.6.66.66,0,0,0,4.11.52.6.6,0,0,0,4.3.32a.69.69,0,0,0,.09-.2A.68.68,0,0,0,4.4,0h.89a1.41,1.41,0,0,1-.07.34A1.85,1.85,0,0,1,5,.85a1.7,1.7,0,0,1-.45.48A1.14,1.14,0,0,1,3.82,1.54Z"/></g></g></svg>