<svg xmlns="http://www.w3.org/2000/svg" viewBox="0 0 8.32 10.97"><defs><style>.cls-1{fill:#231f20;}</style></defs><g id="Layer_2" data-name="Layer 2"><g id="Layer_1-2" data-name="Layer 1"><path class="cls-1" d="M4.15,11a3.82,3.82,0,0,1-1.7-.37,4.18,4.18,0,0,1-1.3-1A4.3,4.3,0,0,1,.3,8.24,4.4,4.4,0,0,1,0,6.65,4.3,4.3,0,0,1,.32,5a4.49,4.49,0,0,1,.87-1.38,4.4,4.4,0,0,1,1.33-1,4,4,0,0,1,1.67-.35,3.61,3.61,0,0,1,1.68.38,4.16,4.16,0,0,1,1.31,1A4.46,4.46,0,0,1,8,5.09a4.38,4.38,0,0,1,.3,1.58A4.3,4.3,0,0,1,8,8.3a4.35,4.35,0,0,1-.86,1.37,4.18,4.18,0,0,1-1.32.94A3.88,3.88,0,0,1,4.15,11ZM1.68,6.65a3.52,3.52,0,0,0,.17,1.07,2.94,2.94,0,0,0,.48.91,2.64,2.64,0,0,0,.78.63,2.26,2.26,0,0,0,1.05.24,2.31,2.31,0,0,0,1.07-.24A2.59,2.59,0,0,0,6,8.6a2.94,2.94,0,0,0,.48-.91,3.7,3.7,0,0,0,.16-1,3.21,3.21,0,0,0-.18-1.07A2.85,2.85,0,0,0,6,4.67,2.17,2.17,0,0,0,5.2,4a2.21,2.21,0,0,0-1-.24,2.27,2.27,0,0,0-1.06.25,2.16,2.16,0,0,0-.78.65,2.94,2.94,0,0,0-.48.91A3.37,3.37,0,0,0,1.68,6.65Zm.67-5.22V0H3.68V1.43Zm2.31,0V0H6V1.43Z"/></g></g></svg>