<svg xmlns="http://www.w3.org/2000/svg" viewBox="0 0 7.45 10.97"><defs><style>.cls-1{fill:#231f20;}</style></defs><g id="Layer_2" data-name="Layer 2"><g id="Layer_1-2" data-name="Layer 1"><path class="cls-1" d="M3.72,9.5a1.91,1.91,0,0,0,1-.24,1.93,1.93,0,0,0,.65-.62,2.75,2.75,0,0,0,.35-.88,5.8,5.8,0,0,0,.1-1V2.39H7.45V6.73a6.27,6.27,0,0,1-.21,1.65,3.74,3.74,0,0,1-.66,1.34,3.1,3.1,0,0,1-1.16.91A3.8,3.8,0,0,1,3.73,11,3.78,3.78,0,0,1,2,10.61,3.15,3.15,0,0,1,.84,9.68,3.67,3.67,0,0,1,.2,8.33,6.49,6.49,0,0,1,0,6.73V2.39H1.66V6.73a5,5,0,0,0,.1,1,2.46,2.46,0,0,0,.35.88,1.81,1.81,0,0,0,.64.62A1.83,1.83,0,0,0,3.72,9.5ZM1.91,1.43V0H3.24V1.43Zm2.3,0V0H5.54V1.43Z"/></g></g></svg>